<?xml version="1.0" encoding="utf-8"?>
<!-- Generator: Adobe Illustrator 25.0.0, SVG Export Plug-In . SVG Version: 6.00 Build 0)  -->
<svg version="1.1" id="Laag_1" xmlns="http://www.w3.org/2000/svg" xmlns:xlink="http://www.w3.org/1999/xlink" x="0px" y="0px"
	 viewBox="0 0 243.1 36" style="enable-background:new 0 0 243.1 36;" xml:space="preserve">
<style type="text/css">
	.st0{display:none;}
	.st1{display:inline;}
	.st2{fill:#59B3AB;}
	.st3{fill:#FFFFFF;}
	.st4{fill:#DA5241;}
</style>
<g class="st0">
	<g class="st1">
		<g>
			<path class="st2" d="M-0.8,30.5c-0.8,0-1.5-0.7-1.5-1.5V5.5C-2.3,4.7-1.6,4-0.8,4h14.7c0.8,0,1.5,0.7,1.5,1.5V10
				c0,0.8-0.7,1.5-1.5,1.5H5.3v2.3h7.2c0.8,0,1.5,0.7,1.5,1.5v4.5c0,0.8-0.7,1.5-1.5,1.5H5.3V29c0,0.8-0.7,1.5-1.5,1.5H-0.8z"/>
			<path class="st3" d="M13.9,5.5V10H3.8v5.3h8.7v4.5H3.8V29h-4.6V5.5H13.9 M13.9,2.5H-0.8c-1.7,0-3,1.3-3,3V29c0,1.7,1.3,3,3,3h4.6
				c1.7,0,3-1.3,3-3v-6.2h5.7c1.7,0,3-1.3,3-3v-4.5c0-0.9-0.4-1.8-1.1-2.3c1.4-0.2,2.5-1.5,2.5-3V5.5C16.9,3.8,15.6,2.5,13.9,2.5
				L13.9,2.5z"/>
		</g>
		<g>
			<path class="st2" d="M22.2,30.9c-1.5,0-2.9-0.3-4.2-1c-1.3-0.6-2.4-1.6-3.1-3c-0.7-1.3-1.1-3-1.1-4.9s0.4-3.4,1.2-4.9
				s2-2.5,2.9-3.2c0,0,0.1,0,0.1-0.1c1.2-0.7,2.6-1.1,4.1-1.1c1.7,0,3,0.3,4,0.9c0.1,0.1,0.1,0.1,0.2,0.2c0.3-0.2,0.6-0.4,1-0.4h4.2
				c0.8,0,1.5,0.7,1.5,1.5v14c0,0.8-0.7,1.5-1.5,1.5h-4.6c-0.4,0-0.7-0.1-1-0.3c-0.2,0.1-0.3,0.2-0.5,0.2l-0.3,0.1
				c-0.7,0.3-1.4,0.4-1.9,0.4C23.1,30.9,22.4,30.9,22.2,30.9z M22.1,23.9c0.7,0.2,1.1,0.4,1.4,0.4c0.2,0,0.5,0,0.9-0.1
				c0.2-0.1,0.5-0.2,0.6-0.3c0.1-0.1,0.3-0.3,0.4-0.5v-2.8c-0.1-0.2-0.1-0.3-0.2-0.3c-0.1,0-0.1-0.1-0.2-0.1
				c-0.2-0.2-0.4-0.4-0.7-0.5s-0.6-0.2-1-0.2c-0.3,0-0.6,0.1-1.1,0.3c-0.3,0.2-0.5,0.5-0.7,0.8c-0.2,0.5-0.3,0.9-0.3,1.3
				s0.1,0.9,0.3,1.3C21.6,23.5,21.8,23.8,22.1,23.9z"/>
			<path class="st3" d="M22.1,14.3c1.4,0,2.4,0.2,3.2,0.7c0.7,0.5,1.2,0.9,1.7,1.4L26.9,17l0.2-0.5L27,16.4l0.3-1.4h4.2v14h-4.6
				v-1.6c0.2-0.3,0.4-0.4,0.4-0.4l-0.4-1v1.4c-0.2,0.2-0.5,0.5-0.9,0.9s-0.9,0.6-1.5,0.9c-0.4,0.2-0.8,0.2-1.3,0.2c-0.3,0-0.7,0-1,0
				c-1.3,0-2.5-0.3-3.5-0.8c-1.1-0.5-1.9-1.3-2.5-2.4s-0.9-2.5-0.9-4.2c0-1.6,0.3-2.9,1-4.1c0.6-1.2,1.5-2,2.5-2.7
				C19.8,14.6,21,14.3,22.1,14.3 M23.5,25.8c0.5,0,1-0.1,1.4-0.2c0.4-0.2,0.8-0.4,1.1-0.7c0.3-0.3,0.6-0.7,0.8-1.2v-3.4
				c-0.2-0.5-0.4-0.9-0.8-1.2c-0.3-0.3-0.7-0.6-1.2-0.8c-0.5-0.2-1-0.3-1.6-0.3s-1.2,0.2-1.8,0.5c-0.5,0.3-1,0.8-1.3,1.4
				s-0.5,1.2-0.5,2c0,0.7,0.2,1.4,0.5,2s0.8,1.1,1.4,1.4C22.3,25.6,22.9,25.8,23.5,25.8 M22.1,11.3c-1.7,0-3.4,0.5-4.8,1.3
				c-0.1,0-0.1,0.1-0.2,0.1c-1.1,0.8-2.5,1.9-3.4,3.7c-0.9,1.6-1.4,3.4-1.4,5.5c0,2.2,0.4,4.1,1.3,5.6c0.9,1.7,2.2,2.9,3.8,3.7
				c1.4,0.7,3.1,1.1,4.8,1.1c0.2,0,0.3,0,0.5,0s0.4,0,0.6,0c0.7,0,1.7-0.1,2.6-0.5H26c0.3,0.1,0.6,0.2,1,0.2h4.6c1.7,0,3-1.3,3-3V15
				c0-1.7-1.3-3-3-3h-4.2c-0.3,0-0.6,0.1-0.9,0.2C25.2,11.6,23.9,11.3,22.1,11.3L22.1,11.3z M22.9,21.1c0.2-0.1,0.3-0.1,0.3-0.1
				c0.2,0,0.3,0,0.5,0.1c0,0,0.1,0,0.1,0.1v1.6c-0.1,0-0.2,0-0.3,0s-0.5-0.1-0.7-0.2l0,0c-0.1-0.2-0.2-0.5-0.2-0.7s0-0.3,0.2-0.7
				C22.8,21.2,22.8,21.2,22.9,21.1L22.9,21.1z"/>
		</g>
		<g>
			<path class="st2" d="M42.9,30.9c-1.8,0-3.4-0.3-4.8-1c-1.5-0.6-2.7-1.7-3.5-3.1c-0.8-1.3-1.2-2.9-1.2-4.8c0-1.8,0.4-3.4,1.3-4.8
				c0.8-1.3,2-2.3,3.4-3c1.3-0.7,2.7-1.1,4.3-1.1c1.4,0,2.6,0.2,3.8,0.6c1.2,0.4,2.1,1,2.8,1.5c0.3,0.2,0.6,0.6,0.6,1
				c0.1,0.4,0,0.8-0.3,1.1l-2.2,2.9c-0.3,0.4-0.7,0.6-1.2,0.6c-0.3,0-0.6-0.1-0.8-0.3l-0.2-0.1c-0.2-0.2-0.5-0.3-0.8-0.4
				c-0.4-0.2-0.8-0.3-1.2-0.3c-0.3,0-0.6,0.1-0.9,0.3c-0.1,0.1-0.4,0.3-0.7,0.7c-0.2,0.3-0.2,0.7-0.2,1.2c0,0.4,0.1,0.8,0.3,1.2
				c0.1,0.3,0.4,0.5,0.8,0.8c0.4,0.2,0.8,0.3,1.2,0.3c0.3,0,0.5-0.1,0.9-0.1h0.2c0.1,0,0.2-0.1,0.3-0.2c0.3-0.3,0.7-0.4,1.1-0.4H46
				c0.4,0,0.8,0.3,1.1,0.6l2,2.9c0.4,0.6,0.3,1.5-0.3,2c-0.7,0.6-1.7,1.1-2.8,1.5C45.1,30.7,44.1,30.9,42.9,30.9z"/>
			<path class="st3" d="M42.4,14.6c1.3,0,2.4,0.2,3.3,0.5s1.7,0.8,2.4,1.3l-2.2,2.9c-0.3-0.2-0.7-0.5-1.2-0.7s-1.1-0.4-1.8-0.4
				c-0.6,0-1.2,0.2-1.7,0.5S40.3,19.5,40,20c-0.3,0.6-0.4,1.2-0.4,1.9c0,0.7,0.2,1.3,0.5,1.9s0.8,1,1.3,1.4c0.6,0.3,1.2,0.5,2,0.5
				c0.5,0,0.9-0.1,1.4-0.2c0.4-0.1,0.8-0.3,1.1-0.6l2,2.9c-0.6,0.5-1.4,0.9-2.3,1.2s-1.8,0.4-2.7,0.4c-1.6,0-3-0.3-4.2-0.9
				c-1.2-0.5-2.2-1.4-2.8-2.5c-0.7-1.1-1-2.4-1-4s0.4-2.9,1.1-4s1.6-1.9,2.8-2.5C39.9,14.9,41.1,14.6,42.4,14.6 M42.4,11.6
				c-1.8,0-3.5,0.4-5,1.2c-1.7,0.8-3,2-3.9,3.5c-1.1,1.7-1.6,3.6-1.6,5.7c0,2.2,0.5,4,1.4,5.5c0.9,1.6,2.4,2.9,4.1,3.7
				c1.6,0.8,3.4,1.2,5.5,1.2c1.3,0,2.5-0.2,3.6-0.6c1.3-0.4,2.4-1,3.3-1.7c1.2-1,1.4-2.7,0.5-4l-2-2.9c-0.3-0.5-0.8-0.9-1.4-1.1
				c0.5-0.2,1-0.5,1.3-1l2.2-2.9c0.5-0.6,0.7-1.5,0.6-2.3c-0.1-0.8-0.6-1.5-1.2-2c-0.7-0.5-1.8-1.3-3.2-1.7
				C45.3,11.8,43.9,11.6,42.4,11.6L42.4,11.6z M42.8,21.2c0.1,0,0.1,0,0.1-0.1c0.2,0,0.4,0.1,0.7,0.2c0.1,0,0.3,0.2,0.5,0.3l0.2,0.1
				c0.2,0.1,0.4,0.2,0.6,0.3c-0.3,0.1-0.6,0.3-0.9,0.5c-0.3,0.1-0.4,0.1-0.6,0.1c-0.1,0-0.3,0-0.4-0.1s-0.2-0.2-0.2-0.2
				c-0.2-0.3-0.2-0.5-0.2-0.5c0-0.3,0-0.4,0-0.5C42.7,21.3,42.8,21.3,42.8,21.2L42.8,21.2z"/>
		</g>
		<g>
			<path class="st2" d="M52.6,30.6c-0.8,0-1.5-0.7-1.5-1.5V20h-0.7c-0.8,0-1.5-0.7-1.5-1.5V15c0-0.8,0.7-1.5,1.5-1.5h0.7V8.9
				c0-0.8,0.7-1.5,1.5-1.5h4.5c0.8,0,1.5,0.7,1.5,1.5v4.6h1.9c0.8,0,1.5,0.7,1.5,1.5v3.5c0,0.8-0.7,1.5-1.5,1.5h-1.9v9.1
				c0,0.8-0.7,1.5-1.5,1.5H52.6z"/>
			<path class="st3" d="M57.1,8.9V15h3.4v3.5h-3.4v10.6h-4.5V18.5h-2.2V15h2.2V8.9H57.1 M57.1,5.9h-4.5c-1.7,0-3,1.3-3,3v3.2
				c-1.3,0.4-2.2,1.5-2.2,2.9v3.5c0,1.4,0.9,2.5,2.2,2.9v7.7c0,1.7,1.3,3,3,3h4.5c1.7,0,3-1.3,3-3v-7.6h0.4c1.7,0,3-1.3,3-3V15
				c0-1.7-1.3-3-3-3h-0.4V8.9C60.1,7.2,58.8,5.9,57.1,5.9L57.1,5.9z"/>
		</g>
	</g>
	<g class="st1">
		<g>
			<path d="M77.3,31.4c-1.8,0-3.4-0.4-4.8-1.1s-2.5-1.7-3.4-3.1s-1.3-3.1-1.3-4.9s0.4-3.3,1.2-4.6c0.9-1.3,1.9-2.4,3.3-3.2
				s3-1.2,5-1.2s3.6,0.4,5,1.2c1.6,0.9,2.6,2,3.3,3.3c0.7,1.4,1.1,2.9,1.1,4.5s-0.4,3.2-1.1,4.6s-1.7,2.4-3.3,3.3
				C80.9,31,79.2,31.4,77.3,31.4z M75.6,21c-0.2,0.5-0.3,0.9-0.3,1.4c0,0.6,0.1,1,0.2,1.3c0.2,0.4,0.4,0.7,0.6,0.8
				c0.3,0.2,0.6,0.3,0.9,0.3c0.4,0,0.7-0.1,1-0.3c0.2-0.1,0.4-0.4,0.6-0.8c0.1-0.3,0.2-0.6,0.2-1.3c0-0.6-0.1-1-0.2-1.3
				s-0.3-0.5-0.7-0.8c-0.3-0.2-0.6-0.2-0.9-0.2s-0.6,0.1-0.9,0.3C76,20.4,75.8,20.7,75.6,21z"/>
			<path class="st3" d="M77.3,14.8c1.6,0,3,0.3,4.2,1c1.2,0.7,2.1,1.5,2.7,2.7s0.9,2.4,0.9,3.8s-0.3,2.7-0.9,3.9
				c-0.6,1.2-1.5,2-2.7,2.7s-2.6,1-4.2,1c-1.5,0-2.9-0.3-4.1-0.9s-2.1-1.5-2.8-2.6c-0.7-1.1-1.1-2.5-1.1-4.1c0-1.4,0.3-2.7,1-3.8
				c0.7-1.1,1.6-2,2.8-2.7C74.3,15.1,75.7,14.8,77.3,14.8 M77.1,26.3c0.7,0,1.3-0.2,1.8-0.5s0.9-0.8,1.2-1.4c0.3-0.6,0.4-1.2,0.4-2
				c0-0.7-0.1-1.4-0.4-2s-0.7-1-1.2-1.4c-0.5-0.3-1.1-0.5-1.8-0.5c-0.6,0-1.2,0.2-1.7,0.5s-0.9,0.8-1.2,1.4c-0.2,0.6-0.4,1.2-0.4,2
				c0,0.7,0.1,1.4,0.4,2s0.7,1.1,1.2,1.4C75.9,26.1,76.5,26.3,77.1,26.3 M77.3,11.8c-2.2,0-4.1,0.5-5.7,1.4s-2.8,2.1-3.8,3.7
				c-1,1.5-1.5,3.4-1.5,5.4c0,2.1,0.5,4.1,1.6,5.7c1,1.6,2.4,2.9,4,3.7c1.6,0.8,3.4,1.2,5.4,1.2c2.2,0,4.1-0.5,5.7-1.4
				c1.8-1.1,3.1-2.3,3.9-3.9s1.2-3.4,1.2-5.2c0-1.8-0.4-3.5-1.2-5.1c-0.8-1.6-2-2.9-3.9-3.9C81.4,12.3,79.5,11.8,77.3,11.8
				L77.3,11.8z M77,21.5C77.1,21.5,77.1,21.5,77,21.5h0.2c0.1,0.1,0.2,0.2,0.2,0.2s0.1,0.2,0.1,0.7s-0.1,0.6-0.1,0.7
				c-0.1,0.1-0.1,0.2-0.1,0.2c-0.1,0-0.1,0-0.2,0H77c0,0-0.1-0.1-0.1-0.2c0,0-0.1-0.2-0.1-0.7C76.8,22.2,76.9,21.9,77,21.5
				C77,21.6,77,21.6,77,21.5L77,21.5z"/>
		</g>
		<g>
			<path d="M88.8,31c-0.8,0-1.5-0.7-1.5-1.5v-14c0-0.8,0.7-1.5,1.5-1.5h3.9c0.7,0,1.3,0.5,1.5,1.1c0.7-0.5,1.3-0.9,1.9-1.2
				c0,0,0.1-0.1,0.2-0.1c0.8-0.4,1.5-0.6,2.2-0.6c0.4,0,0.8,0.2,1.1,0.5c0.3,0.3,0.4,0.7,0.4,1.1l-0.2,4.5c0,0.4-0.2,0.8-0.5,1.1
				c-0.3,0.2-0.6,0.4-1,0.4h-0.1c-0.2,0-0.3,0-0.5,0c-0.5,0-0.9,0.1-1.2,0.3c-0.5,0.4-0.9,0.8-1.2,1.3c-0.3,0.6-0.4,1.2-0.4,1.7v5.5
				c0,0.8-0.7,1.5-1.5,1.5L88.8,31L88.8,31z"/>
			<path class="st3" d="M98.4,14.7L98.4,14.7 M98.4,14.7l-0.2,4.5c-0.2,0-0.4,0-0.7,0c-0.7,0-1.4,0.1-2,0.5
				c-0.7,0.5-1.3,1.1-1.7,1.9c-0.4,0.8-0.6,1.6-0.6,2.4v5.5h-4.4v-14h3.9l0.3,3.1c0,0,0,0,0,0.1l0.1,0.6L93,18.6
				c0.4-0.8,1-1.5,1.7-2c0.7-0.6,1.4-1,2.1-1.4C97.5,14.9,98,14.7,98.4,14.7 M98.4,11.7L98.4,11.7c-1.1,0-2,0.4-2.8,0.7
				c-0.1,0-0.2,0.1-0.3,0.2c-0.3,0.2-0.5,0.3-0.8,0.5c-0.5-0.4-1.1-0.6-1.8-0.6h-3.9c-1.7,0-3,1.3-3,3v14c0,1.7,1.3,3,3,3h4.4
				c1.7,0,3-1.3,3-3V24c0-0.3,0.1-0.7,0.3-1.1c0.1-0.2,0.2-0.4,0.7-0.7c0.1,0,0.2-0.1,0.4-0.1c0.1,0,0.2,0,0.4,0c0.1,0,0.2,0,0.3,0
				c0.7,0,1.4-0.3,2-0.7c0.6-0.5,1-1.3,1-2.1l0.2-4.4c0-0.1,0-0.2,0-0.3C101.4,13,100.1,11.7,98.4,11.7L98.4,11.7z M98.4,17.7
				L98.4,17.7L98.4,17.7L98.4,17.7z"/>
		</g>
	</g>
	<g class="st1">
		<g>
			<path class="st4" d="M119.2,31.4c-0.8,0-1.5-0.7-1.5-1.5v-8.6c-0.1,0-0.2,0-0.3,0h-2v8.6c0,0.8-0.7,1.5-1.5,1.5h-4.5
				c-0.8,0-1.5-0.7-1.5-1.5v-8.6H107c-0.8,0-1.5-0.7-1.5-1.5v-4c0-0.8,0.7-1.5,1.5-1.5h0.9V11c0-2.2,0.7-4.1,2-5.5
				c1.3-1.5,3.2-2.2,5.7-2.2c0.8,0,1.6,0.1,2.4,0.4c0.7,0.2,1.7,0.6,2.4,1.2c0.6,0.5,0.7,1.3,0.4,1.9l-0.5,0.8
				c0.4-0.2,0.9-0.2,1.4-0.2c0.9,0,1.8,0.3,2.5,0.9c0.9,0.7,1.4,1.7,1.4,2.8s-0.5,2.1-1.4,2.8c-0.3,0.3-0.7,0.5-1.1,0.6h0.5
				c0.8,0,1.5,0.7,1.5,1.5v14c0,0.8-0.7,1.5-1.5,1.5h-4.4V31.4z M117.4,14.3c0.4,0,0.7,0.1,1,0.4c0.2-0.2,0.5-0.3,0.8-0.3h0.9
				c-0.4-0.1-0.7-0.3-1-0.6c-0.9-0.6-1.4-1.6-1.4-2.8c0-0.1,0-0.2,0-0.3h-0.1c-0.5,0-1-0.2-1.2-0.7c-0.1,0-0.3,0-0.4,0
				c-0.3,0-0.5,0.1-0.5,0.2l0,0c0,0-0.2,0.2-0.2,0.9v3.2C115.3,14.3,117.4,14.3,117.4,14.3z"/>
			<path class="st3" d="M115.6,4.8c0.6,0,1.3,0.1,2,0.3s1.4,0.5,1.9,0.9l-1.9,3.2c-0.2-0.3-0.5-0.5-0.8-0.6s-0.6-0.1-0.8-0.1
				c-0.6,0-1.2,0.2-1.6,0.6c-0.4,0.4-0.6,1.1-0.6,2v4.7h3.6v4h-3.5v10.1h-4.5V19.8H107v-4h2.4V11c0-1.8,0.5-3.3,1.6-4.5
				C112.1,5.3,113.6,4.8,115.6,4.8 M121.7,8.8c0.6,0,1.1,0.2,1.6,0.6c0.5,0.4,0.8,1,0.8,1.6s-0.3,1.2-0.8,1.6s-1.1,0.6-1.6,0.6
				c-0.6,0-1.2-0.2-1.7-0.6c-0.6-0.4-0.8-1-0.8-1.6c0-0.7,0.3-1.2,0.8-1.6S121.1,8.8,121.7,8.8 M123.7,15.9v14h-4.5v-14H123.7
				 M115.6,1.8c-2.9,0-5.2,0.9-6.8,2.7c-1.6,1.7-2.4,3.9-2.4,6.5v1.9c-1.4,0.3-2.4,1.5-2.4,2.9v4c0,1.5,1,2.7,2.4,2.9v7.2
				c0,1.7,1.3,3,3,3h4.5c1.1,0,2.1-0.6,2.6-1.6c0.5,0.9,1.5,1.6,2.7,1.6h4.5c1.7,0,3-1.3,3-3v-14c0-0.7-0.2-1.3-0.6-1.9
				c0.7-0.9,1-2,1-3c0-1.5-0.7-3-1.9-3.9c-0.8-0.7-1.7-1.1-2.7-1.2c0-0.8-0.4-1.6-1.1-2.2c-0.8-0.6-1.8-1.1-2.9-1.4
				C117.5,1.9,116.5,1.8,115.6,1.8L115.6,1.8z"/>
		</g>
		<g>
			<path class="st4" d="M135.2,31.7c-1.8,0-3.5-0.4-4.9-1.1s-2.6-1.7-3.4-3c-0.8-1.3-1.2-2.9-1.2-4.8c0-1.8,0.4-3.4,1.3-4.8
				c0.8-1.3,2-2.3,3.4-3c1.3-0.7,2.7-1.1,4.3-1.1c1.4,0,2.6,0.2,3.8,0.6c1.2,0.4,2.1,1,2.8,1.5c0.3,0.2,0.5,0.6,0.6,1s0,0.8-0.3,1.1
				l-2.2,2.9c-0.3,0.4-0.7,0.6-1.2,0.6c-0.3,0-0.6-0.1-0.8-0.3l-0.2-0.1c-0.2-0.2-0.5-0.3-0.8-0.4c-0.4-0.2-0.8-0.3-1.2-0.3
				c-0.3,0-0.6,0.1-0.9,0.3c-0.1,0.1-0.4,0.3-0.7,0.8c-0.1,0.2-0.2,0.5-0.2,1.1c0,0.4,0.1,0.8,0.3,1.2c0.1,0.3,0.4,0.5,0.8,0.8
				c0.4,0.2,0.8,0.3,1.2,0.3c0.3,0,0.5-0.1,0.9-0.1h0.2c0.2,0,0.2-0.1,0.3-0.2c0.3-0.3,0.7-0.4,1.1-0.4h0.1c0.4,0,0.8,0.3,1.1,0.6
				l2,2.9c0.4,0.6,0.3,1.5-0.3,2c-0.7,0.6-1.7,1.1-2.8,1.5C137.4,31.5,136.4,31.7,135.2,31.7z"/>
			<path class="st3" d="M134.7,15.4c1.3,0,2.4,0.2,3.3,0.5c0.9,0.3,1.7,0.8,2.4,1.3l-2.2,2.9c-0.3-0.2-0.7-0.5-1.2-0.7
				s-1.1-0.4-1.8-0.4c-0.6,0-1.2,0.2-1.7,0.5s-0.9,0.8-1.2,1.3s-0.4,1.2-0.4,1.9s0.2,1.3,0.5,1.9s0.8,1,1.3,1.4
				c0.6,0.3,1.2,0.5,2,0.5c0.5,0,0.9-0.1,1.4-0.2s0.8-0.3,1.1-0.6l2,2.9c-0.6,0.5-1.4,0.9-2.3,1.2c-0.9,0.3-1.8,0.4-2.7,0.4
				c-1.6,0-3-0.3-4.2-0.9s-2.1-1.4-2.8-2.5c-0.7-1.1-1-2.4-1-4s0.4-2.9,1.1-4c0.7-1.1,1.6-1.9,2.8-2.5
				C132.2,15.7,133.4,15.4,134.7,15.4 M134.7,12.4c-1.8,0-3.5,0.4-5,1.2c-1.7,0.8-3,2-3.9,3.5c-1,1.6-1.6,3.5-1.6,5.6
				c0,2.2,0.5,4.1,1.5,5.6c1,1.6,2.3,2.7,4,3.6c1.6,0.8,3.5,1.2,5.5,1.2c1.3,0,2.5-0.2,3.6-0.6c1.3-0.4,2.4-1,3.3-1.7
				c1.2-1,1.4-2.7,0.5-4l-2-2.9c-0.3-0.5-0.8-0.9-1.4-1.1c0.5-0.2,1-0.5,1.3-1l2.2-2.9c0.5-0.6,0.7-1.5,0.6-2.3
				c-0.1-0.8-0.6-1.5-1.2-2c-0.7-0.5-1.8-1.3-3.2-1.7C137.6,12.6,136.2,12.4,134.7,12.4L134.7,12.4z M135.1,22c0.1,0,0.1,0,0.1-0.1
				c0.2,0,0.4,0.1,0.7,0.2c0.1,0,0.3,0.2,0.5,0.3l0.2,0.1c0.2,0.1,0.4,0.2,0.6,0.3c-0.3,0.1-0.6,0.3-0.9,0.5
				c-0.3,0.1-0.4,0.1-0.6,0.1c-0.1,0-0.3,0-0.4-0.1c-0.1-0.1-0.2-0.2-0.2-0.2c-0.2-0.3-0.2-0.5-0.2-0.5c0-0.2,0-0.4,0-0.5
				C135,22.1,135.1,22.1,135.1,22L135.1,22z"/>
		</g>
		<g>
			<path class="st4" d="M145,31.5c-0.8,0-1.5-0.7-1.5-1.5v-9.2h-0.7c-0.8,0-1.5-0.7-1.5-1.5v-3.5c0-0.8,0.7-1.5,1.5-1.5h0.7V9.8
				c0-0.8,0.7-1.5,1.5-1.5h4.5c0.8,0,1.5,0.7,1.5,1.5v4.6h1.9c0.8,0,1.5,0.7,1.5,1.5v3.5c0,0.8-0.7,1.5-1.5,1.5H151V30
				c0,0.8-0.7,1.5-1.5,1.5H145z"/>
			<path class="st3" d="M149.5,9.8v6.1h3.4v3.5h-3.4V30H145V19.3h-2.2v-3.5h2.2v-6L149.5,9.8 M149.5,6.8H145c-1.7,0-3,1.3-3,3v3.1
				c-1.3,0.4-2.2,1.5-2.2,2.9v3.5c0,1.4,0.9,2.5,2.2,2.9V30c0,1.7,1.3,3,3,3h4.5c1.7,0,3-1.3,3-3v-7.6h0.4c1.7,0,3-1.3,3-3v-3.5
				c0-1.7-1.3-3-3-3h-0.4V9.8C152.5,8.1,151.2,6.8,149.5,6.8L149.5,6.8z"/>
		</g>
		<g>
			<path class="st4" d="M156.3,31.4c-0.8,0-1.5-0.7-1.5-1.5v-14c0-0.8,0.7-1.5,1.5-1.5h0.8c-0.4-0.1-0.7-0.3-1-0.6
				c-0.9-0.6-1.4-1.6-1.4-2.8c0-1.1,0.5-2,1.4-2.8c0.7-0.6,1.7-0.9,2.6-0.9c0.9,0,1.8,0.3,2.5,0.9c0.9,0.7,1.4,1.7,1.4,2.8
				s-0.5,2.1-1.4,2.8c-0.3,0.3-0.7,0.5-1.1,0.6h0.6c0.8,0,1.5,0.7,1.5,1.5v14c0,0.8-0.7,1.5-1.5,1.5H156.3z"/>
			<path class="st3" d="M158.7,8.8c0.6,0,1.1,0.2,1.6,0.6c0.5,0.4,0.8,1,0.8,1.6s-0.3,1.2-0.8,1.6s-1.1,0.6-1.6,0.6
				c-0.6,0-1.2-0.2-1.7-0.6c-0.6-0.4-0.8-1-0.8-1.6c0-0.7,0.3-1.2,0.8-1.6S158.1,8.8,158.7,8.8 M160.8,15.9v14h-4.5v-14H160.8
				 M158.7,5.8c-1.3,0-2.6,0.4-3.6,1.3c-1.3,1-1.9,2.4-1.9,3.9c0,1.1,0.3,2.1,0.9,2.9c-0.5,0.5-0.8,1.2-0.8,2v14c0,1.7,1.3,3,3,3
				h4.5c1.7,0,3-1.3,3-3v-14c0-0.7-0.3-1.4-0.7-1.9c0.6-0.9,1-1.9,1-3c0-1.5-0.7-3-1.9-3.9C161.1,6.2,160,5.8,158.7,5.8L158.7,5.8z"
				/>
		</g>
		<g>
			<path class="st4" d="M172.3,31.8c-1.8,0-3.4-0.4-4.8-1.1c-1.4-0.7-2.5-1.7-3.4-3.1c-0.9-1.2-1.3-2.8-1.3-4.9
				c0-1.8,0.4-3.3,1.2-4.6c0.9-1.3,1.9-2.4,3.3-3.2c1.4-0.8,3-1.2,5-1.2s3.6,0.4,5,1.2c1.6,0.9,2.6,2,3.3,3.3
				c0.7,1.3,1.1,2.8,1.1,4.5c0,1.6-0.4,3.2-1.1,4.6c-0.8,1.4-1.9,2.5-3.3,3.3C175.9,31.4,174.2,31.8,172.3,31.8z M172.1,20.4
				c-0.3,0-0.6,0.1-0.9,0.3c-0.2,0.1-0.4,0.4-0.6,0.8c-0.1,0.3-0.2,0.6-0.2,1.3c0,0.6,0.1,1,0.2,1.3c0.2,0.4,0.4,0.7,0.6,0.8
				c0.3,0.2,0.6,0.3,0.9,0.3c0.4,0,0.7-0.1,1-0.3c0.2-0.1,0.4-0.4,0.6-0.8c0.1-0.3,0.2-0.6,0.2-1.3c0-0.6-0.1-1-0.2-1.3
				c-0.2-0.3-0.3-0.5-0.7-0.8C172.8,20.5,172.4,20.4,172.1,20.4z"/>
			<path class="st3" d="M172.3,15.2c1.6,0,3,0.3,4.2,1c1.2,0.7,2.1,1.5,2.7,2.7c0.6,1.1,0.9,2.4,0.9,3.8s-0.3,2.7-0.9,3.9
				c-0.6,1.1-1.5,2-2.7,2.7s-2.6,1-4.2,1c-1.5,0-2.9-0.3-4.1-0.9c-1.2-0.6-2.1-1.5-2.8-2.6c-0.8-1.1-1.1-2.5-1.1-4.1
				c0-1.4,0.3-2.7,1-3.8s1.6-2,2.8-2.7C169.3,15.5,170.7,15.2,172.3,15.2 M172.1,26.7c0.7,0,1.3-0.2,1.8-0.5s0.9-0.8,1.2-1.4
				s0.4-1.2,0.4-2c0-0.7-0.1-1.4-0.4-2c-0.3-0.6-0.7-1-1.2-1.4c-0.5-0.3-1.1-0.5-1.8-0.5c-0.6,0-1.2,0.2-1.7,0.5s-0.9,0.8-1.2,1.4
				s-0.4,1.2-0.4,2c0,0.7,0.1,1.4,0.4,2c0.3,0.6,0.7,1.1,1.2,1.4S171.5,26.7,172.1,26.7 M172.3,12.2c-2.2,0-4.1,0.5-5.7,1.4
				c-1.6,0.9-2.8,2.1-3.8,3.7c-1,1.5-1.5,3.4-1.5,5.4c0,2.4,0.5,4.3,1.6,5.8c1,1.6,2.4,2.8,3.9,3.6c1.6,0.8,3.4,1.2,5.4,1.2
				c2.2,0,4.1-0.5,5.7-1.4c1.7-1,3-2.3,3.8-3.9v-0.1c0.8-1.6,1.2-3.4,1.2-5.2c0-1.9-0.4-3.7-1.2-5.2c-0.8-1.6-2-2.8-3.8-3.9
				C176.4,12.7,174.5,12.2,172.3,12.2L172.3,12.2z M172,21.9c0.1,0,0.1,0,0.1,0h0.1c0.1,0.1,0.2,0.2,0.2,0.2s0.1,0.2,0.1,0.7
				s-0.1,0.6-0.1,0.7c-0.1,0.1-0.1,0.2-0.1,0.2c-0.1,0-0.1,0-0.2,0H172c0,0-0.1-0.1-0.1-0.2c0,0-0.1-0.2-0.1-0.7s0.1-0.6,0.1-0.7
				S172,22,172,21.9L172,21.9z"/>
		</g>
		<g>
			<path class="st4" d="M193.6,31.5c-0.8,0-1.5-0.7-1.5-1.5v-8.8c0-0.2-0.1-0.4-0.2-0.6l0,0c0,0-0.2,0-0.4,0c-0.4,0-0.6,0.1-0.7,0.3
				l-0.1,0.1c-0.1,0.1-0.4,0.4-0.8,1.2c-0.2,0.5-0.3,1.2-0.3,2.1V30c0,0.8-0.7,1.5-1.5,1.5h-4.5c-0.8,0-1.5-0.7-1.5-1.5V16
				c0-0.8,0.7-1.5,1.5-1.5h3.6c0.1-0.1,0.3-0.1,0.4-0.1h0.1c0.5,0,1,0.3,1.2,0.7c0.1-0.1,0.3-0.2,0.4-0.3c1.2-0.7,2.5-1,4-1
				c1.7,0,3.1,0.5,4.3,1.6c1.1,1,1.8,2.3,1.9,4v0.1V30c0,0.8-0.7,1.5-1.5,1.5H193.6z"/>
			<path class="st3" d="M193.4,15.3c1.3,0,2.4,0.4,3.3,1.2c0.9,0.8,1.3,1.8,1.4,3V30h-4.5v-8.8c0-0.6-0.2-1.1-0.5-1.5
				s-0.8-0.6-1.6-0.6c-0.7,0-1.3,0.2-1.8,0.7c-0.5,0.4-0.9,1.1-1.2,1.8c-0.3,0.8-0.4,1.7-0.4,2.7V30h-4.5V16h4.1v-0.1l0.4,2.2
				c0,0,0,0.1-0.1,0.1l0.1,0.2v-0.3c0.5-0.9,1.2-1.5,2-2C191,15.6,192.1,15.3,193.4,15.3 M193.4,12.3c-1.6,0-3,0.3-4.3,0.9
				c-0.4-0.2-0.9-0.3-1.4-0.3c-0.1,0-0.2,0-0.2,0c-0.2,0-0.4,0-0.5,0.1h-3.3c-1.7,0-3,1.3-3,3v14c0,1.7,1.3,3,3,3h4.5
				c1.2,0,2.3-0.7,2.8-1.8c0.5,1.1,1.5,1.8,2.8,1.8h4.5c1.7,0,3-1.3,3-3V19.5c0-0.1,0-0.2,0-0.2c-0.2-2.1-1-3.7-2.4-5
				C197.3,13,195.4,12.3,193.4,12.3L193.4,12.3z"/>
		</g>
	</g>
	<g class="st1">
		<g>
			<path d="M210.3,32.2c-1.1,0-2.1-0.3-2.8-0.9c-0.8-0.7-1.3-1.6-1.3-2.8c0-1.2,0.4-2.1,1.3-2.9c0.1-0.1,0.2-0.1,0.2-0.2
				c-0.7-0.1-1.2-0.7-1.2-1.5v-1.7c0-1.4,0.2-2.5,0.5-3.3c0.3-0.7,0.7-1.5,1.2-2.1c0.4-0.5,0.9-1.1,1.5-1.6c0.5-0.4,0.9-0.9,1.3-1.4
				c0.2-0.3,0.4-0.7,0.4-1.2c0-0.1,0-0.2,0-0.2c0-0.1-0.1-0.1-0.1-0.2c-0.1-0.1-0.2-0.3-0.4-0.4c0,0-0.1,0-0.2,0
				c-0.4,0-0.6,0.1-0.8,0.2c-0.2,0.1-0.3,0.3-0.4,0.5c0,0.1-0.1,0.2-0.1,0.2c-0.2,0.2-0.3,0.6-0.5,1.1c-0.2,0.4-0.5,0.7-0.8,0.8
				c-0.2,0.1-0.4,0.1-0.6,0.1c-0.2,0-0.4,0-0.6-0.1l-3.7-1.7c-0.7-0.3-1-1-0.8-1.7c0.1-0.5,0.3-0.9,0.6-1.4l0.2-0.4
				c0.3-0.7,0.9-1.4,1.7-2.2s1.6-1.4,2.7-1.8c1.1-0.5,2.3-0.7,3.8-0.7c1.4,0,2.7,0.2,3.9,0.7c1.5,0.6,2.4,1.6,2.9,2.4
				c0.8,1.2,1.2,2.6,1.2,4.3c0,1.3-0.2,2.4-0.6,3.4c-0.4,0.9-0.9,1.6-1.5,2.3c-0.2,0.2-0.4,0.5-0.6,0.7c-0.2,0.3-0.5,0.5-0.8,0.8
				s-0.6,0.7-0.9,1c-0.3,0.3-0.5,0.7-0.6,1.1s-0.2,1-0.2,1.6v1c0,0.7-0.5,1.3-1.1,1.5c0.1,0.1,0.2,0.2,0.3,0.3
				c0.5,0.5,1.1,1.3,1.1,2.8c0,1.2-0.4,2.1-1.3,2.8C212.4,31.9,211.4,32.2,210.3,32.2z"/>
			<path class="st3" d="M211.3,6.2c1.2,0,2.3,0.2,3.3,0.6s1.7,1.1,2.3,1.9c0.6,0.9,0.9,2,0.9,3.4c0,1.2-0.2,2.1-0.5,2.8
				s-0.7,1.3-1.2,1.8s-0.9,1-1.4,1.5c-0.4,0.4-0.7,0.8-1,1.2c-0.3,0.4-0.6,0.9-0.8,1.5s-0.3,1.3-0.3,2.1v1h-4.5v-1.7
				c0-1.1,0.1-2,0.4-2.7c0.3-0.7,0.6-1.3,1-1.8s0.8-1,1.3-1.4c0.6-0.5,1.1-1.1,1.5-1.6s0.7-1.2,0.7-2.1c0-0.5-0.1-0.9-0.4-1.2
				c-0.2-0.3-0.5-0.6-0.8-0.8s-0.7-0.3-1-0.3c-0.6,0-1.1,0.1-1.6,0.4c-0.5,0.3-0.8,0.7-1,1.1c-0.3,0.4-0.5,0.9-0.7,1.4l-3.7-1.7
				c0.1-0.4,0.4-0.9,0.7-1.5s0.8-1.2,1.4-1.8c0.6-0.6,1.3-1.1,2.2-1.5S210,6.2,211.3,6.2 M210.4,26.1c0.7,0,1.4,0.2,1.8,0.7
				c0.5,0.4,0.7,1,0.7,1.7s-0.2,1.2-0.7,1.6s-1.1,0.6-1.9,0.6s-1.4-0.2-1.9-0.6s-0.7-1-0.7-1.6c0-0.7,0.2-1.2,0.8-1.7
				C209,26.4,209.6,26.1,210.4,26.1 M211.3,3.2c-1.7,0-3.1,0.3-4.4,0.9c-1.2,0.5-2.2,1.2-3.1,2.1c-0.9,0.9-1.5,1.7-2,2.6
				c-0.1,0.1-0.1,0.3-0.2,0.4c-0.3,0.5-0.6,1.1-0.7,1.7c-0.4,1.4,0.3,2.9,1.7,3.5l3.7,1.7c0.2,0.1,0.4,0.2,0.7,0.2
				c-0.5,0.7-0.9,1.5-1.2,2.2c-0.4,1-0.6,2.2-0.6,3.9V24c0,0.6,0.2,1.1,0.5,1.6c-0.6,0.8-0.9,1.8-0.9,2.9c0,1.6,0.7,3,1.8,3.9
				c1,0.8,2.3,1.3,3.8,1.3s2.7-0.4,3.8-1.3c0.8-0.7,1.8-1.9,1.8-3.9c0-1.1-0.3-2.1-0.8-2.9c0.3-0.5,0.5-1,0.5-1.6v-1
				c0-0.6,0.1-1,0.1-1.2c0.1-0.2,0.2-0.4,0.4-0.6c0.3-0.4,0.5-0.6,0.7-0.9c0.3-0.3,0.5-0.6,0.8-0.9c0.2-0.2,0.4-0.4,0.6-0.6
				c0.8-0.8,1.4-1.7,1.8-2.7c0.5-1.2,0.7-2.5,0.7-4c0-2-0.5-3.6-1.4-5.1l-0.1-0.1c-0.7-0.9-1.8-2.2-3.6-2.9
				C214.4,3.5,212.9,3.2,211.3,3.2L211.3,3.2z"/>
		</g>
	</g>
</g>
<g class="st0">
	<g class="st1">
		<path class="st4" d="M-5.3,28c-0.5,0-0.9-0.3-1.1-0.8l-8-20.8c-0.1-0.4-0.1-0.8,0.1-1.2c0.2-0.3,0.6-0.5,1-0.5h4.6
			c0.5,0,1,0.3,1.2,0.8l2.8,8.4l1.6-4l-1.4-3.5c-0.2-0.4-0.1-0.8,0.1-1.2c0.2-0.3,0.6-0.5,1-0.5h3.9c0.5,0,1,0.3,1.2,0.8l3.2,7.8
			l2.4-7.7c0.2-0.5,0.6-0.9,1.2-0.9h4.2c0.4,0,0.8,0.2,1,0.5C14,5.6,14,6.1,13.9,6.5L6.2,27.2C6,27.6,5.5,28,5,28c0,0,0,0,0,0
			c-0.5,0-1-0.3-1.2-0.8L0.2,18l-4.3,9.3C-4.4,27.7-4.8,28-5.3,28C-5.3,28-5.3,28-5.3,28z"/>
		<path class="st3" d="M12.7,6L5,26.7L0.3,14.9l-5.5,11.9l-8-20.8h4.6l3.9,11.6l3.1-7.6L-3.3,6h3.9l4.5,11.1L8.5,6H12.7 M12.7,3.5
			H8.5c-1.1,0-2.1,0.7-2.4,1.8L4.8,9.6L2.9,5.1C2.5,4.1,1.6,3.5,0.6,3.5h-3.9c-0.8,0-1.6,0.4-2.1,1.1c-0.5,0.7-0.6,1.6-0.2,2.3
			l1.2,3l-0.2,0.4l-1.7-5.2c-0.3-1-1.3-1.7-2.4-1.7h-4.6c-0.8,0-1.6,0.4-2.1,1.1c-0.5,0.7-0.6,1.5-0.3,2.3l8,20.8
			c0.4,0.9,1.2,1.6,2.2,1.6c0,0,0.1,0,0.1,0c1,0,1.9-0.6,2.3-1.4l3.1-6.6l2.6,6.5C3.1,28.6,4,29.2,5,29.2c0,0,0,0,0,0
			c1,0,2-0.7,2.3-1.6l7.7-20.7c0.3-0.8,0.2-1.6-0.3-2.3C14.3,3.9,13.5,3.5,12.7,3.5L12.7,3.5z M12.7,8.5L12.7,8.5L12.7,8.5L12.7,8.5
			z"/>
	</g>
	<g class="st1">
		<path class="st4" d="M21.2,19.4c-0.5,0-0.9-0.3-1.1-0.7c0,0,0-0.1-0.1-0.1c-0.2-0.3-0.2-0.7,0-1c0.1-0.3,0.4-0.6,0.8-0.7l0.8-0.3
			c0.1,0,0.3-0.1,0.4-0.1c0.5,0,1,0.3,1.2,0.8c0.2,0.6,0,1.3-0.7,1.6l-0.8,0.4C21.5,19.4,21.3,19.4,21.2,19.4z"/>
		<path class="st3" d="M21.9,17.8L21.9,17.8 M21.9,17.8l-0.8,0.4c0,0,0-0.1,0-0.1L21.9,17.8 M21.9,15.3c-0.1,0-0.3,0-0.4,0
			c-0.2,0-0.3,0.1-0.5,0.1l-0.8,0.3c-0.7,0.2-1.2,0.7-1.5,1.4c-0.3,0.6-0.3,1.3,0,2c0,0.1,0.1,0.1,0.1,0.2c0.4,0.9,1.3,1.4,2.2,1.4
			c0.3,0,0.7-0.1,1-0.2l0.7-0.3c0.9-0.4,1.5-1.3,1.5-2.3c0-1.3-1-2.4-2.3-2.5C22.1,15.3,22,15.3,21.9,15.3L21.9,15.3z M21.9,20.3
			L21.9,20.3L21.9,20.3L21.9,20.3z"/>
	</g>
	<g class="st1">
		<path class="st4" d="M18.9,27.4c-1.7,0-3.1-0.3-4.3-1c-1.2-0.7-2.2-1.6-2.8-2.7c-0.6-1.1-0.9-2.5-0.9-3.9c0-1.4,0.4-2.8,1.1-3.9
			c0.7-1.1,1.7-2,2.9-2.7c1.2-0.7,2.6-1,4.1-1c2,0,3.7,0.6,5,1.8c1.3,1.2,2.1,2.9,2.5,5c0.1,0.6-0.3,1.2-0.9,1.4l-3.3,1.1
			c0,0,0,0.1,0.1,0.1l1.7,2.8c0.2,0.3,0.2,0.6,0.1,1s-0.3,0.6-0.6,0.8c-0.8,0.4-1.5,0.7-2.3,1C20.5,27.3,19.7,27.4,18.9,27.4z
			 M18.4,17.7c-0.2,0-0.4,0.1-0.5,0.2L18.4,17.7z"/>
		<path class="st3" d="M19,13.4c1.7,0,3.1,0.5,4.2,1.5c1.1,1,1.8,2.4,2.1,4.3l-8.7,2.7c0.2,0.3,0.5,0.5,0.8,0.6
			c0.5,0.2,1,0.4,1.6,0.4c0.4,0,0.8-0.1,1.2-0.2c0.4-0.1,0.8-0.3,1.2-0.6l1.7,2.8c-0.6,0.4-1.3,0.7-2.1,0.9
			c-0.7,0.2-1.4,0.3-2.1,0.3c-1.4,0-2.7-0.3-3.7-0.8c-1-0.5-1.8-1.3-2.3-2.2c-0.5-1-0.8-2.1-0.8-3.3c0-1.2,0.3-2.3,0.9-3.2
			c0.6-1,1.4-1.7,2.5-2.3C16.6,13.7,17.7,13.4,19,13.4 M15.9,19.8l5.2-1.8c-0.1-0.4-0.4-0.8-0.7-1.2c-0.4-0.4-0.9-0.5-1.7-0.5
			c-0.6,0-1.1,0.1-1.5,0.4c-0.4,0.3-0.8,0.6-1,1.1c-0.2,0.5-0.3,1.1-0.3,1.7C15.9,19.7,15.9,19.7,15.9,19.8 M19,10.9
			c-1.7,0-3.3,0.4-4.7,1.2c-1.4,0.8-2.5,1.9-3.4,3.1c-0.9,1.3-1.3,2.9-1.3,4.6c0,1.7,0.4,3.2,1.1,4.5c0.8,1.4,1.9,2.5,3.3,3.2
			c1.4,0.7,3,1.1,4.9,1.1c0.9,0,1.8-0.1,2.8-0.4c0.9-0.3,1.7-0.6,2.6-1.1c0.6-0.3,1-0.9,1.2-1.5c0.2-0.7,0.1-1.3-0.3-1.9l-0.9-1.6
			l1.8-0.6c1.2-0.4,1.9-1.6,1.7-2.8c-0.4-2.4-1.4-4.3-2.9-5.7C23.3,11.6,21.3,10.9,19,10.9L19,10.9z"/>
	</g>
	<g class="st1">
		<path class="st4" d="M35.9,27.4c-1.2,0-2.2-0.2-3.1-0.6c0,0,0,0-0.1,0c-0.2,0.2-0.5,0.3-0.9,0.3h-3.8c-0.7,0-1.2-0.6-1.2-1.2V4.4
			c0-0.7,0.6-1.2,1.2-1.2h3.8c0.7,0,1.2,0.6,1.2,1.2v8.3c0.1,0,0.1-0.1,0.2-0.1c0.9-0.3,1.9-0.5,3.1-0.5c1.2,0,2.4,0.3,3.4,0.9
			c1,0.6,1.9,1.5,2.5,2.6c0.6,1.1,0.9,2.4,0.9,4c0,1.5-0.3,2.9-1,4.1c-0.7,1.2-1.6,2.1-2.8,2.7C38.4,27.1,37.2,27.4,35.9,27.4z
			 M33.1,20.8c0.1,0.2,0.2,0.3,0.3,0.4c0.2,0.1,0.4,0.3,0.6,0.3c0.3,0.1,0.6,0.1,0.9,0.1c0.3,0,0.6-0.1,0.9-0.2
			c0.3-0.2,0.5-0.4,0.7-0.7c0.2-0.3,0.3-0.7,0.3-1.1c0-0.4-0.1-0.7-0.3-1c-0.2-0.3-0.4-0.6-0.7-0.7c-0.3-0.2-0.6-0.2-0.9-0.2
			c-0.3,0-0.6,0.1-0.9,0.2c-0.3,0.1-0.5,0.2-0.7,0.4c-0.1,0.1-0.2,0.2-0.3,0.4V20.8z"/>
		<path class="st3" d="M31.9,4.4v10.4c0.5-0.4,1.1-0.7,1.9-1c0.8-0.3,1.7-0.4,2.7-0.4c1,0,2,0.2,2.8,0.7c0.8,0.5,1.5,1.2,2,2.1
			c0.5,0.9,0.8,2.1,0.8,3.4c0,1.3-0.3,2.5-0.8,3.5c-0.6,1-1.3,1.7-2.3,2.2c-0.9,0.5-1.9,0.8-3,0.8c-1,0-1.8-0.2-2.5-0.5
			c-0.6-0.3-1.1-0.6-1.5-1v1.2h-3.8V4.4H31.9 M35,23c0.6,0,1.1-0.1,1.6-0.4c0.5-0.3,0.9-0.7,1.2-1.2c0.3-0.5,0.4-1.1,0.4-1.7
			c0-0.6-0.1-1.2-0.4-1.7c-0.3-0.5-0.7-0.9-1.2-1.2c-0.5-0.3-1-0.4-1.6-0.4c-0.5,0-0.9,0.1-1.4,0.2c-0.4,0.1-0.8,0.4-1.1,0.6
			c-0.3,0.3-0.5,0.6-0.7,1v2.9c0.2,0.4,0.5,0.7,0.8,1c0.3,0.3,0.6,0.5,1.1,0.6C34.1,22.9,34.5,23,35,23 M31.9,1.9h-3.8
			c-1.4,0-2.5,1.1-2.5,2.5v21.4c0,1.4,1.1,2.5,2.5,2.5h3.8c0.3,0,0.7-0.1,1-0.2c0.9,0.3,1.9,0.5,3,0.5c1.5,0,2.9-0.4,4.2-1.1
			c1.3-0.7,2.4-1.8,3.2-3.2c0.8-1.4,1.2-3,1.2-4.7c0-1.8-0.4-3.3-1.1-4.6c-0.7-1.3-1.7-2.4-3-3.1c-1.2-0.7-2.6-1.1-4.1-1.1
			c-0.7,0-1.4,0.1-2,0.2V4.4C34.4,3.1,33.2,1.9,31.9,1.9L31.9,1.9z M34.4,19C34.4,19,34.4,19,34.4,19c0.1,0,0.1,0,0.1-0.1
			c0.2-0.1,0.3-0.1,0.5-0.1c0.1,0,0.2,0,0.3,0.1c0.1,0.1,0.2,0.1,0.2,0.2c0,0,0,0,0,0.1c0,0,0.1,0.1,0.1,0.4c0,0.3-0.1,0.4-0.1,0.5
			c-0.1,0.2-0.2,0.3-0.2,0.3c0,0,0,0-0.1,0c0,0-0.1,0.1-0.2,0.1c-0.2,0-0.4,0-0.5-0.1c-0.1,0-0.1,0-0.1-0.1V19L34.4,19z"/>
	</g>
	<g class="st1">
		<path class="st4" d="M50.8,27.4c-1.3,0-2.5-0.3-3.5-0.8c-1.1-0.5-2-1.4-2.7-2.5c-0.6-1.1-0.9-2.5-0.9-4.2c0-1.5,0.3-2.9,1-4.1
			c0.7-1.2,1.5-2.1,2.6-2.7c1.1-0.7,2.3-1,3.5-1c1.4,0,2.5,0.3,3.3,0.8c0.1,0,0.1,0.1,0.2,0.1c0.2-0.2,0.5-0.3,0.8-0.3h3.5
			c0.7,0,1.2,0.6,1.2,1.2v11.9c0,0.7-0.6,1.2-1.2,1.2h-3.8c-0.4,0-0.7-0.2-0.9-0.4c-0.2,0.1-0.5,0.2-0.7,0.3
			C52.4,27.3,51.7,27.4,50.8,27.4z M51.8,17.7c-0.3,0-0.6,0.1-0.9,0.2c-0.3,0.2-0.5,0.4-0.7,0.7C50.1,19,50,19.3,50,19.8
			c0,0.4,0.1,0.8,0.3,1.1c0.2,0.3,0.4,0.6,0.7,0.8c0.3,0.2,0.6,0.2,0.9,0.2c0.3,0,0.6,0,0.8-0.1c0.2-0.1,0.4-0.2,0.5-0.3
			c0.1-0.1,0.2-0.3,0.3-0.4v-2.3c-0.1-0.1-0.2-0.3-0.3-0.4c-0.2-0.2-0.4-0.3-0.6-0.4C52.4,17.8,52.1,17.7,51.8,17.7z"/>
		<path class="st3" d="M50.7,13.4c1.2,0,2.1,0.2,2.7,0.6c0.6,0.4,1.1,0.8,1.4,1.2l0.2-1.2h3.5v11.9h-3.8v-1.5c0,0,0,0,0,0
			c-0.2,0.2-0.5,0.5-0.8,0.7c-0.4,0.3-0.8,0.5-1.3,0.7c-0.5,0.2-1.1,0.3-1.8,0.3c-1.1,0-2.1-0.2-3-0.7c-0.9-0.4-1.6-1.1-2.1-2
			c-0.5-0.9-0.8-2.1-0.8-3.5c0-1.3,0.3-2.5,0.8-3.5c0.5-1,1.3-1.7,2.1-2.3C48.7,13.7,49.7,13.4,50.7,13.4 M51.9,23.1
			c0.5,0,0.9-0.1,1.2-0.2c0.4-0.1,0.7-0.3,0.9-0.6c0.3-0.3,0.5-0.6,0.7-1v-2.9c-0.1-0.4-0.4-0.7-0.6-1c-0.3-0.3-0.6-0.5-1-0.7
			c-0.4-0.1-0.8-0.2-1.3-0.2c-0.5,0-1,0.1-1.5,0.4c-0.5,0.3-0.8,0.7-1.1,1.2c-0.3,0.5-0.4,1.1-0.4,1.7c0,0.6,0.1,1.2,0.4,1.7
			c0.3,0.5,0.7,0.9,1.2,1.2C50.8,22.9,51.3,23.1,51.9,23.1 M50.7,10.9c-1.4,0-2.8,0.4-4.1,1.2c-1.3,0.8-2.3,1.8-3,3.2
			c-0.8,1.4-1.1,2.9-1.1,4.7c0,1.9,0.4,3.4,1.1,4.8c0.8,1.4,1.9,2.4,3.2,3.1c1.2,0.6,2.6,0.9,4.1,0.9c1,0,1.9-0.2,2.7-0.5
			c0.1,0,0.1,0,0.2-0.1c0.3,0.1,0.7,0.2,1,0.2h3.8c1.4,0,2.5-1.1,2.5-2.5V14c0-1.4-1.1-2.5-2.5-2.5h-3.5c-0.3,0-0.5,0-0.8,0.1
			C53.3,11.1,52.1,10.9,50.7,10.9L50.7,10.9z M51.9,20.6c-0.1,0-0.2,0-0.3-0.1c-0.1-0.1-0.2-0.2-0.3-0.3c0-0.1-0.1-0.2-0.1-0.5
			c0-0.1,0-0.3,0.1-0.5c0.1-0.1,0.2-0.2,0.2-0.2c0.1,0,0.1-0.1,0.2-0.1c0.2,0,0.3,0,0.4,0.1c0,0,0,0,0.1,0v1.4c0,0,0,0,0,0
			C52.2,20.6,52.1,20.6,51.9,20.6L51.9,20.6z"/>
	</g>
	<g class="st1">
		<path class="st4" d="M61.7,32.8c-0.7,0-1.2-0.6-1.2-1.3V13.7c0-0.7,0.6-1.2,1.2-1.2h3.3c0.5,0,0.9,0.3,1.1,0.6
			c0.2-0.1,0.5-0.2,0.7-0.3c0.9-0.4,2-0.6,3.1-0.6c1.3,0,2.5,0.3,3.6,1c1.1,0.6,1.9,1.5,2.5,2.7c0.6,1.1,0.9,2.5,0.9,4.1
			c0,1.6-0.3,2.9-1,4.1c-0.7,1.1-1.6,2-2.8,2.6c-1.1,0.6-2.5,0.9-3.9,0.9c-0.8,0-1.6-0.1-2.4-0.4v4.6c0,0.7-0.6,1.3-1.2,1.3H61.7z
			 M66.7,21c0.1,0.2,0.2,0.3,0.3,0.4c0.2,0.2,0.3,0.3,0.5,0.4c0.3,0.1,0.5,0.2,0.8,0.2c0.4,0,0.8-0.1,1.1-0.3
			c0.3-0.2,0.6-0.4,0.8-0.7c0.2-0.3,0.3-0.6,0.3-1c0-0.4-0.1-0.8-0.3-1.2c-0.2-0.3-0.4-0.5-0.7-0.7c-0.3-0.2-0.6-0.3-1-0.3
			c-0.4,0-0.7,0-0.9,0.1c-0.2,0.1-0.5,0.2-0.6,0.4c-0.1,0.1-0.2,0.2-0.3,0.4V21z"/>
		<path class="st3" d="M69.9,13.4c1.1,0,2.1,0.3,3,0.8c0.9,0.5,1.6,1.3,2.1,2.2c0.5,1,0.7,2.1,0.7,3.5c0,1.3-0.3,2.5-0.8,3.4
			c-0.6,0.9-1.3,1.7-2.3,2.1c-1,0.5-2.1,0.7-3.4,0.7c-0.7,0-1.4-0.1-2.1-0.4c-0.6-0.2-1.2-0.6-1.6-1v6.8h-3.8V13.7h3.3l0.3,1.4
			c0.6-0.5,1.2-0.9,2-1.2C68,13.6,68.9,13.4,69.9,13.4 M68.4,23.2c0.6,0,1.2-0.1,1.7-0.4c0.5-0.3,0.9-0.7,1.3-1.2
			c0.3-0.5,0.5-1.1,0.5-1.7c0-0.7-0.1-1.3-0.4-1.8c-0.3-0.5-0.7-0.9-1.1-1.2c-0.5-0.3-1-0.4-1.6-0.4c-0.5,0-0.9,0.1-1.3,0.2
			c-0.4,0.1-0.7,0.3-1,0.6c-0.3,0.3-0.6,0.6-0.8,1v2.9c0.1,0.4,0.4,0.7,0.6,1c0.3,0.3,0.6,0.5,1,0.7C67.5,23.1,67.9,23.2,68.4,23.2
			 M69.9,10.9c-1.3,0-2.5,0.2-3.6,0.7c-0.4-0.2-0.8-0.4-1.3-0.4h-3.3c-1.4,0-2.5,1.1-2.5,2.5v17.8c0,1.4,1.1,2.5,2.5,2.5h3.8
			c1.4,0,2.5-1.1,2.5-2.5v-3c0.4,0.1,0.8,0.1,1.2,0.1c1.6,0,3.2-0.3,4.5-1c1.4-0.7,2.5-1.8,3.3-3.1c0.8-1.3,1.2-2.9,1.2-4.7
			c0-1.8-0.3-3.3-1-4.6c-0.7-1.4-1.7-2.5-3-3.2C72.9,11.3,71.4,10.9,69.9,10.9L69.9,10.9z M68,19.2c0,0,0.1-0.1,0.2-0.1
			c0,0,0.2,0,0.5,0c0.1,0,0.2,0,0.3,0.1c0,0,0.1,0.1,0.2,0.2c0.1,0.1,0.1,0.3,0.1,0.5c0,0.2,0,0.3-0.1,0.4c-0.1,0.1-0.2,0.2-0.3,0.3
			c-0.1,0.1-0.3,0.1-0.5,0.1c-0.1,0-0.2,0-0.3,0c0,0,0,0-0.1,0V19.2L68,19.2z"/>
	</g>
	<g class="st1">
		<path class="st4" d="M78.6,32.8c-0.7,0-1.2-0.6-1.2-1.3V13.7c0-0.7,0.6-1.2,1.2-1.2h3.3c0.5,0,0.9,0.3,1.1,0.6
			c0.2-0.1,0.5-0.2,0.7-0.3c0.9-0.4,2-0.6,3.1-0.6c1.3,0,2.5,0.3,3.6,1c1.1,0.6,1.9,1.5,2.5,2.7c0.6,1.1,0.9,2.5,0.9,4.1
			c0,1.6-0.3,2.9-1,4c-0.7,1.2-1.6,2-2.8,2.6c-1.2,0.6-2.5,0.9-3.9,0.9c-0.8,0-1.6-0.1-2.4-0.4v4.6c0,0.7-0.6,1.3-1.2,1.3H78.6z
			 M83.7,21c0.1,0.1,0.2,0.3,0.3,0.4c0.2,0.2,0.3,0.3,0.5,0.4c0.3,0.1,0.5,0.2,0.8,0.2c0.4,0,0.8-0.1,1.1-0.3
			c0.3-0.2,0.6-0.4,0.8-0.7c0.2-0.3,0.3-0.6,0.3-1c0-0.5-0.1-0.8-0.3-1.1c-0.2-0.3-0.4-0.5-0.7-0.7c-0.3-0.2-0.6-0.3-1-0.3
			c-0.4,0-0.7,0-0.9,0.1c-0.2,0.1-0.4,0.2-0.6,0.4c-0.1,0.1-0.2,0.3-0.3,0.4V21z"/>
		<path class="st3" d="M86.8,13.4c1.1,0,2.1,0.3,3,0.8c0.9,0.5,1.5,1.3,2,2.2c0.5,1,0.7,2.1,0.7,3.5c0,1.3-0.3,2.5-0.8,3.4
			c-0.6,0.9-1.3,1.7-2.3,2.1c-1,0.5-2.1,0.7-3.4,0.7c-0.7,0-1.4-0.1-2.1-0.4c-0.6-0.2-1.2-0.6-1.6-1v6.8h-3.8V13.7h3.3l0.3,1.4
			c0.6-0.5,1.2-0.9,2-1.2C84.9,13.6,85.8,13.4,86.8,13.4 M85.3,23.2c0.6,0,1.2-0.1,1.7-0.4c0.5-0.3,0.9-0.7,1.2-1.2
			c0.3-0.5,0.5-1.1,0.5-1.7c0-0.7-0.1-1.3-0.4-1.8c-0.3-0.5-0.7-0.9-1.1-1.2c-0.5-0.3-1-0.4-1.6-0.4c-0.5,0-0.9,0.1-1.3,0.2
			c-0.4,0.1-0.7,0.3-1,0.6c-0.3,0.3-0.6,0.6-0.8,1v2.9c0.1,0.4,0.4,0.7,0.6,1c0.3,0.3,0.6,0.5,1,0.7C84.4,23.1,84.8,23.2,85.3,23.2
			 M86.8,10.9c-1.3,0-2.5,0.2-3.6,0.7c-0.4-0.2-0.8-0.4-1.3-0.4h-3.3c-1.4,0-2.5,1.1-2.5,2.5v17.8c0,1.4,1.1,2.5,2.5,2.5h3.8
			c1.4,0,2.5-1.1,2.5-2.5v-3c0.4,0.1,0.8,0.1,1.2,0.1c1.6,0,3.1-0.3,4.5-1c1.4-0.7,2.5-1.8,3.3-3.1c0.8-1.3,1.2-2.9,1.2-4.7
			c0-1.8-0.3-3.3-1-4.6c-0.7-1.4-1.7-2.5-3-3.2C89.8,11.3,88.4,10.9,86.8,10.9L86.8,10.9z M85.1,19.2c0.1,0,0.3-0.1,0.5-0.1
			c0.1,0,0.2,0,0.3,0.1c0,0,0,0,0.1,0c0,0,0.1,0.1,0.2,0.2c0.1,0.1,0.1,0.3,0.1,0.5c0,0.2,0,0.3-0.1,0.4c-0.1,0.2-0.2,0.2-0.3,0.3
			c-0.2,0.1-0.3,0.1-0.5,0.1c-0.1,0-0.2,0-0.3-0.1c0,0,0,0,0,0v-1.4C85,19.2,85,19.2,85.1,19.2L85.1,19.2z"/>
	</g>
	<g class="st1">
		<path class="st4" d="M104.4,27.1c-0.7,0-1.2-0.6-1.2-1.2V14c0-0.7,0.6-1.2,1.2-1.2h0.9c-0.4-0.1-0.7-0.3-1.1-0.6
			c-0.7-0.6-1.1-1.4-1.1-2.3c0-0.9,0.4-1.8,1.1-2.4c0.7-0.5,1.4-0.8,2.2-0.8c0.8,0,1.5,0.3,2.2,0.8c0.7,0.6,1.1,1.4,1.1,2.3
			c0,0.9-0.4,1.7-1.1,2.3c-0.3,0.3-0.7,0.5-1.1,0.6h0.7c0.7,0,1.2,0.6,1.2,1.2v11.9c0,0.7-0.6,1.2-1.2,1.2H104.4z"/>
		<path class="st3" d="M106.4,7.9c0.5,0,1,0.2,1.4,0.5c0.4,0.4,0.6,0.8,0.6,1.4c0,0.6-0.2,1-0.6,1.4c-0.4,0.4-0.9,0.5-1.4,0.5
			c-0.5,0-1-0.2-1.4-0.5c-0.4-0.4-0.7-0.8-0.7-1.4c0-0.6,0.2-1,0.7-1.4C105.4,8,105.9,7.9,106.4,7.9 M108.2,14v11.9h-3.8V14H108.2
			 M106.4,5.4c-1.1,0-2.1,0.4-3,1.1c-1,0.8-1.6,2-1.6,3.3c0,0.9,0.3,1.8,0.8,2.5c-0.4,0.4-0.7,1.1-0.7,1.7v11.9
			c0,1.4,1.1,2.5,2.5,2.5h3.8c1.4,0,2.5-1.1,2.5-2.5V14c0-0.6-0.2-1.2-0.6-1.6c0.6-0.7,0.9-1.6,0.9-2.6c0-1.3-0.5-2.5-1.5-3.3
			C108.5,5.8,107.5,5.4,106.4,5.4L106.4,5.4z"/>
	</g>
	<g class="st1">
		<path class="st4" d="M120.5,27.1c-0.7,0-1.2-0.6-1.2-1.2v-7.5c0-0.1,0-0.3-0.1-0.5c0,0,0,0,0,0c0,0-0.1,0-0.4,0
			c-0.3,0-0.5,0.1-0.7,0.3c-0.3,0.2-0.5,0.6-0.7,1c-0.2,0.5-0.3,1.1-0.3,1.8v4.8c0,0.7-0.6,1.2-1.2,1.2h-3.8c-0.7,0-1.2-0.6-1.2-1.2
			V14c0-0.7,0.6-1.2,1.2-1.2h3.4c0.4,0,0.8,0.2,1,0.5c0.1-0.1,0.2-0.1,0.3-0.2c0.9-0.6,2.1-0.9,3.4-0.9c1.4,0,2.6,0.4,3.6,1.3
			c1,0.9,1.6,2.1,1.6,3.5v8.9c0,0.7-0.6,1.2-1.2,1.2H120.5z"/>
		<path class="st3" d="M120.3,13.4c1.1,0,2.1,0.3,2.8,1c0.7,0.7,1.1,1.5,1.2,2.6v8.9h-3.8v-7.5c0-0.5-0.2-0.9-0.4-1.3
			c-0.3-0.3-0.7-0.5-1.3-0.5c-0.6,0-1.1,0.2-1.5,0.6c-0.4,0.4-0.8,0.9-1,1.5c-0.2,0.7-0.4,1.4-0.4,2.3v4.8h-3.8V14h3.4l0.3,1.9
			c0.4-0.7,1-1.3,1.7-1.8C118.3,13.7,119.2,13.4,120.3,13.4 M120.3,10.9c-1.4,0-2.6,0.3-3.7,0.8c-0.3-0.2-0.7-0.3-1.1-0.3h-3.4
			c-1.4,0-2.5,1.1-2.5,2.5v11.9c0,1.4,1.1,2.5,2.5,2.5h3.8c1,0,1.9-0.6,2.3-1.5c0.4,0.9,1.3,1.5,2.3,1.5h3.8c1.4,0,2.5-1.1,2.5-2.5
			V17c0,0,0,0,0-0.1c0-1.7-0.7-3.2-2-4.4C123.5,11.5,122,10.9,120.3,10.9L120.3,10.9z"/>
	</g>
	<g class="st1">
		<path class="st4" d="M129.3,27.1c-0.7,0-1.2-0.6-1.2-1.2v-7.3h-0.8c-0.7,0-1.2-0.6-1.2-1.2v-3.4c0-0.7,0.6-1.2,1.2-1.2h0.8V9.8
			c0-1.9,0.6-3.4,1.7-4.7c1.1-1.3,2.8-1.9,4.8-1.9c0.6,0,1.3,0.1,2,0.3c0.8,0.2,1.5,0.5,2.1,1c0.5,0.4,0.7,1.1,0.3,1.6l-1.6,2.7
			c-0.2,0.4-0.6,0.6-1,0.6c0,0-0.1,0-0.1,0c-0.4,0-0.8-0.2-1-0.5c-0.2-0.1-0.3-0.1-0.3-0.1c-0.3,0-0.4,0.1-0.4,0.2
			c0,0-0.2,0.2-0.2,0.9v2.8h2.3c0.7,0,1.2,0.6,1.2,1.2v3.4c0,0.7-0.6,1.2-1.2,1.2h-2.3v7.3c0,0.7-0.6,1.2-1.2,1.2H129.3z"/>
		<path class="st3" d="M134.6,4.5c0.5,0,1.1,0.1,1.7,0.2c0.6,0.2,1.2,0.4,1.6,0.7l-1.6,2.7c-0.2-0.2-0.4-0.4-0.6-0.5
			c-0.2-0.1-0.5-0.1-0.7-0.1c-0.5,0-1,0.2-1.3,0.5c-0.3,0.4-0.5,0.9-0.5,1.7v4h3.6v3.4h-3.6v8.5h-3.8v-8.5h-2v-3.4h2V9.8
			c0-1.6,0.4-2.8,1.3-3.8C131.6,5,132.9,4.5,134.6,4.5 M134.6,2c-2.4,0-4.4,0.8-5.7,2.3c-1.3,1.5-2,3.3-2,5.5v1.7
			c-1.1,0.2-2,1.2-2,2.5v3.4c0,1.2,0.9,2.2,2,2.5v6.1c0,1.4,1.1,2.5,2.5,2.5h3.8c1.4,0,2.5-1.1,2.5-2.5v-6h1.1
			c1.4,0,2.5-1.1,2.5-2.5v-3.4c0-1.4-1.1-2.5-2.5-2.5h-1.1v-0.8c0.2,0.1,0.4,0.1,0.7,0.1c0.1,0,0.1,0,0.2,0c0.8-0.1,1.6-0.5,2-1.2
			l1.6-2.7c0.6-1.1,0.4-2.5-0.7-3.3c-0.7-0.5-1.6-0.9-2.5-1.2C136,2.1,135.3,2,134.6,2L134.6,2z"/>
	</g>
	<g class="st1">
		<path class="st4" d="M145,27.4c-1.5,0-2.8-0.3-4-0.9c-1.2-0.6-2.2-1.5-2.9-2.7c-0.7-1.2-1-2.5-1-4.1c0-1.4,0.3-2.7,1-3.9
			c0.7-1.2,1.7-2.1,2.9-2.7c1.2-0.6,2.6-1,4.1-1c1.6,0,3,0.3,4.1,1c1.2,0.7,2.1,1.6,2.8,2.8c0.6,1.1,1,2.4,1,3.9
			c0,1.4-0.3,2.7-1,3.9c-0.6,1.2-1.6,2.1-2.8,2.8C148,27.1,146.6,27.4,145,27.4z M145,17.8c-0.3,0-0.5,0.1-0.8,0.2
			c-0.3,0.2-0.5,0.4-0.6,0.7c-0.2,0.3-0.2,0.7-0.2,1.1c0,0.4,0.1,0.8,0.2,1.1c0.2,0.3,0.4,0.5,0.6,0.7c0.2,0.2,0.5,0.2,0.8,0.2
			c0.3,0,0.6-0.1,0.9-0.2c0.2-0.2,0.4-0.4,0.6-0.7c0.2-0.3,0.2-0.7,0.2-1.1c0-0.4-0.1-0.8-0.2-1.1c-0.1-0.3-0.3-0.5-0.6-0.7
			C145.6,17.8,145.3,17.8,145,17.8z"/>
		<path class="st3" d="M145.1,13.4c1.4,0,2.5,0.3,3.5,0.8c1,0.6,1.8,1.3,2.3,2.3c0.5,1,0.8,2,0.8,3.3c0,1.2-0.3,2.3-0.8,3.3
			c-0.5,1-1.3,1.7-2.3,2.3s-2.2,0.8-3.6,0.8c-1.3,0-2.5-0.3-3.5-0.8s-1.8-1.2-2.4-2.2c-0.6-1-0.9-2.1-0.9-3.4c0-1.2,0.3-2.3,0.9-3.3
			c0.6-1,1.4-1.7,2.4-2.3C142.5,13.7,143.7,13.4,145.1,13.4 M145,23.1c0.6,0,1.1-0.1,1.5-0.4c0.4-0.3,0.8-0.7,1-1.2
			c0.2-0.5,0.4-1.1,0.4-1.7c0-0.6-0.1-1.2-0.4-1.7c-0.2-0.5-0.6-0.9-1-1.2c-0.4-0.3-0.9-0.4-1.5-0.4c-0.5,0-1,0.1-1.5,0.4
			c-0.4,0.3-0.8,0.7-1,1.2c-0.3,0.5-0.4,1-0.4,1.7c0,0.6,0.1,1.2,0.4,1.7c0.3,0.5,0.6,0.9,1,1.2C143.9,22.9,144.4,23.1,145,23.1
			 M145.1,10.9c-1.7,0-3.3,0.4-4.7,1.1c-1.4,0.8-2.6,1.8-3.4,3.2c-0.8,1.3-1.2,2.9-1.2,4.5c0,1.8,0.4,3.4,1.2,4.7
			c0.8,1.4,2,2.4,3.4,3.1c1.4,0.7,2.9,1,4.6,1c1.8,0,3.4-0.4,4.8-1.2c1.4-0.8,2.5-1.9,3.3-3.3c0.7-1.3,1.1-2.8,1.1-4.5
			c0-1.6-0.4-3.1-1.1-4.5c-0.8-1.4-1.9-2.5-3.3-3.2C148.4,11.3,146.8,10.9,145.1,10.9L145.1,10.9z M145,20.6
			C144.9,20.6,144.9,20.6,145,20.6c-0.1,0-0.2-0.1-0.3-0.2c-0.1-0.1-0.1-0.3-0.1-0.5c0-0.2,0-0.4,0.1-0.5c0.1-0.1,0.1-0.2,0.2-0.2
			c0,0,0,0,0.1,0c0.1,0,0.2,0,0.2,0c0,0,0.1,0.1,0.1,0.2c0.1,0.1,0.1,0.3,0.1,0.6c0,0.2,0,0.4-0.1,0.6c-0.1,0.1-0.1,0.2-0.1,0.2
			C145.1,20.6,145.1,20.6,145,20.6L145,20.6z"/>
	</g>
	<g class="st1">
		<path class="st4" d="M154.7,27.1c-0.7,0-1.2-0.6-1.2-1.2V14c0-0.7,0.6-1.2,1.2-1.2h3.4c0.6,0,1.1,0.4,1.2,1
			c0.6-0.4,1.1-0.8,1.7-1.1c0.8-0.4,1.4-0.5,1.9-0.5c0.3,0,0.7,0.1,0.9,0.4c0.2,0.2,0.4,0.6,0.3,0.9l-0.2,3.8c0,0.3-0.2,0.7-0.4,0.9
			c-0.2,0.2-0.5,0.3-0.8,0.3c0,0-0.1,0-0.1,0c-0.1,0-0.3,0-0.4,0c-0.4,0-0.8,0.1-1.1,0.3c-0.5,0.3-0.8,0.6-1,1.1
			c-0.3,0.5-0.4,1-0.4,1.4v4.6c0,0.7-0.6,1.2-1.2,1.2H154.7z"/>
		<path class="st3" d="M162.9,13.4l-0.2,3.8c-0.2,0-0.4,0-0.5,0c-0.7,0-1.2,0.2-1.7,0.5c-0.6,0.4-1.1,0.9-1.5,1.6
			c-0.3,0.6-0.5,1.3-0.5,2v4.6h-3.8V14h3.4l0.3,2.7c0.4-0.7,0.8-1.3,1.4-1.8c0.6-0.5,1.2-0.9,1.8-1.2
			C162.1,13.5,162.6,13.4,162.9,13.4 M162.9,10.9c-0.7,0-1.5,0.2-2.4,0.6c-0.3,0.1-0.6,0.3-0.9,0.5c-0.4-0.3-0.9-0.5-1.5-0.5h-3.4
			c-1.4,0-2.5,1.1-2.5,2.5v11.9c0,1.4,1.1,2.5,2.5,2.5h3.8c1.4,0,2.5-1.1,2.5-2.5v-4.6c0-0.3,0.1-0.5,0.2-0.8
			c0.1-0.3,0.3-0.4,0.6-0.6c0,0,0.1-0.1,0.4-0.1c0.1,0,0.2,0,0.2,0c0.1,0,0.2,0,0.3,0c0.6,0,1.2-0.2,1.6-0.6
			c0.5-0.4,0.8-1.1,0.9-1.8l0.2-3.8c0-0.7-0.2-1.4-0.7-1.8C164.2,11.2,163.6,10.9,162.9,10.9L162.9,10.9z M162.9,15.9L162.9,15.9
			L162.9,15.9L162.9,15.9z"/>
	</g>
	<g class="st1">
		<path class="st4" d="M177.5,15.7c0,0-0.1,0.1-0.1,0.1l0.1,0C177.5,15.8,177.5,15.8,177.5,15.7z"/>
		<path class="st3" d="M177.5,15.7c0,0,0,0.1,0,0.1l-0.1,0C177.4,15.8,177.4,15.8,177.5,15.7 M177.5,13.2c-0.8,0-1.5,0.4-2,1
			l-0.1,0.1l0,0.1c-0.6,0.8-0.7,2-0.1,2.9c0.5,0.7,1.3,1.1,2.1,1.1c0.2,0,0.4,0,0.6-0.1l0.1,0c0.7-0.2,1.3-0.6,1.6-1.2
			c0.3-0.6,0.4-1.2,0.2-1.8c-0.1-0.3-0.2-0.6-0.4-0.8C179.1,13.7,178.3,13.3,177.5,13.2C177.5,13.2,177.5,13.2,177.5,13.2
			L177.5,13.2z"/>
	</g>
	<g class="st1">
		<path class="st4" d="M181.5,27.1c-0.7,0-1.2-0.6-1.2-1.2v-7.3c0-0.3,0-0.5-0.1-0.6c0,0,0,0,0,0c-0.2,0-0.4,0.1-0.6,0.3
			c-0.3,0.3-0.5,0.6-0.6,1.1c-0.2,0.5-0.2,1.1-0.2,1.7v4.9c0,0.7-0.6,1.2-1.2,1.2h-3.8c-0.7,0-1.2-0.6-1.2-1.2v-7.3
			c0-0.3-0.1-0.5-0.1-0.6c0,0,0,0-0.1,0c-0.2,0-0.4,0.1-0.5,0.3c-0.3,0.3-0.5,0.7-0.6,1.1c-0.2,0.5-0.2,1.1-0.2,1.6v4.9
			c0,0.7-0.6,1.2-1.2,1.2h-3.8c-0.7,0-1.2-0.6-1.2-1.2V14c0-0.7,0.6-1.2,1.2-1.2h3.4c0.4,0,0.8,0.2,1,0.5c0.1-0.1,0.2-0.2,0.3-0.2
			c0.9-0.6,2-0.9,3.2-0.9c0.8,0,1.5,0.1,2.1,0.3c0.7,0.2,1.2,0.6,1.7,1.1c0,0,0,0,0,0c0.3-0.2,0.5-0.4,0.8-0.6
			c0.9-0.6,1.9-0.9,2.9-0.9c1.5,0,2.7,0.4,3.7,1.3c0.9,0.9,1.4,2.1,1.5,3.5v8.9c0,0.7-0.6,1.2-1.2,1.2H181.5z"/>
		<path class="st3" d="M181.4,13.4c1.2,0,2.1,0.3,2.8,1c0.7,0.7,1.1,1.5,1.1,2.6v8.9h-3.8v-7.3c0-0.5-0.1-0.9-0.2-1.3
			c-0.1-0.3-0.5-0.5-1-0.6c-0.6,0-1.1,0.2-1.6,0.6c-0.4,0.4-0.7,1-0.9,1.6c-0.2,0.7-0.3,1.3-0.3,2v4.9h-3.8v-7.3
			c0-0.5-0.1-0.9-0.3-1.3c-0.2-0.3-0.5-0.5-1.1-0.6c-0.6,0-1.1,0.2-1.5,0.6c-0.4,0.4-0.7,1-0.9,1.6c-0.2,0.6-0.3,1.3-0.3,2v4.9h-3.8
			V14h3.4l0.3,1.9c0.5-0.8,1.1-1.4,1.7-1.8c0.7-0.4,1.6-0.7,2.6-0.7c0.6,0,1.2,0.1,1.7,0.3c0.5,0.2,0.9,0.5,1.3,0.8
			c0.3,0.3,0.5,0.8,0.7,1.3c0,0-0.1,0.1-0.1,0.1l0.1,0c0,0,0-0.1,0-0.1c0.5-0.7,1.1-1.2,1.7-1.7C179.9,13.6,180.6,13.4,181.4,13.4
			 M181.4,10.9c-1.3,0-2.5,0.4-3.6,1.1c0,0-0.1,0-0.1,0.1c-0.4-0.3-0.9-0.5-1.4-0.7c-0.8-0.3-1.6-0.4-2.6-0.4
			c-1.3,0-2.5,0.3-3.5,0.8c-0.3-0.1-0.7-0.2-1.1-0.2h-3.4c-1.4,0-2.5,1.1-2.5,2.5v11.9c0,1.4,1.1,2.5,2.5,2.5h3.8c0.8,0,1.6-0.4,2-1
			c0.5,0.6,1.2,1,2,1h3.8c0.8,0,1.6-0.4,2-1c0.5,0.6,1.2,1,2,1h3.8c1.4,0,2.5-1.1,2.5-2.5V17c0-1.7-0.7-3.3-1.8-4.4
			C184.8,11.5,183.2,10.9,181.4,10.9L181.4,10.9z"/>
	</g>
	<g class="st1">
		<path class="st4" d="M194.2,27.4c-1.3,0-2.5-0.3-3.6-0.8c-1.1-0.6-2-1.4-2.7-2.6c-0.6-1.1-1-2.5-1-4.1c0-1.5,0.3-2.9,1-4.1
			c0.7-1.2,1.5-2.1,2.6-2.7c1.1-0.7,2.2-1,3.5-1c1.4,0,2.5,0.3,3.3,0.8c0.1,0,0.1,0.1,0.2,0.1c0.2-0.2,0.5-0.3,0.8-0.3h3.5
			c0.7,0,1.2,0.6,1.2,1.2v11.9c0,0.7-0.6,1.2-1.2,1.2h-3.8c-0.4,0-0.7-0.2-0.9-0.4c-0.2,0.1-0.5,0.2-0.7,0.3
			C195.8,27.3,195,27.4,194.2,27.4z M195.2,17.7c-0.3,0-0.6,0.1-0.9,0.2c-0.3,0.2-0.5,0.4-0.7,0.7c-0.2,0.3-0.2,0.7-0.2,1.1
			c0,0.4,0.1,0.8,0.3,1.1c0.2,0.3,0.4,0.6,0.7,0.8c0.3,0.2,0.6,0.2,0.9,0.2c0.3,0,0.6,0,0.8-0.1c0.2-0.1,0.4-0.2,0.5-0.3
			c0.1-0.1,0.2-0.3,0.3-0.4v-2.3c-0.1-0.1-0.2-0.3-0.3-0.4c-0.2-0.2-0.4-0.3-0.6-0.4C195.8,17.8,195.5,17.7,195.2,17.7z"/>
		<path class="st3" d="M194.1,13.4c1.2,0,2.1,0.2,2.7,0.6c0.6,0.4,1.1,0.8,1.4,1.2l0.2-1.2h3.5v11.9h-3.8v-1.5c0,0,0,0,0,0
			c-0.2,0.2-0.5,0.5-0.8,0.7c-0.4,0.3-0.8,0.5-1.3,0.7c-0.5,0.2-1.1,0.3-1.8,0.3c-1.1,0-2.1-0.2-3-0.7c-0.9-0.4-1.6-1.1-2.1-2
			c-0.5-0.9-0.8-2.1-0.8-3.5c0-1.3,0.3-2.5,0.8-3.5c0.5-1,1.3-1.7,2.1-2.3C192.1,13.7,193.1,13.4,194.1,13.4 M195.3,23.1
			c0.5,0,0.8-0.1,1.2-0.2c0.4-0.1,0.7-0.3,0.9-0.6c0.3-0.3,0.5-0.6,0.7-1v-2.9c-0.1-0.4-0.4-0.7-0.7-1c-0.3-0.3-0.6-0.5-1-0.7
			c-0.4-0.1-0.8-0.2-1.3-0.2c-0.5,0-1.1,0.1-1.5,0.4c-0.5,0.3-0.8,0.7-1.1,1.2s-0.4,1.1-0.4,1.7c0,0.6,0.1,1.2,0.4,1.7
			c0.3,0.5,0.7,0.9,1.2,1.2C194.2,22.9,194.7,23.1,195.3,23.1 M194.1,10.9c-1.5,0-2.8,0.4-4.1,1.2c-1.3,0.8-2.3,1.8-3,3.2
			c-0.8,1.4-1.1,2.9-1.1,4.7c0,1.8,0.4,3.4,1.1,4.8c0.8,1.4,1.9,2.4,3.2,3.1c1.3,0.6,2.6,0.9,4.1,0.9c1,0,1.9-0.2,2.7-0.5
			c0.1,0,0.1,0,0.2-0.1c0.3,0.1,0.7,0.2,1,0.2h3.8c1.4,0,2.5-1.1,2.5-2.5V14c0-1.4-1.1-2.5-2.5-2.5h-3.5c-0.3,0-0.5,0-0.8,0.1
			C196.7,11.1,195.5,10.9,194.1,10.9L194.1,10.9z M195.3,20.6c-0.1,0-0.2,0-0.3-0.1c-0.1-0.1-0.2-0.1-0.2-0.3
			c-0.1-0.1-0.1-0.3-0.1-0.5c0-0.1,0-0.3,0.1-0.5c0.1-0.1,0.1-0.2,0.2-0.3c0,0,0.1,0,0.2,0c0.2,0,0.3,0,0.4,0.1c0,0,0.1,0,0.1,0v1.4
			c0,0,0,0,0,0C195.6,20.6,195.5,20.6,195.3,20.6L195.3,20.6z"/>
	</g>
	<g class="st1">
		<path class="st4" d="M207,27.1c-0.7,0-1.2-0.6-1.2-1.2v-7.7h-0.6c-0.7,0-1.2-0.6-1.2-1.2v-3c0-0.7,0.6-1.2,1.2-1.2h0.6V8.8
			c0-0.7,0.6-1.3,1.2-1.3h3.8c0.7,0,1.2,0.6,1.2,1.3v3.9h1.6c0.7,0,1.2,0.6,1.2,1.2v3c0,0.7-0.6,1.2-1.2,1.2H212v7.7
			c0,0.7-0.6,1.2-1.2,1.2H207z"/>
		<path class="st3" d="M210.8,8.8v5.2h2.9v3h-2.9v9H207v-9h-1.8v-3h1.8V8.8H210.8 M210.8,6.3H207c-1.4,0-2.5,1.1-2.5,2.5v2.7
			c-1.1,0.3-1.8,1.3-1.8,2.4v3c0,1.2,0.8,2.1,1.8,2.4v6.5c0,1.4,1.1,2.5,2.5,2.5h3.8c1.4,0,2.5-1.1,2.5-2.5v-6.5h0.4
			c1.4,0,2.5-1.1,2.5-2.5v-3c0-1.4-1.1-2.5-2.5-2.5h-0.4V8.8C213.3,7.4,212.2,6.3,210.8,6.3L210.8,6.3z"/>
	</g>
	<g class="st1">
		<path class="st4" d="M216.6,27.1c-0.7,0-1.2-0.6-1.2-1.2V14c0-0.7,0.6-1.2,1.2-1.2h0.9c-0.4-0.1-0.7-0.3-1.1-0.6
			c-0.7-0.6-1.1-1.4-1.1-2.3c0-0.9,0.4-1.8,1.1-2.4c0.7-0.5,1.4-0.8,2.2-0.8c0.8,0,1.6,0.3,2.2,0.8c0.7,0.6,1.1,1.4,1.1,2.3
			c0,0.9-0.4,1.7-1.1,2.3c-0.3,0.3-0.7,0.5-1.1,0.6h0.7c0.7,0,1.2,0.6,1.2,1.2v11.9c0,0.7-0.6,1.2-1.2,1.2H216.6z"/>
		<path class="st3" d="M218.6,7.9c0.5,0,1,0.2,1.4,0.5c0.4,0.4,0.6,0.8,0.6,1.4c0,0.6-0.2,1-0.6,1.4c-0.4,0.4-0.9,0.5-1.4,0.5
			s-1-0.2-1.4-0.5c-0.4-0.4-0.7-0.8-0.7-1.4c0-0.6,0.2-1,0.7-1.4C217.6,8,218.1,7.9,218.6,7.9 M220.4,14v11.9h-3.8V14H220.4
			 M218.6,5.4c-1.1,0-2.1,0.4-3,1.1c-1,0.8-1.6,2-1.6,3.3c0,0.9,0.3,1.8,0.8,2.5c-0.4,0.4-0.7,1.1-0.7,1.7v11.9
			c0,1.4,1.1,2.5,2.5,2.5h3.8c1.4,0,2.5-1.1,2.5-2.5V14c0-0.6-0.2-1.2-0.6-1.6c0.6-0.7,0.8-1.6,0.8-2.6c0-1.3-0.5-2.5-1.5-3.3
			C220.7,5.8,219.7,5.4,218.6,5.4L218.6,5.4z"/>
	</g>
	<g class="st1">
		<path class="st4" d="M230.1,27.4c-1.5,0-2.8-0.3-4-0.9c-1.2-0.6-2.2-1.5-2.9-2.7c-0.7-1.2-1-2.5-1-4.1c0-1.4,0.3-2.7,1-3.9
			c0.7-1.2,1.7-2.1,2.9-2.7c1.2-0.6,2.6-1,4.1-1c1.6,0,3,0.3,4.1,1c1.2,0.7,2.1,1.6,2.8,2.8c0.6,1.1,1,2.4,1,3.9
			c0,1.4-0.3,2.7-1,3.9c-0.6,1.2-1.6,2.1-2.8,2.8C233.1,27.1,231.7,27.4,230.1,27.4z M230,17.8c-0.3,0-0.5,0.1-0.8,0.2
			c-0.3,0.2-0.5,0.4-0.6,0.7c-0.2,0.3-0.2,0.7-0.2,1.1c0,0.4,0.1,0.8,0.2,1.1c0.2,0.3,0.4,0.5,0.6,0.7c0.2,0.2,0.5,0.2,0.8,0.2
			c0.3,0,0.6-0.1,0.9-0.2c0.2-0.2,0.4-0.4,0.6-0.7c0.2-0.3,0.2-0.7,0.2-1.1c0-0.4-0.1-0.8-0.2-1.1c-0.1-0.3-0.3-0.5-0.6-0.7
			C230.7,17.8,230.4,17.8,230,17.8z"/>
		<path class="st3" d="M230.2,13.4c1.4,0,2.5,0.3,3.5,0.8c1,0.6,1.8,1.3,2.3,2.3c0.5,1,0.8,2,0.8,3.3c0,1.2-0.3,2.3-0.8,3.3
			c-0.5,1-1.3,1.7-2.3,2.3s-2.2,0.8-3.6,0.8c-1.3,0-2.5-0.3-3.5-0.8s-1.8-1.2-2.4-2.2c-0.6-1-0.9-2.1-0.9-3.4c0-1.2,0.3-2.3,0.9-3.3
			c0.6-1,1.4-1.7,2.4-2.3C227.6,13.7,228.8,13.4,230.2,13.4 M230,23.1c0.6,0,1.1-0.1,1.5-0.4c0.4-0.3,0.8-0.7,1-1.2
			c0.2-0.5,0.4-1.1,0.4-1.7c0-0.6-0.1-1.2-0.4-1.7c-0.2-0.5-0.6-0.9-1-1.2c-0.4-0.3-0.9-0.4-1.5-0.4c-0.5,0-1,0.1-1.5,0.4
			c-0.4,0.3-0.8,0.7-1,1.2c-0.3,0.5-0.4,1-0.4,1.7c0,0.6,0.1,1.2,0.4,1.7c0.3,0.5,0.6,0.9,1,1.2C229,22.9,229.5,23.1,230,23.1
			 M230.2,10.9c-1.7,0-3.3,0.4-4.7,1.1c-1.4,0.8-2.6,1.8-3.4,3.2c-0.8,1.3-1.2,2.9-1.2,4.5c0,1.8,0.4,3.4,1.2,4.7
			c0.8,1.4,2,2.4,3.4,3.1c1.4,0.7,2.9,1,4.6,1c1.8,0,3.4-0.4,4.8-1.2c1.4-0.8,2.5-1.9,3.3-3.3c0.7-1.3,1.1-2.8,1.1-4.5
			c0-1.6-0.4-3.1-1.1-4.5c-0.8-1.4-1.9-2.5-3.3-3.2C233.5,11.3,231.9,10.9,230.2,10.9L230.2,10.9z M230,20.6
			C230,20.6,230,20.6,230,20.6c-0.1,0-0.2-0.1-0.3-0.2c-0.1-0.1-0.1-0.3-0.1-0.5c0-0.2,0-0.4,0.1-0.5c0.1-0.1,0.1-0.2,0.2-0.2
			c0,0,0,0,0.1,0c0.1,0,0.2,0,0.2,0c0,0,0.1,0.1,0.1,0.2c0.1,0.1,0.1,0.3,0.1,0.6c0,0.2,0,0.4-0.1,0.6c-0.1,0.1-0.1,0.2-0.1,0.2
			C230.2,20.6,230.1,20.6,230,20.6L230,20.6z"/>
	</g>
	<g class="st1">
		<path class="st4" d="M248.2,27.1c-0.7,0-1.2-0.6-1.2-1.2v-7.5c0-0.2,0-0.4-0.1-0.5c0,0,0,0,0,0c0,0-0.1,0-0.3,0
			c-0.3,0-0.5,0.1-0.7,0.3c-0.3,0.2-0.5,0.6-0.7,1c-0.2,0.5-0.3,1.1-0.3,1.8v4.8c0,0.7-0.6,1.2-1.2,1.2h-3.8c-0.7,0-1.2-0.6-1.2-1.2
			V14c0-0.7,0.6-1.2,1.2-1.2h3.4c0.4,0,0.8,0.2,1,0.5c0.1-0.1,0.2-0.1,0.3-0.2c0.9-0.6,2.1-0.9,3.4-0.9c1.4,0,2.7,0.4,3.6,1.3
			c1,0.9,1.6,2.1,1.6,3.5v8.9c0,0.7-0.6,1.2-1.2,1.2H248.2z"/>
		<path class="st3" d="M248,13.4c1.1,0,2.1,0.3,2.8,1c0.8,0.7,1.1,1.5,1.2,2.6v8.9h-3.8v-7.5c0-0.5-0.2-0.9-0.4-1.3
			c-0.3-0.3-0.7-0.5-1.3-0.5c-0.6,0-1.1,0.2-1.5,0.6c-0.4,0.4-0.8,0.9-1,1.5c-0.2,0.7-0.4,1.4-0.4,2.3v4.8h-3.8V14h3.4l0.3,1.9
			c0.4-0.7,1-1.3,1.8-1.8C246,13.7,246.9,13.4,248,13.4 M248,10.9c-1.4,0-2.6,0.3-3.7,0.8c-0.3-0.2-0.7-0.3-1.1-0.3h-3.4
			c-1.4,0-2.5,1.1-2.5,2.5v11.9c0,1.4,1.1,2.5,2.5,2.5h3.8c1,0,1.9-0.6,2.3-1.5c0.4,0.9,1.3,1.5,2.3,1.5h3.8c1.4,0,2.5-1.1,2.5-2.5
			V17c0-1.8-0.7-3.3-2-4.4C251.3,11.5,249.7,10.9,248,10.9L248,10.9z"/>
	</g>
</g>
<g class="st0">
	<g class="st1">
		<path class="st4" d="M17.6,27.8c-0.5,0-1-0.3-1.2-0.8l-1.2-3.1h-4.9L9,27.1c-0.2,0.5-0.6,0.8-1.2,0.8H4c-0.4,0-0.8-0.2-1-0.6
			s-0.3-0.8-0.1-1.2l9-20.8C12,4.9,12.5,4.6,13,4.6h0.2c0.5,0,0.9,0.3,1.1,0.8l9,20.8c0.2,0.4,0.1,0.8-0.1,1.2s-0.6,0.6-1,0.6H17.6z
			 M13,18.1l-0.1-0.3l-0.1,0.3H13z"/>
		<path class="st3" d="M13.2,5.8l9,20.8h-4.6l-1.5-3.9H9.5l-1.6,3.9H4l9-20.8H13.2 M10.9,19.4h3.9l-1.9-4.9L10.9,19.4 M13.2,3.3H13
			c-1,0-1.9,0.6-2.3,1.5l-9,20.8c-0.3,0.8-0.3,1.7,0.2,2.4c0.5,0.7,1.2,1.1,2.1,1.1h3.9c1,0,1.9-0.6,2.3-1.5l1-2.4h3.3l0.9,2.3
			c0.4,1,1.3,1.6,2.3,1.6h4.6c0.8,0,1.6-0.4,2.1-1.1c0.5-0.7,0.5-1.6,0.2-2.4l-9-20.8C15.1,3.9,14.2,3.3,13.2,3.3L13.2,3.3z"/>
	</g>
	<g class="st1">
		<path class="st4" d="M24.5,27.8c-0.7,0-1.2-0.6-1.2-1.2V5.2c0-0.7,0.6-1.2,1.2-1.2h3.8c0.7,0,1.2,0.6,1.2,1.2v21.4
			c0,0.7-0.6,1.2-1.2,1.2H24.5z"/>
		<path class="st3" d="M28.3,5.2v21.4h-3.8V5.2H28.3 M28.3,2.7h-3.8c-1.4,0-2.5,1.1-2.5,2.5v21.4c0,1.4,1.1,2.5,2.5,2.5h3.8
			c1.4,0,2.5-1.1,2.5-2.5V5.2C30.8,3.8,29.7,2.7,28.3,2.7L28.3,2.7z"/>
	</g>
	<g class="st1">
		<path class="st4" d="M38,28.2c-1.5,0-2.9-0.3-4.1-0.9c-1.2-0.6-2.2-1.5-2.9-2.6c-0.7-1.1-1-2.5-1-4c0-1.6,0.4-2.9,1.1-4.1
			c0.7-1.1,1.7-2,2.8-2.6c1.1-0.6,2.4-0.9,3.6-0.9c1.2,0,2.3,0.2,3.2,0.5c0.9,0.3,1.7,0.8,2.4,1.4c0.5,0.4,0.6,1.2,0.2,1.7l-1.8,2.4
			c-0.2,0.3-0.5,0.4-0.8,0.5c-0.1,0-0.1,0-0.2,0c-0.3,0-0.5-0.1-0.8-0.3c-0.1-0.1-0.4-0.3-0.8-0.5c-0.3-0.1-0.6-0.2-1-0.2
			c-0.3,0-0.5,0.1-0.8,0.2c-0.2,0.2-0.4,0.4-0.6,0.6c-0.2,0.3-0.2,0.6-0.2,1c0,0.4,0.1,0.7,0.2,1c0.2,0.3,0.4,0.5,0.7,0.7
			c0.3,0.2,0.6,0.2,1.1,0.2c0.3,0,0.5,0,0.8-0.1c0.2-0.1,0.4-0.2,0.5-0.3c0.2-0.2,0.5-0.3,0.8-0.3c0,0,0.1,0,0.1,0
			c0.3,0,0.6,0.2,0.9,0.5l1.9,2.4c0.2,0.3,0.3,0.6,0.3,0.9c0,0.3-0.2,0.6-0.5,0.8c-0.6,0.5-1.4,0.9-2.4,1.2
			C39.8,28,38.9,28.2,38,28.2z"/>
		<path class="st3" d="M37.6,14.4c1.1,0,2,0.1,2.8,0.4c0.8,0.3,1.5,0.7,2,1.1l-1.8,2.4c-0.3-0.2-0.6-0.4-1-0.6
			c-0.4-0.2-1-0.3-1.6-0.3c-0.5,0-1,0.1-1.4,0.4c-0.4,0.3-0.8,0.6-1,1.1s-0.4,1-0.4,1.6c0,0.6,0.1,1.1,0.4,1.6
			c0.3,0.5,0.6,0.9,1.1,1.2s1,0.4,1.7,0.4c0.4,0,0.8-0.1,1.2-0.2c0.4-0.1,0.7-0.3,0.9-0.5l1.9,2.4c-0.5,0.4-1.2,0.8-2,1
			c-0.8,0.3-1.6,0.4-2.3,0.4c-1.4,0-2.5-0.2-3.5-0.7c-1-0.5-1.8-1.2-2.3-2.1c-0.6-0.9-0.8-2.1-0.8-3.4s0.3-2.4,0.9-3.4
			c0.6-0.9,1.4-1.6,2.3-2.1C35.5,14.6,36.5,14.4,37.6,14.4 M37.6,11.9c-1.5,0-2.9,0.3-4.2,1c-1.4,0.7-2.5,1.7-3.3,3
			c-0.9,1.3-1.3,2.9-1.3,4.7c0,1.8,0.4,3.3,1.2,4.7c0.8,1.3,1.9,2.4,3.4,3.1c1.3,0.7,2.9,1,4.7,1c1,0,2.1-0.2,3.1-0.5
			c1.1-0.3,2-0.8,2.8-1.4c0.5-0.4,0.9-1,0.9-1.7c0.1-0.7-0.1-1.3-0.5-1.8l-1.9-2.4c-0.3-0.4-0.6-0.6-1.1-0.8
			c0.5-0.2,0.9-0.5,1.3-0.9l1.8-2.4c0.8-1.1,0.6-2.6-0.4-3.4c-0.8-0.7-1.7-1.2-2.8-1.6C40.1,12.1,38.9,11.9,37.6,11.9L37.6,11.9z
			 M38.3,21.3c-0.2,0-0.3,0-0.4-0.1c-0.1-0.1-0.2-0.1-0.2-0.2c-0.1-0.1-0.1-0.2-0.1-0.4c0-0.1,0-0.3,0.1-0.4
			c0.1-0.1,0.1-0.2,0.2-0.2c0,0,0,0,0.1,0c0.3,0,0.5,0.1,0.5,0.1c0.4,0.2,0.5,0.3,0.6,0.3c0.2,0.2,0.4,0.3,0.6,0.4
			c-0.3,0.1-0.6,0.3-0.9,0.5c0,0,0,0,0,0c0,0,0,0-0.1,0C38.6,21.3,38.4,21.3,38.3,21.3L38.3,21.3z"/>
	</g>
	<g class="st1">
		<path class="st4" d="M51,28.2c-1.5,0-2.9-0.3-4-0.9c-1.2-0.6-2.2-1.5-2.9-2.7c-0.7-1.2-1-2.5-1-4.1c0-1.4,0.3-2.7,1-3.9
			c0.7-1.2,1.7-2.1,2.9-2.7c1.2-0.6,2.6-1,4.1-1c1.6,0,3,0.3,4.1,1c1.2,0.7,2.1,1.6,2.8,2.7c0.6,1.1,1,2.4,1,3.9
			c0,1.4-0.3,2.7-1,3.9c-0.6,1.2-1.6,2.1-2.8,2.8C54,27.8,52.6,28.2,51,28.2z M51,18.5c-0.3,0-0.5,0.1-0.8,0.2
			c-0.3,0.2-0.5,0.4-0.6,0.7c-0.2,0.3-0.2,0.7-0.2,1.1c0,0.4,0.1,0.8,0.2,1.1c0.2,0.3,0.4,0.5,0.6,0.7c0.2,0.2,0.5,0.2,0.8,0.2
			c0.3,0,0.6-0.1,0.9-0.2c0.2-0.2,0.4-0.4,0.6-0.7c0.2-0.3,0.2-0.7,0.2-1.1c0-0.4-0.1-0.8-0.2-1.1c-0.1-0.3-0.3-0.5-0.6-0.7
			C51.6,18.6,51.3,18.5,51,18.5z"/>
		<path class="st3" d="M51.1,14.2c1.4,0,2.5,0.3,3.5,0.8c1,0.6,1.8,1.3,2.3,2.3c0.5,1,0.8,2,0.8,3.3c0,1.2-0.3,2.3-0.8,3.3
			c-0.5,1-1.3,1.7-2.3,2.3c-1,0.6-2.2,0.8-3.6,0.8c-1.3,0-2.5-0.3-3.5-0.8c-1-0.5-1.8-1.2-2.4-2.2c-0.6-1-0.9-2.1-0.9-3.4
			c0-1.2,0.3-2.3,0.9-3.3c0.6-1,1.4-1.7,2.4-2.3C48.6,14.4,49.7,14.2,51.1,14.2 M51,23.8c0.6,0,1.1-0.1,1.5-0.4
			c0.4-0.3,0.8-0.7,1-1.2c0.2-0.5,0.4-1.1,0.4-1.7c0-0.6-0.1-1.2-0.4-1.7c-0.2-0.5-0.6-0.9-1-1.2c-0.4-0.3-0.9-0.4-1.5-0.4
			c-0.5,0-1,0.1-1.5,0.4c-0.4,0.3-0.8,0.7-1,1.2c-0.3,0.5-0.4,1-0.4,1.7c0,0.6,0.1,1.2,0.4,1.7c0.3,0.5,0.6,0.9,1,1.2
			C49.9,23.7,50.4,23.8,51,23.8 M51.1,11.7c-1.7,0-3.3,0.4-4.7,1.1c-1.4,0.8-2.6,1.8-3.4,3.2c-0.8,1.3-1.2,2.9-1.2,4.5
			c0,1.8,0.4,3.4,1.2,4.7c0.8,1.4,2,2.4,3.4,3.1c1.4,0.7,2.9,1,4.6,1c1.8,0,3.4-0.4,4.8-1.2c1.4-0.8,2.5-1.9,3.3-3.3
			c0.7-1.3,1.1-2.8,1.1-4.5c0-1.6-0.4-3.1-1.1-4.5c-0.8-1.4-1.9-2.5-3.3-3.2C54.4,12,52.9,11.7,51.1,11.7L51.1,11.7z M51,21.3
			C50.9,21.3,50.9,21.3,51,21.3c-0.1,0-0.2-0.1-0.3-0.2c-0.1-0.1-0.1-0.3-0.1-0.5c0-0.2,0-0.4,0.1-0.5c0.1-0.1,0.1-0.2,0.2-0.2
			c0,0,0,0,0.1,0c0.1,0,0.2,0,0.2,0c0,0,0.1,0.1,0.1,0.2c0.1,0.1,0.1,0.3,0.1,0.6c0,0.2,0,0.4-0.1,0.6c-0.1,0.1-0.1,0.1-0.1,0.2
			C51.1,21.3,51.1,21.3,51,21.3L51,21.3z"/>
	</g>
	<g class="st1">
		<path class="st4" d="M69.1,27.8c-0.7,0-1.2-0.6-1.2-1.2v-7.5c0-0.1,0-0.3-0.1-0.5l0,0c0,0-0.1,0-0.4,0c-0.3,0-0.5,0.1-0.7,0.3
			c-0.3,0.2-0.5,0.6-0.7,1c-0.2,0.5-0.3,1.1-0.3,1.8v4.8c0,0.7-0.6,1.2-1.2,1.2h-3.8c-0.7,0-1.2-0.6-1.2-1.2V5.2
			c0-0.7,0.6-1.2,1.2-1.2h3.7c0.7,0,1.2,0.6,1.2,1.2v8.5c0.9-0.5,2-0.8,3.3-0.8c1.4,0,2.6,0.4,3.6,1.3c1,0.9,1.6,2.1,1.6,3.5l0,8.9
			c0,0.7-0.6,1.2-1.2,1.2H69.1z"/>
		<path class="st3" d="M64.4,5.2v11.4c0.4-0.7,1-1.3,1.7-1.8c0.8-0.5,1.7-0.7,2.8-0.7c1.1,0,2.1,0.3,2.8,1c0.7,0.7,1.1,1.5,1.2,2.6
			v8.9h-3.8v-7.5c0-0.5-0.2-0.9-0.4-1.3c-0.3-0.3-0.7-0.5-1.3-0.5c-0.6,0-1.1,0.2-1.5,0.6c-0.4,0.4-0.8,0.9-1,1.5
			c-0.2,0.7-0.4,1.4-0.4,2.3v4.8h-3.8V5.2H64.4 M64.4,2.7h-3.7c-1.4,0-2.5,1.1-2.5,2.5v21.4c0,1.4,1.1,2.5,2.5,2.5h3.8
			c1,0,1.9-0.6,2.3-1.5c0.4,0.9,1.3,1.5,2.3,1.5h3.8c1.4,0,2.5-1.1,2.5-2.5v-8.9c0,0,0,0,0-0.1c0-1.7-0.7-3.2-2-4.4
			c-1.3-1.1-2.7-1.6-4.5-1.6c-0.7,0-1.4,0.1-2,0.2V5.2C66.9,3.8,65.8,2.7,64.4,2.7L64.4,2.7z"/>
	</g>
	<g class="st1">
		<path class="st4" d="M82.6,28.2c-1.5,0-2.9-0.3-4-0.9c-1.2-0.6-2.2-1.5-2.9-2.7c-0.7-1.2-1-2.5-1-4.1c0-1.4,0.3-2.7,1-3.9
			c0.7-1.2,1.7-2.1,2.9-2.7c1.2-0.6,2.6-1,4.1-1c1.6,0,3,0.3,4.1,1c1.2,0.7,2.1,1.6,2.8,2.7c0.6,1.1,1,2.4,1,3.9
			c0,1.4-0.3,2.7-1,3.9c-0.6,1.2-1.6,2.1-2.8,2.8C85.6,27.8,84.2,28.2,82.6,28.2z M82.6,18.5c-0.3,0-0.5,0.1-0.8,0.2
			c-0.3,0.2-0.5,0.4-0.6,0.7c-0.2,0.3-0.2,0.7-0.2,1.1c0,0.4,0.1,0.8,0.2,1.1c0.2,0.3,0.4,0.5,0.6,0.7c0.2,0.2,0.5,0.2,0.8,0.2
			c0.3,0,0.6-0.1,0.9-0.2c0.2-0.2,0.4-0.4,0.6-0.7c0.2-0.3,0.2-0.7,0.2-1.1c0-0.4-0.1-0.8-0.2-1.1c-0.1-0.3-0.3-0.5-0.6-0.7
			C83.2,18.6,82.9,18.5,82.6,18.5z"/>
		<path class="st3" d="M82.7,14.2c1.4,0,2.5,0.3,3.5,0.8c1,0.6,1.8,1.3,2.3,2.3c0.5,1,0.8,2,0.8,3.3c0,1.2-0.3,2.3-0.8,3.3
			c-0.5,1-1.3,1.7-2.3,2.3c-1,0.6-2.2,0.8-3.6,0.8c-1.3,0-2.5-0.3-3.5-0.8c-1-0.5-1.8-1.2-2.4-2.2c-0.6-1-0.9-2.1-0.9-3.4
			c0-1.2,0.3-2.3,0.9-3.3c0.6-1,1.4-1.7,2.4-2.3C80.2,14.4,81.3,14.2,82.7,14.2 M82.6,23.8c0.6,0,1.1-0.1,1.5-0.4
			c0.4-0.3,0.8-0.7,1-1.2c0.2-0.5,0.4-1.1,0.4-1.7c0-0.6-0.1-1.2-0.4-1.7c-0.2-0.5-0.6-0.9-1-1.2c-0.4-0.3-0.9-0.4-1.5-0.4
			c-0.5,0-1,0.1-1.5,0.4c-0.4,0.3-0.8,0.7-1,1.2c-0.3,0.5-0.4,1-0.4,1.7c0,0.6,0.1,1.2,0.4,1.7c0.3,0.5,0.6,0.9,1,1.2
			C81.5,23.7,82,23.8,82.6,23.8 M82.7,11.7c-1.7,0-3.3,0.4-4.7,1.1c-1.4,0.8-2.6,1.8-3.4,3.2c-0.8,1.3-1.2,2.9-1.2,4.5
			c0,1.8,0.4,3.4,1.2,4.7c0.8,1.4,2,2.4,3.4,3.1c1.4,0.7,2.9,1,4.6,1c1.8,0,3.4-0.4,4.8-1.2c1.4-0.8,2.5-1.9,3.3-3.3
			c0.7-1.3,1.1-2.8,1.1-4.5c0-1.6-0.4-3.1-1.1-4.5c-0.8-1.4-1.9-2.5-3.3-3.2C86.1,12,84.5,11.7,82.7,11.7L82.7,11.7z M82.6,21.3
			C82.5,21.3,82.5,21.3,82.6,21.3c-0.1,0-0.2-0.1-0.3-0.2c-0.1-0.1-0.1-0.3-0.1-0.5c0-0.2,0-0.4,0.1-0.5c0.1-0.1,0.1-0.2,0.2-0.2
			c0,0,0,0,0.1,0c0.1,0,0.2,0,0.2,0c0,0,0.1,0.1,0.1,0.2c0.1,0.1,0.1,0.3,0.1,0.6c0,0.2,0,0.4-0.1,0.6c-0.1,0.1-0.1,0.1-0.1,0.2
			C82.7,21.3,82.7,21.3,82.6,21.3L82.6,21.3z"/>
	</g>
	<g class="st1">
		<path class="st4" d="M92.3,27.8c-0.7,0-1.2-0.6-1.2-1.2V5.2c0-0.7,0.6-1.2,1.2-1.2h3.8c0.7,0,1.2,0.6,1.2,1.2v21.4
			c0,0.7-0.6,1.2-1.2,1.2H92.3z"/>
		<path class="st3" d="M96.1,5.2v21.4h-3.8V5.2H96.1 M96.1,2.7h-3.8c-1.4,0-2.5,1.1-2.5,2.5v21.4c0,1.4,1.1,2.5,2.5,2.5h3.8
			c1.4,0,2.5-1.1,2.5-2.5V5.2C98.6,3.8,97.5,2.7,96.1,2.7L96.1,2.7z"/>
	</g>
	<g class="st1">
		<path class="st4" d="M113.8,28.2c-1.3,0-2.5-0.3-3.5-0.8c-1.1-0.5-2-1.4-2.7-2.5c-0.6-1.1-0.9-2.5-0.9-4.1c0-1.5,0.3-2.9,1-4.1
			c0.7-1.2,1.5-2.1,2.6-2.7c1.1-0.7,2.2-1,3.5-1c1.4,0,2.5,0.3,3.3,0.8c0.1,0,0.1,0.1,0.2,0.1c0.2-0.2,0.5-0.3,0.8-0.3h3.5
			c0.7,0,1.2,0.6,1.2,1.2v11.9c0,0.7-0.6,1.2-1.2,1.2h-3.8c-0.4,0-0.7-0.2-0.9-0.4c-0.2,0.1-0.5,0.2-0.7,0.3
			C115.4,28,114.6,28.2,113.8,28.2z M114.8,18.5c-0.3,0-0.6,0.1-0.8,0.2c-0.3,0.2-0.5,0.4-0.7,0.7c-0.2,0.3-0.2,0.7-0.2,1.1
			c0,0.4,0.1,0.8,0.3,1.1c0.2,0.3,0.4,0.6,0.7,0.8c0.3,0.2,0.6,0.2,0.9,0.2c0.3,0,0.6,0,0.8-0.1c0.2-0.1,0.4-0.2,0.5-0.3
			c0.1-0.1,0.2-0.2,0.3-0.4v-2.3c-0.1-0.1-0.2-0.3-0.3-0.4c-0.2-0.2-0.4-0.3-0.6-0.4C115.4,18.5,115.1,18.5,114.8,18.5z"/>
		<path class="st3" d="M113.7,14.1c1.2,0,2.1,0.2,2.7,0.6c0.6,0.4,1.1,0.8,1.4,1.2l0.2-1.2h3.5v11.9h-3.8v-1.5c0,0,0,0,0,0
			c-0.2,0.2-0.5,0.5-0.8,0.7c-0.4,0.3-0.8,0.5-1.3,0.7c-0.5,0.2-1.1,0.3-1.8,0.3c-1.1,0-2.1-0.2-3-0.7c-0.9-0.4-1.6-1.1-2.1-2
			c-0.5-0.9-0.8-2.1-0.8-3.5c0-1.3,0.3-2.5,0.8-3.5c0.5-1,1.3-1.7,2.1-2.3C111.7,14.4,112.7,14.1,113.7,14.1 M114.9,23.8
			c0.5,0,0.9-0.1,1.2-0.2c0.4-0.1,0.7-0.3,0.9-0.6c0.3-0.3,0.5-0.6,0.7-1v-2.9c-0.1-0.4-0.4-0.7-0.7-1c-0.3-0.3-0.6-0.5-1-0.7
			c-0.4-0.1-0.8-0.2-1.3-0.2c-0.5,0-1.1,0.1-1.5,0.4c-0.5,0.3-0.8,0.7-1.1,1.2c-0.3,0.5-0.4,1.1-0.4,1.7c0,0.6,0.1,1.2,0.4,1.7
			c0.3,0.5,0.7,0.9,1.2,1.2C113.8,23.7,114.3,23.8,114.9,23.8 M113.7,11.6c-1.5,0-2.8,0.4-4.1,1.2c-1.3,0.8-2.3,1.8-3,3.2
			c-0.8,1.4-1.1,2.9-1.1,4.7c0,1.9,0.4,3.4,1.1,4.8c0.8,1.4,1.9,2.4,3.2,3.1c1.2,0.6,2.6,0.9,4.1,0.9c1,0,1.9-0.2,2.7-0.5
			c0.1,0,0.1,0,0.2-0.1c0.3,0.1,0.7,0.2,1,0.2h3.8c1.4,0,2.5-1.1,2.5-2.5V14.7c0-1.4-1.1-2.5-2.5-2.5H118c-0.3,0-0.5,0-0.8,0.1
			C116.3,11.9,115.1,11.6,113.7,11.6L113.7,11.6z M114.9,21.3c-0.1,0-0.2,0-0.3-0.1c-0.1-0.1-0.2-0.1-0.2-0.3
			c-0.1-0.1-0.1-0.3-0.1-0.5c0-0.1,0-0.3,0.1-0.5c0.1-0.1,0.1-0.2,0.2-0.2c0,0,0.1-0.1,0.2-0.1c0.2,0,0.3,0,0.4,0.1c0,0,0.1,0,0.1,0
			v1.4c0,0,0,0,0,0C115.2,21.3,115.1,21.3,114.9,21.3L114.9,21.3z"/>
	</g>
	<g class="st1">
		<path class="st4" d="M133.9,27.8c-0.7,0-1.2-0.6-1.2-1.2v-7.5c0-0.1,0-0.3-0.1-0.5c0,0,0,0,0,0c0,0-0.1,0-0.4,0
			c-0.3,0-0.5,0.1-0.7,0.3c-0.3,0.2-0.5,0.6-0.7,1c-0.2,0.5-0.3,1.1-0.3,1.8v4.8c0,0.7-0.6,1.2-1.2,1.2h-3.8c-0.7,0-1.2-0.6-1.2-1.2
			V14.7c0-0.7,0.6-1.2,1.2-1.2h3.4c0.4,0,0.8,0.2,1,0.5c0.1-0.1,0.2-0.2,0.3-0.2c1-0.6,2.1-0.9,3.4-0.9c1.4,0,2.6,0.4,3.6,1.3
			c1,0.9,1.6,2.1,1.6,3.5v8.9c0,0.7-0.6,1.2-1.2,1.2H133.9z"/>
		<path class="st3" d="M133.7,14.2c1.1,0,2.1,0.3,2.8,1c0.8,0.7,1.1,1.5,1.2,2.6v8.9h-3.8v-7.5c0-0.5-0.2-0.9-0.4-1.3
			c-0.3-0.3-0.7-0.5-1.3-0.5c-0.6,0-1.1,0.2-1.5,0.6c-0.4,0.4-0.8,0.9-1,1.5c-0.2,0.7-0.4,1.4-0.4,2.3v4.8h-3.8V14.7h3.4l0.3,1.9
			c0,0,0,0,0,0l0.1,0.2l0-0.2c0.4-0.7,1-1.3,1.7-1.8C131.7,14.4,132.6,14.2,133.7,14.2 M133.7,11.7c-1.4,0-2.6,0.3-3.7,0.8
			c-0.3-0.2-0.7-0.3-1.1-0.3h-3.4c-1.4,0-2.5,1.1-2.5,2.5v11.9c0,1.4,1.1,2.5,2.5,2.5h3.8c1,0,1.9-0.6,2.3-1.5
			c0.4,0.9,1.3,1.5,2.3,1.5h3.8c1.4,0,2.5-1.1,2.5-2.5v-8.9c0-1.8-0.7-3.3-2-4.4C137,12.2,135.4,11.7,133.7,11.7L133.7,11.7z"/>
	</g>
	<g class="st1">
		<path class="st4" d="M146.4,28.2c-1.3,0-2.5-0.3-3.6-1c-1.1-0.6-1.9-1.5-2.5-2.7c-0.6-1.1-0.9-2.5-0.9-4c0-1.6,0.3-2.9,1-4
			c0.7-1.2,1.6-2,2.7-2.6c1.1-0.6,2.4-0.9,3.8-0.9c0.9,0,1.7,0.1,2.6,0.4c0,0,0.1,0,0.1,0V5.2c0-0.7,0.6-1.2,1.2-1.2h3.8
			c0.7,0,1.2,0.6,1.2,1.2v21.4c0,0.7-0.6,1.2-1.2,1.2h-3.8c-0.4,0-0.7-0.2-1-0.5c-0.1,0-0.2,0.1-0.3,0.1
			C148.6,27.9,147.6,28.2,146.4,28.2z M147.7,18.4c-0.3,0-0.6,0.1-0.9,0.3c-0.3,0.2-0.5,0.4-0.7,0.7c-0.2,0.3-0.3,0.6-0.3,1.1
			c0,0.4,0.1,0.8,0.3,1.1c0.2,0.3,0.4,0.6,0.7,0.8c0.3,0.2,0.6,0.2,0.9,0.2c0.4,0,0.7,0,0.9-0.1c0.2-0.1,0.4-0.2,0.6-0.3
			c0.1-0.1,0.2-0.3,0.3-0.4v-2.3c-0.1-0.1-0.2-0.3-0.3-0.4c-0.2-0.2-0.4-0.3-0.6-0.4C148.3,18.4,148,18.4,147.7,18.4z"/>
		<path class="st3" d="M154.6,5.2v21.4h-3.8v-1.3c-0.5,0.4-1.1,0.8-1.8,1.1c-0.8,0.4-1.6,0.5-2.6,0.5c-1.1,0-2.1-0.3-3-0.8
			c-0.9-0.5-1.5-1.3-2-2.2c-0.5-1-0.7-2.1-0.7-3.5c0-1.3,0.3-2.5,0.8-3.4c0.5-0.9,1.3-1.7,2.2-2.1c0.9-0.5,2-0.7,3.2-0.7
			c0.8,0,1.5,0.1,2.2,0.4c0.7,0.2,1.3,0.6,1.8,1.1V5.2H154.6 M147.7,23.7c0.5,0,0.9-0.1,1.3-0.2c0.4-0.1,0.7-0.3,1-0.6
			c0.3-0.3,0.6-0.6,0.8-1V19c-0.1-0.4-0.4-0.7-0.7-1c-0.3-0.3-0.7-0.5-1.1-0.6c-0.4-0.2-0.9-0.2-1.4-0.2c-0.6,0-1.1,0.1-1.6,0.4
			c-0.5,0.3-0.9,0.7-1.2,1.2c-0.3,0.5-0.4,1.1-0.4,1.7c0,0.6,0.1,1.2,0.4,1.7c0.3,0.5,0.7,0.9,1.2,1.2
			C146.6,23.6,147.1,23.7,147.7,23.7 M154.6,2.7h-3.8c-1.4,0-2.5,1.1-2.5,2.5v6.6c-0.5-0.1-1-0.1-1.4-0.1c-1.6,0-3,0.3-4.3,1
			c-1.4,0.7-2.5,1.8-3.2,3.1c-0.8,1.3-1.1,2.9-1.1,4.7c0,1.7,0.3,3.3,1,4.6c0.7,1.4,1.7,2.5,3,3.3c1.2,0.7,2.7,1.1,4.2,1.1
			c1.2,0,2.3-0.2,3.3-0.6c0.3,0.2,0.7,0.3,1.1,0.3h3.8c1.4,0,2.5-1.1,2.5-2.5V5.2C157.1,3.8,156,2.7,154.6,2.7L154.6,2.7z
			 M147.7,21.2c-0.2,0-0.2,0-0.2-0.1c-0.1-0.1-0.2-0.2-0.3-0.3c0,0,0,0,0-0.1c-0.1-0.1-0.1-0.2-0.1-0.4c0-0.3,0.1-0.4,0.1-0.4
			c0.1-0.1,0.1-0.2,0.3-0.3c0.1-0.1,0.2-0.1,0.3-0.1c0.2,0,0.4,0,0.5,0.1c0,0,0.1,0,0.1,0c0,0,0,0,0.1,0v1.3c0,0-0.1,0-0.1,0.1
			C148.1,21.2,147.9,21.2,147.7,21.2L147.7,21.2z"/>
	</g>
	<g class="st1">
		<path class="st4" d="M172.2,28.2c-1.3,0-2.5-0.3-3.6-1c-1.1-0.6-1.9-1.6-2.5-2.7c-0.6-1.1-0.9-2.5-0.9-4c0-1.6,0.3-2.9,1-4
			c0.7-1.1,1.6-2,2.7-2.6c1.1-0.6,2.4-0.9,3.8-0.9c0.9,0,1.7,0.1,2.6,0.4c0,0,0.1,0,0.1,0V5.2c0-0.7,0.6-1.2,1.2-1.2h3.8
			c0.7,0,1.2,0.6,1.2,1.2v21.4c0,0.7-0.6,1.2-1.2,1.2h-3.8c-0.4,0-0.7-0.2-1-0.5c-0.1,0-0.2,0.1-0.3,0.1
			C174.4,27.9,173.3,28.2,172.2,28.2z M173.4,18.4c-0.3,0-0.6,0.1-1,0.3c-0.3,0.2-0.5,0.4-0.7,0.7c-0.2,0.3-0.2,0.6-0.2,1
			c0,0.4,0.1,0.8,0.3,1.1c0.2,0.3,0.4,0.6,0.7,0.8c0.3,0.2,0.6,0.2,0.9,0.2c0.4,0,0.7,0,0.9-0.1c0.3-0.1,0.4-0.2,0.6-0.3
			c0.1-0.1,0.3-0.3,0.4-0.4v-2.3c-0.1-0.1-0.2-0.3-0.3-0.4c-0.2-0.2-0.4-0.3-0.6-0.4C174.1,18.4,173.8,18.4,173.4,18.4z"/>
		<path class="st3" d="M180.4,5.2v21.4h-3.8v-1.3c-0.5,0.4-1.1,0.8-1.8,1.1c-0.8,0.4-1.6,0.5-2.6,0.5c-1.1,0-2.1-0.3-3-0.8
			c-0.9-0.5-1.5-1.3-2-2.2c-0.5-1-0.7-2.1-0.7-3.5c0-1.3,0.3-2.5,0.8-3.4c0.5-0.9,1.3-1.7,2.2-2.1c0.9-0.5,2-0.7,3.2-0.7
			c0.8,0,1.5,0.1,2.2,0.4c0.7,0.2,1.3,0.6,1.8,1.1V5.2H180.4 M173.4,23.7c0.5,0,1-0.1,1.3-0.2c0.4-0.1,0.7-0.3,1-0.6
			c0.3-0.3,0.6-0.6,0.8-1V19c-0.1-0.4-0.4-0.7-0.7-1c-0.3-0.3-0.7-0.5-1.1-0.6c-0.4-0.2-0.9-0.2-1.4-0.2c-0.6,0-1.1,0.1-1.6,0.4
			c-0.5,0.3-0.9,0.7-1.2,1.2c-0.3,0.5-0.4,1.1-0.4,1.7c0,0.6,0.1,1.2,0.4,1.7c0.3,0.5,0.7,0.9,1.2,1.2
			C172.3,23.6,172.9,23.7,173.4,23.7 M180.4,2.7h-3.8c-1.4,0-2.5,1.1-2.5,2.5v6.6c-0.5-0.1-1-0.1-1.4-0.1c-1.6,0-3,0.3-4.3,1
			c-1.4,0.7-2.5,1.8-3.2,3.1c-0.8,1.3-1.1,2.9-1.1,4.7c0,1.7,0.3,3.3,1,4.6c0.7,1.4,1.7,2.5,3,3.3c1.3,0.7,2.7,1.1,4.2,1.1
			c1.2,0,2.3-0.2,3.3-0.6c0.3,0.2,0.7,0.3,1.1,0.3h3.8c1.4,0,2.5-1.1,2.5-2.5V5.2C182.9,3.8,181.7,2.7,180.4,2.7L180.4,2.7z
			 M173.1,19.7c0.1-0.1,0.2-0.1,0.3-0.1c0.2,0,0.4,0,0.5,0.1c0,0,0,0,0.1,0c0,0,0,0,0.1,0v1.3c0,0-0.1,0-0.1,0.1
			c-0.1,0-0.2,0.1-0.5,0.1c-0.1,0-0.2,0-0.3-0.1c-0.1-0.1-0.2-0.2-0.3-0.3c-0.1-0.1-0.1-0.3-0.1-0.5c0-0.2,0-0.3,0.1-0.4
			C172.9,19.8,173,19.8,173.1,19.7L173.1,19.7z"/>
	</g>
	<g class="st1">
		<path class="st4" d="M184.3,27.8c-0.7,0-1.2-0.6-1.2-1.2V14.7c0-0.7,0.6-1.2,1.2-1.2h3.4c0.6,0,1.1,0.4,1.2,1
			c0.6-0.4,1.1-0.8,1.7-1.1c0.8-0.4,1.4-0.5,1.9-0.5c0.3,0,0.7,0.1,0.9,0.4c0.2,0.2,0.4,0.6,0.3,0.9l-0.2,3.8c0,0.3-0.2,0.7-0.4,0.9
			c-0.2,0.2-0.5,0.3-0.8,0.3c0,0-0.1,0-0.1,0c-0.1,0-0.3,0-0.4,0c-0.4,0-0.8,0.1-1.1,0.3c-0.5,0.3-0.8,0.6-1,1.1
			c-0.3,0.5-0.4,0.9-0.4,1.4v4.6c0,0.7-0.6,1.2-1.2,1.2H184.3z"/>
		<path class="st3" d="M192.5,14.1l-0.2,3.8c-0.2,0-0.4,0-0.5,0c-0.7,0-1.2,0.2-1.7,0.5c-0.6,0.4-1.1,0.9-1.5,1.6
			c-0.4,0.6-0.5,1.3-0.5,2v4.6h-3.8V14.7h3.4l0.3,2.7c0.3-0.7,0.8-1.3,1.4-1.8c0.6-0.5,1.2-0.9,1.8-1.2
			C191.7,14.3,192.2,14.1,192.5,14.1 M192.5,11.6c-0.7,0-1.4,0.2-2.4,0.6c-0.3,0.1-0.6,0.3-0.9,0.5c-0.4-0.3-0.9-0.5-1.5-0.5h-3.4
			c-1.4,0-2.5,1.1-2.5,2.5v11.9c0,1.4,1.1,2.5,2.5,2.5h3.8c1.4,0,2.5-1.1,2.5-2.5v-4.6c0-0.3,0.1-0.5,0.2-0.8c0,0,0,0,0,0
			c0.1-0.3,0.3-0.4,0.6-0.6c0.1,0,0.1-0.1,0.4-0.1c0.1,0,0.2,0,0.3,0c0.1,0,0.2,0,0.3,0c0.6,0,1.2-0.2,1.6-0.6
			c0.5-0.4,0.8-1.1,0.9-1.8l0.2-3.8c0-0.7-0.2-1.4-0.7-1.8S193.2,11.6,192.5,11.6L192.5,11.6z M192.5,16.6L192.5,16.6L192.5,16.6
			L192.5,16.6z"/>
	</g>
	<g class="st1">
		<path class="st4" d="M199.2,28.4c-1.4,0-2.6-0.4-3.5-1.3c-1-0.9-1.5-2.1-1.6-3.4l0-8.9c0-0.7,0.6-1.2,1.2-1.2h3.8
			c0.7,0,1.2,0.6,1.2,1.2v7.4c0,0.3,0.1,0.4,0.1,0.5c0,0,0.1,0,0.2,0c0.2,0,0.4-0.1,0.6-0.2c0.3-0.2,0.5-0.6,0.6-1.1
			c0.2-0.5,0.3-1.1,0.3-1.8v-4.8c0-0.7,0.6-1.2,1.2-1.2h3.8c0.7,0,1.2,0.6,1.2,1.2v11.9c0,0.7-0.6,1.2-1.2,1.2h-3.4
			c-0.4,0-0.8-0.2-1-0.5c-0.4,0.3-0.8,0.5-1.3,0.7C200.9,28.3,200.1,28.4,199.2,28.4z"/>
		<path class="st3" d="M207.3,14.7v11.9h-3.4l-0.3-1.9c-0.3,0.5-0.6,0.9-1,1.3c-0.4,0.4-0.9,0.7-1.5,0.9c-0.6,0.2-1.2,0.3-1.9,0.3
			c-1.1,0-2-0.3-2.7-1c-0.7-0.7-1.1-1.5-1.1-2.6v-8.9h3.8v7.5c0,0.5,0.2,0.9,0.4,1.3c0.2,0.3,0.6,0.5,1.2,0.5s1-0.2,1.4-0.6
			c0.4-0.4,0.7-0.9,0.9-1.6c0.2-0.7,0.3-1.4,0.3-2.2v-4.8H207.3 M207.3,12.2h-3.8c-0.9,0-1.7,0.5-2.2,1.3c-0.4-0.8-1.2-1.3-2.2-1.3
			h-3.8c-1.4,0-2.5,1.1-2.5,2.5v8.9c0,0,0,0.1,0,0.1c0.1,1.7,0.7,3.2,1.9,4.3c1.2,1.1,2.7,1.6,4.4,1.6c1,0,1.9-0.2,2.8-0.5
			c0.3-0.1,0.6-0.2,0.8-0.4c0.3,0.2,0.7,0.3,1.1,0.3h3.4c1.4,0,2.5-1.1,2.5-2.5V14.7C209.8,13.3,208.7,12.2,207.3,12.2L207.3,12.2z"
			/>
	</g>
	<g class="st1">
		<path class="st4" d="M217.4,33.8c-1.2,0-2.3-0.2-3.1-0.5c-0.8-0.3-1.6-0.6-2.2-1.1c-0.5-0.4-1-0.8-1.4-1.1
			c-0.3-0.2-0.4-0.5-0.4-0.9c0-0.3,0.1-0.7,0.3-0.9l2-2.3c-1-0.6-1.9-1.5-2.5-2.6c-0.6-1.1-1-2.4-1-3.9c0-1.5,0.4-2.8,1-4
			c0.7-1.1,1.6-2.1,2.7-2.7c1.1-0.7,2.3-1,3.6-1c1.2,0,2.3,0.2,3.1,0.5c0.3,0.1,0.5,0.2,0.7,0.3c0.2-0.2,0.5-0.3,0.8-0.3h3.5
			c0.7,0,1.2,0.6,1.2,1.2v11.9c0,1.4-0.4,2.7-1.2,3.8c-0.8,1.1-1.8,1.9-3.1,2.5C220.2,33.5,218.9,33.8,217.4,33.8z M217.4,18.5
			c-0.4,0-0.7,0.1-1,0.3c-0.3,0.2-0.6,0.4-0.7,0.7c-0.2,0.3-0.2,0.6-0.2,1c0,0.4,0.1,0.8,0.3,1.1c0.2,0.3,0.4,0.5,0.7,0.7
			c0.3,0.2,0.6,0.3,1,0.3c0.4,0,0.7,0,1-0.1c0.3-0.1,0.5-0.2,0.7-0.4c0.1-0.1,0.2-0.2,0.3-0.4v-2.3c-0.1-0.1-0.2-0.3-0.3-0.4
			c-0.2-0.2-0.5-0.3-0.7-0.4C218.1,18.5,217.8,18.5,217.4,18.5z"/>
		<path class="st3" d="M216.4,14.1c1,0,1.9,0.1,2.7,0.5c0.7,0.3,1.3,0.7,1.7,1.1l0.3-0.9h3.5v11.9c0,1.2-0.3,2.2-1,3.1
			c-0.6,0.9-1.5,1.6-2.6,2.1c-1.1,0.5-2.3,0.8-3.6,0.8c-1.1,0-2-0.1-2.7-0.4c-0.7-0.2-1.4-0.6-1.9-0.9c-0.5-0.4-1-0.7-1.4-1l2.2-2.6
			c0.4,0.4,0.9,0.7,1.4,1.1c0.6,0.4,1.3,0.5,2.2,0.5c0.6,0,1.2-0.1,1.7-0.3c0.5-0.2,0.9-0.5,1.3-0.9c0.3-0.4,0.5-0.9,0.5-1.5v-1.7
			c-0.3,0.5-0.8,1-1.4,1.4c-0.8,0.5-1.8,0.7-3,0.7c-1.1,0-2.1-0.3-3-0.8c-0.9-0.5-1.7-1.3-2.2-2.2c-0.5-0.9-0.8-2-0.8-3.2
			c0-1.2,0.3-2.4,0.9-3.3c0.6-1,1.3-1.7,2.2-2.3C214.4,14.4,215.3,14.1,216.4,14.1 M217.4,23.8c0.5,0,1-0.1,1.4-0.2s0.8-0.3,1.1-0.6
			c0.3-0.3,0.6-0.6,0.8-1v-2.9c-0.2-0.4-0.4-0.7-0.7-1s-0.7-0.5-1.1-0.7c-0.4-0.1-0.9-0.2-1.4-0.2c-0.6,0-1.2,0.1-1.7,0.4
			c-0.5,0.3-0.9,0.7-1.2,1.2c-0.3,0.5-0.4,1.1-0.4,1.7c0,0.6,0.1,1.2,0.4,1.7c0.3,0.5,0.7,0.9,1.2,1.2
			C216.3,23.7,216.8,23.8,217.4,23.8 M216.4,11.6c-1.5,0-2.9,0.4-4.2,1.2c-1.3,0.8-2.3,1.8-3.1,3.1c-0.8,1.4-1.2,2.9-1.2,4.6
			c0,1.6,0.4,3.2,1.1,4.5c0.5,0.8,1.1,1.6,1.7,2.2l-1.1,1.3c-0.4,0.5-0.6,1.2-0.6,1.8c0.1,0.7,0.4,1.3,0.9,1.7
			c0.5,0.4,1,0.8,1.5,1.2c0.7,0.5,1.6,0.9,2.5,1.2c1,0.3,2.1,0.5,3.5,0.5c1.7,0,3.3-0.3,4.7-1c1.4-0.7,2.6-1.7,3.5-2.9
			c1-1.3,1.5-2.8,1.5-4.5V14.7c0-1.4-1.1-2.5-2.5-2.5H221c-0.3,0-0.5,0-0.8,0.1c-0.1,0-0.2-0.1-0.2-0.1
			C219,11.8,217.7,11.6,216.4,11.6L216.4,11.6z M217.4,21.3c-0.2,0-0.3-0.1-0.4-0.1c-0.1-0.1-0.2-0.1-0.3-0.3c0-0.1-0.1-0.2-0.1-0.5
			c0-0.2,0-0.3,0.1-0.4c0.1-0.1,0.1-0.2,0.3-0.2c0.1,0,0.2-0.1,0.4-0.1c0.2,0,0.4,0,0.6,0.1c0.1,0,0.1,0.1,0.2,0.1v1.3
			c-0.1,0-0.1,0.1-0.2,0.1C217.9,21.3,217.7,21.3,217.4,21.3L217.4,21.3z"/>
	</g>
	<g class="st1">
		<path class="st4" d="M232.3,28.1c-1.1,0-2.2-0.2-3.2-0.6c-1-0.4-1.9-1-2.6-1.7c-0.4-0.4-0.5-1.1-0.1-1.6L228,22
			c0.1-0.1,0.2-0.2,0.3-0.3c-0.2-0.2-0.5-0.5-0.6-0.7c-0.6-0.9-1-1.8-1-2.9c0-0.8,0.2-1.6,0.6-2.4c0.4-0.8,1.1-1.5,2-2
			c0.9-0.5,2-0.8,3.3-0.8c1.1,0,2.1,0.1,2.9,0.3c0.8,0.2,1.6,0.6,2.3,1.2c0.5,0.4,0.7,1.1,0.3,1.7l-1.4,2.2
			c-0.1,0.1-0.2,0.3-0.3,0.4c0.1,0.1,0.3,0.2,0.4,0.3c0.6,0.4,1,0.9,1.3,1.5c0.3,0.6,0.5,1.3,0.5,2.1c0,0.9-0.2,1.8-0.7,2.7
			c-0.5,0.8-1.2,1.5-2.2,2C234.8,27.8,233.6,28.1,232.3,28.1z"/>
		<path class="st3" d="M232.7,14.2c1,0,1.8,0.1,2.5,0.3c0.7,0.2,1.3,0.5,2,1l-1.4,2.2c-0.3-0.3-0.7-0.5-1.2-0.7
			c-0.4-0.2-0.8-0.3-1.2-0.3c-0.1,0-0.1,0-0.2,0c-0.3,0-0.5,0-0.7,0.1c-0.2,0.1-0.4,0.2-0.5,0.4c-0.1,0.1-0.2,0.3-0.2,0.5
			c0,0.3,0.1,0.6,0.4,0.8c0.3,0.2,0.6,0.4,1.1,0.5c0.4,0.1,0.9,0.2,1.3,0.4c0.6,0.2,1.1,0.4,1.5,0.7c0.4,0.3,0.7,0.7,1,1.1
			c0.2,0.4,0.3,0.9,0.3,1.5c0,0.7-0.2,1.4-0.6,2c-0.4,0.6-0.9,1.2-1.7,1.6c-0.8,0.4-1.7,0.6-2.9,0.6c-1,0-1.9-0.2-2.7-0.5
			c-0.8-0.3-1.6-0.8-2.1-1.4l1.6-2.1c0.6,0.5,1.1,0.9,1.6,1.1c0.5,0.2,0.9,0.3,1.3,0.3c0.3,0,0.6,0,0.8-0.1c0.2-0.1,0.4-0.2,0.6-0.3
			c0.1-0.1,0.2-0.3,0.2-0.5c0-0.3-0.1-0.6-0.4-0.7c-0.2-0.2-0.6-0.3-0.9-0.4c-0.4-0.1-0.8-0.2-1.2-0.4c-1.1-0.3-1.9-0.8-2.3-1.5
			c-0.5-0.7-0.7-1.4-0.7-2.2c0-0.6,0.2-1.2,0.5-1.8s0.8-1.1,1.5-1.5C230.7,14.4,231.6,14.2,232.7,14.2 M232.7,11.7
			c-1.5,0-2.9,0.3-4,1c-1.1,0.6-1.9,1.5-2.5,2.5c-0.5,1-0.8,2-0.8,3c0,1.3,0.4,2.5,1.2,3.6l-1.2,1.7c-0.7,1-0.7,2.3,0.2,3.2
			c0.8,0.9,1.8,1.6,3,2c1.1,0.5,2.4,0.7,3.7,0.7c1.6,0,2.9-0.3,4-0.9c1.2-0.6,2.1-1.5,2.7-2.5c0.6-1,0.9-2.1,0.9-3.3
			c0-1-0.2-1.9-0.6-2.7c-0.3-0.5-0.6-1-1.1-1.4l1.1-1.7c0.7-1.1,0.4-2.6-0.6-3.4c-0.8-0.6-1.8-1.1-2.7-1.4
			C235,11.8,233.9,11.7,232.7,11.7L232.7,11.7z"/>
	</g>
</g>
<g>
	<g>
		<path class="st4" d="M59.6,30.6c-0.5,0-1-0.3-1.2-0.8l-1.2-3.1h-5l-1.3,3.1c-0.2,0.5-0.6,0.8-1.2,0.8h-3.9c-0.4,0-0.8-0.2-1-0.6
			c-0.2-0.4-0.3-0.8-0.1-1.2l9-20.8c0.2-0.5,0.6-0.8,1.1-0.8h0.2c0.5,0,0.9,0.3,1.1,0.8l9,20.8c0.2,0.4,0.1,0.8-0.1,1.2
			c-0.2,0.4-0.6,0.6-1,0.6H59.6z M54.9,20.8l-0.1-0.3l-0.1,0.3H54.9z"/>
		<path class="st3" d="M55.1,8.5l9,20.8h-4.6L58,25.4h-6.6l-1.6,3.9h-3.9l9-20.8H55.1 M52.8,22.1h3.9l-1.9-4.9L52.8,22.1 M55.1,6
			h-0.2c-1,0-1.9,0.6-2.3,1.5l-9,20.8c-0.3,0.8-0.3,1.7,0.2,2.4c0.5,0.7,1.2,1.1,2.1,1.1h3.9c1,0,1.9-0.6,2.3-1.5l1-2.4h3.3l0.9,2.3
			c0.4,1,1.3,1.6,2.3,1.6h4.6c0.8,0,1.6-0.4,2.1-1.1c0.5-0.7,0.5-1.6,0.2-2.4l-9-20.8C57,6.6,56.1,6,55.1,6L55.1,6z"/>
	</g>
	<g>
		<path class="st4" d="M78,20.6c-0.4,0-0.8-0.2-1.1-0.6c-0.3-0.4-0.2-1,0.1-1.4l0.1-0.1c0.2-0.3,0.6-0.5,1-0.5c0.1,0,0.1,0,0.2,0
			c0.5,0.1,0.9,0.4,1,0.8c0,0,0.1,0.2,0.1,0.2c0.1,0.3,0,0.7-0.2,1c-0.2,0.3-0.5,0.5-0.8,0.5l-0.1,0C78.1,20.6,78,20.6,78,20.6z"/>
		<path class="st3" d="M78.1,19.2c0,0,0,0.1,0,0.1l-0.1,0C78,19.3,78,19.2,78.1,19.2 M78.1,16.7c-0.8,0-1.5,0.4-2,1L76,17.8
			c-0.6,0.8-0.7,1.9-0.1,2.8c0.5,0.8,1.3,1.2,2.1,1.2c0.1,0,0.3,0,0.4,0l0.1,0c0.7-0.1,1.3-0.5,1.7-1.1c0.4-0.6,0.5-1.3,0.3-2
			c0-0.1-0.1-0.2-0.1-0.3c-0.3-0.9-1.1-1.5-2-1.7C78.3,16.7,78.2,16.7,78.1,16.7L78.1,16.7z"/>
	</g>
	<g>
		<path class="st4" d="M82.1,30.6c-0.7,0-1.2-0.6-1.2-1.2V22c0-0.3,0-0.5-0.1-0.6c-0.2,0-0.4,0.1-0.6,0.3c-0.3,0.3-0.5,0.6-0.6,1.1
			c-0.2,0.6-0.3,1.1-0.3,1.7v4.9c0,0.7-0.6,1.2-1.2,1.2h-3.8c-0.7,0-1.2-0.6-1.2-1.2V22c0-0.3-0.1-0.5-0.1-0.6c0,0,0,0,0,0
			c-0.2,0-0.4,0.1-0.5,0.3c-0.3,0.3-0.5,0.7-0.6,1.1c-0.2,0.5-0.3,1.1-0.3,1.6v4.9c0,0.7-0.6,1.2-1.2,1.2h-3.8
			c-0.7,0-1.2-0.6-1.2-1.2V17.4c0-0.7,0.6-1.2,1.2-1.2h3.4c0.4,0,0.8,0.2,1,0.5c0.1-0.1,0.2-0.2,0.4-0.2c0.9-0.6,2-0.9,3.2-0.9
			c0.8,0,1.5,0.1,2.2,0.3c0.7,0.2,1.2,0.6,1.7,1.1c0,0,0,0,0,0c0.3-0.2,0.5-0.4,0.8-0.6c0.9-0.6,1.9-0.9,2.9-0.9
			c1.5,0,2.7,0.5,3.7,1.3c0.9,0.9,1.4,2,1.5,3.4l0,8.9c0,0.7-0.6,1.2-1.2,1.2H82.1z"/>
		<path class="st3" d="M82,16.8c1.2,0,2.1,0.3,2.8,1c0.7,0.7,1.1,1.5,1.1,2.6v8.9h-3.8V22c0-0.5-0.1-1-0.2-1.3
			c-0.1-0.3-0.5-0.5-1-0.6c-0.6,0-1.1,0.2-1.6,0.6c-0.4,0.4-0.7,1-0.9,1.6c-0.2,0.7-0.3,1.3-0.3,2v4.9h-3.8V22c0-0.5-0.1-1-0.3-1.3
			c-0.2-0.3-0.5-0.5-1-0.6c-0.6,0-1.1,0.2-1.5,0.6c-0.4,0.4-0.7,1-0.9,1.6c-0.2,0.6-0.3,1.3-0.3,2v4.9h-3.8V17.4h3.4l0.3,1.9
			c0.5-0.8,1-1.4,1.7-1.8c0.7-0.4,1.5-0.7,2.5-0.7c0.7,0,1.2,0.1,1.7,0.3c0.5,0.2,0.9,0.5,1.3,0.8c0.3,0.3,0.6,0.7,0.7,1.3
			c0,0-0.1,0.1-0.1,0.1l0.1,0c0,0,0-0.1,0-0.1c0.5-0.7,1.1-1.2,1.7-1.7C80.5,17.1,81.3,16.8,82,16.8 M82,14.3
			c-1.3,0-2.5,0.4-3.6,1.1c0,0-0.1,0-0.1,0.1c-0.4-0.3-0.9-0.5-1.4-0.7c-0.8-0.3-1.6-0.4-2.6-0.4c-1.3,0-2.5,0.3-3.5,0.8
			c-0.3-0.2-0.7-0.2-1.1-0.2h-3.4c-1.4,0-2.5,1.1-2.5,2.5v11.9c0,1.4,1.1,2.5,2.5,2.5h3.8c0.8,0,1.6-0.4,2-1c0.5,0.6,1.2,1,2,1h3.8
			c0.8,0,1.6-0.4,2-1c0.5,0.6,1.2,1,2,1h3.8c1.4,0,2.5-1.1,2.5-2.5v-8.9c0,0,0,0,0-0.1c0-1.7-0.7-3.2-1.9-4.3
			C85.8,15.3,84.3,14.3,82,14.3L82,14.3z"/>
	</g>
	<g>
		<path class="st4" d="M93.7,30.8c-1.1,0-2.2-0.2-3.2-0.6c-1-0.4-1.9-1-2.6-1.7c-0.4-0.4-0.5-1.1-0.1-1.6l1.6-2.1
			c0.1-0.1,0.2-0.2,0.3-0.3c-0.2-0.2-0.5-0.5-0.6-0.7c-0.6-0.9-1-1.8-1-2.9c0-0.8,0.2-1.6,0.6-2.4c0.4-0.8,1.1-1.5,2-2
			c0.9-0.5,2-0.8,3.3-0.8c1.1,0,2.1,0.1,2.9,0.3c0.8,0.2,1.6,0.6,2.3,1.2c0.5,0.4,0.7,1.1,0.3,1.7l-1.4,2.2
			c-0.1,0.1-0.2,0.3-0.3,0.4c0.1,0.1,0.3,0.2,0.4,0.3c0.6,0.4,1,0.9,1.3,1.5c0.3,0.6,0.5,1.3,0.5,2.1c0,0.9-0.2,1.8-0.7,2.7
			c-0.5,0.8-1.2,1.5-2.2,2C96.2,30.5,95,30.8,93.7,30.8z"/>
		<path class="st3" d="M94.1,16.9c1,0,1.8,0.1,2.5,0.3c0.7,0.2,1.3,0.5,2,1l-1.4,2.2c-0.3-0.3-0.7-0.5-1.2-0.7
			c-0.4-0.2-0.8-0.3-1.2-0.3c-0.1,0-0.1,0-0.2,0c-0.3,0-0.5,0-0.7,0.1c-0.2,0.1-0.4,0.2-0.5,0.4c-0.1,0.1-0.2,0.3-0.2,0.5
			c0,0.3,0.1,0.6,0.4,0.8c0.3,0.2,0.6,0.4,1.1,0.5c0.4,0.1,0.9,0.2,1.3,0.4c0.6,0.2,1.1,0.4,1.5,0.7c0.4,0.3,0.7,0.7,1,1.1
			c0.2,0.4,0.3,0.9,0.3,1.5c0,0.7-0.2,1.4-0.6,2c-0.4,0.6-0.9,1.2-1.7,1.6c-0.8,0.4-1.7,0.6-2.9,0.6c-1,0-1.9-0.2-2.7-0.5
			c-0.8-0.3-1.6-0.8-2.1-1.4l1.6-2.1c0.6,0.5,1.1,0.9,1.6,1.1c0.5,0.2,0.9,0.3,1.3,0.3c0.3,0,0.6,0,0.8-0.1c0.2-0.1,0.4-0.2,0.6-0.3
			c0.1-0.1,0.2-0.3,0.2-0.5c0-0.3-0.1-0.6-0.4-0.7c-0.2-0.2-0.6-0.3-0.9-0.4c-0.4-0.1-0.8-0.2-1.2-0.4c-1.1-0.3-1.9-0.8-2.3-1.5
			c-0.5-0.7-0.7-1.4-0.7-2.2c0-0.6,0.2-1.2,0.5-1.8c0.3-0.6,0.8-1.1,1.5-1.5C92.1,17.1,93,16.9,94.1,16.9 M94.1,14.4
			c-1.5,0-2.9,0.3-4,1c-1.1,0.6-1.9,1.5-2.5,2.5c-0.5,1-0.8,2-0.8,3c0,1.3,0.4,2.5,1.2,3.6l-1.2,1.7c-0.7,1-0.7,2.3,0.2,3.2
			c0.8,0.9,1.8,1.6,3,2c1.1,0.5,2.4,0.7,3.7,0.7c1.6,0,2.9-0.3,4-0.9c1.2-0.6,2.1-1.5,2.7-2.5c0.6-1,0.9-2.1,0.9-3.3
			c0-1-0.2-1.9-0.6-2.7c-0.3-0.5-0.6-1-1.1-1.4l1.1-1.7c0.7-1.1,0.4-2.6-0.6-3.4c-0.8-0.6-1.8-1.1-2.7-1.4
			C96.4,14.5,95.3,14.4,94.1,14.4L94.1,14.4z"/>
	</g>
	<g>
		<path class="st4" d="M103.1,30.6c-0.7,0-1.2-0.6-1.2-1.2v-7.7h-0.6c-0.7,0-1.2-0.6-1.2-1.2v-3c0-0.7,0.6-1.2,1.2-1.2h0.6v-3.9
			c0-0.7,0.6-1.2,1.2-1.2h3.8c0.7,0,1.2,0.6,1.2,1.2v3.9h1.6c0.7,0,1.2,0.6,1.2,1.2v3c0,0.7-0.6,1.2-1.2,1.2h-1.6v7.7
			c0,0.7-0.6,1.2-1.2,1.2H103.1z"/>
		<path class="st3" d="M106.9,12.2v5.2h2.9v3h-2.9v9h-3.8v-9h-1.8v-3h1.8v-5.2H106.9 M106.9,9.7h-3.8c-1.4,0-2.5,1.1-2.5,2.5V15
			c-1.1,0.3-1.8,1.3-1.8,2.4v3c0,1.2,0.8,2.1,1.8,2.4v6.5c0,1.4,1.1,2.5,2.5,2.5h3.8c1.4,0,2.5-1.1,2.5-2.5v-6.5h0.4
			c1.4,0,2.5-1.1,2.5-2.5v-3c0-1.4-1.1-2.5-2.5-2.5h-0.4v-2.7C109.4,10.9,108.2,9.7,106.9,9.7L106.9,9.7z"/>
	</g>
	<g>
		<path class="st4" d="M118.5,30.9c-1.6,0-3.1-0.3-4.3-1c-1.2-0.7-2.2-1.6-2.8-2.8c-0.6-1.1-0.9-2.5-0.9-3.9c0-1.4,0.4-2.7,1.1-3.9
			c0.7-1.1,1.7-2.1,2.9-2.7c1.2-0.7,2.6-1,4.1-1c2,0,3.7,0.6,5,1.8c1.3,1.2,2.2,2.9,2.5,5c0.1,0.6-0.3,1.2-0.9,1.4l-3.3,1.1
			c0,0,0,0.1,0.1,0.1l1.7,2.8c0.2,0.3,0.2,0.6,0.1,1c-0.1,0.3-0.3,0.6-0.6,0.8c-0.7,0.4-1.4,0.7-2.3,1
			C120.1,30.7,119.3,30.9,118.5,30.9z M118,21.1c-0.2,0-0.4,0.1-0.6,0.2L118,21.1z"/>
		<path class="st3" d="M118.6,16.9c1.7,0,3.1,0.5,4.2,1.5c1.1,1,1.8,2.4,2.1,4.3l-8.7,2.8c0.2,0.3,0.5,0.5,0.8,0.6
			c0.5,0.3,1,0.4,1.6,0.4c0.4,0,0.8-0.1,1.2-0.2c0.4-0.1,0.8-0.3,1.2-0.6l1.7,2.8c-0.6,0.4-1.3,0.6-2,0.9c-0.7,0.2-1.4,0.3-2.1,0.3
			c-1.4,0-2.7-0.3-3.7-0.8c-1-0.5-1.8-1.3-2.3-2.2c-0.5-0.9-0.8-2.1-0.8-3.3c0-1.2,0.3-2.3,0.9-3.2c0.6-1,1.4-1.7,2.5-2.3
			C116.2,17.2,117.3,16.9,118.6,16.9 M115.5,23.3l5.2-1.8c-0.1-0.4-0.4-0.8-0.7-1.2c-0.4-0.4-0.9-0.5-1.7-0.5
			c-0.6,0-1.1,0.1-1.5,0.4c-0.4,0.3-0.7,0.6-1,1.1c-0.2,0.5-0.3,1.1-0.3,1.7C115.5,23.1,115.5,23.2,115.5,23.3 M118.6,14.4
			c-1.7,0-3.2,0.4-4.6,1.2c-1.4,0.8-2.5,1.8-3.4,3.2c-0.9,1.4-1.3,2.9-1.3,4.6c0,1.7,0.4,3.2,1.1,4.5c0.7,1.4,1.9,2.5,3.3,3.2
			c1.4,0.7,3,1.1,4.9,1.1c0.9,0,1.8-0.1,2.8-0.4c1-0.3,1.8-0.7,2.6-1.1c0.6-0.3,1-0.9,1.2-1.5c0.2-0.6,0.1-1.3-0.3-1.9l-0.9-1.6
			l1.8-0.6c1.2-0.4,1.9-1.6,1.7-2.8c-0.4-2.4-1.4-4.3-2.9-5.7C122.9,15.1,120.9,14.4,118.6,14.4L118.6,14.4z"/>
	</g>
	<g>
		<path class="st4" d="M127.6,30.6c-0.7,0-1.2-0.6-1.2-1.2V17.4c0-0.7,0.6-1.2,1.2-1.2h3.4c0.6,0,1.1,0.4,1.2,1
			c0.6-0.4,1.1-0.8,1.7-1.1c0.7-0.4,1.4-0.5,1.9-0.5c0.3,0,0.7,0.1,0.9,0.4c0.2,0.2,0.4,0.6,0.3,0.9l-0.2,3.8c0,0.3-0.2,0.7-0.4,0.9
			c-0.2,0.2-0.5,0.3-0.8,0.3c-0.1,0-0.1,0-0.2,0c-0.1,0-0.3,0-0.4,0c-0.4,0-0.8,0.1-1.1,0.3c-0.4,0.3-0.8,0.7-1,1.1
			c-0.2,0.5-0.4,0.9-0.4,1.4v4.6c0,0.7-0.6,1.2-1.2,1.2H127.6z"/>
		<path class="st3" d="M135.9,16.8l-0.2,3.8c-0.2,0-0.4,0-0.6,0c-0.7,0-1.2,0.2-1.7,0.5c-0.6,0.4-1.1,0.9-1.5,1.6
			c-0.3,0.6-0.5,1.3-0.5,2v4.6h-3.8V17.4h3.4l0.3,2.7c0.3-0.7,0.8-1.3,1.4-1.8c0.6-0.5,1.2-0.9,1.8-1.2
			C135.1,17,135.6,16.8,135.9,16.8 M135.9,14.3c-0.7,0-1.5,0.2-2.4,0.6c-0.3,0.1-0.6,0.3-0.9,0.5c-0.4-0.3-0.9-0.5-1.5-0.5h-3.4
			c-1.4,0-2.5,1.1-2.5,2.5v11.9c0,1.4,1.1,2.5,2.5,2.5h3.8c1.4,0,2.5-1.1,2.5-2.5v-4.6c0-0.3,0.1-0.6,0.2-0.8
			c0.1-0.3,0.3-0.5,0.6-0.6c0,0,0.1-0.1,0.4-0.1c0.1,0,0.2,0,0.3,0c0.1,0,0.2,0,0.3,0c0.6,0,1.2-0.2,1.6-0.6
			c0.5-0.4,0.9-1.1,0.9-1.8l0.2-3.8c0-0.7-0.2-1.3-0.7-1.8S136.6,14.3,135.9,14.3L135.9,14.3z M135.9,19.3L135.9,19.3L135.9,19.3
			L135.9,19.3z"/>
	</g>
	<g>
		<path class="st4" d="M143.1,30.9c-1.3,0-2.5-0.3-3.6-0.9c-1.1-0.6-1.9-1.5-2.5-2.7c-0.6-1.1-0.9-2.5-0.9-4c0-1.5,0.3-2.9,1-4
			c0.7-1.2,1.6-2,2.7-2.6c1.1-0.6,2.4-0.9,3.8-0.9c0.9,0,1.8,0.1,2.6,0.4c0,0,0.1,0,0.1,0V7.9c0-0.7,0.6-1.2,1.2-1.2h3.8
			c0.7,0,1.2,0.6,1.2,1.2v21.4c0,0.7-0.6,1.2-1.2,1.2h-3.8c-0.4,0-0.7-0.2-1-0.5c-0.1,0-0.2,0.1-0.3,0.1
			C145.3,30.7,144.2,30.9,143.1,30.9z M144.3,21.1c-0.3,0-0.6,0.1-0.9,0.2c-0.3,0.2-0.5,0.4-0.7,0.7c-0.2,0.3-0.3,0.6-0.3,1.1
			c0,0.4,0.1,0.8,0.3,1.1c0.2,0.3,0.4,0.6,0.7,0.8c0.3,0.2,0.6,0.2,0.9,0.2c0.4,0,0.7,0,0.9-0.1c0.2-0.1,0.4-0.2,0.6-0.3
			c0.1-0.1,0.2-0.2,0.3-0.4V22c-0.1-0.1-0.2-0.3-0.3-0.4c-0.2-0.2-0.4-0.3-0.7-0.4C145,21.1,144.7,21.1,144.3,21.1z"/>
		<path class="st3" d="M151.3,7.9v21.4h-3.8v-1.3c-0.5,0.4-1.1,0.7-1.8,1.1c-0.8,0.4-1.6,0.5-2.6,0.5c-1.1,0-2.1-0.2-3-0.8
			c-0.9-0.5-1.5-1.3-2-2.2c-0.5-1-0.7-2.1-0.7-3.5c0-1.3,0.3-2.5,0.8-3.4c0.5-0.9,1.3-1.7,2.2-2.1c0.9-0.5,2-0.7,3.2-0.7
			c0.8,0,1.5,0.1,2.2,0.4c0.7,0.2,1.3,0.6,1.8,1.1V7.9H151.3 M144.3,26.4c0.5,0,0.9-0.1,1.3-0.2c0.4-0.1,0.7-0.3,1-0.6
			c0.3-0.3,0.6-0.6,0.8-1v-2.9c-0.1-0.4-0.4-0.7-0.7-1c-0.3-0.3-0.7-0.5-1.1-0.7c-0.4-0.1-0.9-0.2-1.4-0.2c-0.6,0-1.1,0.1-1.6,0.4
			c-0.5,0.3-0.9,0.7-1.2,1.2c-0.3,0.5-0.4,1.1-0.4,1.7s0.1,1.2,0.4,1.7c0.3,0.5,0.7,0.9,1.2,1.2C143.2,26.3,143.7,26.4,144.3,26.4
			 M151.3,5.4h-3.8c-1.4,0-2.5,1.1-2.5,2.5v6.6c-0.5-0.1-0.9-0.1-1.4-0.1c-1.6,0-3,0.3-4.3,1c-1.4,0.7-2.5,1.8-3.2,3.1
			c-0.8,1.3-1.1,2.9-1.1,4.7c0,1.7,0.3,3.3,1,4.6c0.7,1.4,1.7,2.5,3,3.3c1.2,0.7,2.7,1.1,4.2,1.1c1.2,0,2.3-0.2,3.3-0.6
			c0.3,0.2,0.7,0.3,1.1,0.3h3.8c1.4,0,2.5-1.1,2.5-2.5V7.9C153.8,6.5,152.6,5.4,151.3,5.4L151.3,5.4z M144.3,23.9
			c-0.1,0-0.2,0-0.3-0.1c-0.1-0.1-0.2-0.1-0.2-0.3c-0.1-0.1-0.1-0.3-0.1-0.5c0-0.2,0-0.3,0.1-0.4c0.1-0.1,0.2-0.2,0.3-0.3
			c0.1,0,0.1-0.1,0.3-0.1c0.2,0,0.4,0,0.6,0.1c0,0,0.1,0,0.1,0v1.4c0,0-0.1,0-0.1,0.1C144.7,23.9,144.5,23.9,144.3,23.9L144.3,23.9z
			"/>
	</g>
	<g>
		<path class="st4" d="M160.2,30.9c-1.3,0-2.5-0.3-3.5-0.8c-1.1-0.6-2-1.4-2.7-2.6c-0.6-1.1-1-2.5-1-4.1c0-1.5,0.3-2.9,1-4.1
			c0.7-1.2,1.5-2.1,2.6-2.7c1.1-0.6,2.2-1,3.5-1c1.4,0,2.5,0.3,3.4,0.8c0.1,0,0.1,0.1,0.2,0.1c0.2-0.2,0.5-0.3,0.8-0.3h3.5
			c0.7,0,1.2,0.6,1.2,1.2v11.9c0,0.7-0.6,1.2-1.2,1.2h-3.8c-0.4,0-0.7-0.2-0.9-0.4c-0.2,0.1-0.5,0.2-0.7,0.3
			C161.8,30.7,161,30.9,160.2,30.9z M161.1,21.2c-0.3,0-0.6,0.1-0.9,0.2c-0.3,0.2-0.5,0.4-0.7,0.7c-0.2,0.3-0.2,0.7-0.2,1.1
			c0,0.4,0.1,0.8,0.3,1.1c0.2,0.3,0.4,0.5,0.7,0.7c0.3,0.2,0.6,0.3,0.9,0.3c0.3,0,0.6,0,0.8-0.1c0.2-0.1,0.4-0.2,0.5-0.3
			c0.1-0.1,0.2-0.3,0.3-0.4v-2.3c-0.1-0.1-0.2-0.3-0.3-0.3c-0.2-0.2-0.4-0.3-0.6-0.4C161.7,21.2,161.5,21.2,161.1,21.2z"/>
		<path class="st3" d="M160,16.8c1.2,0,2.1,0.2,2.7,0.6c0.6,0.4,1.1,0.8,1.4,1.2l0.2-1.2h3.5v11.9h-3.8v-1.5l0,0
			c-0.2,0.2-0.4,0.5-0.8,0.7c-0.4,0.3-0.8,0.5-1.3,0.7c-0.5,0.2-1.1,0.3-1.8,0.3c-1.1,0-2.1-0.2-3-0.7c-0.9-0.4-1.6-1.1-2.1-2.1
			c-0.5-0.9-0.8-2.1-0.8-3.5c0-1.3,0.3-2.5,0.8-3.5c0.5-1,1.3-1.7,2.1-2.3C158.1,17.1,159,16.8,160,16.8 M161.2,26.5
			c0.5,0,0.9-0.1,1.2-0.2c0.4-0.1,0.7-0.3,0.9-0.6c0.3-0.3,0.5-0.6,0.7-1v-2.9c-0.1-0.4-0.4-0.7-0.7-1c-0.3-0.3-0.6-0.5-1-0.7
			c-0.4-0.2-0.8-0.2-1.3-0.2c-0.5,0-1,0.1-1.5,0.4c-0.5,0.3-0.8,0.7-1.1,1.2c-0.3,0.5-0.4,1.1-0.4,1.7c0,0.6,0.1,1.2,0.4,1.7
			c0.3,0.5,0.7,0.9,1.2,1.2C160.2,26.4,160.7,26.5,161.2,26.5 M160,14.3c-1.4,0-2.8,0.4-4.1,1.2c-1.3,0.7-2.3,1.8-3,3.2
			c-0.8,1.4-1.1,2.9-1.1,4.7c0,1.9,0.4,3.5,1.1,4.8c0.8,1.3,1.8,2.4,3.2,3c1.2,0.6,2.6,0.9,4.1,0.9c1,0,2-0.2,2.8-0.5
			c0.1,0,0.1,0,0.2-0.1c0.3,0.1,0.7,0.2,1.1,0.2h3.8c1.4,0,2.5-1.1,2.5-2.5V17.4c0-1.4-1.1-2.5-2.5-2.5h-3.5c-0.3,0-0.5,0-0.8,0.1
			C162.6,14.6,161.5,14.3,160,14.3L160,14.3z M161.2,24c-0.1,0-0.2,0-0.3-0.1c-0.1-0.1-0.2-0.1-0.3-0.3c0-0.1-0.1-0.2-0.1-0.5
			c0-0.1,0-0.3,0.1-0.5c0.1-0.1,0.1-0.2,0.2-0.2c0.1,0,0.1-0.1,0.2-0.1c0.3,0,0.4,0,0.4,0c0,0,0.1,0,0.1,0.1V24c0,0,0,0,0,0
			C161.5,24,161.4,24,161.2,24L161.2,24z"/>
	</g>
	<g>
		<path class="st4" d="M183.5,19.2c0,0-0.1,0.1-0.1,0.1l0.1,0C183.5,19.2,183.5,19.2,183.5,19.2z"/>
		<path class="st3" d="M183.5,19.2c0,0,0,0.1,0,0.1l-0.1,0C183.4,19.3,183.5,19.2,183.5,19.2 M183.5,16.7c-0.8,0-1.5,0.4-2,1
			l-0.1,0.1c-0.6,0.8-0.7,1.9-0.1,2.8c0.5,0.8,1.3,1.2,2.1,1.2c0.1,0,0.3,0,0.4,0l0.1,0c0.7-0.1,1.3-0.5,1.7-1.1
			c0.4-0.6,0.5-1.3,0.3-2c0-0.1-0.1-0.2-0.1-0.3c-0.3-0.9-1.1-1.5-2-1.7C183.8,16.7,183.6,16.7,183.5,16.7L183.5,16.7z"/>
	</g>
	<g>
		<path class="st4" d="M187.6,30.6c-0.7,0-1.2-0.6-1.2-1.2V22c0-0.3,0-0.5-0.1-0.6c-0.2,0-0.4,0.1-0.6,0.3c-0.3,0.3-0.5,0.6-0.6,1.1
			c-0.2,0.6-0.3,1.1-0.3,1.7v4.9c0,0.7-0.6,1.2-1.2,1.2h-3.8c-0.7,0-1.2-0.6-1.2-1.2V22c0-0.3,0-0.5-0.1-0.6c0,0,0,0,0,0
			c-0.2,0-0.4,0.1-0.5,0.3c-0.3,0.3-0.5,0.7-0.6,1.1c-0.2,0.5-0.3,1.1-0.3,1.6v4.9c0,0.7-0.6,1.2-1.2,1.2h-3.8
			c-0.7,0-1.2-0.6-1.2-1.2V17.4c0-0.7,0.6-1.2,1.2-1.2h3.4c0.4,0,0.8,0.2,1,0.5c0.1-0.1,0.2-0.2,0.4-0.2c0.9-0.6,2-0.9,3.2-0.9
			c0.8,0,1.5,0.1,2.2,0.3c0.7,0.2,1.2,0.6,1.7,1.1c0,0,0,0,0,0c0.3-0.2,0.5-0.4,0.8-0.6c0.9-0.6,1.9-0.9,2.9-0.9
			c1.5,0,2.7,0.5,3.7,1.3c0.9,0.9,1.4,2,1.5,3.4v8.9c0,0.7-0.6,1.2-1.2,1.2H187.6z"/>
		<path class="st3" d="M187.5,16.8c1.2,0,2.1,0.3,2.8,1c0.7,0.7,1.1,1.5,1.1,2.6v8.9h-3.8V22c0-0.5-0.1-1-0.2-1.3
			c-0.1-0.3-0.5-0.5-1-0.6c-0.6,0-1.1,0.2-1.6,0.6c-0.4,0.4-0.7,1-0.9,1.6c-0.2,0.7-0.3,1.3-0.3,2v4.9h-3.8V22c0-0.5-0.1-1-0.3-1.3
			c-0.2-0.3-0.5-0.5-1-0.6c-0.6,0-1.1,0.2-1.5,0.6c-0.4,0.4-0.7,1-0.9,1.6c-0.2,0.6-0.3,1.3-0.3,2v4.9h-3.8V17.4h3.4l0.3,1.9
			c0.5-0.8,1-1.4,1.7-1.8c0.7-0.4,1.5-0.7,2.5-0.7c0.7,0,1.2,0.1,1.7,0.3c0.5,0.2,0.9,0.5,1.3,0.8c0.3,0.3,0.6,0.7,0.7,1.3
			c0,0-0.1,0.1-0.1,0.1l0.1,0c0,0,0-0.1,0-0.1c0.5-0.7,1.1-1.2,1.7-1.7C185.9,17.1,186.7,16.8,187.5,16.8 M187.5,14.3
			c-1.3,0-2.5,0.4-3.6,1.1c0,0-0.1,0-0.1,0.1c-0.4-0.3-0.9-0.5-1.4-0.7c-0.8-0.3-1.6-0.4-2.6-0.4c-1.3,0-2.5,0.3-3.5,0.8
			c-0.3-0.2-0.7-0.2-1.1-0.2h-3.4c-1.4,0-2.5,1.1-2.5,2.5v11.9c0,1.4,1.1,2.5,2.5,2.5h3.8c0.8,0,1.6-0.4,2-1c0.5,0.6,1.2,1,2,1h3.8
			c0.8,0,1.6-0.4,2-1c0.5,0.6,1.2,1,2,1h3.8c1.4,0,2.5-1.1,2.5-2.5v-8.9c0,0,0,0,0-0.1c0-1.7-0.7-3.2-1.9-4.3
			C191.2,15.3,189.8,14.3,187.5,14.3L187.5,14.3z"/>
	</g>
</g>
<g class="st0">
	<g class="st1">
		<path class="st4" d="M56.7,29.2c-0.7,0-1.2-0.6-1.2-1.2V8c0-0.7,0.6-1.2,1.2-1.2h3.9c0.7,0,1.2,0.6,1.2,1.2v14.9H70
			c0.7,0,1.2,0.6,1.2,1.2V28c0,0.7-0.6,1.2-1.2,1.2H56.7z"/>
		<path class="st3" d="M60.6,8v16.2H70V28H56.7V8H60.6 M60.6,5.5h-3.9c-1.4,0-2.5,1.1-2.5,2.5v20c0,1.4,1.1,2.5,2.5,2.5H70
			c1.4,0,2.5-1.1,2.5-2.5v-3.8c0-1.4-1.1-2.5-2.5-2.5h-6.9V8C63.1,6.6,62,5.5,60.6,5.5L60.6,5.5z"/>
	</g>
	<g class="st1">
		<path class="st4" d="M82.9,29.5c-1.8,0-3.4-0.3-4.8-0.8c-1.4-0.5-2.7-1.3-3.8-2.3c-1.1-1-1.9-2.2-2.4-3.5
			c-0.5-1.3-0.8-2.8-0.8-4.3c0-2,0.3-3.7,0.9-5.2c0.6-1.5,1.5-2.8,2.6-3.8c1.1-1,2.3-1.8,3.7-2.3c1.4-0.5,2.8-0.7,4.3-0.7
			c1.4,0,2.7,0.2,3.8,0.5c1.2,0.3,2.2,0.7,3,1.2C90,8.5,90.2,9.1,90,9.7l-1.3,3.7c-0.1,0.3-0.4,0.6-0.7,0.8
			c-0.1,0.1-0.3,0.1-0.4,0.1c-0.2,0-0.4-0.1-0.6-0.2c-0.2-0.1-0.5-0.3-1.1-0.5c-0.5-0.2-1-0.3-1.5-0.4c-0.5-0.1-0.9-0.1-1.2-0.1
			c-1,0-1.8,0.1-2.5,0.3c-0.7,0.2-1.2,0.5-1.6,0.9c-0.4,0.4-0.8,0.9-1,1.5c-0.2,0.7-0.4,1.5-0.4,2.4c0,0.8,0.1,1.5,0.4,2
			c0.3,0.6,0.6,1.1,1.1,1.5c0.5,0.4,1,0.7,1.7,0.9c0.7,0.2,1.4,0.3,2.3,0.3c0.5,0,0.9,0,1.3-0.1c0.1,0,0.1,0,0.2,0v-0.3h-2.2
			c-0.7,0-1.2-0.6-1.2-1.2v-3.8c0-0.7,0.6-1.2,1.2-1.2h7.4c0.7,0,1.2,0.6,1.2,1.2V26c0,0.3-0.1,0.6-0.3,0.8c-0.3,0.4-0.8,0.7-1.5,1
			c-0.6,0.3-1.2,0.6-1.9,0.8c-0.7,0.2-1.4,0.4-2.2,0.6C84.3,29.4,83.6,29.5,82.9,29.5z"/>
		<path class="st3" d="M82.6,7.8c1.3,0,2.5,0.1,3.5,0.4c1.1,0.3,2,0.6,2.7,1l-1.3,3.7c-0.3-0.2-0.8-0.4-1.3-0.5
			c-0.5-0.2-1.1-0.3-1.7-0.4c-0.6-0.1-1.1-0.2-1.5-0.2c-1.1,0-2,0.1-2.9,0.4c-0.8,0.3-1.5,0.7-2.1,1.2c-0.6,0.5-1,1.2-1.3,2
			c-0.3,0.8-0.4,1.7-0.4,2.8c0,0.9,0.2,1.8,0.5,2.5c0.3,0.8,0.8,1.4,1.4,1.9c0.6,0.5,1.3,0.9,2.1,1.2c0.8,0.3,1.7,0.4,2.7,0.4
			c0.6,0,1.1,0,1.5-0.1c0.5-0.1,0.9-0.2,1.2-0.4v-2.4h-3.4v-3.8h7.4V26c-0.2,0.3-0.6,0.5-1.1,0.8c-0.5,0.3-1.1,0.5-1.7,0.7
			c-0.7,0.2-1.3,0.4-2,0.5c-0.7,0.1-1.3,0.2-2,0.2c-1.6,0-3.1-0.2-4.4-0.7c-1.3-0.5-2.4-1.1-3.3-2c-0.9-0.9-1.6-1.9-2.1-3.1
			c-0.5-1.2-0.7-2.5-0.7-3.9c0-1.8,0.3-3.4,0.8-4.8c0.6-1.3,1.3-2.5,2.3-3.4c1-0.9,2-1.6,3.3-2C79.9,8,81.2,7.8,82.6,7.8 M82.6,5.3
			c-1.6,0-3.2,0.3-4.7,0.8c-1.6,0.5-3,1.4-4.2,2.5c-1.2,1.1-2.2,2.6-2.9,4.2c-0.7,1.6-1,3.6-1,5.7c0,1.7,0.3,3.3,0.9,4.8
			c0.6,1.5,1.5,2.8,2.7,3.9c1.2,1.1,2.6,1.9,4.2,2.5c1.6,0.6,3.3,0.9,5.3,0.9c0.8,0,1.6-0.1,2.4-0.3c0.8-0.2,1.6-0.4,2.3-0.6
			c0.8-0.3,1.5-0.6,2.1-0.9c0.8-0.4,1.4-0.8,1.8-1.3c0.4-0.5,0.7-1.1,0.7-1.7v-8.4c0-1.4-1.1-2.5-2.5-2.5h-0.9
			c0.5-0.3,0.8-0.8,1-1.3l1.3-3.7c0.4-1.1-0.1-2.4-1.1-3c-0.9-0.5-2-0.9-3.3-1.3C85.5,5.5,84.1,5.3,82.6,5.3L82.6,5.3z M79.8,20.7
			c-0.3-0.3-0.5-0.6-0.6-0.9c-0.2-0.4-0.3-1-0.3-1.5c0-0.8,0.1-1.4,0.3-2c0.2-0.4,0.4-0.8,0.7-1.1c0.3-0.3,0.7-0.5,1.2-0.7
			c0.6-0.2,1.3-0.3,2.1-0.3c0.2,0,0.5,0,1,0.1c0.5,0.1,0.9,0.2,1.4,0.4c0.4,0.1,0.6,0.2,0.7,0.3h-3.9c-1.4,0-2.5,1.1-2.5,2.5V20.7
			L79.8,20.7z"/>
	</g>
	<g class="st1">
		<path class="st4" d="M94.2,29.2c-0.7,0-1.2-0.6-1.2-1.2V8c0-0.7,0.6-1.2,1.2-1.2h5.9c2.3,0,4.2,0.5,5.7,1.5
			c1.6,1.1,2.4,2.7,2.4,4.8c0,1.5-0.4,2.8-1.1,3.8c-0.1,0.2-0.2,0.3-0.4,0.4c0.4,0.3,0.7,0.6,1,1c0.9,1.1,1.4,2.4,1.4,3.8
			c0,1.3-0.2,2.4-0.7,3.3c-0.5,0.9-1.2,1.7-2,2.3c-0.8,0.5-1.6,0.9-2.6,1.2c-0.9,0.2-1.9,0.3-2.9,0.3H94.2z M100.7,23.1
			c0.4,0,0.8-0.1,1.2-0.2c0.2-0.1,0.4-0.2,0.5-0.3c0.1-0.1,0.1-0.2,0.1-0.5c0-0.3-0.1-0.4-0.1-0.4c-0.2-0.2-0.4-0.3-0.7-0.3
			c-0.4-0.1-0.9-0.2-1.4-0.2h-1v1.8H100.7z M100.6,14.9c0.6,0,0.7-0.2,0.7-0.2c0.2-0.2,0.3-0.5,0.3-0.8c0-0.4-0.1-0.5-0.2-0.6
			c-0.2-0.2-0.6-0.3-1.1-0.3h-0.9v1.9H100.6z"/>
		<path class="st3" d="M100.1,8c2.1,0,3.7,0.4,5,1.3c1.2,0.8,1.8,2.1,1.8,3.8c0,1.2-0.3,2.2-0.9,3.1c-0.4,0.5-0.9,1-1.5,1.3
			c0.9,0.4,1.7,0.9,2.2,1.6c0.7,0.8,1.1,1.8,1.1,3c0,1.1-0.2,2-0.6,2.8c-0.4,0.7-0.9,1.4-1.6,1.8c-0.7,0.5-1.4,0.8-2.2,1
			c-0.8,0.2-1.7,0.3-2.6,0.3h-6.6V8H100.1 M98.2,16.2h2.4c0.8,0,1.3-0.2,1.7-0.7c0.4-0.5,0.6-1,0.6-1.6c0-0.7-0.2-1.2-0.7-1.5
			c-0.5-0.3-1.1-0.5-1.9-0.5h-2.1V16.2 M98.2,24.3h2.5c0.6,0,1.1-0.1,1.6-0.2c0.5-0.2,0.8-0.4,1.1-0.7c0.3-0.3,0.4-0.8,0.4-1.3
			c0-0.6-0.2-1-0.5-1.3c-0.3-0.3-0.7-0.5-1.3-0.6c-0.5-0.1-1.1-0.2-1.6-0.2h-2.2V24.3 M100.1,5.5h-5.9c-1.4,0-2.5,1.1-2.5,2.5v20
			c0,1.4,1.1,2.5,2.5,2.5h6.6c1.1,0,2.2-0.1,3.2-0.4c1.2-0.3,2.2-0.8,3.1-1.4c1-0.7,1.8-1.6,2.3-2.7c0.6-1.1,0.9-2.4,0.9-3.9
			c0-1.8-0.6-3.4-1.7-4.7c-0.1-0.1-0.2-0.2-0.3-0.3c0.7-1.2,1.1-2.5,1.1-4.1c0-2.5-1-4.5-2.9-5.8C104.8,6.1,102.7,5.5,100.1,5.5
			L100.1,5.5z"/>
	</g>
	<g class="st1">
		<path class="st4" d="M115.1,29.2c-0.7,0-1.2-0.6-1.2-1.2V13.1h-3.4c-0.7,0-1.2-0.6-1.2-1.2V8c0-0.7,0.6-1.2,1.2-1.2h13.5
			c0.7,0,1.2,0.6,1.2,1.2v3.8c0,0.7-0.6,1.2-1.2,1.2h-3.6V28c0,0.7-0.6,1.2-1.2,1.2H115.1z"/>
		<path class="st3" d="M123.9,8v3.8H119V28h-3.9V11.8h-4.7V8H123.9 M123.9,5.5h-13.5c-1.4,0-2.5,1.1-2.5,2.5v3.8
			c0,1.4,1.1,2.5,2.5,2.5h2.2V28c0,1.4,1.1,2.5,2.5,2.5h3.9c1.4,0,2.5-1.1,2.5-2.5V14.3h2.4c1.4,0,2.5-1.1,2.5-2.5V8
			C126.4,6.6,125.3,5.5,123.9,5.5L123.9,5.5z"/>
	</g>
	<g class="st1">
		<path class="st4" d="M135.9,29.4c-1.6,0-3.1-0.3-4.4-0.9c-1.4-0.6-2.6-1.4-3.6-2.4c-1.1-1.1-1.9-2.3-2.5-3.6
			c-0.6-1.4-0.9-2.9-0.9-4.5c0-1.5,0.3-3,0.9-4.4c0.6-1.3,1.4-2.6,2.4-3.7c1.1-1.1,2.3-1.9,3.6-2.5c1.4-0.6,2.9-0.9,4.5-0.9
			c1.6,0,3.1,0.3,4.4,0.9c1.4,0.6,2.6,1.4,3.7,2.5c1.1,1.1,1.9,2.3,2.5,3.7c0.6,1.4,0.9,2.8,0.9,4.4c0,1.6-0.3,3.1-0.9,4.5
			c-0.1,0.1-0.1,0.3-0.2,0.4h1c0.7,0,1.2,0.6,1.2,1.2V28c0,0.7-0.6,1.2-1.2,1.2h-9.1C137.5,29.4,136.7,29.4,135.9,29.4z M136,13
			c-0.7,0-1.3,0.1-1.9,0.4c-0.6,0.3-1.1,0.6-1.6,1.1c-0.4,0.5-0.8,1-1,1.6c-0.2,0.6-0.4,1.3-0.4,2c0,0.7,0.1,1.4,0.4,2
			c0.2,0.6,0.6,1.2,1.1,1.6c0.4,0.5,1,0.8,1.6,1.1c0.6,0.3,1.2,0.4,2,0.4c0.7,0,1.3-0.1,1.9-0.4c0.6-0.3,1.1-0.6,1.5-1.1
			c0.4-0.4,0.8-1,1-1.6c0.3-0.6,0.4-1.3,0.4-2c0-0.7-0.1-1.4-0.4-2c-0.3-0.6-0.6-1.2-1.1-1.6c-0.4-0.5-0.9-0.8-1.5-1.1
			C137.3,13.1,136.7,13,136,13z"/>
		<path class="st3" d="M135.9,7.8c1.4,0,2.7,0.3,3.9,0.8c1.2,0.5,2.3,1.3,3.3,2.2c0.9,0.9,1.7,2,2.2,3.3c0.5,1.2,0.8,2.5,0.8,3.9
			c0,1.4-0.3,2.7-0.8,4c-0.3,0.8-0.7,1.5-1.3,2.1h3.2V28h-9.2c-0.7,0.1-1.4,0.2-2.1,0.2c-1.4,0-2.7-0.3-4-0.8
			c-1.2-0.5-2.3-1.3-3.2-2.2c-0.9-0.9-1.7-2-2.2-3.2c-0.5-1.2-0.8-2.6-0.8-4c0-1.4,0.3-2.7,0.8-3.9c0.5-1.2,1.3-2.3,2.2-3.3
			c0.9-0.9,2-1.7,3.2-2.2S134.5,7.8,135.9,7.8 M136.1,24.4c0.9,0,1.7-0.2,2.4-0.5c0.7-0.3,1.4-0.8,1.9-1.4c0.5-0.6,1-1.3,1.3-2
			c0.3-0.8,0.5-1.6,0.5-2.5c0-0.9-0.2-1.7-0.5-2.5c-0.3-0.8-0.7-1.4-1.3-2c-0.6-0.6-1.2-1-1.9-1.4c-0.7-0.3-1.5-0.5-2.4-0.5
			c-0.9,0-1.7,0.2-2.4,0.5c-0.7,0.3-1.4,0.8-2,1.4c-0.6,0.6-1,1.3-1.3,2c-0.3,0.8-0.5,1.6-0.5,2.5c0,0.9,0.2,1.7,0.5,2.5
			c0.3,0.8,0.8,1.4,1.3,2c0.6,0.6,1.2,1,2,1.4C134.4,24.2,135.2,24.4,136.1,24.4 M135.9,5.3c-1.7,0-3.4,0.3-5,1
			c-1.5,0.7-2.9,1.6-4,2.8c-1.2,1.2-2.1,2.6-2.7,4.1c-0.7,1.6-1,3.2-1,4.9c0,1.7,0.3,3.4,1,4.9c0.6,1.5,1.5,2.8,2.7,4
			c1.2,1.2,2.5,2.1,4,2.7c1.6,0.7,3.2,1,4.9,1c0.8,0,1.6-0.1,2.4-0.2h9c1.4,0,2.5-1.1,2.5-2.5v-3.9c0-1.1-0.7-2-1.7-2.4
			c0.4-1.2,0.6-2.4,0.6-3.7c0-1.7-0.3-3.4-1-4.9c-0.6-1.5-1.6-2.9-2.7-4c-1.2-1.2-2.5-2.1-4-2.8C139.4,5.6,137.7,5.3,135.9,5.3
			L135.9,5.3z M136.1,21.9c-0.5,0-1-0.1-1.5-0.3c-0.5-0.2-0.8-0.5-1.2-0.8c-0.4-0.4-0.6-0.8-0.8-1.3c-0.2-0.5-0.3-1-0.3-1.5
			c0-0.5,0.1-1.1,0.3-1.5c0.2-0.4,0.4-0.9,0.8-1.2c0.3-0.3,0.7-0.6,1.2-0.8c0.4-0.2,0.9-0.3,1.4-0.3c0.5,0,1,0.1,1.4,0.3
			c0.4,0.2,0.8,0.4,1.1,0.8c0.3,0.3,0.6,0.8,0.8,1.2c0.2,0.5,0.3,1,0.3,1.5c0,0.6-0.1,1.1-0.3,1.5c-0.2,0.5-0.5,0.9-0.8,1.3
			c-0.3,0.3-0.7,0.6-1.1,0.8C137,21.8,136.6,21.9,136.1,21.9L136.1,21.9z"/>
	</g>
	<g class="st1">
		<path class="st4" d="M154.3,27.8c-0.7,0-1.2-0.6-1.2-1.2v-2.1h-2c-0.7,0-1.2-0.6-1.2-1.2V20c0-0.7,0.6-1.2,1.2-1.2h2v-2.1
			c0-0.7,0.6-1.2,1.2-1.2h3.4c0.7,0,1.2,0.6,1.2,1.2v2.1h2c0.7,0,1.2,0.6,1.2,1.2v3.3c0,0.7-0.6,1.2-1.2,1.2h-2v2.1
			c0,0.7-0.6,1.2-1.2,1.2H154.3z"/>
		<path class="st3" d="M157.7,16.6V20h3.3v3.3h-3.3v3.3h-3.4v-3.3H151V20h3.3v-3.4H157.7 M157.7,14.1h-3.4c-1.4,0-2.5,1.1-2.5,2.5
			v0.9H151c-1.4,0-2.5,1.1-2.5,2.5v3.3c0,1.4,1.1,2.5,2.5,2.5h0.8v0.8c0,1.4,1.1,2.5,2.5,2.5h3.4c1.4,0,2.5-1.1,2.5-2.5v-0.8h0.8
			c1.4,0,2.5-1.1,2.5-2.5V20c0-1.4-1.1-2.5-2.5-2.5h-0.8v-0.9C160.2,15.2,159.1,14.1,157.7,14.1L157.7,14.1z"/>
	</g>
</g>
</svg>
