<?xml version="1.0" encoding="utf-8"?>
<!-- Generator: Adobe Illustrator 24.2.3, SVG Export Plug-In . SVG Version: 6.00 Build 0)  -->
<svg version="1.1" id="Laag_1" xmlns="http://www.w3.org/2000/svg" xmlns:xlink="http://www.w3.org/1999/xlink" x="0px" y="0px"
	 viewBox="0 0 64.75 39.85" style="enable-background:new 0 0 64.75 39.85;" xml:space="preserve">
<style type="text/css">
	.st0{clip-path:url(#SVGID_2_);}
</style>
<g>
	<defs>
		<rect id="SVGID_1_" x="0" y="0" width="64.75" height="39.85"/>
	</defs>
	<clipPath id="SVGID_2_">
		<use xlink:href="#SVGID_1_"  style="overflow:visible;"/>
	</clipPath>
	<path class="st0" d="M0,32.07c2.61,1.27,5.39,2.27,8.27,2.99c2.88,0.71,5.9,1.12,8.93,0.99c3.02-0.12,6.06-0.87,8.66-2.3
		c1.29-0.71,2.48-1.53,3.58-2.45c1.09-0.92,2.1-1.94,2.9-3.11c0.79-1.16,1.35-2.56,1.17-4.03c0-0.18-0.06-0.36-0.11-0.54
		c-0.05-0.18-0.1-0.36-0.16-0.53c-0.17-0.33-0.32-0.68-0.56-0.97c-0.42-0.63-1-1.13-1.6-1.6c-1.24-0.89-2.69-1.52-4.24-1.87
		c-1.55-0.33-3.22-0.41-4.83,0c-0.39,0.13-0.8,0.23-1.17,0.42c-0.19,0.09-0.38,0.17-0.56,0.27l-0.52,0.33
		c-0.66,0.48-1.19,1.05-1.62,1.67c-0.82,1.26-1.2,2.66-1.28,4.04c-0.07,1.39,0.14,2.79,0.73,4.13c0.6,1.3,1.46,2.5,2.51,3.52
		c2.08,2.08,4.73,3.61,7.54,4.73c2.82,1.12,5.86,1.84,9,2.04c3.12,0.18,6.41-0.16,9.34-1.49c2.9-1.33,5.14-3.44,6.79-5.74
		c1.64-2.33,2.71-4.88,3.4-7.48c0.65-2.61,0.93-5.26,0.86-7.89c-0.08-2.63-0.47-5.25-1.14-7.79c-0.71-2.54-1.62-5.03-2.82-7.4
		l-0.23,0.07c1.73,4.94,2.65,10.05,2.47,15.12c-0.06,1.26-0.19,2.52-0.38,3.77c-0.21,1.24-0.49,2.48-0.86,3.69
		c-0.76,2.41-1.82,4.75-3.38,6.79c-1.52,2.04-3.51,3.82-5.9,4.92c-2.37,1.09-5.2,1.48-8.01,1.34c-2.81-0.11-5.64-0.69-8.26-1.66
		c-2.62-0.97-5.07-2.34-6.96-4.13c-0.95-0.89-1.71-1.91-2.24-3c-0.51-1.07-0.73-2.28-0.69-3.47c0.04-1.19,0.34-2.37,0.97-3.38
		c0.32-0.5,0.72-0.94,1.2-1.3l0.38-0.25c0.13-0.08,0.28-0.14,0.41-0.21c0.26-0.15,0.58-0.23,0.88-0.34c1.25-0.34,2.66-0.31,4-0.05
		c1.34,0.28,2.63,0.81,3.7,1.55c0.51,0.38,1.01,0.8,1.35,1.29c0.21,0.23,0.31,0.5,0.46,0.75l0.13,0.4c0.04,0.13,0.1,0.27,0.1,0.41
		c0.16,1.11-0.23,2.3-0.93,3.36c-0.68,1.07-1.6,2.05-2.61,2.95c-1.01,0.9-2.14,1.72-3.34,2.42c-2.4,1.4-5.25,2.19-8.17,2.38
		c-2.92,0.19-5.89-0.13-8.75-0.77c-2.86-0.64-5.65-1.57-8.28-2.77L0,32.07z"/>
	<path class="st0" d="M64.75,7.42c-1.92-1.16-3.87-2.28-5.81-3.41c-1.95-1.12-3.9-2.24-5.87-3.33L51.84,0l-0.23,1.32
		c-0.18,1.05-0.37,2.1-0.58,3.14c-0.2,1.05-0.34,2.1-0.38,3.16c-0.06,1.06-0.04,2.12,0.01,3.19c0.05,1.07,0.16,2.14,0.4,3.22
		l0.24,0.02c0.47-1.02,0.81-2.06,1.1-3.1c0.29-1.04,0.53-2.08,0.71-3.13c0.19-1.05,0.28-2.1,0.31-3.16
		c0.03-1.06,0.07-2.12,0.12-3.18l-1.45,0.64c2.07,0.94,4.15,1.87,6.24,2.78c2.1,0.9,4.18,1.82,6.29,2.7L64.75,7.42z"/>
</g>
</svg>
