<?xml version="1.0" encoding="utf-8"?>
<!-- Generator: Adobe Illustrator 25.0.0, SVG Export Plug-In . SVG Version: 6.00 Build 0)  -->
<svg version="1.1" id="Laag_1" xmlns="http://www.w3.org/2000/svg" xmlns:xlink="http://www.w3.org/1999/xlink" x="0px" y="0px"
	 viewBox="0 0 256 36" style="enable-background:new 0 0 256 36;" xml:space="preserve">
<style type="text/css">
	.st0{fill:#59B3AB;}
	.st1{fill:#FFFFFF;}
	.st2{fill:#DA5241;}
</style>
<g>
	<g>
		<path class="st0" d="M20.3,30.5c-0.8,0-1.5-0.7-1.5-1.5V5.5c0-0.8,0.7-1.5,1.5-1.5H35c0.8,0,1.5,0.7,1.5,1.5V10
			c0,0.8-0.7,1.5-1.5,1.5h-8.6v2.3h7.2c0.8,0,1.5,0.7,1.5,1.5v4.5c0,0.8-0.7,1.5-1.5,1.5h-7.2V29c0,0.8-0.7,1.5-1.5,1.5H20.3z"/>
		<path class="st1" d="M35,5.5V10H24.9v5.3h8.7v4.5h-8.7V29h-4.6V5.5H35 M35,2.5H20.3c-1.7,0-3,1.3-3,3V29c0,1.7,1.3,3,3,3h4.6
			c1.7,0,3-1.3,3-3v-6.2h5.7c1.7,0,3-1.3,3-3v-4.5c0-0.9-0.4-1.8-1.1-2.3c1.4-0.2,2.5-1.5,2.5-3V5.5C38,3.8,36.7,2.5,35,2.5L35,2.5z
			"/>
	</g>
	<g>
		<path class="st0" d="M43.3,30.9c-1.5,0-2.9-0.3-4.2-1c-1.3-0.6-2.4-1.6-3.1-3c-0.7-1.3-1.1-3-1.1-4.9c0-1.9,0.4-3.4,1.2-4.9
			c0.8-1.5,2-2.5,2.9-3.2c0,0,0.1,0,0.1-0.1c1.2-0.7,2.6-1.1,4.1-1.1c1.7,0,3,0.3,4,0.9c0.1,0.1,0.1,0.1,0.2,0.2
			c0.3-0.2,0.6-0.4,1-0.4h4.2c0.8,0,1.5,0.7,1.5,1.5v14c0,0.8-0.7,1.5-1.5,1.5H48c-0.4,0-0.7-0.1-1-0.3c-0.2,0.1-0.3,0.2-0.5,0.2
			l-0.3,0.1c-0.7,0.3-1.4,0.4-1.9,0.4C44.2,30.9,43.5,30.9,43.3,30.9z M43.2,23.9c0.7,0.2,1.1,0.4,1.4,0.4c0.2,0,0.5,0,0.9-0.1
			c0.2-0.1,0.5-0.2,0.6-0.3c0.1-0.1,0.3-0.3,0.4-0.5v-2.8c-0.1-0.2-0.1-0.3-0.2-0.3c-0.1,0-0.1-0.1-0.2-0.1
			c-0.2-0.2-0.4-0.4-0.7-0.5c-0.3-0.1-0.6-0.2-1-0.2c-0.3,0-0.6,0.1-1.1,0.3c-0.3,0.2-0.5,0.5-0.7,0.8c-0.2,0.5-0.3,0.9-0.3,1.3
			c0,0.4,0.1,0.9,0.3,1.3C42.7,23.5,42.9,23.8,43.2,23.9z"/>
		<path class="st1" d="M43.2,14.3c1.4,0,2.4,0.2,3.2,0.7c0.7,0.5,1.2,0.9,1.7,1.4L48,17l0.2-0.5c0,0-0.1-0.1-0.1-0.1l0.3-1.4h4.2v14
			H48v-1.6c0.2-0.3,0.4-0.4,0.4-0.4L48,26v1.4c-0.2,0.2-0.5,0.5-0.9,0.9c-0.4,0.4-0.9,0.6-1.5,0.9c-0.4,0.2-0.8,0.2-1.3,0.2
			c-0.3,0-0.7,0-1,0c-1.3,0-2.5-0.3-3.5-0.8c-1.1-0.5-1.9-1.3-2.5-2.4c-0.6-1.1-0.9-2.5-0.9-4.2c0-1.6,0.3-2.9,1-4.1
			c0.6-1.2,1.5-2,2.5-2.7C40.9,14.6,42.1,14.3,43.2,14.3 M44.6,25.8c0.5,0,1-0.1,1.4-0.2c0.4-0.2,0.8-0.4,1.1-0.7
			c0.3-0.3,0.6-0.7,0.8-1.2v-3.4c-0.2-0.5-0.4-0.9-0.8-1.2c-0.3-0.3-0.7-0.6-1.2-0.8c-0.5-0.2-1-0.3-1.6-0.3c-0.6,0-1.2,0.2-1.8,0.5
			c-0.5,0.3-1,0.8-1.3,1.4s-0.5,1.2-0.5,2c0,0.7,0.2,1.4,0.5,2s0.8,1.1,1.4,1.4C43.4,25.6,44,25.8,44.6,25.8 M43.2,11.3
			c-1.7,0-3.4,0.5-4.8,1.3c-0.1,0-0.1,0.1-0.2,0.1c-1.1,0.8-2.5,1.9-3.4,3.7c-0.9,1.6-1.4,3.4-1.4,5.5c0,2.2,0.4,4.1,1.3,5.6
			c0.9,1.7,2.2,2.9,3.8,3.7c1.4,0.7,3.1,1.1,4.8,1.1c0.2,0,0.3,0,0.5,0c0.2,0,0.4,0,0.6,0c0.7,0,1.7-0.1,2.6-0.5l0.1,0
			c0.3,0.1,0.6,0.2,1,0.2h4.6c1.7,0,3-1.3,3-3V15c0-1.7-1.3-3-3-3h-4.2c-0.3,0-0.6,0.1-0.9,0.2C46.3,11.6,45,11.3,43.2,11.3
			L43.2,11.3z M44,21.1c0.2-0.1,0.3-0.1,0.3-0.1c0.2,0,0.3,0,0.5,0.1c0,0,0.1,0,0.1,0.1v1.6c-0.1,0-0.2,0-0.3,0
			c-0.1,0-0.5-0.1-0.7-0.2c0,0,0,0,0,0c-0.1-0.2-0.2-0.5-0.2-0.7c0-0.2,0-0.3,0.2-0.7C43.9,21.2,43.9,21.2,44,21.1L44,21.1z"/>
	</g>
	<g>
		<path class="st0" d="M64,30.9c-1.8,0-3.4-0.3-4.8-1c-1.5-0.6-2.7-1.7-3.5-3.1c-0.8-1.3-1.2-2.9-1.2-4.8c0-1.8,0.4-3.4,1.3-4.8
			c0.8-1.3,2-2.3,3.4-3c1.3-0.7,2.7-1.1,4.3-1.1c1.4,0,2.6,0.2,3.8,0.6c1.2,0.4,2.1,1,2.8,1.5c0.3,0.2,0.6,0.6,0.6,1
			c0.1,0.4,0,0.8-0.3,1.1l-2.2,2.9c-0.3,0.4-0.7,0.6-1.2,0.6c-0.3,0-0.6-0.1-0.8-0.3L66,20.4c-0.2-0.2-0.5-0.3-0.8-0.4
			c-0.4-0.2-0.8-0.3-1.2-0.3c-0.3,0-0.6,0.1-0.9,0.3c-0.1,0.1-0.4,0.3-0.7,0.7c-0.2,0.3-0.2,0.7-0.2,1.2c0,0.4,0.1,0.8,0.3,1.2
			c0.1,0.3,0.4,0.5,0.8,0.8c0.4,0.2,0.8,0.3,1.2,0.3c0.3,0,0.5-0.1,0.9-0.1l0.2,0c0.1,0,0.2-0.1,0.3-0.2c0.3-0.3,0.7-0.4,1.1-0.4
			c0,0,0.1,0,0.1,0c0.4,0,0.8,0.3,1.1,0.6l2,2.9c0.4,0.6,0.3,1.5-0.3,2c-0.7,0.6-1.7,1.1-2.8,1.5C66.2,30.7,65.2,30.9,64,30.9z"/>
		<path class="st1" d="M63.5,14.6c1.3,0,2.4,0.2,3.3,0.5c0.9,0.3,1.7,0.8,2.4,1.3L67,19.3c-0.3-0.2-0.7-0.5-1.2-0.7
			c-0.5-0.2-1.1-0.4-1.8-0.4c-0.6,0-1.2,0.2-1.7,0.5c-0.5,0.3-0.9,0.8-1.2,1.3c-0.3,0.6-0.4,1.2-0.4,1.9c0,0.7,0.2,1.3,0.5,1.9
			c0.3,0.6,0.8,1,1.3,1.4c0.6,0.3,1.2,0.5,2,0.5c0.5,0,0.9-0.1,1.4-0.2c0.4-0.1,0.8-0.3,1.1-0.6l2,2.9c-0.6,0.5-1.4,0.9-2.3,1.2
			s-1.8,0.4-2.7,0.4c-1.6,0-3-0.3-4.2-0.9C58.6,28,57.6,27.1,57,26c-0.7-1.1-1-2.4-1-4s0.4-2.9,1.1-4s1.6-1.9,2.8-2.5
			C61,14.9,62.2,14.6,63.5,14.6 M63.5,11.6c-1.8,0-3.5,0.4-5,1.2c-1.7,0.8-3,2-3.9,3.5C53.5,18,53,19.9,53,22c0,2.2,0.5,4,1.4,5.5
			c0.9,1.6,2.4,2.9,4.1,3.7c1.6,0.8,3.4,1.2,5.5,1.2c1.3,0,2.5-0.2,3.6-0.6c1.3-0.4,2.4-1,3.3-1.7c1.2-1,1.4-2.7,0.5-4l-2-2.9
			c-0.3-0.5-0.8-0.9-1.4-1.1c0.5-0.2,1-0.5,1.3-1l2.2-2.9c0.5-0.6,0.7-1.5,0.6-2.3c-0.1-0.8-0.6-1.5-1.2-2c-0.7-0.5-1.8-1.3-3.2-1.7
			C66.4,11.8,65,11.6,63.5,11.6L63.5,11.6z M63.9,21.2c0.1,0,0.1,0,0.1-0.1c0.2,0,0.4,0.1,0.7,0.2c0.1,0,0.3,0.2,0.5,0.3l0.2,0.1
			c0.2,0.1,0.4,0.2,0.6,0.3c-0.3,0.1-0.6,0.3-0.9,0.5c-0.3,0.1-0.4,0.1-0.6,0.1c-0.1,0-0.3,0-0.4-0.1c-0.1-0.1-0.2-0.2-0.2-0.2
			c-0.2-0.3-0.2-0.5-0.2-0.5c0-0.3,0-0.4,0-0.5C63.8,21.3,63.9,21.3,63.9,21.2L63.9,21.2z"/>
	</g>
	<g>
		<path class="st0" d="M73.7,30.6c-0.8,0-1.5-0.7-1.5-1.5V20h-0.7c-0.8,0-1.5-0.7-1.5-1.5V15c0-0.8,0.7-1.5,1.5-1.5h0.7V8.9
			c0-0.8,0.7-1.5,1.5-1.5h4.5c0.8,0,1.5,0.7,1.5,1.5v4.6h1.9c0.8,0,1.5,0.7,1.5,1.5v3.5c0,0.8-0.7,1.5-1.5,1.5h-1.9v9.1
			c0,0.8-0.7,1.5-1.5,1.5H73.7z"/>
		<path class="st1" d="M78.2,8.9V15h3.4v3.5h-3.4v10.6h-4.5V18.5h-2.2V15h2.2V8.9H78.2 M78.2,5.9h-4.5c-1.7,0-3,1.3-3,3v3.2
			c-1.3,0.4-2.2,1.5-2.2,2.9v3.5c0,1.4,0.9,2.5,2.2,2.9v7.7c0,1.7,1.3,3,3,3h4.5c1.7,0,3-1.3,3-3v-7.6h0.4c1.7,0,3-1.3,3-3V15
			c0-1.7-1.3-3-3-3h-0.4V8.9C81.2,7.2,79.9,5.9,78.2,5.9L78.2,5.9z"/>
	</g>
</g>
<g>
	<g>
		<path d="M98.4,31.4c-1.8,0-3.4-0.4-4.8-1.1c-1.4-0.7-2.5-1.7-3.4-3.1c-0.9-1.4-1.3-3.1-1.3-4.9c0-1.8,0.4-3.3,1.2-4.6
			c0.9-1.3,1.9-2.4,3.3-3.2c1.4-0.8,3-1.2,5-1.2s3.6,0.4,5,1.2c1.6,0.9,2.6,2,3.3,3.3c0.7,1.4,1.1,2.9,1.1,4.5
			c0,1.6-0.4,3.2-1.1,4.6c-0.7,1.4-1.7,2.4-3.3,3.3C102,31,100.3,31.4,98.4,31.4z M96.7,21c-0.2,0.5-0.3,0.9-0.3,1.4
			c0,0.6,0.1,1,0.2,1.3c0.2,0.4,0.4,0.7,0.6,0.8c0.3,0.2,0.6,0.3,0.9,0.3c0.4,0,0.7-0.1,1-0.3c0.2-0.1,0.4-0.4,0.6-0.8
			c0.1-0.3,0.2-0.6,0.2-1.3c0-0.6-0.1-1-0.2-1.3c-0.1-0.3-0.3-0.5-0.7-0.8c-0.3-0.2-0.6-0.2-0.9-0.2c-0.3,0-0.6,0.1-0.9,0.3
			C97.1,20.4,96.9,20.7,96.7,21z"/>
		<path class="st1" d="M98.4,14.8c1.6,0,3,0.3,4.2,1c1.2,0.7,2.1,1.5,2.7,2.7c0.6,1.2,0.9,2.4,0.9,3.8c0,1.4-0.3,2.7-0.9,3.9
			c-0.6,1.2-1.5,2-2.7,2.7c-1.2,0.7-2.6,1-4.2,1c-1.5,0-2.9-0.3-4.1-0.9c-1.2-0.6-2.1-1.5-2.8-2.6c-0.7-1.1-1.1-2.5-1.1-4.1
			c0-1.4,0.3-2.7,1-3.8c0.7-1.1,1.6-2,2.8-2.7C95.4,15.1,96.8,14.8,98.4,14.8 M98.2,26.3c0.7,0,1.3-0.2,1.8-0.5
			c0.5-0.3,0.9-0.8,1.2-1.4c0.3-0.6,0.4-1.2,0.4-2c0-0.7-0.1-1.4-0.4-2c-0.3-0.6-0.7-1-1.2-1.4c-0.5-0.3-1.1-0.5-1.8-0.5
			c-0.6,0-1.2,0.2-1.7,0.5c-0.5,0.3-0.9,0.8-1.2,1.4c-0.2,0.6-0.4,1.2-0.4,2c0,0.7,0.1,1.4,0.4,2c0.3,0.6,0.7,1.1,1.2,1.4
			C97,26.1,97.6,26.3,98.2,26.3 M98.4,11.8c-2.2,0-4.1,0.5-5.7,1.4c-1.6,0.9-2.8,2.1-3.8,3.7c-1,1.5-1.5,3.4-1.5,5.4
			c0,2.1,0.5,4.1,1.6,5.7c1,1.6,2.4,2.9,4,3.7c1.6,0.8,3.4,1.2,5.4,1.2c2.2,0,4.1-0.5,5.7-1.4c1.8-1.1,3.1-2.3,3.9-3.9
			c0.8-1.6,1.2-3.4,1.2-5.2c0-1.8-0.4-3.5-1.2-5.1c-0.8-1.6-2-2.9-3.9-3.9C102.5,12.3,100.6,11.8,98.4,11.8L98.4,11.8z M98.1,21.5
			c0.1,0,0.1,0,0.1,0c0,0,0.1,0,0.1,0c0.1,0.1,0.2,0.2,0.2,0.2c0,0,0.1,0.2,0.1,0.7c0,0.5-0.1,0.6-0.1,0.7c-0.1,0.1-0.1,0.2-0.1,0.2
			c-0.1,0-0.1,0-0.2,0c0,0-0.1,0-0.1,0c0,0-0.1-0.1-0.1-0.2c0,0-0.1-0.2-0.1-0.7C97.9,22.2,98,21.9,98.1,21.5
			C98.1,21.6,98.1,21.6,98.1,21.5L98.1,21.5z"/>
	</g>
	<g>
		<path d="M109.9,31c-0.8,0-1.5-0.7-1.5-1.5v-14c0-0.8,0.7-1.5,1.5-1.5h3.9c0.7,0,1.3,0.5,1.5,1.1c0.7-0.5,1.3-0.9,1.9-1.2
			c0,0,0.1-0.1,0.2-0.1c0.8-0.4,1.5-0.6,2.2-0.6c0.4,0,0.8,0.2,1.1,0.5c0.3,0.3,0.4,0.7,0.4,1.1l-0.2,4.5c0,0.4-0.2,0.8-0.5,1.1
			c-0.3,0.2-0.6,0.4-1,0.4c0,0-0.1,0-0.1,0c-0.2,0-0.3,0-0.5,0c-0.5,0-0.9,0.1-1.2,0.3c-0.5,0.4-0.9,0.8-1.2,1.3
			c-0.3,0.6-0.4,1.2-0.4,1.7v5.5c0,0.8-0.7,1.5-1.5,1.5H109.9z"/>
		<path class="st1" d="M119.5,14.7L119.5,14.7 M119.5,14.7l-0.2,4.5c-0.2,0-0.4,0-0.7,0c-0.7,0-1.4,0.1-2,0.5
			c-0.7,0.5-1.3,1.1-1.7,1.9c-0.4,0.8-0.6,1.6-0.6,2.4v5.5h-4.4v-14h3.9l0.3,3.1c0,0,0,0,0,0.1l0.1,0.6l-0.1-0.7
			c0.4-0.8,1-1.5,1.7-2c0.7-0.6,1.4-1,2.1-1.4C118.6,14.9,119.1,14.7,119.5,14.7 M119.5,11.7L119.5,11.7c-1.1,0-2,0.4-2.8,0.7
			c-0.1,0-0.2,0.1-0.3,0.2c-0.3,0.2-0.5,0.3-0.8,0.5c-0.5-0.4-1.1-0.6-1.8-0.6h-3.9c-1.7,0-3,1.3-3,3v14c0,1.7,1.3,3,3,3h4.4
			c1.7,0,3-1.3,3-3V24c0-0.3,0.1-0.7,0.3-1.1c0.1-0.2,0.2-0.4,0.7-0.7c0.1,0,0.2-0.1,0.4-0.1c0.1,0,0.2,0,0.4,0c0.1,0,0.2,0,0.3,0
			c0.7,0,1.4-0.3,2-0.7c0.6-0.5,1-1.3,1-2.1l0.2-4.4c0-0.1,0-0.2,0-0.3C122.5,13,121.2,11.7,119.5,11.7L119.5,11.7z M119.5,17.7
			L119.5,17.7L119.5,17.7L119.5,17.7z"/>
	</g>
</g>
<g>
	<g>
		<path class="st2" d="M140.3,31.4c-0.8,0-1.5-0.7-1.5-1.5v-8.6c-0.1,0-0.2,0-0.3,0h-2v8.6c0,0.8-0.7,1.5-1.5,1.5h-4.5
			c-0.8,0-1.5-0.7-1.5-1.5v-8.6h-0.9c-0.8,0-1.5-0.7-1.5-1.5v-4c0-0.8,0.7-1.5,1.5-1.5h0.9V11c0-2.2,0.7-4.1,2-5.5
			c1.3-1.5,3.2-2.2,5.7-2.2c0.8,0,1.6,0.1,2.4,0.4c0.7,0.2,1.7,0.6,2.4,1.2c0.6,0.5,0.7,1.3,0.4,1.9l-0.5,0.8
			c0.4-0.2,0.9-0.2,1.4-0.2c0.9,0,1.8,0.3,2.5,0.9c0.9,0.7,1.4,1.7,1.4,2.8c0,1.1-0.5,2.1-1.4,2.8c-0.3,0.3-0.7,0.5-1.1,0.6h0.5
			c0.8,0,1.5,0.7,1.5,1.5v14c0,0.8-0.7,1.5-1.5,1.5H140.3z M138.5,14.3c0.4,0,0.7,0.1,1,0.4c0.2-0.2,0.5-0.3,0.8-0.3h0.9
			c-0.4-0.1-0.7-0.3-1-0.6c-0.9-0.6-1.4-1.6-1.4-2.8c0-0.1,0-0.2,0-0.3c0,0-0.1,0-0.1,0c-0.5,0-1-0.2-1.2-0.7c-0.1,0-0.3,0-0.4,0
			c-0.3,0-0.5,0.1-0.5,0.2l0,0c0,0-0.2,0.2-0.2,0.9v3.2H138.5z"/>
		<path class="st1" d="M136.7,4.8c0.6,0,1.3,0.1,2,0.3s1.4,0.5,1.9,0.9l-1.9,3.2c-0.2-0.3-0.5-0.5-0.8-0.6s-0.6-0.1-0.8-0.1
			c-0.6,0-1.2,0.2-1.6,0.6c-0.4,0.4-0.6,1.1-0.6,2v4.7h3.6v4H135v10.1h-4.5V19.8h-2.4v-4h2.4V11c0-1.8,0.5-3.3,1.6-4.5
			C133.2,5.3,134.7,4.8,136.7,4.8 M142.8,8.8c0.6,0,1.1,0.2,1.6,0.6c0.5,0.4,0.8,1,0.8,1.6s-0.3,1.2-0.8,1.6s-1.1,0.6-1.6,0.6
			c-0.6,0-1.2-0.2-1.7-0.6c-0.6-0.4-0.8-1-0.8-1.6c0-0.7,0.3-1.2,0.8-1.6C141.6,9,142.2,8.8,142.8,8.8 M144.8,15.9v14h-4.5v-14
			H144.8 M136.7,1.8c-2.9,0-5.2,0.9-6.8,2.7c-1.6,1.7-2.4,3.9-2.4,6.5v1.9c-1.4,0.3-2.4,1.5-2.4,2.9v4c0,1.5,1,2.7,2.4,2.9v7.2
			c0,1.7,1.3,3,3,3h4.5c1.1,0,2.1-0.6,2.6-1.6c0.5,0.9,1.5,1.6,2.7,1.6h4.5c1.7,0,3-1.3,3-3v-14c0-0.7-0.2-1.3-0.6-1.9
			c0.7-0.9,1-2,1-3c0-1.5-0.7-3-1.9-3.9c-0.8-0.7-1.7-1.1-2.7-1.2c0-0.8-0.4-1.6-1.1-2.2c-0.8-0.6-1.8-1.1-2.9-1.4
			C138.6,1.9,137.6,1.8,136.7,1.8L136.7,1.8z"/>
	</g>
	<g>
		<path class="st2" d="M156.3,31.7c-1.8,0-3.5-0.4-4.9-1.1c-1.4-0.7-2.6-1.7-3.4-3c-0.8-1.3-1.2-2.9-1.2-4.8c0-1.8,0.4-3.4,1.3-4.8
			c0.8-1.3,2-2.3,3.4-3c1.3-0.7,2.7-1.1,4.3-1.1c1.4,0,2.6,0.2,3.8,0.6c1.2,0.4,2.1,1,2.8,1.5c0.3,0.2,0.5,0.6,0.6,1
			c0.1,0.4,0,0.8-0.3,1.1l-2.2,2.9c-0.3,0.4-0.7,0.6-1.2,0.6c-0.3,0-0.6-0.1-0.8-0.3l-0.2-0.1c-0.2-0.2-0.5-0.3-0.8-0.4
			c-0.4-0.2-0.8-0.3-1.2-0.3c-0.3,0-0.6,0.1-0.9,0.3c-0.1,0.1-0.4,0.3-0.7,0.8c-0.1,0.2-0.2,0.5-0.2,1.1c0,0.4,0.1,0.8,0.3,1.2
			c0.1,0.3,0.4,0.5,0.8,0.8c0.4,0.2,0.8,0.3,1.2,0.3c0.3,0,0.5-0.1,0.9-0.1l0.2,0c0.2,0,0.2-0.1,0.3-0.2c0.3-0.3,0.7-0.4,1.1-0.4
			c0,0,0.1,0,0.1,0c0.4,0,0.8,0.3,1.1,0.6l2,2.9c0.4,0.6,0.3,1.5-0.3,2c-0.7,0.6-1.7,1.1-2.8,1.5C158.5,31.5,157.5,31.7,156.3,31.7z
			"/>
		<path class="st1" d="M155.8,15.4c1.3,0,2.4,0.2,3.3,0.5c0.9,0.3,1.7,0.8,2.4,1.3l-2.2,2.9c-0.3-0.2-0.7-0.5-1.2-0.7
			c-0.5-0.2-1.1-0.4-1.8-0.4c-0.6,0-1.2,0.2-1.7,0.5c-0.5,0.3-0.9,0.8-1.2,1.3S153,22,153,22.7s0.2,1.3,0.5,1.9
			c0.3,0.6,0.8,1,1.3,1.4c0.6,0.3,1.2,0.5,2,0.5c0.5,0,0.9-0.1,1.4-0.2s0.8-0.3,1.1-0.6l2,2.9c-0.6,0.5-1.4,0.9-2.3,1.2
			c-0.9,0.3-1.8,0.4-2.7,0.4c-1.6,0-3-0.3-4.2-0.9s-2.1-1.4-2.8-2.5s-1-2.4-1-4s0.4-2.9,1.1-4c0.7-1.1,1.6-1.9,2.8-2.5
			C153.3,15.7,154.5,15.4,155.8,15.4 M155.8,12.4c-1.8,0-3.5,0.4-5,1.2c-1.7,0.8-3,2-3.9,3.5c-1,1.6-1.6,3.5-1.6,5.6
			c0,2.2,0.5,4.1,1.5,5.6c1,1.6,2.3,2.7,4,3.6c1.6,0.8,3.5,1.2,5.5,1.2c1.3,0,2.5-0.2,3.6-0.6c1.3-0.4,2.4-1,3.3-1.7
			c1.2-1,1.4-2.7,0.5-4l-2-2.9c-0.3-0.5-0.8-0.9-1.4-1.1c0.5-0.2,1-0.5,1.3-1l2.2-2.9c0.5-0.6,0.7-1.5,0.6-2.3
			c-0.1-0.8-0.6-1.5-1.2-2c-0.7-0.5-1.8-1.3-3.2-1.7C158.7,12.6,157.3,12.4,155.8,12.4L155.8,12.4z M156.2,22c0.1,0,0.1,0,0.1-0.1
			c0.2,0,0.4,0.1,0.7,0.2c0.1,0,0.3,0.2,0.5,0.3l0.2,0.1c0.2,0.1,0.4,0.2,0.6,0.3c-0.3,0.1-0.6,0.3-0.9,0.5
			c-0.3,0.1-0.4,0.1-0.6,0.1c-0.1,0-0.3,0-0.4-0.1c-0.1-0.1-0.2-0.2-0.2-0.2c-0.2-0.3-0.2-0.5-0.2-0.5c0-0.2,0-0.4,0-0.5
			C156.1,22.1,156.2,22.1,156.2,22L156.2,22z"/>
	</g>
	<g>
		<path class="st2" d="M166.1,31.5c-0.8,0-1.5-0.7-1.5-1.5v-9.2h-0.7c-0.8,0-1.5-0.7-1.5-1.5v-3.5c0-0.8,0.7-1.5,1.5-1.5h0.7V9.8
			c0-0.8,0.7-1.5,1.5-1.5h4.5c0.8,0,1.5,0.7,1.5,1.5v4.6h1.9c0.8,0,1.5,0.7,1.5,1.5v3.5c0,0.8-0.7,1.5-1.5,1.5h-1.9V30
			c0,0.8-0.7,1.5-1.5,1.5H166.1z"/>
		<path class="st1" d="M170.6,9.8v6.1h3.4v3.5h-3.4V30h-4.5V19.3h-2.2v-3.5h2.2v-6H170.6 M170.6,6.8h-4.5c-1.7,0-3,1.3-3,3v3.1
			c-1.3,0.4-2.2,1.5-2.2,2.9v3.5c0,1.4,0.9,2.5,2.2,2.9V30c0,1.7,1.3,3,3,3h4.5c1.7,0,3-1.3,3-3v-7.6h0.4c1.7,0,3-1.3,3-3v-3.5
			c0-1.7-1.3-3-3-3h-0.4V9.8C173.6,8.1,172.3,6.8,170.6,6.8L170.6,6.8z"/>
	</g>
	<g>
		<path class="st2" d="M177.4,31.4c-0.8,0-1.5-0.7-1.5-1.5v-14c0-0.8,0.7-1.5,1.5-1.5h0.8c-0.4-0.1-0.7-0.3-1-0.6
			c-0.9-0.6-1.4-1.6-1.4-2.8c0-1.1,0.5-2,1.4-2.8c0.7-0.6,1.7-0.9,2.6-0.9c0.9,0,1.8,0.3,2.5,0.9c0.9,0.7,1.4,1.7,1.4,2.8
			c0,1.1-0.5,2.1-1.4,2.8c-0.3,0.3-0.7,0.5-1.1,0.6h0.6c0.8,0,1.5,0.7,1.5,1.5v14c0,0.8-0.7,1.5-1.5,1.5H177.4z"/>
		<path class="st1" d="M179.8,8.8c0.6,0,1.1,0.2,1.6,0.6c0.5,0.4,0.8,1,0.8,1.6s-0.3,1.2-0.8,1.6s-1.1,0.6-1.6,0.6
			c-0.6,0-1.2-0.2-1.7-0.6c-0.6-0.4-0.8-1-0.8-1.6c0-0.7,0.3-1.2,0.8-1.6C178.6,9,179.2,8.8,179.8,8.8 M181.9,15.9v14h-4.5v-14
			H181.9 M179.8,5.8c-1.3,0-2.6,0.4-3.6,1.3c-1.3,1-1.9,2.4-1.9,3.9c0,1.1,0.3,2.1,0.9,2.9c-0.5,0.5-0.8,1.2-0.8,2v14
			c0,1.7,1.3,3,3,3h4.5c1.7,0,3-1.3,3-3v-14c0-0.7-0.3-1.4-0.7-1.9c0.6-0.9,1-1.9,1-3c0-1.5-0.7-3-1.9-3.9
			C182.2,6.2,181.1,5.8,179.8,5.8L179.8,5.8z"/>
	</g>
	<g>
		<path class="st2" d="M193.4,31.8c-1.8,0-3.4-0.4-4.8-1.1c-1.4-0.7-2.5-1.7-3.4-3.1c-0.9-1.2-1.3-2.8-1.3-4.9
			c0-1.8,0.4-3.3,1.2-4.6c0.9-1.3,1.9-2.4,3.3-3.2c1.4-0.8,3-1.2,5-1.2s3.6,0.4,5,1.2c1.6,0.9,2.6,2,3.3,3.3
			c0.7,1.3,1.1,2.8,1.1,4.5c0,1.6-0.4,3.2-1.1,4.6c-0.8,1.4-1.9,2.5-3.3,3.3C197,31.4,195.3,31.8,193.4,31.8z M193.2,20.4
			c-0.3,0-0.6,0.1-0.9,0.3c-0.2,0.1-0.4,0.4-0.6,0.8c-0.1,0.3-0.2,0.6-0.2,1.3c0,0.6,0.1,1,0.2,1.3c0.2,0.4,0.4,0.7,0.6,0.8
			c0.3,0.2,0.6,0.3,0.9,0.3c0.4,0,0.7-0.1,1-0.3c0.2-0.1,0.4-0.4,0.6-0.8c0.1-0.3,0.2-0.6,0.2-1.3c0-0.6-0.1-1-0.2-1.3
			c-0.2-0.3-0.3-0.5-0.7-0.8C193.9,20.5,193.5,20.4,193.2,20.4z"/>
		<path class="st1" d="M193.4,15.2c1.6,0,3,0.3,4.2,1c1.2,0.7,2.1,1.5,2.7,2.7c0.6,1.1,0.9,2.4,0.9,3.8c0,1.4-0.3,2.7-0.9,3.9
			c-0.6,1.1-1.5,2-2.7,2.7c-1.2,0.7-2.6,1-4.2,1c-1.5,0-2.9-0.3-4.1-0.9c-1.2-0.6-2.1-1.5-2.8-2.6c-0.8-1.1-1.1-2.5-1.1-4.1
			c0-1.4,0.3-2.7,1-3.8s1.6-2,2.8-2.7C190.4,15.5,191.8,15.2,193.4,15.2 M193.2,26.7c0.7,0,1.3-0.2,1.8-0.5c0.5-0.3,0.9-0.8,1.2-1.4
			c0.3-0.6,0.4-1.2,0.4-2c0-0.7-0.1-1.4-0.4-2c-0.3-0.6-0.7-1-1.2-1.4c-0.5-0.3-1.1-0.5-1.8-0.5c-0.6,0-1.2,0.2-1.7,0.5
			c-0.5,0.3-0.9,0.8-1.2,1.4c-0.3,0.6-0.4,1.2-0.4,2c0,0.7,0.1,1.4,0.4,2c0.3,0.6,0.7,1.1,1.2,1.4C192,26.5,192.6,26.7,193.2,26.7
			 M193.4,12.2c-2.2,0-4.1,0.5-5.7,1.4c-1.6,0.9-2.8,2.1-3.8,3.7c-1,1.5-1.5,3.4-1.5,5.4c0,2.4,0.5,4.3,1.6,5.8
			c1,1.6,2.4,2.8,3.9,3.6c1.6,0.8,3.4,1.2,5.4,1.2c2.2,0,4.1-0.5,5.7-1.4c1.7-1,3-2.3,3.8-3.9c0,0,0-0.1,0-0.1
			c0.8-1.6,1.2-3.4,1.2-5.2c0-1.9-0.4-3.7-1.2-5.2c-0.8-1.6-2-2.8-3.8-3.9C197.5,12.7,195.6,12.2,193.4,12.2L193.4,12.2z
			 M193.1,21.9c0.1,0,0.1,0,0.1,0c0,0,0.1,0,0.1,0c0.1,0.1,0.2,0.2,0.2,0.2c0,0,0.1,0.2,0.1,0.7c0,0.5-0.1,0.6-0.1,0.7
			c-0.1,0.1-0.1,0.2-0.1,0.2c-0.1,0-0.1,0-0.2,0c0,0-0.1,0-0.1,0c0,0-0.1-0.1-0.1-0.2c0,0-0.1-0.2-0.1-0.7c0-0.5,0.1-0.6,0.1-0.7
			C193,22,193.1,22,193.1,21.9L193.1,21.9z"/>
	</g>
	<g>
		<path class="st2" d="M214.7,31.5c-0.8,0-1.5-0.7-1.5-1.5v-8.8c0-0.2-0.1-0.4-0.2-0.6c0,0,0,0,0,0c0,0-0.2,0-0.4,0
			c-0.4,0-0.6,0.1-0.7,0.3c0,0-0.1,0.1-0.1,0.1c-0.1,0.1-0.4,0.4-0.8,1.2c-0.2,0.5-0.3,1.2-0.3,2.1V30c0,0.8-0.7,1.5-1.5,1.5h-4.5
			c-0.8,0-1.5-0.7-1.5-1.5V16c0-0.8,0.7-1.5,1.5-1.5h3.6c0.1-0.1,0.3-0.1,0.4-0.1c0,0,0.1,0,0.1,0c0.5,0,1,0.3,1.2,0.7
			c0.1-0.1,0.3-0.2,0.4-0.3c1.2-0.7,2.5-1,4-1c1.7,0,3.1,0.5,4.3,1.6c1.1,1,1.8,2.3,1.9,4c0,0,0,0.1,0,0.1V30c0,0.8-0.7,1.5-1.5,1.5
			H214.7z"/>
		<path class="st1" d="M214.5,15.3c1.3,0,2.4,0.4,3.3,1.2c0.9,0.8,1.3,1.8,1.4,3V30h-4.5v-8.8c0-0.6-0.2-1.1-0.5-1.5
			s-0.8-0.6-1.6-0.6c-0.7,0-1.3,0.2-1.8,0.7c-0.5,0.4-0.9,1.1-1.2,1.8c-0.3,0.8-0.4,1.7-0.4,2.7V30h-4.5V16h4.1v-0.1l0.4,2.2
			c0,0,0,0.1-0.1,0.1l0.1,0.2l0-0.3c0.5-0.9,1.2-1.5,2-2C212.1,15.6,213.2,15.3,214.5,15.3 M214.5,12.3c-1.6,0-3,0.3-4.3,0.9
			c-0.4-0.2-0.9-0.3-1.4-0.3c-0.1,0-0.2,0-0.2,0c-0.2,0-0.4,0-0.5,0.1h-3.3c-1.7,0-3,1.3-3,3v14c0,1.7,1.3,3,3,3h4.5
			c1.2,0,2.3-0.7,2.8-1.8c0.5,1.1,1.5,1.8,2.8,1.8h4.5c1.7,0,3-1.3,3-3V19.5c0-0.1,0-0.2,0-0.2c-0.2-2.1-1-3.7-2.4-5
			C218.4,13,216.5,12.3,214.5,12.3L214.5,12.3z"/>
	</g>
</g>
<g>
	<g>
		<path d="M231.4,32.2c-1.1,0-2.1-0.3-2.8-0.9c-0.8-0.7-1.3-1.6-1.3-2.8c0-1.2,0.4-2.1,1.3-2.9c0.1-0.1,0.2-0.1,0.2-0.2
			c-0.7-0.1-1.2-0.7-1.2-1.5v-1.7c0-1.4,0.2-2.5,0.5-3.3c0.3-0.7,0.7-1.5,1.2-2.1c0.4-0.5,0.9-1.1,1.5-1.6c0.5-0.4,0.9-0.9,1.3-1.4
			c0.2-0.3,0.4-0.7,0.4-1.2c0-0.1,0-0.2,0-0.2c0-0.1-0.1-0.1-0.1-0.2c-0.1-0.1-0.2-0.3-0.4-0.4c0,0-0.1,0-0.2,0
			c-0.4,0-0.6,0.1-0.8,0.2c-0.2,0.1-0.3,0.3-0.4,0.5c0,0.1-0.1,0.2-0.1,0.2c-0.2,0.2-0.3,0.6-0.5,1.1c-0.2,0.4-0.5,0.7-0.8,0.8
			c-0.2,0.1-0.4,0.1-0.6,0.1c-0.2,0-0.4,0-0.6-0.1l-3.7-1.7c-0.7-0.3-1-1-0.8-1.7c0.1-0.5,0.3-0.9,0.6-1.4l0.2-0.4
			c0.3-0.7,0.9-1.4,1.7-2.2c0.8-0.8,1.6-1.4,2.7-1.8c1.1-0.5,2.3-0.7,3.8-0.7c1.4,0,2.7,0.2,3.9,0.7c1.5,0.6,2.4,1.6,2.9,2.4
			c0.8,1.2,1.2,2.6,1.2,4.3c0,1.3-0.2,2.4-0.6,3.4c-0.4,0.9-0.9,1.6-1.5,2.3c-0.2,0.2-0.4,0.5-0.6,0.7c-0.2,0.3-0.5,0.5-0.8,0.8
			c-0.3,0.3-0.6,0.7-0.9,1c-0.3,0.3-0.5,0.7-0.6,1.1c-0.1,0.4-0.2,1-0.2,1.6v1c0,0.7-0.5,1.3-1.1,1.5c0.1,0.1,0.2,0.2,0.3,0.3
			c0.5,0.5,1.1,1.3,1.1,2.8c0,1.2-0.4,2.1-1.3,2.8C233.5,31.9,232.5,32.2,231.4,32.2z"/>
		<path class="st1" d="M232.4,6.2c1.2,0,2.3,0.2,3.3,0.6s1.7,1.1,2.3,1.9c0.6,0.9,0.9,2,0.9,3.4c0,1.2-0.2,2.1-0.5,2.8
			c-0.3,0.7-0.7,1.3-1.2,1.8s-0.9,1-1.4,1.5c-0.4,0.4-0.7,0.8-1,1.2c-0.3,0.4-0.6,0.9-0.8,1.5c-0.2,0.6-0.3,1.3-0.3,2.1v1h-4.5v-1.7
			c0-1.1,0.1-2,0.4-2.7c0.3-0.7,0.6-1.3,1-1.8s0.8-1,1.3-1.4c0.6-0.5,1.1-1.1,1.5-1.6s0.7-1.2,0.7-2.1c0-0.5-0.1-0.9-0.4-1.2
			c-0.2-0.3-0.5-0.6-0.8-0.8s-0.7-0.3-1-0.3c-0.6,0-1.1,0.1-1.6,0.4c-0.5,0.3-0.8,0.7-1,1.1c-0.3,0.4-0.5,0.9-0.7,1.4l-3.7-1.7
			c0.1-0.4,0.4-0.9,0.7-1.5s0.8-1.2,1.4-1.8c0.6-0.6,1.3-1.1,2.2-1.5S231.1,6.2,232.4,6.2 M231.5,26.1c0.7,0,1.4,0.2,1.8,0.7
			c0.5,0.4,0.7,1,0.7,1.7c0,0.7-0.2,1.2-0.7,1.6s-1.1,0.6-1.9,0.6s-1.4-0.2-1.9-0.6s-0.7-1-0.7-1.6c0-0.7,0.2-1.2,0.8-1.7
			C230.1,26.4,230.7,26.1,231.5,26.1 M232.4,3.2c-1.7,0-3.1,0.3-4.4,0.9c-1.2,0.5-2.2,1.2-3.1,2.1c-0.9,0.9-1.5,1.7-2,2.6
			c-0.1,0.1-0.1,0.3-0.2,0.4c-0.3,0.5-0.6,1.1-0.7,1.7c-0.4,1.4,0.3,2.9,1.7,3.5l3.7,1.7c0.2,0.1,0.4,0.2,0.7,0.2
			c-0.5,0.7-0.9,1.5-1.2,2.2c-0.4,1-0.6,2.2-0.6,3.9V24c0,0.6,0.2,1.1,0.5,1.6c-0.6,0.8-0.9,1.8-0.9,2.9c0,1.6,0.7,3,1.8,3.9
			c1,0.8,2.3,1.3,3.8,1.3c1.5,0,2.7-0.4,3.8-1.3c0.8-0.7,1.8-1.9,1.8-3.9c0-1.1-0.3-2.1-0.8-2.9c0.3-0.5,0.5-1,0.5-1.6v-1
			c0-0.6,0.1-1,0.1-1.2c0.1-0.2,0.2-0.4,0.4-0.6c0.3-0.4,0.5-0.6,0.7-0.9c0.3-0.3,0.5-0.6,0.8-0.9c0.2-0.2,0.4-0.4,0.6-0.6
			c0.8-0.8,1.4-1.7,1.8-2.7c0.5-1.2,0.7-2.5,0.7-4c0-2-0.5-3.6-1.4-5.1c0,0-0.1-0.1-0.1-0.1c-0.7-0.9-1.8-2.2-3.6-2.9
			C235.5,3.5,234,3.2,232.4,3.2L232.4,3.2z"/>
	</g>
</g>
</svg>
