<?xml version="1.0" encoding="utf-8"?>
<!-- Generator: Adobe Illustrator 25.0.0, SVG Export Plug-In . SVG Version: 6.00 Build 0)  -->
<svg version="1.1" id="Laag_1" xmlns="http://www.w3.org/2000/svg" xmlns:xlink="http://www.w3.org/1999/xlink" x="0px" y="0px"
	 viewBox="0 0 239.6 65.5" style="enable-background:new 0 0 239.6 65.5;" xml:space="preserve">
<style type="text/css">
	.st0{fill:#DA5241;}
	.st1{fill:#FFFFFF;}
	.st2{fill:#59B3AB;}
</style>
<g>
	<g>
		<path class="st0" d="M230.1,61c-2.7,0-4.9-2.2-4.9-4.9c0-2.7,2.2-4.9,4.9-4.9c2.7,0,4.9,2.2,4.9,4.9C235,58.8,232.8,61,230.1,61z"
			/>
		<path class="st1" d="M230.1,52.7c1.9,0,3.4,1.5,3.4,3.4c0,1.9-1.5,3.4-3.4,3.4s-3.4-1.5-3.4-3.4C226.7,54.2,228.2,52.7,230.1,52.7
			 M230.1,49.7c-3.5,0-6.4,2.9-6.4,6.4c0,3.5,2.9,6.4,6.4,6.4s6.4-2.9,6.4-6.4C236.5,52.5,233.6,49.7,230.1,49.7L230.1,49.7z"/>
	</g>
</g>
<g>
	<g>
		<path d="M132.7,60.9c-1.9,0-3.8-0.3-5.6-0.9c-2-0.6-3.4-1.7-4.5-2.7c-1.2-1.1-2.2-2.5-2.9-4.1c-0.7-1.6-1-3.3-1-5.1
			c0-2.5,0.4-4.4,1.1-6.2c0.9-2,1.8-3.4,3.1-4.5c1.3-1.2,2.6-2,4.4-2.7c1.9-0.6,3.5-0.9,5.2-0.9c1.5,0,3,0.2,4.5,0.5
			c1.4,0.3,2.5,0.7,3.6,1.4c0.6,0.4,0.9,1.1,0.7,1.8l-1.5,4.3c-0.1,0.4-0.5,0.7-0.9,0.9c-0.2,0.1-0.4,0.1-0.6,0.1
			c-0.2,0-0.5-0.1-0.7-0.2c-0.3-0.2-0.8-0.3-1.3-0.5c-0.7-0.2-1.2-0.4-1.7-0.4l-0.4-0.1c-0.5-0.1-0.8-0.1-1.2-0.1c-1,0-2,0.1-3,0.4
			c-0.7,0.2-1.3,0.6-2,1.1c-0.5,0.4-0.8,1-1,1.7c-0.3,0.8-0.4,1.9-0.4,2.9c0,0.9,0.2,1.7,0.5,2.4c0.3,0.7,0.7,1.2,1.2,1.8
			c0.6,0.5,1.2,0.9,1.9,1.1c0.6,0.2,1.6,0.4,2.8,0.4c0.6,0,1.2,0,1.5-0.1c0.1,0,0.1,0,0.2,0v-0.3h-2.6c-0.8,0-1.5-0.7-1.5-1.5v-4.5
			c0-0.8,0.7-1.5,1.5-1.5h8.8c0.8,0,1.5,0.7,1.5,1.5v10c0,0.6-0.4,1.1-0.9,1.4c-0.4,0.3-0.8,0.6-1.4,0.9c-0.8,0.4-1.6,0.7-2.3,0.9
			c-0.9,0.3-1.8,0.5-2.7,0.7C134.3,60.8,133.5,60.9,132.7,60.9z"/>
		<path class="st1" d="M132.4,35.3c1.5,0,2.9,0.2,4.2,0.5s2.3,0.7,3.2,1.2l-1.5,4.3c-0.4-0.2-0.9-0.4-1.5-0.6
			c-0.6-0.2-1.3-0.4-2-0.5c-0.7-0.1-1.2-0.2-1.8-0.2c-1.3,0-2.4,0.2-3.4,0.5s-1.8,0.8-2.5,1.4c-0.7,0.6-1.2,1.4-1.5,2.4
			c-0.3,0.9-0.5,2.1-0.5,3.3c0,1.1,0.2,2.1,0.6,3c0.4,0.9,0.9,1.6,1.6,2.3c0.7,0.6,1.5,1.1,2.5,1.4c0.9,0.3,2,0.5,3.2,0.5
			c0.7,0,1.3,0,1.8-0.1c0.5-0.1,1-0.2,1.4-0.5v-2.8h-4.1v-4.5h8.8v10h-0.1c-0.3,0.3-0.7,0.6-1.3,0.9s-1.3,0.6-2.1,0.8
			c-0.8,0.3-1.6,0.5-2.4,0.6c-0.8,0.1-1.6,0.2-2.3,0.2c-1.9,0-3.6-0.3-5.2-0.8c-1.6-0.5-2.8-1.4-3.9-2.4c-1.1-1-1.9-2.2-2.5-3.6
			c-0.6-1.4-0.9-2.9-0.9-4.5c0-2.2,0.3-4,1-5.6c0.7-1.6,1.5-2.9,2.7-4c1.2-1.1,2.4-1.8,3.9-2.4C129.3,35.6,130.8,35.3,132.4,35.3
			 M132.4,32.3c-1.8,0-3.6,0.3-5.5,1c-0.1,0-0.1,0-0.2,0.1c-1.9,0.8-3.4,1.7-4.8,3c-1.4,1.3-2.5,2.8-3.4,5c-0.9,2-1.3,4.1-1.3,6.8
			c0,2,0.4,3.9,1.1,5.7c0.8,1.9,1.9,3.4,3.2,4.6c1.2,1,2.8,2.3,5,3c2,0.6,4,0.9,6.1,0.9c0.9,0,1.8-0.1,2.7-0.2c1-0.1,2-0.4,2.9-0.7
			c0.8-0.2,1.7-0.5,2.5-1c0.6-0.3,1.1-0.6,1.5-1c0.9-0.5,1.5-1.5,1.5-2.6v-10c0-1.7-1.3-3-3-3h-1.1c0.6-0.4,1.1-0.9,1.3-1.6l1.5-4.3
			c0.5-1.4-0.1-2.9-1.4-3.6c-1.2-0.7-2.5-1.2-4-1.5C135.6,32.5,134,32.3,132.4,32.3L132.4,32.3z M129.1,50.4
			c-0.3-0.3-0.5-0.7-0.7-1.1c-0.2-0.5-0.3-1.1-0.3-1.8c0-1,0.2-1.8,0.3-2.4c0,0,0-0.1,0-0.1c0.1-0.4,0.3-0.8,0.6-1
			c0.5-0.4,0.9-0.7,1.4-0.8c0.8-0.3,1.7-0.4,2.5-0.4c0.2,0,0.5,0,0.9,0.1l0.4,0.1c0.4,0.1,0.9,0.2,1.5,0.4c0.4,0.1,0.7,0.3,0.9,0.4
			h-4.7c-1.7,0-3,1.3-3,3V50.4L129.1,50.4z"/>
	</g>
	<g>
		<path d="M155.3,60.9c-1.9,0-3.6-0.4-5.4-1.2c0,0-0.1,0-0.1-0.1c-1.8-1-3.1-2.2-3.9-3.6c-1-1.4-1.5-3.3-1.5-5.4V35.7
			c0-0.8,0.7-1.5,1.5-1.5h4.6c0.8,0,1.5,0.7,1.5,1.5v14.9c0,0.1,0,0.3-0.1,0.4c0.1,0.3,0.2,0.5,0.3,0.7c0.1,0.1,0.1,0.1,0.1,0.2
			c0.2,0.4,0.6,0.7,1.3,1.2c0.4,0.2,1,0.4,1.6,0.4c0.7,0,1.3-0.1,1.9-0.4c0.4-0.2,0.8-0.6,1.2-1.2c0.2-0.4,0.5-0.9,0.5-1.3V35.7
			c0-0.8,0.7-1.5,1.5-1.5h4.6c0.8,0,1.5,0.7,1.5,1.5v14.9c0,2.1-0.5,4-1.6,5.5c-1.2,1.7-2.5,2.9-4.1,3.6
			C159.2,60.4,157.4,60.9,155.3,60.9z"/>
		<path class="st1" d="M164.9,35.7v14.9c0,1.7-0.4,3.3-1.3,4.6c-0.9,1.3-2,2.4-3.5,3.1c-1.5,0.8-3.1,1.1-4.8,1.1
			c-1.8,0-3.3-0.4-4.8-1.1c-1.4-0.8-2.6-1.8-3.4-3.1c-0.9-1.3-1.3-2.9-1.3-4.6V35.7h4.6v14.9h-0.1c0,0.7,0.2,1.5,0.7,2.1
			c0.4,0.7,1,1.2,1.8,1.7c0.7,0.4,1.5,0.6,2.4,0.6c1,0,1.8-0.2,2.6-0.6c0.7-0.4,1.3-1,1.8-1.7c0.4-0.7,0.7-1.4,0.7-2.1V35.7H164.9
			 M164.9,32.7h-4.6c-1.7,0-3,1.3-3,3v14.9c0,0-0.1,0.2-0.2,0.5c-0.2,0.3-0.5,0.5-0.7,0.7c-0.4,0.2-0.7,0.2-1.2,0.2
			c-0.4,0-0.6-0.1-0.9-0.2c-0.4-0.3-0.6-0.5-0.7-0.6c-0.1-0.1-0.1-0.2-0.2-0.3c0-0.1,0-0.2,0-0.3V35.7c0-1.7-1.3-3-3-3h-4.6
			c-1.7,0-3,1.3-3,3v14.9c0,2.4,0.6,4.5,1.8,6.2c1,1.6,2.5,3,4.4,4.1c0.1,0,0.1,0.1,0.2,0.1c2,0.9,3.9,1.4,6.1,1.4
			c2.3,0,4.3-0.5,6.1-1.4c1.8-0.9,3.3-2.2,4.6-4.1c1.2-1.7,1.8-3.9,1.8-6.3V35.7C167.9,34,166.5,32.7,164.9,32.7L164.9,32.7z"/>
	</g>
	<g>
		<path d="M170.3,60.8c-0.8,0-1.5-0.7-1.5-1.5V35.7c0-0.8,0.7-1.5,1.5-1.5h4.6c0.8,0,1.5,0.7,1.5,1.5v23.6c0,0.8-0.7,1.5-1.5,1.5
			H170.3z"/>
		<path class="st1" d="M174.9,35.7v23.6h-4.6V35.7H174.9 M174.9,32.7h-4.6c-1.7,0-3,1.3-3,3v23.6c0,1.7,1.3,3,3,3h4.6
			c1.7,0,3-1.3,3-3V35.7C177.9,34,176.5,32.7,174.9,32.7L174.9,32.7z"/>
	</g>
	<g>
		<path d="M181,60.8c-0.8,0-1.5-0.7-1.5-1.5V35.7c0-0.8,0.7-1.5,1.5-1.5h7c2.5,0,4.7,0.4,6.6,1.2c2,0.9,3.5,1.9,4.6,3.2
			c1.2,1.5,2.1,3,2.5,4.4c0.5,1.5,0.8,3.1,0.8,4.8c0,2-0.3,3.7-1,5.3c-0.7,1.5-1.7,2.9-3,4.1c-1.4,1.3-2.8,2.1-4.3,2.6
			c-1.6,0.6-3.3,0.9-5,0.9H181z M188.5,53.3c0.9,0,1.7-0.1,2.8-0.4c0.7-0.2,1.3-0.6,2-1.1c0.5-0.5,0.9-1,1.2-1.7
			c0.3-0.8,0.5-1.6,0.5-2.5c0-1.2-0.2-2.3-0.6-3.1c-0.4-0.8-0.8-1.3-1.5-1.8c-0.6-0.4-1.2-0.7-1.8-0.8c-0.7-0.2-1.2-0.3-1.6-0.3
			h-2.3v11.8H188.5z"/>
		<path class="st1" d="M188,35.7c2.4,0,4.4,0.4,6,1.1c1.6,0.7,3,1.6,4,2.8c1,1.2,1.8,2.5,2.2,3.9c0.5,1.5,0.7,2.9,0.7,4.4
			c0,1.8-0.3,3.3-0.9,4.7c-0.6,1.4-1.5,2.6-2.6,3.6s-2.3,1.8-3.8,2.3c-1.4,0.5-2.9,0.8-4.5,0.8H181V35.7H188 M185.6,54.8L185.6,54.8
			h2.9c1.2,0,2.2-0.2,3.2-0.5c1-0.3,1.8-0.8,2.5-1.4s1.2-1.3,1.6-2.3c0.4-0.9,0.6-1.9,0.6-3.1c0-1.5-0.3-2.8-0.8-3.8
			s-1.1-1.7-1.9-2.3c-0.7-0.5-1.5-0.9-2.3-1.1c-0.8-0.2-1.4-0.3-2-0.3h-3.8V54.8 M188,32.7h-7c-1.7,0-3,1.3-3,3v23.6
			c0,1.7,1.3,3,3,3h8.1c1.8,0,3.7-0.3,5.5-1c1.8-0.6,3.3-1.5,4.8-2.9c1.5-1.3,2.6-2.9,3.3-4.6c0.8-1.8,1.1-3.7,1.1-5.9
			c0-1.9-0.3-3.6-0.8-5.3c-0.5-1.7-1.4-3.3-2.8-4.9c-1.2-1.5-2.9-2.7-5.1-3.6C193.1,33.1,190.7,32.7,188,32.7L188,32.7z M188.6,43
			h0.8c0.3,0,0.7,0.1,1.3,0.2c0.4,0.1,0.8,0.3,1.3,0.6c0.4,0.3,0.7,0.7,1,1.2c0.3,0.6,0.5,1.5,0.5,2.5c0,0.8-0.1,1.4-0.3,1.9
			c0,0,0,0.1,0,0.1c-0.2,0.6-0.5,0.9-0.8,1.1c-0.5,0.4-0.9,0.7-1.4,0.8c-0.8,0.3-1.5,0.4-2.2,0.4V43L188.6,43z"/>
	</g>
	<g>
		<path d="M205.8,60.8c-0.8,0-1.5-0.7-1.5-1.5V36.2c-0.1-0.2-0.1-0.4-0.1-0.5c0-0.8,0.7-1.5,1.5-1.5h16.1c0.8,0,1.5,0.7,1.5,1.5v4.5
			c0,0.8-0.7,1.5-1.5,1.5h-9.9v2h8.6c0.8,0,1.5,0.7,1.5,1.5v4.5c0,0.8-0.7,1.5-1.5,1.5h-8.6v2.1h10.4c0.8,0,1.5,0.7,1.5,1.5v4.5
			c0,0.8-0.7,1.5-1.5,1.5H205.8z"/>
		<path class="st1" d="M221.8,35.7v4.5h-11.4v5h10.1v4.5h-10.1v5.1h11.9v4.5h-16.5V35.7H221.8 M205.8,35.7L205.8,35.7 M205.8,35.7
			L205.8,35.7L205.8,35.7 M221.8,32.7h-16h0h-0.1c-1.7,0-3,1.3-3,3c0,0.3,0,0.5,0.1,0.8v22.8c0,1.7,1.3,3,3,3h16.5c1.7,0,3-1.3,3-3
			v-4.5c0-1.5-1.2-2.8-2.7-3c0.5-0.5,0.9-1.3,0.9-2.1v-4.5c0-0.8-0.3-1.6-0.9-2.1c1.3-0.4,2.2-1.5,2.2-2.9v-4.5
			C224.8,34,223.4,32.7,221.8,32.7L221.8,32.7z"/>
	</g>
</g>
<g>
	<g>
		<path class="st2" d="M12.5,60.4c-0.8,0-1.5-0.7-1.5-1.5V36c0-0.8,0.7-1.5,1.5-1.5h15.7c0.8,0,1.5,0.7,1.5,1.5v3.9
			c0,0.8-0.7,1.5-1.5,1.5h-9.6v2.4h8.1c0.8,0,1.5,0.7,1.5,1.5v3.9c0,0.8-0.7,1.5-1.5,1.5h-8.1v8.2c0,0.8-0.7,1.5-1.5,1.5H12.5z"/>
		<path class="st1" d="M28.2,36v3.9H17.1v5.4h9.6v3.9h-9.6v9.7h-4.6V36H28.2 M28.2,33H12.5c-1.7,0-3,1.3-3,3v22.9c0,1.7,1.3,3,3,3
			h4.6c1.7,0,3-1.3,3-3v-6.7h6.6c1.7,0,3-1.3,3-3v-3.9c0-1-0.5-1.9-1.2-2.4c1.5-0.1,2.7-1.4,2.7-3V36C31.2,34.3,29.8,33,28.2,33
			L28.2,33z"/>
	</g>
	<g>
		<path class="st2" d="M45.9,60.4c-0.6,0-1.2-0.4-1.4-1l-1.6-4.2h-7.1l-1.5,4.2c-0.2,0.6-0.8,1-1.4,1h-4.9c-0.5,0-1-0.2-1.2-0.7
			c-0.3-0.4-0.3-0.9-0.2-1.4l8.9-22.9c0.2-0.6,0.8-1,1.4-1h4.9c0.6,0,1.2,0.4,1.4,0.9l9.2,22.9c0.2,0.5,0.1,1-0.1,1.4
			c-0.3,0.4-0.7,0.7-1.2,0.7H45.9z M40.2,48.3l-1-2.7l-1,2.7H40.2z"/>
		<path class="st1" d="M41.7,36l9.2,22.9h-5l-2-5.2h-9.2l-1.9,5.2h-4.9L36.8,36H41.7 M36.1,49.8h6.3l-3.2-8.5L36.1,49.8 M41.7,33
			h-4.9c-1.2,0-2.3,0.8-2.8,1.9l-8.9,22.9c-0.4,0.9-0.2,2,0.3,2.8c0.6,0.8,1.5,1.3,2.5,1.3h4.9c1.3,0,2.4-0.8,2.8-2l1.2-3.2h5
			l1.3,3.3c0.4,1.2,1.6,1.9,2.8,1.9h5c1,0,1.9-0.5,2.5-1.3c0.6-0.8,0.7-1.9,0.3-2.8l-9.2-22.9C44,33.7,42.9,33,41.7,33L41.7,33z"/>
	</g>
	<g>
		<path class="st2" d="M63,60.7c-3.4,0-6.3-1.2-8.6-3.6c-2.2-2.3-3.3-5.5-3.3-9.5c0-4.2,1.1-7.6,3.4-9.9c2.3-2.4,5.1-3.6,8.8-3.6
			c3.3,0,5.9,1,7.9,2.9c1.2,1.2,2.1,2.9,2.7,4.9c0.1,0.4,0.1,0.8-0.2,1.2c-0.2,0.4-0.5,0.6-0.9,0.7l-4.6,1.1c-0.1,0-0.2,0-0.4,0
			c-0.7,0-1.3-0.5-1.5-1.1c-0.2-0.9-0.6-1.5-1.2-2c-0.6-0.5-1.3-0.7-2.2-0.7c-1.3,0-2.2,0.4-2.9,1.3c-0.8,0.9-1.3,2.6-1.3,4.9
			c0,3.2,0.7,4.6,1.2,5.2c0.8,0.9,1.7,1.3,3,1.3c0.8,0,1.6-0.3,2.2-0.8c0.3-0.3,0.9-1,1.3-2.9c0.1-0.4,0.4-0.8,0.7-1
			c0.2-0.1,0.5-0.2,0.7-0.2c0.1,0,0.3,0,0.4,0.1l4.5,1.4c0.8,0.2,1.2,1.1,1,1.8c-0.8,2.9-2.1,5-3.9,6.4C68.1,60,65.8,60.7,63,60.7z"
			/>
		<path class="st1" d="M63.3,35.6c2.8,0,5.1,0.8,6.8,2.5c1,1,1.8,2.4,2.3,4.2l-4.6,1.1c-0.3-1.2-0.8-2.1-1.7-2.8s-1.9-1-3.1-1
			c-1.7,0-3.1,0.6-4.1,1.8c-1.1,1.2-1.6,3.2-1.6,5.9c0,2.9,0.5,5,1.6,6.2c1,1.2,2.4,1.8,4.1,1.8c1.2,0,2.3-0.4,3.2-1.2
			c0.8-0.7,1.4-2,1.8-3.7l4.5,1.4c-0.7,2.5-1.8,4.4-3.4,5.6c-1.6,1.2-3.6,1.8-6.1,1.8c-3,0-5.5-1-7.5-3.1c-2-2.1-2.9-4.9-2.9-8.5
			c0-3.8,1-6.8,3-8.9C57.6,36.6,60,35.6,63.3,35.6 M63.3,32.6c-4.1,0-7.3,1.3-9.9,4c-2.5,2.7-3.8,6.4-3.8,11c0,4.5,1.2,7.9,3.7,10.6
			c2.5,2.7,5.8,4,9.7,4c3.1,0,5.8-0.8,7.9-2.4c2.1-1.6,3.6-4,4.5-7.2c0.4-1.6-0.4-3.2-2-3.7l-4.5-1.4c-0.3-0.1-0.6-0.1-0.9-0.1
			c-0.5,0-1,0.1-1.5,0.4c-0.7,0.4-1.2,1.1-1.4,1.9c-0.3,1.4-0.7,2-0.9,2.1c-0.4,0.3-0.7,0.5-1.2,0.5c-1.1,0-1.5-0.4-1.8-0.7
			c0,0-0.1-0.1-0.1-0.1c-0.2-0.2-0.8-1.1-0.8-4.2c0-2.7,0.6-3.6,0.8-3.9c0,0,0.1-0.1,0.1-0.1c0.3-0.3,0.7-0.7,1.8-0.7
			c0.7,0,1,0.1,1.3,0.4c0.2,0.2,0.4,0.4,0.6,1.2c0.3,1.4,1.6,2.3,2.9,2.3c0.2,0,0.5,0,0.7-0.1l4.6-1.1c0.8-0.2,1.5-0.7,1.9-1.4
			c0.4-0.7,0.5-1.5,0.3-2.3c-0.6-2.3-1.7-4.1-3.1-5.5C70,33.7,67,32.6,63.3,32.6L63.3,32.6z"/>
	</g>
	<g>
		<path class="st2" d="M81.6,60.4c-0.8,0-1.5-0.7-1.5-1.5V41.4h-5.3c-0.8,0-1.5-0.7-1.5-1.5V36c0-0.8,0.7-1.5,1.5-1.5H93
			c0.8,0,1.5,0.7,1.5,1.5v3.9c0,0.8-0.7,1.5-1.5,1.5h-5.3v17.5c0,0.8-0.7,1.5-1.5,1.5H81.6z"/>
		<path class="st1" d="M93,36v3.9h-6.8v19h-4.6v-19h-6.8V36H93 M93,33H74.8c-1.7,0-3,1.3-3,3v3.9c0,1.7,1.3,3,3,3h3.8v16
			c0,1.7,1.3,3,3,3h4.6c1.7,0,3-1.3,3-3v-16H93c1.7,0,3-1.3,3-3V36C96,34.3,94.6,33,93,33L93,33z"/>
	</g>
	<g>
		<path class="st2" d="M104.2,60.6c-3.2,0-5.7-0.8-7.6-2.3c-1.8-1.5-2.9-3.9-3.2-6.7c0-0.4,0.1-0.8,0.3-1.1s0.6-0.5,1-0.5l4.5-0.4
			c0,0,0.1,0,0.1,0c0.7,0,1.3,0.5,1.5,1.2c0.2,1.2,0.6,2,1.1,2.5c0.6,0.5,1.3,0.7,2.4,0.7c1.1,0,2-0.2,2.5-0.6
			c0.3-0.3,0.5-0.6,0.5-1c0-0.1-0.1-0.3-0.2-0.5c0,0-0.2-0.2-1-0.5c-0.3-0.1-1.1-0.3-2-0.5c-0.5-0.1-1-0.3-1.6-0.4
			c-2.6-0.6-4.6-1.5-5.8-2.6c-1.7-1.6-2.6-3.5-2.6-5.7c0-1.6,0.4-3,1.3-4.2c0.9-1.3,2.1-2.3,3.6-2.8c1.3-0.6,2.9-0.9,5-0.9
			c3.3,0,5.7,0.7,7.5,2.3c1.8,1.5,2.7,3.5,2.8,6.1c0,0.4-0.1,0.8-0.4,1.1s-0.6,0.5-1,0.5l-3.7,0.2c0.5,0.2,1,0.4,1.4,0.6
			c0,0,0.1,0,0.1,0c1.4,0.8,2.4,1.7,3.1,2.8c0.7,1.2,1.1,2.7,1.1,4.4c0,1.5-0.4,3-1.3,4.5c-0.9,1.4-2.2,2.5-3.8,3.2
			C108.4,60.3,106.6,60.6,104.2,60.6z M101.6,41.6c0,0.1,0,0.1,0.1,0.2c0.1,0.1,0.8,0.6,3.6,1.2c0.5,0.1,1,0.3,1.6,0.4
			c-0.1-0.1-0.1-0.3-0.2-0.5c-0.2-1-0.5-1.4-0.7-1.5c-0.3-0.2-0.9-0.5-2-0.5c-0.9,0-1.7,0.2-2.3,0.5c0,0-0.1,0.1-0.1,0.1
			C101.6,41.5,101.6,41.5,101.6,41.6z"/>
		<path class="st1" d="M104,35.6c2.9,0,5,0.6,6.5,1.9s2.2,2.9,2.3,5l-4.6,0.2c-0.2-1.2-0.6-2-1.3-2.5c-0.7-0.5-1.6-0.8-2.9-0.8
			c-1.3,0-2.4,0.3-3.2,0.8c-0.5,0.4-0.7,0.8-0.7,1.4c0,0.5,0.2,1,0.7,1.4c0.6,0.5,2,1,4.2,1.5c2.2,0.5,3.9,1.1,5,1.6
			c1.1,0.6,1.9,1.3,2.5,2.3s0.9,2.2,0.9,3.6c0,1.3-0.4,2.5-1.1,3.7c-0.7,1.1-1.8,2-3.1,2.6c-1.3,0.6-3,0.8-5,0.8
			c-2.9,0-5.1-0.7-6.7-2c-1.4-1.2-2.4-3.1-2.7-5.7l4.5-0.4c0.3,1.5,0.8,2.6,1.6,3.3c0.8,0.7,1.9,1.1,3.4,1.1s2.6-0.3,3.4-0.9
			c0.8-0.6,1.1-1.4,1.1-2.2c0-0.5-0.2-1-0.5-1.4c-0.3-0.4-0.9-0.7-1.7-1c-0.5-0.2-1.8-0.5-3.7-1c-2.5-0.6-4.2-1.4-5.2-2.3
			c-1.4-1.3-2.1-2.8-2.1-4.6c0-1.2,0.3-2.3,1-3.3c0.7-1,1.6-1.8,2.9-2.3C100.8,35.8,102.3,35.6,104,35.6 M104,32.6
			c-2.3,0-4.1,0.3-5.7,1c-1.7,0.7-3.1,1.8-4.2,3.3c-1,1.5-1.5,3.2-1.5,5c0,2.4,0.9,4.6,2.6,6.4l-0.7,0.1c-0.8,0.1-1.5,0.5-2.1,1.1
			c-0.5,0.6-0.7,1.4-0.7,2.2c0.4,3.2,1.7,5.9,3.7,7.6c0,0,0,0,0.1,0.1c2.2,1.8,5.1,2.7,8.6,2.7c2.7,0,4.7-0.3,6.3-1.1
			c1.9-0.9,3.4-2.1,4.4-3.7c0,0,0-0.1,0.1-0.1c1-1.7,1.5-3.4,1.5-5.2c0-1.9-0.4-3.7-1.3-5.1c-0.3-0.6-0.7-1.1-1.2-1.6
			c0.4-0.2,0.8-0.4,1.1-0.8c0.5-0.6,0.8-1.4,0.8-2.2c-0.1-3-1.2-5.3-3.3-7.1C110.4,33.4,107.6,32.6,104,32.6L104,32.6z M104.3,52.4
			c-0.7,0-1.2-0.1-1.4-0.4c0,0,0,0-0.1-0.1c0.3,0.1,0.6,0.2,0.9,0.2c0.2,0.1,0.5,0.1,0.7,0.2C104.4,52.4,104.3,52.4,104.3,52.4
			L104.3,52.4z"/>
	</g>
</g>
<g>
	<g>
		<path d="M18.1,27.4c-0.6,0-1.1-0.4-1.3-1L9.3,7.2c-0.2-0.5-0.1-1,0.2-1.4c0.3-0.4,0.7-0.7,1.2-0.7H15c0.6,0,1.2,0.4,1.4,1l2.3,6.9
			l1.1-2.7l-1.2-3.1c-0.2-0.5-0.1-1,0.2-1.4c0.3-0.4,0.7-0.7,1.2-0.7h3.6c0.6,0,1.2,0.4,1.4,0.9l2.6,6.3l1.9-6.2
			c0.2-0.6,0.8-1.1,1.4-1.1h3.9c0.5,0,1,0.2,1.2,0.6c0.3,0.4,0.3,0.9,0.2,1.4l-7.1,19.2c-0.2,0.6-0.8,1-1.4,1c0,0,0,0,0,0
			c-0.6,0-1.2-0.4-1.4-0.9l-3.1-7.7l-3.7,7.9C19.3,27.1,18.8,27.4,18.1,27.4C18.2,27.4,18.1,27.4,18.1,27.4z"/>
		<path class="st1" d="M34.9,6.7l-7.1,19.2l-4.4-11l-5.1,11L10.7,6.7H15l3.6,10.7l2.8-7.1L20,6.7h3.6L27.8,17l3.1-10.3H34.9
			 M34.9,3.7h-3.9c-1.3,0-2.5,0.9-2.9,2.1L27.4,8l-1-2.4c-0.5-1.1-1.6-1.9-2.8-1.9H20c-1,0-1.9,0.5-2.5,1.3c0,0,0,0,0,0
			C17,4.2,16,3.7,15,3.7h-4.3c-1,0-1.9,0.5-2.5,1.3S7.6,6.9,7.9,7.8L15.4,27c0.4,1.1,1.5,1.9,2.7,1.9c0,0,0.1,0,0.1,0
			c1.2,0,2.2-0.7,2.7-1.7l2.2-4.7l1.8,4.5c0.5,1.1,1.6,1.9,2.8,1.9c0,0,0,0,0,0c1.2,0,2.3-0.8,2.8-2l7.1-19.2c0.3-0.9,0.2-2-0.3-2.8
			C36.8,4.2,35.8,3.7,34.9,3.7L34.9,3.7z M34.9,9.7L34.9,9.7L34.9,9.7L34.9,9.7z"/>
	</g>
	<g>
		<path d="M40.6,26.9c-1.6,0-3-0.3-4.1-0.9c-1.2-0.6-2.1-1.5-2.7-2.7c-0.6-1.1-0.9-2.4-0.9-3.8c0-1.4,0.4-2.7,1.1-3.8
			c0.7-1.1,1.7-2,2.8-2.6c1.2-0.6,2.5-1,3.9-1c2,0,3.6,0.6,4.9,1.8c1.2,1.1,2.1,2.7,2.4,4.8c0.1,0.7-0.3,1.5-1,1.7l-2.7,0.8l1.4,2.3
			c0.2,0.3,0.3,0.8,0.2,1.1c-0.1,0.4-0.3,0.7-0.7,0.9c-0.7,0.4-1.4,0.7-2.2,1C42.1,26.8,41.4,26.9,40.6,26.9z"/>
		<path class="st1" d="M40.7,13.6c1.6,0,2.9,0.5,3.9,1.4c1,0.9,1.7,2.2,2,4l-8,2.5c0.2,0.2,0.4,0.5,0.7,0.6c0.4,0.2,0.9,0.4,1.5,0.4
			c0.4,0,0.8-0.1,1.1-0.2c0.4-0.1,0.7-0.3,1.1-0.5l1.5,2.6c-0.6,0.3-1.2,0.6-1.9,0.8c-0.7,0.2-1.3,0.3-1.9,0.3
			c-1.3,0-2.5-0.2-3.4-0.8c-0.9-0.5-1.6-1.2-2.1-2.1c-0.5-0.9-0.7-1.9-0.7-3.1c0-1.1,0.3-2.1,0.9-3c0.6-0.9,1.3-1.6,2.3-2.1
			C38.4,13.8,39.5,13.6,40.7,13.6 M37.8,19.5l4.8-1.6c-0.1-0.4-0.4-0.8-0.7-1.1c-0.4-0.3-0.9-0.5-1.5-0.5c-0.5,0-1,0.1-1.4,0.4
			c-0.4,0.2-0.7,0.6-0.9,1c-0.2,0.4-0.3,1-0.3,1.6C37.8,19.3,37.8,19.4,37.8,19.5 M40.7,10.6c-1.7,0-3.3,0.4-4.7,1.2
			c-1.4,0.8-2.5,1.8-3.4,3.1c-0.9,1.4-1.3,2.9-1.3,4.6c0,1.7,0.4,3.2,1.1,4.5c0.8,1.4,1.9,2.5,3.3,3.3c1.3,0.7,3,1.1,4.8,1.1
			c0.9,0,1.8-0.1,2.8-0.4c0.9-0.3,1.8-0.6,2.6-1.1c0.7-0.4,1.2-1.1,1.4-1.8c0.2-0.8,0.1-1.6-0.3-2.3L46.6,22l0.9-0.3
			c1.4-0.5,2.3-1.9,2-3.4c-0.4-2.4-1.4-4.3-2.9-5.7C45,11.3,43,10.6,40.7,10.6L40.7,10.6z"/>
	</g>
	<g>
		<path d="M49.1,26.6c-0.8,0-1.5-0.7-1.5-1.5V5.2c0-0.8,0.7-1.5,1.5-1.5h3.5c0.8,0,1.5,0.7,1.5,1.5v19.8c0,0.8-0.7,1.5-1.5,1.5H49.1
			z"/>
		<path class="st1" d="M52.6,5.2v19.8h-3.5V5.2H52.6 M52.6,2.2h-3.5c-1.7,0-3,1.3-3,3v19.8c0,1.7,1.3,3,3,3h3.5c1.7,0,3-1.3,3-3V5.2
			C55.6,3.6,54.3,2.2,52.6,2.2L52.6,2.2z"/>
	</g>
	<g>
		<path d="M61.6,26.9c-1.5,0-2.8-0.3-3.9-0.8c-1.2-0.6-2.1-1.5-2.8-2.6c-0.6-1.1-1-2.4-1-3.9c0-1.5,0.4-2.8,1.1-3.9
			c0.7-1.1,1.6-1.9,2.8-2.5c1.1-0.6,2.3-0.8,3.5-0.8c1.2,0,2.2,0.2,3.1,0.5c0.9,0.3,1.7,0.8,2.3,1.3c0.6,0.5,0.7,1.4,0.2,2.1
			l-1.7,2.3c-0.2,0.3-0.6,0.5-1,0.6c-0.1,0-0.1,0-0.2,0c-0.3,0-0.7-0.1-0.9-0.3c-0.1-0.1-0.3-0.2-0.7-0.4c-0.2-0.1-0.5-0.1-0.8-0.1
			c-0.2,0-0.4,0-0.5,0.1c-0.2,0.1-0.3,0.3-0.4,0.5c-0.1,0.2-0.2,0.5-0.2,0.8c0,0.3,0.1,0.5,0.2,0.8c0.1,0.2,0.3,0.4,0.5,0.5
			c0.2,0.1,0.5,0.2,0.8,0.2c0.2,0,0.4,0,0.6-0.1c0.1,0,0.3-0.1,0.3-0.2c0.3-0.2,0.6-0.4,1-0.4c0,0,0.1,0,0.1,0c0.4,0,0.8,0.2,1,0.6
			l1.8,2.2c0.2,0.3,0.4,0.7,0.3,1.1s-0.2,0.8-0.6,1c-0.6,0.5-1.4,0.9-2.3,1.2C63.3,26.7,62.4,26.9,61.6,26.9z"/>
		<path class="st1" d="M61.2,13.8c1,0,1.8,0.1,2.6,0.4c0.7,0.3,1.4,0.6,1.9,1.1L64,17.5c-0.2-0.2-0.6-0.4-1-0.6
			c-0.4-0.2-0.9-0.3-1.4-0.3c-0.5,0-0.9,0.1-1.3,0.4c-0.4,0.3-0.7,0.6-1,1c-0.2,0.4-0.4,0.9-0.4,1.5c0,0.5,0.1,1,0.4,1.5
			c0.3,0.5,0.6,0.8,1,1.1c0.4,0.3,1,0.4,1.6,0.4c0.4,0,0.7-0.1,1.1-0.2c0.3-0.1,0.6-0.3,0.8-0.5l1.8,2.2c-0.5,0.4-1.1,0.7-1.8,0.9
			c-0.7,0.2-1.4,0.4-2.1,0.4c-1.3,0-2.4-0.2-3.3-0.7c-0.9-0.5-1.7-1.1-2.2-2c-0.5-0.9-0.8-1.9-0.8-3.1c0-1.2,0.3-2.3,0.8-3.1
			c0.6-0.9,1.3-1.5,2.2-2C59.3,14,60.2,13.8,61.2,13.8 M61.2,10.8c-1.5,0-2.9,0.3-4.2,1c-1.4,0.7-2.5,1.7-3.3,3
			c-0.9,1.3-1.3,2.9-1.3,4.7c0,1.8,0.4,3.3,1.2,4.7c0.8,1.4,2,2.4,3.4,3.1c1.3,0.7,2.9,1,4.6,1c1,0,2-0.2,3.1-0.5
			c1.1-0.3,2-0.8,2.8-1.4c0.6-0.5,1-1.2,1.1-2c0.1-0.8-0.1-1.6-0.6-2.2L66.2,20c-0.1-0.1-0.1-0.2-0.2-0.2c0.2-0.1,0.3-0.3,0.4-0.4
			l1.7-2.3c1-1.3,0.8-3.1-0.5-4.1c-0.8-0.7-1.7-1.2-2.8-1.6C63.8,11,62.6,10.8,61.2,10.8L61.2,10.8z"/>
	</g>
	<g>
		<path d="M73.7,26.9c-1.4,0-2.7-0.3-3.9-0.9c-1.2-0.6-2.2-1.5-2.8-2.6c-0.7-1.1-1-2.5-1-4c0-1.4,0.3-2.7,1-3.8
			c0.7-1.1,1.6-2,2.8-2.7c1.2-0.6,2.5-0.9,4-0.9c1.5,0,2.9,0.3,4,1c1.2,0.6,2.1,1.5,2.7,2.7c0.6,1.1,0.9,2.4,0.9,3.7
			c0,1.4-0.3,2.6-0.9,3.8c-0.6,1.1-1.5,2.1-2.7,2.7C76.6,26.5,75.2,26.9,73.7,26.9z M73.6,17.9c-0.2,0-0.4,0-0.5,0.2
			c-0.2,0.1-0.3,0.3-0.5,0.5c-0.1,0.2-0.2,0.5-0.2,0.9c0,0.3,0.1,0.6,0.2,0.9c0.1,0.2,0.3,0.4,0.5,0.5c0.2,0.1,0.3,0.2,0.5,0.2
			c0.3,0,0.4,0,0.6-0.2c0.2-0.1,0.3-0.3,0.4-0.5c0.1-0.3,0.2-0.6,0.2-0.9c0-0.4-0.1-0.7-0.2-0.9c-0.1-0.2-0.2-0.4-0.4-0.5
			C74.1,18,73.9,17.9,73.6,17.9z"/>
		<path class="st1" d="M73.7,13.6c1.3,0,2.3,0.3,3.3,0.8c0.9,0.5,1.6,1.2,2.1,2.1c0.5,0.9,0.7,1.9,0.7,3c0,1.1-0.2,2.1-0.7,3
			c-0.5,0.9-1.2,1.6-2.1,2.1c-0.9,0.5-2,0.8-3.3,0.8c-1.2,0-2.3-0.2-3.2-0.7c-0.9-0.5-1.7-1.1-2.2-2c-0.5-0.9-0.8-2-0.8-3.2
			c0-1.1,0.3-2.1,0.8-3c0.5-0.9,1.3-1.6,2.2-2.1C71.4,13.8,72.5,13.6,73.7,13.6 M73.6,22.5c0.6,0,1-0.1,1.4-0.4
			c0.4-0.3,0.7-0.6,0.9-1.1c0.2-0.5,0.3-1,0.3-1.5c0-0.6-0.1-1.1-0.3-1.6c-0.2-0.5-0.5-0.8-0.9-1.1c-0.4-0.3-0.9-0.4-1.4-0.4
			c-0.5,0-1,0.1-1.4,0.4c-0.4,0.3-0.7,0.6-1,1.1c-0.2,0.5-0.4,1-0.4,1.6c0,0.6,0.1,1.1,0.4,1.5c0.2,0.5,0.6,0.8,1,1.1
			C72.7,22.4,73.1,22.5,73.6,22.5 M73.7,10.6c-1.7,0-3.3,0.4-4.7,1.1c-1.4,0.8-2.6,1.9-3.4,3.2c-0.8,1.4-1.2,2.9-1.2,4.5
			c0,1.8,0.4,3.4,1.2,4.7c0.8,1.4,2,2.4,3.5,3.2c1.4,0.7,2.9,1,4.6,1c1.8,0,3.4-0.4,4.8-1.2c1.4-0.8,2.5-1.9,3.3-3.3
			c0.7-1.3,1.1-2.8,1.1-4.5c0-1.6-0.4-3.1-1.1-4.5c-0.8-1.4-1.9-2.5-3.3-3.3C77.1,10.9,75.5,10.6,73.7,10.6L73.7,10.6z"/>
	</g>
	<g>
		<path d="M97.2,26.6c-0.8,0-1.5-0.7-1.5-1.5v-6.8c0,0,0-0.1,0-0.1c0,0,0,0,0,0c-0.2,0.2-0.4,0.5-0.5,0.9c-0.1,0.5-0.2,1-0.2,1.4
			v4.5c0,0.8-0.7,1.5-1.5,1.5h-3.5c-0.8,0-1.5-0.7-1.5-1.5v-6.8c0,0,0-0.1,0-0.1c0,0,0,0,0,0c-0.2,0.2-0.4,0.5-0.5,0.9
			c-0.1,0.5-0.2,0.9-0.2,1.4v4.5c0,0.8-0.7,1.5-1.5,1.5h-3.5c-0.8,0-1.5-0.7-1.5-1.5v-11c0-0.8,0.7-1.5,1.5-1.5h3.2
			c0.4,0,0.7,0.1,1,0.4c0,0,0.1,0,0.1-0.1c0.9-0.6,2-0.8,3.2-0.8c0.8,0,1.5,0.1,2.1,0.3c0.6,0.2,1.1,0.5,1.5,0.9
			c0.2-0.1,0.4-0.3,0.6-0.4c0.9-0.6,1.9-0.9,2.9-0.9c1.5,0,2.7,0.4,3.6,1.3c0.9,0.9,1.4,2.1,1.5,3.4v8.3c0,0.8-0.7,1.5-1.5,1.5H97.2
			z"/>
		<path class="st1" d="M97.1,13.5c1.1,0,2,0.3,2.6,0.9c0.6,0.6,1,1.4,1,2.4v8.2h-3.5v-6.8c0-0.5-0.1-0.9-0.2-1.2
			c-0.1-0.3-0.4-0.5-0.9-0.5c-0.6,0-1.1,0.2-1.4,0.6c-0.4,0.4-0.7,0.9-0.9,1.5c-0.2,0.6-0.3,1.2-0.3,1.9v4.5h-3.5v-6.8
			c0-0.5-0.1-0.9-0.3-1.2c-0.2-0.3-0.5-0.5-1-0.5c-0.6,0-1,0.2-1.4,0.6c-0.4,0.4-0.7,0.9-0.9,1.5c-0.2,0.6-0.3,1.2-0.3,1.9v4.5h-3.5
			v-11h3.2l0.2,1.7c0,0,0,0,0,0l0.1,0.2l0-0.2c0.4-0.7,1-1.3,1.6-1.7c0.7-0.4,1.4-0.6,2.4-0.6c0.6,0,1.1,0.1,1.6,0.3
			c0.5,0.2,0.9,0.4,1.2,0.7c0.3,0.3,0.5,0.7,0.6,1.2c0,0-0.1,0.1-0.1,0.1l0.1,0c0,0,0-0.1,0-0.1c0.4-0.6,1-1.1,1.6-1.5
			C95.7,13.7,96.4,13.5,97.1,13.5 M97.1,10.5c-1.2,0-2.3,0.3-3.4,0.9c-0.3-0.2-0.7-0.4-1-0.5c-0.8-0.3-1.7-0.4-2.6-0.4
			c-1.2,0-2.3,0.2-3.3,0.7c-0.3-0.1-0.6-0.2-0.9-0.2h-3.2c-1.7,0-3,1.3-3,3v11c0,1.7,1.3,3,3,3h3.5c0.7,0,1.4-0.2,1.9-0.7
			c0.5,0.4,1.2,0.7,1.9,0.7h3.5c0.7,0,1.4-0.2,1.9-0.7c0.5,0.4,1.2,0.7,1.9,0.7h3.5c1.7,0,3-1.3,3-3v-8.2c0,0,0,0,0-0.1
			c0-1.8-0.7-3.3-1.9-4.5C100.9,11.5,99.4,10.5,97.1,10.5L97.1,10.5z"/>
	</g>
	<g>
		<path d="M109.7,26.9c-1.6,0-3-0.3-4.1-0.9c-1.2-0.6-2.1-1.5-2.7-2.7c-0.6-1.1-0.9-2.4-0.9-3.8c0-1.4,0.4-2.7,1.1-3.8
			c0.7-1.1,1.7-2,2.8-2.6c1.2-0.6,2.5-1,3.9-1c2,0,3.6,0.6,4.9,1.8c1.3,1.1,2.1,2.7,2.4,4.8c0.1,0.7-0.3,1.5-1,1.7l-2.7,0.9l1.4,2.3
			c0.2,0.3,0.3,0.8,0.2,1.1c-0.1,0.4-0.3,0.7-0.7,0.9c-0.7,0.4-1.4,0.7-2.2,1C111.3,26.8,110.5,26.9,109.7,26.9z"/>
		<path class="st1" d="M109.8,13.6c1.6,0,2.9,0.5,3.9,1.4c1,0.9,1.7,2.2,2,4l-8,2.6c0.2,0.2,0.4,0.4,0.7,0.6
			c0.4,0.2,0.9,0.4,1.5,0.4c0.4,0,0.8-0.1,1.1-0.2c0.4-0.1,0.7-0.3,1.1-0.5l1.6,2.6c-0.6,0.3-1.2,0.6-1.9,0.8
			c-0.7,0.2-1.3,0.3-1.9,0.3c-1.3,0-2.5-0.2-3.4-0.8c-0.9-0.5-1.6-1.2-2.1-2.1c-0.5-0.9-0.7-1.9-0.7-3.1c0-1.1,0.3-2.1,0.9-3
			c0.6-0.9,1.3-1.6,2.3-2.1C107.6,13.8,108.6,13.6,109.8,13.6 M106.9,19.5l4.8-1.6c-0.1-0.4-0.4-0.8-0.7-1.1
			c-0.3-0.3-0.9-0.5-1.5-0.5c-0.5,0-1,0.1-1.4,0.4c-0.4,0.2-0.7,0.6-0.9,1c-0.2,0.4-0.3,1-0.3,1.6C106.9,19.3,106.9,19.4,106.9,19.5
			 M109.8,10.6c-1.7,0-3.3,0.4-4.7,1.2c-1.4,0.8-2.5,1.8-3.4,3.1c-0.9,1.4-1.3,2.9-1.3,4.6c0,1.6,0.4,3.2,1.1,4.5
			c0.8,1.4,1.9,2.5,3.3,3.3c1.3,0.7,3,1.1,4.8,1.1c0.9,0,1.8-0.1,2.8-0.4c0.9-0.3,1.8-0.6,2.6-1.1c0.7-0.4,1.2-1.1,1.4-1.8
			c0.2-0.8,0.1-1.6-0.3-2.3l-0.4-0.7l0.9-0.3c1.4-0.5,2.3-1.9,2-3.4c-0.4-2.4-1.4-4.3-2.9-5.7C114.1,11.3,112.1,10.6,109.8,10.6
			L109.8,10.6z"/>
	</g>
	<g>
		<path d="M127.4,26.6c-0.8,0-1.5-0.7-1.5-1.5v-6.8h-0.2c-0.8,0-1.5-0.7-1.5-1.5V14c0-0.8,0.7-1.5,1.5-1.5h0.2V9.3
			c0-0.8,0.7-1.5,1.5-1.5h3.5c0.8,0,1.5,0.7,1.5,1.5v3.3h1.2c0.8,0,1.5,0.7,1.5,1.5v2.7c0,0.8-0.7,1.5-1.5,1.5h-1.2v6.8
			c0,0.8-0.7,1.5-1.5,1.5H127.4z"/>
		<path class="st1" d="M130.9,9.3V14h2.7v2.7h-2.7v8.3h-3.5v-8.3h-1.7V14h1.7V9.3H130.9 M130.9,6.3h-3.5c-1.7,0-3,1.3-3,3v2.1
			c-1,0.5-1.7,1.5-1.7,2.7v2.7c0,1.2,0.7,2.2,1.7,2.7v5.6c0,1.7,1.3,3,3,3h3.5c1.7,0,3-1.3,3-3v-5.3c1.5-0.2,2.7-1.4,2.7-3V14
			c0-1.5-1.2-2.8-2.7-3V9.3C133.9,7.6,132.6,6.3,130.9,6.3L130.9,6.3z"/>
	</g>
	<g>
		<path d="M141.7,26.9c-1.4,0-2.7-0.3-3.9-0.9c-1.2-0.6-2.2-1.5-2.8-2.6c-0.7-1.1-1-2.5-1-4c0-1.4,0.3-2.7,1-3.8
			c0.7-1.1,1.6-2,2.8-2.7c1.2-0.6,2.5-0.9,4-0.9c1.5,0,2.9,0.3,4,1c1.2,0.6,2.1,1.6,2.7,2.7c0.6,1.1,0.9,2.4,0.9,3.7
			c0,1.4-0.3,2.6-0.9,3.8c-0.6,1.1-1.5,2-2.7,2.7C144.6,26.5,143.2,26.9,141.7,26.9z M141.6,17.9c-0.2,0-0.4,0-0.5,0.2
			c-0.2,0.1-0.3,0.3-0.5,0.5c-0.1,0.2-0.2,0.5-0.2,0.9c0,0.3,0.1,0.6,0.2,0.9c0.1,0.2,0.3,0.4,0.5,0.5c0.2,0.1,0.3,0.1,0.5,0.1
			c0.3,0,0.4,0,0.6-0.2c0.2-0.1,0.3-0.3,0.4-0.5c0.1-0.3,0.2-0.6,0.2-0.9c0-0.4-0.1-0.7-0.2-0.9c-0.1-0.2-0.2-0.4-0.4-0.5
			C142.1,18,141.9,17.9,141.6,17.9z"/>
		<path class="st1" d="M141.7,13.6c1.3,0,2.3,0.3,3.3,0.8c0.9,0.5,1.6,1.2,2.1,2.1c0.5,0.9,0.7,1.9,0.7,3c0,1.1-0.2,2.1-0.7,3
			c-0.5,0.9-1.2,1.6-2.1,2.1c-0.9,0.5-2,0.8-3.3,0.8c-1.2,0-2.3-0.2-3.2-0.7c-0.9-0.5-1.7-1.1-2.2-2c-0.5-0.9-0.8-2-0.8-3.2
			c0-1.1,0.3-2.1,0.8-3c0.5-0.9,1.3-1.6,2.2-2.1C139.4,13.8,140.5,13.6,141.7,13.6 M141.6,22.5c0.6,0,1-0.1,1.4-0.4s0.7-0.6,0.9-1.1
			c0.2-0.5,0.3-1,0.3-1.5c0-0.6-0.1-1.1-0.3-1.6c-0.2-0.5-0.5-0.8-0.9-1.1c-0.4-0.3-0.9-0.4-1.4-0.4c-0.5,0-1,0.1-1.4,0.4
			c-0.4,0.3-0.7,0.6-1,1.1c-0.2,0.5-0.4,1-0.4,1.6c0,0.6,0.1,1.1,0.4,1.5c0.2,0.5,0.6,0.8,1,1.1C140.7,22.4,141.1,22.5,141.6,22.5
			 M141.7,10.6c-1.7,0-3.3,0.4-4.7,1.1c-1.4,0.8-2.6,1.9-3.4,3.2c-0.8,1.4-1.2,2.9-1.2,4.5c0,1.8,0.4,3.4,1.2,4.7
			c0.8,1.4,2,2.4,3.5,3.2c1.4,0.7,2.9,1,4.6,1c1.8,0,3.4-0.4,4.8-1.2c1.4-0.8,2.5-1.9,3.3-3.3c0.7-1.3,1.1-2.8,1.1-4.5
			c0-1.6-0.4-3.1-1.1-4.5c-0.8-1.4-1.9-2.5-3.3-3.3C145.1,10.9,143.5,10.6,141.7,10.6L141.7,10.6z"/>
	</g>
</g>
</svg>
