<?xml version="1.0" encoding="utf-8"?>
<!-- Generator: Adobe Illustrator 24.2.3, SVG Export Plug-In . SVG Version: 6.00 Build 0)  -->
<svg version="1.1" id="Laag_1" xmlns="http://www.w3.org/2000/svg" xmlns:xlink="http://www.w3.org/1999/xlink" x="0px" y="0px"
	 viewBox="0 0 94.1 136.6" style="enable-background:new 0 0 94.1 136.6;" xml:space="preserve">
<style type="text/css">
	.st0{display:none;fill:none;stroke:#000000;stroke-width:3;stroke-miterlimit:10;}
	.st1{stroke:#000000;stroke-width:2;stroke-miterlimit:10;}
	.st2{fill:#FFFFFF;}
</style>
<circle class="st0" cx="39.6" cy="22.2" r="19.4"/>
<g>
	<path class="st1" d="M49.7,55.8c2.4-3,5.5-3,8.5-2.5c3.6,0.6,4.3,3.8,5.3,6.8c0.3-0.4,0.5-0.6,0.6-0.8c3.3-4.9,9.9-4.5,12.7,0.7
		c1.5,2.8,1.9,5.7,2.3,8.7c0,0.3,0.1,0.6,0.1,0.9c2.3-1,4.4-0.5,6.4,0.5c2.3,1.1,3.4,3.1,4.2,5.3c1.3,3.6,1.9,7.3,2,11.1
		c0.1,3.8,0,7.6-0.2,11.4c-0.2,3.3-0.2,6.6-0.8,9.8c-1,5.3-2.7,10.3-5.8,14.7c-4.7,6.7-11.4,10.3-19.2,11.9
		c-8.6,1.8-17.2,1.3-25.5-2c-1.5-0.6-2.8-1.8-4.2-2.7c-3.5-2.4-7.3-4.5-10.5-7.4c-5.9-5.4-11.3-11.3-14.6-18.8
		c-1.1-2.5-2.6-4.8-4-7.1c-2.9-4.6-4.8-9.7-5.8-15c-0.6-2.9,0.3-4.3,3.1-5.3c3.9-1.4,7.1,0,10,2.4c3.2,2.7,5.9,5.8,8,9.5
		c1.5,2.7,3.5,5.1,5.9,7c1.7,1.3,3.1,1,3.9-1.1c0.3-0.8,0.5-1.6,0.5-2.4c0.3-8-0.7-16-1-24c-0.4-8.8-0.4-17.7-0.2-26.5
		c0.1-5,0.9-10.1,1.5-15.1c0.3-2.2,0.8-4.3,2.3-6.1c2.7-3.2,7.3-2.9,9.5,0.6c1.7,2.6,1.8,5.5,2.1,8.4c0.9,8.5,1.7,17.1,2.5,25.6
		C49.5,54.6,49.6,55,49.7,55.8z M50.3,72.6c-0.2,0-0.3,0-0.5,0c-0.1-0.3-0.2-0.5-0.2-0.8c-0.4-3.2-0.9-6.4-1.2-9.6
		c-1.1-11.4-2.1-22.9-3.2-34.3c-0.2-2.3-0.5-4.7-1.8-6.8c-1-1.5-2.4-2.1-4.1-1.9c-2.3,0.3-3.2,2.1-3.9,4c-1.4,4.1-1.6,8.4-2,12.7
		c-1,12-0.7,24,0.2,36.1c0.5,6.7,0.6,13.4,0,20.1c-0.1,1.3-0.6,2.7-1.4,3.7c-1.1,1.4-3.4,1.3-4.9,0.2c-2.6-2-4.6-4.4-6.2-7.3
		c-2.1-3.7-4.9-6.8-8.3-9.2c-2.3-1.7-4.8-2.9-7.8-1.7c-1.7,0.7-2.1,1.1-1.7,3c1,5,2.7,9.8,5.4,14.1c1.4,2.2,2.8,4.4,3.9,6.7
		c1.8,4.1,4.3,7.7,7,11.3c3.8,5.1,8.2,9.6,13.5,13.1c1.8,1.2,3.7,2.4,5.4,3.8c2.2,1.9,4.7,2.6,7.4,2.9c0.6,0.1,1.1,0.1,1.7,0.2
		c5.9,0.6,11.8,1.2,17.7-0.1c7.3-1.6,13.7-4.8,18.2-10.9c3.5-4.8,5.2-10.4,6.3-16.2c1.5-8,0.7-16-0.1-24c-0.3-3-1.1-5.9-2.7-8.5
		c-1.6-2.6-5.2-3.7-7.7-2.6c-0.2,2.4,0.9,4.9,0,7.4c-1.1-0.5-1.2-1.3-1.3-2.1c-0.2-1.7-0.2-3.4-0.5-5.1c-0.5-3.2-1-6.4-1.8-9.5
		c-0.6-2.5-2.6-3.8-5.1-4.3c-2.4-0.4-4.3,0.7-5.8,2.5c-0.8,0.9-1,1.9-0.6,3.1c1.3,3.6,1.5,7.5,1.8,11.3c0.1,0.7-0.2,1.3-0.4,2
		c-0.2,0-0.3,0-0.5,0c-0.2-0.5-0.4-1.1-0.5-1.6c-0.2-1-0.2-2-0.3-3c-0.2-5-1.8-9.6-3.6-14.1c-0.5-1.4-1.6-2.4-3.2-2.6
		c-1.1-0.1-2.2-0.1-3.4,0c-2.5,0.2-4.6,2.4-4.4,4.9c0.2,2.8,0.5,5.7,0.6,8.5C50.6,69.6,50.4,71.1,50.3,72.6z"/>
	<path class="st2" d="M50.3,72.6c0.1-1.5,0.2-3.1,0.2-4.6c-0.1-2.8-0.5-5.7-0.6-8.5c-0.1-2.5,2-4.8,4.4-4.9c1.1-0.1,2.2-0.1,3.4,0
		c1.6,0.1,2.7,1.2,3.2,2.6c1.8,4.6,3.4,9.2,3.6,14.1c0,1,0.1,2,0.3,3c0.1,0.6,0.3,1.1,0.5,1.6c0.2,0,0.3,0,0.5,0
		c0.1-0.7,0.4-1.4,0.4-2c-0.3-3.8-0.5-7.7-1.8-11.3c-0.4-1.2-0.2-2.2,0.6-3.1c1.5-1.8,3.3-2.9,5.8-2.5c2.5,0.4,4.5,1.8,5.1,4.3
		c0.8,3.1,1.3,6.3,1.8,9.5c0.3,1.7,0.3,3.4,0.5,5.1c0.1,0.8,0.2,1.7,1.3,2.1c1-2.5-0.1-5,0-7.4c2.5-1.1,6,0,7.7,2.6
		c1.7,2.6,2.4,5.5,2.7,8.5c0.7,8,1.6,16,0.1,24c-1.1,5.8-2.8,11.4-6.3,16.2c-4.5,6.1-11,9.3-18.2,10.9c-5.9,1.3-11.8,0.8-17.7,0.1
		c-0.6-0.1-1.1-0.1-1.7-0.2c-2.7-0.3-5.3-1-7.4-2.9c-1.6-1.5-3.5-2.6-5.4-3.8c-5.3-3.5-9.7-8-13.5-13.1c-2.7-3.6-5.2-7.2-7-11.3
		c-1.1-2.3-2.5-4.6-3.9-6.7c-2.7-4.4-4.4-9.1-5.4-14.1c-0.4-1.8,0-2.3,1.7-3c3-1.2,5.5,0.1,7.8,1.7c3.4,2.4,6.2,5.6,8.3,9.2
		c1.6,2.8,3.6,5.3,6.2,7.3c1.5,1.2,3.8,1.2,4.9-0.2c0.8-1,1.3-2.4,1.4-3.7c0.5-6.7,0.5-13.4,0-20.1c-0.9-12-1.3-24-0.2-36.1
		c0.4-4.3,0.5-8.6,1.9-12.6c0.6-1.9,1.6-3.7,3.9-4c1.7-0.2,3,0.4,4.1,1.9c1.4,2.1,1.6,4.4,1.8,6.8c1.1,11.4,2.1,22.9,3.2,34.3
		c0.3,3.2,0.8,6.4,1.2,9.6c0,0.3,0.2,0.5,0.2,0.8C50,72.6,50.2,72.6,50.3,72.6z"/>
</g>
</svg>
