<?xml version="1.0" encoding="utf-8"?>
<!-- Generator: Adobe Illustrator 25.0.0, SVG Export Plug-In . SVG Version: 6.00 Build 0)  -->
<svg version="1.1" id="Laag_1" xmlns="http://www.w3.org/2000/svg" xmlns:xlink="http://www.w3.org/1999/xlink" x="0px" y="0px"
	 viewBox="0 0 276.5 36" style="enable-background:new 0 0 276.5 36;" xml:space="preserve">
<style type="text/css">
	.st0{display:none;}
	.st1{display:inline;}
	.st2{fill:#59B3AB;}
	.st3{fill:#FFFFFF;}
	.st4{fill:#DA5241;}
</style>
<g class="st0">
	<g class="st1">
		<g>
			<path class="st2" d="M17.1,30.5c-0.8,0-1.5-0.7-1.5-1.5V5.5c0-0.8,0.7-1.5,1.5-1.5h14.7c0.8,0,1.5,0.7,1.5,1.5V10
				c0,0.8-0.7,1.5-1.5,1.5h-8.6v2.3h7.2c0.8,0,1.5,0.7,1.5,1.5v4.5c0,0.8-0.7,1.5-1.5,1.5h-7.2V29c0,0.8-0.7,1.5-1.5,1.5H17.1z"/>
			<path class="st3" d="M31.8,5.5V10H21.7v5.3h8.7v4.5h-8.7V29h-4.6V5.5H31.8 M31.8,2.5H17.1c-1.7,0-3,1.3-3,3V29c0,1.7,1.3,3,3,3
				h4.6c1.7,0,3-1.3,3-3v-6.2h5.7c1.7,0,3-1.3,3-3v-4.5c0-0.9-0.4-1.8-1.1-2.3c1.4-0.2,2.5-1.5,2.5-3V5.5
				C34.8,3.8,33.5,2.5,31.8,2.5L31.8,2.5z"/>
		</g>
		<g>
			<path class="st2" d="M40.1,30.9c-1.5,0-2.9-0.3-4.2-1c-1.3-0.6-2.4-1.6-3.1-3c-0.7-1.3-1.1-3-1.1-4.9s0.4-3.4,1.2-4.9
				s2-2.5,2.9-3.2c0,0,0.1,0,0.1-0.1c1.2-0.7,2.6-1.1,4.1-1.1c1.7,0,3,0.3,4,0.9c0.1,0.1,0.1,0.1,0.2,0.2c0.3-0.2,0.6-0.4,1-0.4h4.2
				c0.8,0,1.5,0.7,1.5,1.5v14c0,0.8-0.7,1.5-1.5,1.5h-4.6c-0.4,0-0.7-0.1-1-0.3c-0.2,0.1-0.3,0.2-0.5,0.2L43,30.4
				c-0.7,0.3-1.4,0.4-1.9,0.4C41,30.9,40.3,30.9,40.1,30.9z M40,23.9c0.7,0.2,1.1,0.4,1.4,0.4c0.2,0,0.5,0,0.9-0.1
				c0.2-0.1,0.5-0.2,0.6-0.3c0.1-0.1,0.3-0.3,0.4-0.5v-2.8c-0.1-0.2-0.1-0.3-0.2-0.3c-0.1,0-0.1-0.1-0.2-0.1
				c-0.2-0.2-0.4-0.4-0.7-0.5s-0.6-0.2-1-0.2c-0.3,0-0.6,0.1-1.1,0.3c-0.3,0.2-0.5,0.5-0.7,0.8c-0.2,0.5-0.3,0.9-0.3,1.3
				s0.1,0.9,0.3,1.3C39.5,23.5,39.7,23.8,40,23.9z"/>
			<path class="st3" d="M40,14.3c1.4,0,2.4,0.2,3.2,0.7c0.7,0.5,1.2,0.9,1.7,1.4L44.8,17l0.2-0.5l-0.1-0.1l0.3-1.4h4.2v14h-4.6v-1.6
				c0.2-0.3,0.4-0.4,0.4-0.4l-0.4-1v1.4c-0.2,0.2-0.5,0.5-0.9,0.9s-0.9,0.6-1.5,0.9c-0.4,0.2-0.8,0.2-1.3,0.2c-0.3,0-0.7,0-1,0
				c-1.3,0-2.5-0.3-3.5-0.8c-1.1-0.5-1.9-1.3-2.5-2.4s-0.9-2.5-0.9-4.2c0-1.6,0.3-2.9,1-4.1c0.6-1.2,1.5-2,2.5-2.7
				C37.7,14.6,38.9,14.3,40,14.3 M41.4,25.8c0.5,0,1-0.1,1.4-0.2c0.4-0.2,0.8-0.4,1.1-0.7c0.3-0.3,0.6-0.7,0.8-1.2v-3.4
				c-0.2-0.5-0.4-0.9-0.8-1.2c-0.3-0.3-0.7-0.6-1.2-0.8c-0.5-0.2-1-0.3-1.6-0.3s-1.2,0.2-1.8,0.5c-0.5,0.3-1,0.8-1.3,1.4
				s-0.5,1.2-0.5,2c0,0.7,0.2,1.4,0.5,2s0.8,1.1,1.4,1.4C40.2,25.6,40.8,25.8,41.4,25.8 M40,11.3c-1.7,0-3.4,0.5-4.8,1.3
				c-0.1,0-0.1,0.1-0.2,0.1c-1.1,0.8-2.5,1.9-3.4,3.7c-0.9,1.6-1.4,3.4-1.4,5.5c0,2.2,0.4,4.1,1.3,5.6c0.9,1.7,2.2,2.9,3.8,3.7
				c1.4,0.7,3.1,1.1,4.8,1.1c0.2,0,0.3,0,0.5,0s0.4,0,0.6,0c0.7,0,1.7-0.1,2.6-0.5h0.1c0.3,0.1,0.6,0.2,1,0.2h4.6c1.7,0,3-1.3,3-3
				V15c0-1.7-1.3-3-3-3h-4.2c-0.3,0-0.6,0.1-0.9,0.2C43.1,11.6,41.8,11.3,40,11.3L40,11.3z M40.8,21.1C41,21,41.1,21,41.1,21
				c0.2,0,0.3,0,0.5,0.1c0,0,0.1,0,0.1,0.1v1.6c-0.1,0-0.2,0-0.3,0s-0.5-0.1-0.7-0.2l0,0c-0.1-0.2-0.2-0.5-0.2-0.7s0-0.3,0.2-0.7
				C40.7,21.2,40.7,21.2,40.8,21.1L40.8,21.1z"/>
		</g>
		<g>
			<path class="st2" d="M60.8,30.9c-1.8,0-3.4-0.3-4.8-1c-1.5-0.6-2.7-1.7-3.5-3.1c-0.8-1.3-1.2-2.9-1.2-4.8c0-1.8,0.4-3.4,1.3-4.8
				c0.8-1.3,2-2.3,3.4-3c1.3-0.7,2.7-1.1,4.3-1.1c1.4,0,2.6,0.2,3.8,0.6c1.2,0.4,2.1,1,2.8,1.5c0.3,0.2,0.6,0.6,0.6,1
				c0.1,0.4,0,0.8-0.3,1.1L65,20.2c-0.3,0.4-0.7,0.6-1.2,0.6c-0.3,0-0.6-0.1-0.8-0.3l-0.2-0.1c-0.2-0.2-0.5-0.3-0.8-0.4
				c-0.4-0.2-0.8-0.3-1.2-0.3c-0.3,0-0.6,0.1-0.9,0.3c-0.1,0.1-0.4,0.3-0.7,0.7C59,21,59,21.4,59,21.9c0,0.4,0.1,0.8,0.3,1.2
				c0.1,0.3,0.4,0.5,0.8,0.8c0.4,0.2,0.8,0.3,1.2,0.3c0.3,0,0.5-0.1,0.9-0.1h0.2c0.1,0,0.2-0.1,0.3-0.2c0.3-0.3,0.7-0.4,1.1-0.4h0.1
				c0.4,0,0.8,0.3,1.1,0.6l2,2.9c0.4,0.6,0.3,1.5-0.3,2c-0.7,0.6-1.7,1.1-2.8,1.5C63,30.7,62,30.9,60.8,30.9z"/>
			<path class="st3" d="M60.3,14.6c1.3,0,2.4,0.2,3.3,0.5s1.7,0.8,2.4,1.3l-2.2,2.9c-0.3-0.2-0.7-0.5-1.2-0.7s-1.1-0.4-1.8-0.4
				c-0.6,0-1.2,0.2-1.7,0.5s-0.9,0.8-1.2,1.3c-0.3,0.6-0.4,1.2-0.4,1.9c0,0.7,0.2,1.3,0.5,1.9s0.8,1,1.3,1.4c0.6,0.3,1.2,0.5,2,0.5
				c0.5,0,0.9-0.1,1.4-0.2c0.4-0.1,0.8-0.3,1.1-0.6l2,2.9c-0.6,0.5-1.4,0.9-2.3,1.2s-1.8,0.4-2.7,0.4c-1.6,0-3-0.3-4.2-0.9
				c-1.2-0.5-2.2-1.4-2.8-2.5c-0.7-1.1-1-2.4-1-4s0.4-2.9,1.1-4s1.6-1.9,2.8-2.5C57.8,14.9,59,14.6,60.3,14.6 M60.3,11.6
				c-1.8,0-3.5,0.4-5,1.2c-1.7,0.8-3,2-3.9,3.5c-1.1,1.7-1.6,3.6-1.6,5.7c0,2.2,0.5,4,1.4,5.5c0.9,1.6,2.4,2.9,4.1,3.7
				c1.6,0.8,3.4,1.2,5.5,1.2c1.3,0,2.5-0.2,3.6-0.6c1.3-0.4,2.4-1,3.3-1.7c1.2-1,1.4-2.7,0.5-4l-2-2.9c-0.3-0.5-0.8-0.9-1.4-1.1
				c0.5-0.2,1-0.5,1.3-1l2.2-2.9c0.5-0.6,0.7-1.5,0.6-2.3c-0.1-0.8-0.6-1.5-1.2-2c-0.7-0.5-1.8-1.3-3.2-1.7
				C63.2,11.8,61.8,11.6,60.3,11.6L60.3,11.6z M60.7,21.2c0.1,0,0.1,0,0.1-0.1c0.2,0,0.4,0.1,0.7,0.2c0.1,0,0.3,0.2,0.5,0.3l0.2,0.1
				c0.2,0.1,0.4,0.2,0.6,0.3c-0.3,0.1-0.6,0.3-0.9,0.5c-0.3,0.1-0.4,0.1-0.6,0.1c-0.1,0-0.3,0-0.4-0.1s-0.2-0.2-0.2-0.2
				c-0.2-0.3-0.2-0.5-0.2-0.5c0-0.3,0-0.4,0-0.5C60.6,21.3,60.7,21.3,60.7,21.2L60.7,21.2z"/>
		</g>
		<g>
			<path class="st2" d="M70.5,30.6c-0.8,0-1.5-0.7-1.5-1.5V20h-0.7c-0.8,0-1.5-0.7-1.5-1.5V15c0-0.8,0.7-1.5,1.5-1.5H69V8.9
				c0-0.8,0.7-1.5,1.5-1.5H75c0.8,0,1.5,0.7,1.5,1.5v4.6h1.9c0.8,0,1.5,0.7,1.5,1.5v3.5c0,0.8-0.7,1.5-1.5,1.5h-1.9v9.1
				c0,0.8-0.7,1.5-1.5,1.5H70.5z"/>
			<path class="st3" d="M75,8.9V15h3.4v3.5H75v10.6h-4.5V18.5h-2.2V15h2.2V8.9H75 M75,5.9h-4.5c-1.7,0-3,1.3-3,3v3.2
				c-1.3,0.4-2.2,1.5-2.2,2.9v3.5c0,1.4,0.9,2.5,2.2,2.9v7.7c0,1.7,1.3,3,3,3H75c1.7,0,3-1.3,3-3v-7.6h0.4c1.7,0,3-1.3,3-3V15
				c0-1.7-1.3-3-3-3H78V8.9C78,7.2,76.7,5.9,75,5.9L75,5.9z"/>
		</g>
	</g>
	<g class="st1">
		<g>
			<path d="M95.2,31.4c-1.8,0-3.4-0.4-4.8-1.1s-2.5-1.7-3.4-3.1s-1.3-3.1-1.3-4.9s0.4-3.3,1.2-4.6c0.9-1.3,1.9-2.4,3.3-3.2
				s3-1.2,5-1.2s3.6,0.4,5,1.2c1.6,0.9,2.6,2,3.3,3.3c0.7,1.4,1.1,2.9,1.1,4.5s-0.4,3.2-1.1,4.6s-1.7,2.4-3.3,3.3
				C98.8,31,97.1,31.4,95.2,31.4z M93.5,21c-0.2,0.5-0.3,0.9-0.3,1.4c0,0.6,0.1,1,0.2,1.3c0.2,0.4,0.4,0.7,0.6,0.8
				c0.3,0.2,0.6,0.3,0.9,0.3c0.4,0,0.7-0.1,1-0.3c0.2-0.1,0.4-0.4,0.6-0.8c0.1-0.3,0.2-0.6,0.2-1.3c0-0.6-0.1-1-0.2-1.3
				s-0.3-0.5-0.7-0.8c-0.3-0.2-0.6-0.2-0.9-0.2s-0.6,0.1-0.9,0.3C93.9,20.4,93.7,20.7,93.5,21z"/>
			<path class="st3" d="M95.2,14.8c1.6,0,3,0.3,4.2,1c1.2,0.7,2.1,1.5,2.7,2.7s0.9,2.4,0.9,3.8s-0.3,2.7-0.9,3.9
				c-0.6,1.2-1.5,2-2.7,2.7s-2.6,1-4.2,1c-1.5,0-2.9-0.3-4.1-0.9s-2.1-1.5-2.8-2.6c-0.7-1.1-1.1-2.5-1.1-4.1c0-1.4,0.3-2.7,1-3.8
				c0.7-1.1,1.6-2,2.8-2.7C92.2,15.1,93.6,14.8,95.2,14.8 M95,26.3c0.7,0,1.3-0.2,1.8-0.5s0.9-0.8,1.2-1.4c0.3-0.6,0.4-1.2,0.4-2
				c0-0.7-0.1-1.4-0.4-2s-0.7-1-1.2-1.4c-0.5-0.3-1.1-0.5-1.8-0.5c-0.6,0-1.2,0.2-1.7,0.5s-0.9,0.8-1.2,1.4c-0.2,0.6-0.4,1.2-0.4,2
				c0,0.7,0.1,1.4,0.4,2s0.7,1.1,1.2,1.4C93.8,26.1,94.4,26.3,95,26.3 M95.2,11.8c-2.2,0-4.1,0.5-5.7,1.4s-2.8,2.1-3.8,3.7
				c-1,1.5-1.5,3.4-1.5,5.4c0,2.1,0.5,4.1,1.6,5.7c1,1.6,2.4,2.9,4,3.7c1.6,0.8,3.4,1.2,5.4,1.2c2.2,0,4.1-0.5,5.7-1.4
				c1.8-1.1,3.1-2.3,3.9-3.9s1.2-3.4,1.2-5.2c0-1.8-0.4-3.5-1.2-5.1c-0.8-1.6-2-2.9-3.9-3.9C99.3,12.3,97.4,11.8,95.2,11.8
				L95.2,11.8z M94.9,21.5C95,21.5,95,21.5,94.9,21.5h0.2c0.1,0.1,0.2,0.2,0.2,0.2s0.1,0.2,0.1,0.7s-0.1,0.6-0.1,0.7
				c-0.1,0.1-0.1,0.2-0.1,0.2c-0.1,0-0.1,0-0.2,0h-0.1c0,0-0.1-0.1-0.1-0.2c0,0-0.1-0.2-0.1-0.7C94.7,22.2,94.8,21.9,94.9,21.5
				C94.9,21.6,94.9,21.6,94.9,21.5L94.9,21.5z"/>
		</g>
		<g>
			<path d="M106.7,31c-0.8,0-1.5-0.7-1.5-1.5v-14c0-0.8,0.7-1.5,1.5-1.5h3.9c0.7,0,1.3,0.5,1.5,1.1c0.7-0.5,1.3-0.9,1.9-1.2
				c0,0,0.1-0.1,0.2-0.1c0.8-0.4,1.5-0.6,2.2-0.6c0.4,0,0.8,0.2,1.1,0.5c0.3,0.3,0.4,0.7,0.4,1.1l-0.2,4.5c0,0.4-0.2,0.8-0.5,1.1
				c-0.3,0.2-0.6,0.4-1,0.4h-0.1c-0.2,0-0.3,0-0.5,0c-0.5,0-0.9,0.1-1.2,0.3c-0.5,0.4-0.9,0.8-1.2,1.3c-0.3,0.6-0.4,1.2-0.4,1.7v5.5
				c0,0.8-0.7,1.5-1.5,1.5L106.7,31L106.7,31z"/>
			<path class="st3" d="M116.3,14.7L116.3,14.7 M116.3,14.7l-0.2,4.5c-0.2,0-0.4,0-0.7,0c-0.7,0-1.4,0.1-2,0.5
				c-0.7,0.5-1.3,1.1-1.7,1.9c-0.4,0.8-0.6,1.6-0.6,2.4v5.5h-4.4v-14h3.9l0.3,3.1c0,0,0,0,0,0.1l0.1,0.6l-0.1-0.7
				c0.4-0.8,1-1.5,1.7-2c0.7-0.6,1.4-1,2.1-1.4C115.4,14.9,115.9,14.7,116.3,14.7 M116.3,11.7L116.3,11.7c-1.1,0-2,0.4-2.8,0.7
				c-0.1,0-0.2,0.1-0.3,0.2c-0.3,0.2-0.5,0.3-0.8,0.5c-0.5-0.4-1.1-0.6-1.8-0.6h-3.9c-1.7,0-3,1.3-3,3v14c0,1.7,1.3,3,3,3h4.4
				c1.7,0,3-1.3,3-3V24c0-0.3,0.1-0.7,0.3-1.1c0.1-0.2,0.2-0.4,0.7-0.7c0.1,0,0.2-0.1,0.4-0.1c0.1,0,0.2,0,0.4,0c0.1,0,0.2,0,0.3,0
				c0.7,0,1.4-0.3,2-0.7c0.6-0.5,1-1.3,1-2.1l0.2-4.4c0-0.1,0-0.2,0-0.3C119.3,13,118,11.7,116.3,11.7L116.3,11.7z M116.3,17.7
				L116.3,17.7L116.3,17.7L116.3,17.7z"/>
		</g>
	</g>
	<g class="st1">
		<g>
			<path class="st4" d="M137.1,31.4c-0.8,0-1.5-0.7-1.5-1.5v-8.6c-0.1,0-0.2,0-0.3,0h-2v8.6c0,0.8-0.7,1.5-1.5,1.5h-4.5
				c-0.8,0-1.5-0.7-1.5-1.5v-8.6h-0.9c-0.8,0-1.5-0.7-1.5-1.5v-4c0-0.8,0.7-1.5,1.5-1.5h0.9V11c0-2.2,0.7-4.1,2-5.5
				c1.3-1.5,3.2-2.2,5.7-2.2c0.8,0,1.6,0.1,2.4,0.4c0.7,0.2,1.7,0.6,2.4,1.2c0.6,0.5,0.7,1.3,0.4,1.9l-0.5,0.8
				c0.4-0.2,0.9-0.2,1.4-0.2c0.9,0,1.8,0.3,2.5,0.9c0.9,0.7,1.4,1.7,1.4,2.8s-0.5,2.1-1.4,2.8c-0.3,0.3-0.7,0.5-1.1,0.6h0.5
				c0.8,0,1.5,0.7,1.5,1.5v14c0,0.8-0.7,1.5-1.5,1.5h-4.4V31.4z M135.3,14.3c0.4,0,0.7,0.1,1,0.4c0.2-0.2,0.5-0.3,0.8-0.3h0.9
				c-0.4-0.1-0.7-0.3-1-0.6c-0.9-0.6-1.4-1.6-1.4-2.8c0-0.1,0-0.2,0-0.3h-0.1c-0.5,0-1-0.2-1.2-0.7c-0.1,0-0.3,0-0.4,0
				c-0.3,0-0.5,0.1-0.5,0.2l0,0c0,0-0.2,0.2-0.2,0.9v3.2C133.2,14.3,135.3,14.3,135.3,14.3z"/>
			<path class="st3" d="M133.5,4.8c0.6,0,1.3,0.1,2,0.3s1.4,0.5,1.9,0.9l-1.9,3.2c-0.2-0.3-0.5-0.5-0.8-0.6s-0.6-0.1-0.8-0.1
				c-0.6,0-1.2,0.2-1.6,0.6c-0.4,0.4-0.6,1.1-0.6,2v4.7h3.6v4h-3.5v10.1h-4.5V19.8h-2.4v-4h2.4V11c0-1.8,0.5-3.3,1.6-4.5
				C130,5.3,131.5,4.8,133.5,4.8 M139.6,8.8c0.6,0,1.1,0.2,1.6,0.6c0.5,0.4,0.8,1,0.8,1.6s-0.3,1.2-0.8,1.6s-1.1,0.6-1.6,0.6
				c-0.6,0-1.2-0.2-1.7-0.6c-0.6-0.4-0.8-1-0.8-1.6c0-0.7,0.3-1.2,0.8-1.6S139,8.8,139.6,8.8 M141.6,15.9v14h-4.5v-14H141.6
				 M133.5,1.8c-2.9,0-5.2,0.9-6.8,2.7c-1.6,1.7-2.4,3.9-2.4,6.5v1.9c-1.4,0.3-2.4,1.5-2.4,2.9v4c0,1.5,1,2.7,2.4,2.9v7.2
				c0,1.7,1.3,3,3,3h4.5c1.1,0,2.1-0.6,2.6-1.6c0.5,0.9,1.5,1.6,2.7,1.6h4.5c1.7,0,3-1.3,3-3v-14c0-0.7-0.2-1.3-0.6-1.9
				c0.7-0.9,1-2,1-3c0-1.5-0.7-3-1.9-3.9c-0.8-0.7-1.7-1.1-2.7-1.2c0-0.8-0.4-1.6-1.1-2.2c-0.8-0.6-1.8-1.1-2.9-1.4
				C135.4,1.9,134.4,1.8,133.5,1.8L133.5,1.8z"/>
		</g>
		<g>
			<path class="st4" d="M153.1,31.7c-1.8,0-3.5-0.4-4.9-1.1s-2.6-1.7-3.4-3c-0.8-1.3-1.2-2.9-1.2-4.8c0-1.8,0.4-3.4,1.3-4.8
				c0.8-1.3,2-2.3,3.4-3c1.3-0.7,2.7-1.1,4.3-1.1c1.4,0,2.6,0.2,3.8,0.6c1.2,0.4,2.1,1,2.8,1.5c0.3,0.2,0.5,0.6,0.6,1s0,0.8-0.3,1.1
				l-2.2,2.9c-0.3,0.4-0.7,0.6-1.2,0.6c-0.3,0-0.6-0.1-0.8-0.3l-0.2-0.1c-0.2-0.2-0.5-0.3-0.8-0.4c-0.4-0.2-0.8-0.3-1.2-0.3
				c-0.3,0-0.6,0.1-0.9,0.3c-0.1,0.1-0.4,0.3-0.7,0.8c-0.1,0.2-0.2,0.5-0.2,1.1c0,0.4,0.1,0.8,0.3,1.2c0.1,0.3,0.4,0.5,0.8,0.8
				c0.4,0.2,0.8,0.3,1.2,0.3c0.3,0,0.5-0.1,0.9-0.1h0.2c0.2,0,0.2-0.1,0.3-0.2c0.3-0.3,0.7-0.4,1.1-0.4h0.1c0.4,0,0.8,0.3,1.1,0.6
				l2,2.9c0.4,0.6,0.3,1.5-0.3,2c-0.7,0.6-1.7,1.1-2.8,1.5C155.3,31.5,154.3,31.7,153.1,31.7z"/>
			<path class="st3" d="M152.6,15.4c1.3,0,2.4,0.2,3.3,0.5c0.9,0.3,1.7,0.8,2.4,1.3l-2.2,2.9c-0.3-0.2-0.7-0.5-1.2-0.7
				s-1.1-0.4-1.8-0.4c-0.6,0-1.2,0.2-1.7,0.5s-0.9,0.8-1.2,1.3s-0.4,1.2-0.4,1.9s0.2,1.3,0.5,1.9s0.8,1,1.3,1.4
				c0.6,0.3,1.2,0.5,2,0.5c0.5,0,0.9-0.1,1.4-0.2s0.8-0.3,1.1-0.6l2,2.9c-0.6,0.5-1.4,0.9-2.3,1.2c-0.9,0.3-1.8,0.4-2.7,0.4
				c-1.6,0-3-0.3-4.2-0.9s-2.1-1.4-2.8-2.5s-1-2.4-1-4s0.4-2.9,1.1-4c0.7-1.1,1.6-1.9,2.8-2.5C150.1,15.7,151.3,15.4,152.6,15.4
				 M152.6,12.4c-1.8,0-3.5,0.4-5,1.2c-1.7,0.8-3,2-3.9,3.5c-1,1.6-1.6,3.5-1.6,5.6c0,2.2,0.5,4.1,1.5,5.6c1,1.6,2.3,2.7,4,3.6
				c1.6,0.8,3.5,1.2,5.5,1.2c1.3,0,2.5-0.2,3.6-0.6c1.3-0.4,2.4-1,3.3-1.7c1.2-1,1.4-2.7,0.5-4l-2-2.9c-0.3-0.5-0.8-0.9-1.4-1.1
				c0.5-0.2,1-0.5,1.3-1l2.2-2.9c0.5-0.6,0.7-1.5,0.6-2.3c-0.1-0.8-0.6-1.5-1.2-2c-0.7-0.5-1.8-1.3-3.2-1.7
				C155.5,12.6,154.1,12.4,152.6,12.4L152.6,12.4z M153,22c0.1,0,0.1,0,0.1-0.1c0.2,0,0.4,0.1,0.7,0.2c0.1,0,0.3,0.2,0.5,0.3
				l0.2,0.1c0.2,0.1,0.4,0.2,0.6,0.3c-0.3,0.1-0.6,0.3-0.9,0.5c-0.3,0.1-0.4,0.1-0.6,0.1c-0.1,0-0.3,0-0.4-0.1
				c-0.1-0.1-0.2-0.2-0.2-0.2c-0.2-0.3-0.2-0.5-0.2-0.5c0-0.2,0-0.4,0-0.5C152.9,22.1,153,22.1,153,22L153,22z"/>
		</g>
		<g>
			<path class="st4" d="M162.9,31.5c-0.8,0-1.5-0.7-1.5-1.5v-9.2h-0.7c-0.8,0-1.5-0.7-1.5-1.5v-3.5c0-0.8,0.7-1.5,1.5-1.5h0.7V9.8
				c0-0.8,0.7-1.5,1.5-1.5h4.5c0.8,0,1.5,0.7,1.5,1.5v4.6h1.9c0.8,0,1.5,0.7,1.5,1.5v3.5c0,0.8-0.7,1.5-1.5,1.5h-1.9V30
				c0,0.8-0.7,1.5-1.5,1.5H162.9z"/>
			<path class="st3" d="M167.4,9.8v6.1h3.4v3.5h-3.4V30h-4.5V19.3h-2.2v-3.5h2.2v-6L167.4,9.8 M167.4,6.8h-4.5c-1.7,0-3,1.3-3,3v3.1
				c-1.3,0.4-2.2,1.5-2.2,2.9v3.5c0,1.4,0.9,2.5,2.2,2.9V30c0,1.7,1.3,3,3,3h4.5c1.7,0,3-1.3,3-3v-7.6h0.4c1.7,0,3-1.3,3-3v-3.5
				c0-1.7-1.3-3-3-3h-0.4V9.8C170.4,8.1,169.1,6.8,167.4,6.8L167.4,6.8z"/>
		</g>
		<g>
			<path class="st4" d="M174.2,31.4c-0.8,0-1.5-0.7-1.5-1.5v-14c0-0.8,0.7-1.5,1.5-1.5h0.8c-0.4-0.1-0.7-0.3-1-0.6
				c-0.9-0.6-1.4-1.6-1.4-2.8c0-1.1,0.5-2,1.4-2.8c0.7-0.6,1.7-0.9,2.6-0.9c0.9,0,1.8,0.3,2.5,0.9c0.9,0.7,1.4,1.7,1.4,2.8
				s-0.5,2.1-1.4,2.8c-0.3,0.3-0.7,0.5-1.1,0.6h0.6c0.8,0,1.5,0.7,1.5,1.5v14c0,0.8-0.7,1.5-1.5,1.5H174.2z"/>
			<path class="st3" d="M176.6,8.8c0.6,0,1.1,0.2,1.6,0.6c0.5,0.4,0.8,1,0.8,1.6s-0.3,1.2-0.8,1.6s-1.1,0.6-1.6,0.6
				c-0.6,0-1.2-0.2-1.7-0.6c-0.6-0.4-0.8-1-0.8-1.6c0-0.7,0.3-1.2,0.8-1.6S176,8.8,176.6,8.8 M178.7,15.9v14h-4.5v-14H178.7
				 M176.6,5.8c-1.3,0-2.6,0.4-3.6,1.3c-1.3,1-1.9,2.4-1.9,3.9c0,1.1,0.3,2.1,0.9,2.9c-0.5,0.5-0.8,1.2-0.8,2v14c0,1.7,1.3,3,3,3
				h4.5c1.7,0,3-1.3,3-3v-14c0-0.7-0.3-1.4-0.7-1.9c0.6-0.9,1-1.9,1-3c0-1.5-0.7-3-1.9-3.9C179,6.2,177.9,5.8,176.6,5.8L176.6,5.8z"
				/>
		</g>
		<g>
			<path class="st4" d="M190.2,31.8c-1.8,0-3.4-0.4-4.8-1.1c-1.4-0.7-2.5-1.7-3.4-3.1c-0.9-1.2-1.3-2.8-1.3-4.9
				c0-1.8,0.4-3.3,1.2-4.6c0.9-1.3,1.9-2.4,3.3-3.2c1.4-0.8,3-1.2,5-1.2s3.6,0.4,5,1.2c1.6,0.9,2.6,2,3.3,3.3
				c0.7,1.3,1.1,2.8,1.1,4.5c0,1.6-0.4,3.2-1.1,4.6c-0.8,1.4-1.9,2.5-3.3,3.3C193.8,31.4,192.1,31.8,190.2,31.8z M190,20.4
				c-0.3,0-0.6,0.1-0.9,0.3c-0.2,0.1-0.4,0.4-0.6,0.8c-0.1,0.3-0.2,0.6-0.2,1.3c0,0.6,0.1,1,0.2,1.3c0.2,0.4,0.4,0.7,0.6,0.8
				c0.3,0.2,0.6,0.3,0.9,0.3c0.4,0,0.7-0.1,1-0.3c0.2-0.1,0.4-0.4,0.6-0.8c0.1-0.3,0.2-0.6,0.2-1.3c0-0.6-0.1-1-0.2-1.3
				c-0.2-0.3-0.3-0.5-0.7-0.8C190.7,20.5,190.3,20.4,190,20.4z"/>
			<path class="st3" d="M190.2,15.2c1.6,0,3,0.3,4.2,1c1.2,0.7,2.1,1.5,2.7,2.7c0.6,1.1,0.9,2.4,0.9,3.8s-0.3,2.7-0.9,3.9
				c-0.6,1.1-1.5,2-2.7,2.7s-2.6,1-4.2,1c-1.5,0-2.9-0.3-4.1-0.9c-1.2-0.6-2.1-1.5-2.8-2.6c-0.8-1.1-1.1-2.5-1.1-4.1
				c0-1.4,0.3-2.7,1-3.8s1.6-2,2.8-2.7C187.2,15.5,188.6,15.2,190.2,15.2 M190,26.7c0.7,0,1.3-0.2,1.8-0.5s0.9-0.8,1.2-1.4
				s0.4-1.2,0.4-2c0-0.7-0.1-1.4-0.4-2c-0.3-0.6-0.7-1-1.2-1.4c-0.5-0.3-1.1-0.5-1.8-0.5c-0.6,0-1.2,0.2-1.7,0.5s-0.9,0.8-1.2,1.4
				s-0.4,1.2-0.4,2c0,0.7,0.1,1.4,0.4,2c0.3,0.6,0.7,1.1,1.2,1.4S189.4,26.7,190,26.7 M190.2,12.2c-2.2,0-4.1,0.5-5.7,1.4
				c-1.6,0.9-2.8,2.1-3.8,3.7c-1,1.5-1.5,3.4-1.5,5.4c0,2.4,0.5,4.3,1.6,5.8c1,1.6,2.4,2.8,3.9,3.6c1.6,0.8,3.4,1.2,5.4,1.2
				c2.2,0,4.1-0.5,5.7-1.4c1.7-1,3-2.3,3.8-3.9v-0.1c0.8-1.6,1.2-3.4,1.2-5.2c0-1.9-0.4-3.7-1.2-5.2c-0.8-1.6-2-2.8-3.8-3.9
				C194.3,12.7,192.4,12.2,190.2,12.2L190.2,12.2z M189.9,21.9c0.1,0,0.1,0,0.1,0h0.1c0.1,0.1,0.2,0.2,0.2,0.2s0.1,0.2,0.1,0.7
				s-0.1,0.6-0.1,0.7c-0.1,0.1-0.1,0.2-0.1,0.2c-0.1,0-0.1,0-0.2,0h-0.1c0,0-0.1-0.1-0.1-0.2c0,0-0.1-0.2-0.1-0.7s0.1-0.6,0.1-0.7
				S189.9,22,189.9,21.9L189.9,21.9z"/>
		</g>
		<g>
			<path class="st4" d="M211.5,31.5c-0.8,0-1.5-0.7-1.5-1.5v-8.8c0-0.2-0.1-0.4-0.2-0.6l0,0c0,0-0.2,0-0.4,0c-0.4,0-0.6,0.1-0.7,0.3
				l-0.1,0.1c-0.1,0.1-0.4,0.4-0.8,1.2c-0.2,0.5-0.3,1.2-0.3,2.1V30c0,0.8-0.7,1.5-1.5,1.5h-4.5c-0.8,0-1.5-0.7-1.5-1.5V16
				c0-0.8,0.7-1.5,1.5-1.5h3.6c0.1-0.1,0.3-0.1,0.4-0.1h0.1c0.5,0,1,0.3,1.2,0.7c0.1-0.1,0.3-0.2,0.4-0.3c1.2-0.7,2.5-1,4-1
				c1.7,0,3.1,0.5,4.3,1.6c1.1,1,1.8,2.3,1.9,4v0.1V30c0,0.8-0.7,1.5-1.5,1.5H211.5z"/>
			<path class="st3" d="M211.3,15.3c1.3,0,2.4,0.4,3.3,1.2c0.9,0.8,1.3,1.8,1.4,3V30h-4.5v-8.8c0-0.6-0.2-1.1-0.5-1.5
				s-0.8-0.6-1.6-0.6c-0.7,0-1.3,0.2-1.8,0.7c-0.5,0.4-0.9,1.1-1.2,1.8c-0.3,0.8-0.4,1.7-0.4,2.7V30h-4.5V16h4.1v-0.1l0.4,2.2
				c0,0,0,0.1-0.1,0.1l0.1,0.2v-0.3c0.5-0.9,1.2-1.5,2-2C208.9,15.6,210,15.3,211.3,15.3 M211.3,12.3c-1.6,0-3,0.3-4.3,0.9
				c-0.4-0.2-0.9-0.3-1.4-0.3c-0.1,0-0.2,0-0.2,0c-0.2,0-0.4,0-0.5,0.1h-3.3c-1.7,0-3,1.3-3,3v14c0,1.7,1.3,3,3,3h4.5
				c1.2,0,2.3-0.7,2.8-1.8c0.5,1.1,1.5,1.8,2.8,1.8h4.5c1.7,0,3-1.3,3-3V19.5c0-0.1,0-0.2,0-0.2c-0.2-2.1-1-3.7-2.4-5
				C215.2,13,213.3,12.3,211.3,12.3L211.3,12.3z"/>
		</g>
	</g>
	<g class="st1">
		<g>
			<path d="M228.2,32.2c-1.1,0-2.1-0.3-2.8-0.9c-0.8-0.7-1.3-1.6-1.3-2.8c0-1.2,0.4-2.1,1.3-2.9c0.1-0.1,0.2-0.1,0.2-0.2
				c-0.7-0.1-1.2-0.7-1.2-1.5v-1.7c0-1.4,0.2-2.5,0.5-3.3c0.3-0.7,0.7-1.5,1.2-2.1c0.4-0.5,0.9-1.1,1.5-1.6c0.5-0.4,0.9-0.9,1.3-1.4
				c0.2-0.3,0.4-0.7,0.4-1.2c0-0.1,0-0.2,0-0.2c0-0.1-0.1-0.1-0.1-0.2c-0.1-0.1-0.2-0.3-0.4-0.4c0,0-0.1,0-0.2,0
				c-0.4,0-0.6,0.1-0.8,0.2c-0.2,0.1-0.3,0.3-0.4,0.5c0,0.1-0.1,0.2-0.1,0.2c-0.2,0.2-0.3,0.6-0.5,1.1c-0.2,0.4-0.5,0.7-0.8,0.8
				c-0.2,0.1-0.4,0.1-0.6,0.1c-0.2,0-0.4,0-0.6-0.1l-3.7-1.7c-0.7-0.3-1-1-0.8-1.7c0.1-0.5,0.3-0.9,0.6-1.4l0.2-0.4
				c0.3-0.7,0.9-1.4,1.7-2.2s1.6-1.4,2.7-1.8c1.1-0.5,2.3-0.7,3.8-0.7c1.4,0,2.7,0.2,3.9,0.7c1.5,0.6,2.4,1.6,2.9,2.4
				c0.8,1.2,1.2,2.6,1.2,4.3c0,1.3-0.2,2.4-0.6,3.4c-0.4,0.9-0.9,1.6-1.5,2.3c-0.2,0.2-0.4,0.5-0.6,0.7c-0.2,0.3-0.5,0.5-0.8,0.8
				s-0.6,0.7-0.9,1c-0.3,0.3-0.5,0.7-0.6,1.1s-0.2,1-0.2,1.6v1c0,0.7-0.5,1.3-1.1,1.5c0.1,0.1,0.2,0.2,0.3,0.3
				c0.5,0.5,1.1,1.3,1.1,2.8c0,1.2-0.4,2.1-1.3,2.8C230.3,31.9,229.3,32.2,228.2,32.2z"/>
			<path class="st3" d="M229.2,6.2c1.2,0,2.3,0.2,3.3,0.6s1.7,1.1,2.3,1.9c0.6,0.9,0.9,2,0.9,3.4c0,1.2-0.2,2.1-0.5,2.8
				s-0.7,1.3-1.2,1.8s-0.9,1-1.4,1.5c-0.4,0.4-0.7,0.8-1,1.2c-0.3,0.4-0.6,0.9-0.8,1.5s-0.3,1.3-0.3,2.1v1H226v-1.7
				c0-1.1,0.1-2,0.4-2.7c0.3-0.7,0.6-1.3,1-1.8s0.8-1,1.3-1.4c0.6-0.5,1.1-1.1,1.5-1.6s0.7-1.2,0.7-2.1c0-0.5-0.1-0.9-0.4-1.2
				c-0.2-0.3-0.5-0.6-0.8-0.8s-0.7-0.3-1-0.3c-0.6,0-1.1,0.1-1.6,0.4c-0.5,0.3-0.8,0.7-1,1.1c-0.3,0.4-0.5,0.9-0.7,1.4l-3.7-1.7
				c0.1-0.4,0.4-0.9,0.7-1.5s0.8-1.2,1.4-1.8c0.6-0.6,1.3-1.1,2.2-1.5S227.9,6.2,229.2,6.2 M228.3,26.1c0.7,0,1.4,0.2,1.8,0.7
				c0.5,0.4,0.7,1,0.7,1.7s-0.2,1.2-0.7,1.6s-1.1,0.6-1.9,0.6s-1.4-0.2-1.9-0.6s-0.7-1-0.7-1.6c0-0.7,0.2-1.2,0.8-1.7
				C226.9,26.4,227.5,26.1,228.3,26.1 M229.2,3.2c-1.7,0-3.1,0.3-4.4,0.9c-1.2,0.5-2.2,1.2-3.1,2.1c-0.9,0.9-1.5,1.7-2,2.6
				c-0.1,0.1-0.1,0.3-0.2,0.4c-0.3,0.5-0.6,1.1-0.7,1.7c-0.4,1.4,0.3,2.9,1.7,3.5l3.7,1.7c0.2,0.1,0.4,0.2,0.7,0.2
				c-0.5,0.7-0.9,1.5-1.2,2.2c-0.4,1-0.6,2.2-0.6,3.9V24c0,0.6,0.2,1.1,0.5,1.6c-0.6,0.8-0.9,1.8-0.9,2.9c0,1.6,0.7,3,1.8,3.9
				c1,0.8,2.3,1.3,3.8,1.3s2.7-0.4,3.8-1.3c0.8-0.7,1.8-1.9,1.8-3.9c0-1.1-0.3-2.1-0.8-2.9c0.3-0.5,0.5-1,0.5-1.6v-1
				c0-0.6,0.1-1,0.1-1.2c0.1-0.2,0.2-0.4,0.4-0.6c0.3-0.4,0.5-0.6,0.7-0.9c0.3-0.3,0.5-0.6,0.8-0.9c0.2-0.2,0.4-0.4,0.6-0.6
				c0.8-0.8,1.4-1.7,1.8-2.7c0.5-1.2,0.7-2.5,0.7-4c0-2-0.5-3.6-1.4-5.1l-0.1-0.1c-0.7-0.9-1.8-2.2-3.6-2.9
				C232.3,3.5,230.8,3.2,229.2,3.2L229.2,3.2z"/>
		</g>
	</g>
</g>
<g>
	<g>
		<path class="st4" d="M12.6,28c-0.5,0-0.9-0.3-1.1-0.8l-8-20.8C3.3,6.1,3.3,5.6,3.5,5.3c0.2-0.3,0.6-0.5,1-0.5h4.6
			c0.5,0,1,0.3,1.2,0.8l2.8,8.4l1.6-4l-1.4-3.5c-0.2-0.4-0.1-0.8,0.1-1.2c0.2-0.3,0.6-0.5,1-0.5h3.9c0.5,0,1,0.3,1.2,0.8l3.2,7.8
			l2.4-7.7c0.2-0.5,0.6-0.9,1.2-0.9h4.2c0.4,0,0.8,0.2,1,0.5c0.2,0.3,0.3,0.8,0.1,1.1l-7.7,20.7c-0.2,0.5-0.6,0.8-1.2,0.8
			c0,0,0,0,0,0c-0.5,0-1-0.3-1.2-0.8L18.1,18l-4.3,9.3C13.5,27.7,13.1,28,12.6,28C12.6,28,12.6,28,12.6,28z"/>
		<path class="st3" d="M30.6,6l-7.7,20.7l-4.7-11.8l-5.5,11.9L4.6,6h4.6l3.9,11.6l3.1-7.6L14.6,6h3.9L23,17.1L26.4,6H30.6 M30.6,3.5
			h-4.2c-1.1,0-2.1,0.7-2.4,1.8l-1.3,4.3l-1.8-4.5c-0.4-0.9-1.3-1.6-2.3-1.6h-3.9c-0.8,0-1.6,0.4-2.1,1.1C12,5.3,12,6.2,12.3,6.9
			l1.2,3l-0.2,0.4l-1.7-5.2c-0.3-1-1.3-1.7-2.4-1.7H4.6C3.8,3.5,3,3.9,2.5,4.6C2,5.3,1.9,6.1,2.2,6.9l8,20.8
			c0.4,0.9,1.2,1.6,2.2,1.6c0,0,0.1,0,0.1,0c1,0,1.9-0.6,2.3-1.4l3.1-6.6l2.6,6.5c0.4,0.9,1.3,1.6,2.3,1.6c0,0,0,0,0,0
			c1,0,2-0.7,2.3-1.6l7.7-20.7c0.3-0.8,0.2-1.6-0.3-2.3C32.2,3.9,31.4,3.5,30.6,3.5L30.6,3.5z M30.6,8.5L30.6,8.5L30.6,8.5L30.6,8.5
			z"/>
	</g>
	<g>
		<path class="st4" d="M39,19.4c-0.5,0-0.9-0.3-1.1-0.7c0,0,0-0.1-0.1-0.1c-0.2-0.3-0.2-0.7,0-1c0.1-0.3,0.4-0.6,0.8-0.7l0.8-0.3
			c0.1,0,0.3-0.1,0.4-0.1c0.5,0,1,0.3,1.2,0.8c0.2,0.6,0,1.3-0.7,1.6l-0.8,0.4C39.4,19.4,39.2,19.4,39,19.4z"/>
		<path class="st3" d="M39.8,17.8L39.8,17.8 M39.8,17.8L39,18.1c0,0,0-0.1,0-0.1L39.8,17.8 M39.8,15.3c-0.1,0-0.3,0-0.4,0
			c-0.2,0-0.3,0.1-0.5,0.1l-0.8,0.3c-0.7,0.2-1.2,0.7-1.5,1.4c-0.3,0.6-0.3,1.3,0,2c0,0.1,0.1,0.1,0.1,0.2c0.4,0.9,1.3,1.4,2.2,1.4
			c0.3,0,0.7-0.1,1-0.2l0.7-0.3c0.9-0.4,1.5-1.3,1.5-2.3c0-1.3-1-2.4-2.3-2.5C39.9,15.3,39.9,15.3,39.8,15.3L39.8,15.3z M39.8,20.3
			L39.8,20.3L39.8,20.3L39.8,20.3z"/>
	</g>
	<g>
		<path class="st4" d="M36.8,27.4c-1.7,0-3.1-0.3-4.3-1c-1.2-0.7-2.2-1.6-2.8-2.7c-0.6-1.1-0.9-2.5-0.9-3.9c0-1.4,0.4-2.8,1.1-3.9
			c0.7-1.1,1.7-2,2.9-2.7c1.2-0.7,2.6-1,4.1-1c2,0,3.7,0.6,5,1.8c1.3,1.2,2.1,2.9,2.5,5c0.1,0.6-0.3,1.2-0.9,1.4l-3.3,1.1
			c0,0,0,0.1,0.1,0.1l1.7,2.8c0.2,0.3,0.2,0.6,0.1,1s-0.3,0.6-0.6,0.8c-0.8,0.4-1.5,0.7-2.3,1C38.4,27.3,37.6,27.4,36.8,27.4z
			 M36.3,17.7c-0.2,0-0.4,0.1-0.5,0.2L36.3,17.7z"/>
		<path class="st3" d="M36.9,13.4c1.7,0,3.1,0.5,4.2,1.5c1.1,1,1.8,2.4,2.1,4.3l-8.7,2.7c0.2,0.3,0.5,0.5,0.8,0.6
			c0.5,0.2,1,0.4,1.6,0.4c0.4,0,0.8-0.1,1.2-0.2c0.4-0.1,0.8-0.3,1.2-0.6l1.7,2.8c-0.6,0.4-1.3,0.7-2.1,0.9
			c-0.7,0.2-1.4,0.3-2.1,0.3c-1.4,0-2.7-0.3-3.7-0.8c-1-0.5-1.8-1.3-2.3-2.2c-0.5-1-0.8-2.1-0.8-3.3c0-1.2,0.3-2.3,0.9-3.2
			c0.6-1,1.4-1.7,2.5-2.3C34.5,13.7,35.6,13.4,36.9,13.4 M33.8,19.8l5.2-1.8c-0.1-0.4-0.4-0.8-0.7-1.2c-0.4-0.4-0.9-0.5-1.7-0.5
			c-0.6,0-1.1,0.1-1.5,0.4c-0.4,0.3-0.8,0.6-1,1.1c-0.2,0.5-0.3,1.1-0.3,1.7C33.8,19.7,33.8,19.7,33.8,19.8 M36.9,10.9
			c-1.7,0-3.3,0.4-4.7,1.2c-1.4,0.8-2.5,1.9-3.4,3.1c-0.9,1.3-1.3,2.9-1.3,4.6c0,1.7,0.4,3.2,1.1,4.5c0.8,1.4,1.9,2.5,3.3,3.2
			c1.4,0.7,3,1.1,4.9,1.1c0.9,0,1.8-0.1,2.8-0.4c0.9-0.3,1.7-0.6,2.6-1.1c0.6-0.3,1-0.9,1.2-1.5c0.2-0.7,0.1-1.3-0.3-1.9l-0.9-1.6
			l1.8-0.6c1.2-0.4,1.9-1.6,1.7-2.8c-0.4-2.4-1.4-4.3-2.9-5.7C41.2,11.6,39.2,10.9,36.9,10.9L36.9,10.9z"/>
	</g>
	<g>
		<path class="st4" d="M53.8,27.4c-1.2,0-2.2-0.2-3.1-0.6c0,0,0,0-0.1,0c-0.2,0.2-0.5,0.3-0.9,0.3H46c-0.7,0-1.2-0.6-1.2-1.2V4.4
			c0-0.7,0.6-1.2,1.2-1.2h3.8c0.7,0,1.2,0.6,1.2,1.2v8.3c0.1,0,0.1-0.1,0.2-0.1c0.9-0.3,1.9-0.5,3.1-0.5c1.2,0,2.4,0.3,3.4,0.9
			c1,0.6,1.9,1.5,2.5,2.6c0.6,1.1,0.9,2.4,0.9,4c0,1.5-0.3,2.9-1,4.1c-0.7,1.2-1.6,2.1-2.8,2.7C56.3,27.1,55,27.4,53.8,27.4z
			 M51,20.8c0.1,0.2,0.2,0.3,0.3,0.4c0.2,0.1,0.4,0.3,0.6,0.3c0.3,0.1,0.6,0.1,0.9,0.1c0.3,0,0.6-0.1,0.9-0.2
			c0.3-0.2,0.5-0.4,0.7-0.7c0.2-0.3,0.3-0.7,0.3-1.1c0-0.4-0.1-0.7-0.3-1c-0.2-0.3-0.4-0.6-0.7-0.7c-0.3-0.2-0.6-0.2-0.9-0.2
			c-0.3,0-0.6,0.1-0.9,0.2c-0.3,0.1-0.5,0.2-0.7,0.4c-0.1,0.1-0.2,0.2-0.3,0.4V20.8z"/>
		<path class="st3" d="M49.7,4.4v10.4c0.5-0.4,1.1-0.7,1.9-1c0.8-0.3,1.7-0.4,2.7-0.4c1,0,2,0.2,2.8,0.7c0.8,0.5,1.5,1.2,2,2.1
			c0.5,0.9,0.8,2.1,0.8,3.4c0,1.3-0.3,2.5-0.8,3.5c-0.6,1-1.3,1.7-2.3,2.2c-0.9,0.5-1.9,0.8-3,0.8c-1,0-1.8-0.2-2.5-0.5
			c-0.6-0.3-1.1-0.6-1.5-1v1.2H46V4.4H49.7 M52.9,23c0.6,0,1.1-0.1,1.6-0.4c0.5-0.3,0.9-0.7,1.2-1.2c0.3-0.5,0.4-1.1,0.4-1.7
			c0-0.6-0.1-1.2-0.4-1.7c-0.3-0.5-0.7-0.9-1.2-1.2c-0.5-0.3-1-0.4-1.6-0.4c-0.5,0-0.9,0.1-1.4,0.2c-0.4,0.1-0.8,0.4-1.1,0.6
			c-0.3,0.3-0.5,0.6-0.7,1v2.9c0.2,0.4,0.5,0.7,0.8,1c0.3,0.3,0.6,0.5,1.1,0.6C52,22.9,52.4,23,52.9,23 M49.7,1.9H46
			c-1.4,0-2.5,1.1-2.5,2.5v21.4c0,1.4,1.1,2.5,2.5,2.5h3.8c0.3,0,0.7-0.1,1-0.2c0.9,0.3,1.9,0.5,3,0.5c1.5,0,2.9-0.4,4.2-1.1
			c1.3-0.7,2.4-1.8,3.2-3.2c0.8-1.4,1.2-3,1.2-4.7c0-1.8-0.4-3.3-1.1-4.6c-0.7-1.3-1.7-2.4-3-3.1c-1.2-0.7-2.6-1.1-4.1-1.1
			c-0.7,0-1.4,0.1-2,0.2V4.4C52.2,3.1,51.1,1.9,49.7,1.9L49.7,1.9z M52.3,19C52.3,19,52.3,19,52.3,19c0.1,0,0.1,0,0.1-0.1
			c0.2-0.1,0.3-0.1,0.5-0.1c0.1,0,0.2,0,0.3,0.1c0.1,0.1,0.2,0.1,0.2,0.2c0,0,0,0,0,0.1c0,0,0.1,0.1,0.1,0.4c0,0.3-0.1,0.4-0.1,0.5
			c-0.1,0.2-0.2,0.3-0.2,0.3c0,0,0,0-0.1,0c0,0-0.1,0.1-0.2,0.1c-0.2,0-0.4,0-0.5-0.1c-0.1,0-0.1,0-0.1-0.1V19L52.3,19z"/>
	</g>
	<g>
		<path class="st4" d="M68.7,27.4c-1.3,0-2.5-0.3-3.5-0.8c-1.1-0.5-2-1.4-2.7-2.5c-0.6-1.1-0.9-2.5-0.9-4.2c0-1.5,0.3-2.9,1-4.1
			c0.7-1.2,1.5-2.1,2.6-2.7c1.1-0.7,2.3-1,3.5-1c1.4,0,2.5,0.3,3.3,0.8c0.1,0,0.1,0.1,0.2,0.1c0.2-0.2,0.5-0.3,0.8-0.3h3.5
			c0.7,0,1.2,0.6,1.2,1.2v11.9c0,0.7-0.6,1.2-1.2,1.2h-3.8c-0.4,0-0.7-0.2-0.9-0.4c-0.2,0.1-0.5,0.2-0.7,0.3
			C70.3,27.3,69.5,27.4,68.7,27.4z M69.6,17.7c-0.3,0-0.6,0.1-0.9,0.2c-0.3,0.2-0.5,0.4-0.7,0.7c-0.2,0.3-0.2,0.7-0.2,1.1
			c0,0.4,0.1,0.8,0.3,1.1c0.2,0.3,0.4,0.6,0.7,0.8c0.3,0.2,0.6,0.2,0.9,0.2c0.3,0,0.6,0,0.8-0.1c0.2-0.1,0.4-0.2,0.5-0.3
			c0.1-0.1,0.2-0.3,0.3-0.4v-2.3c-0.1-0.1-0.2-0.3-0.3-0.4c-0.2-0.2-0.4-0.3-0.6-0.4C70.3,17.8,70,17.7,69.6,17.7z"/>
		<path class="st3" d="M68.6,13.4c1.2,0,2.1,0.2,2.7,0.6c0.6,0.4,1.1,0.8,1.4,1.2l0.2-1.2h3.5v11.9h-3.8v-1.5c0,0,0,0,0,0
			c-0.2,0.2-0.5,0.5-0.8,0.7c-0.4,0.3-0.8,0.5-1.3,0.7c-0.5,0.2-1.1,0.3-1.8,0.3c-1.1,0-2.1-0.2-3-0.7c-0.9-0.4-1.6-1.1-2.1-2
			c-0.5-0.9-0.8-2.1-0.8-3.5c0-1.3,0.3-2.5,0.8-3.5c0.5-1,1.3-1.7,2.1-2.3C66.6,13.7,67.6,13.4,68.6,13.4 M69.8,23.1
			c0.5,0,0.9-0.1,1.2-0.2c0.4-0.1,0.7-0.3,0.9-0.6c0.3-0.3,0.5-0.6,0.7-1v-2.9c-0.1-0.4-0.4-0.7-0.6-1c-0.3-0.3-0.6-0.5-1-0.7
			c-0.4-0.1-0.8-0.2-1.3-0.2c-0.5,0-1,0.1-1.5,0.4c-0.5,0.3-0.8,0.7-1.1,1.2c-0.3,0.5-0.4,1.1-0.4,1.7c0,0.6,0.1,1.2,0.4,1.7
			c0.3,0.5,0.7,0.9,1.2,1.2C68.7,22.9,69.2,23.1,69.8,23.1 M68.6,10.9c-1.4,0-2.8,0.4-4.1,1.2c-1.3,0.8-2.3,1.8-3,3.2
			c-0.8,1.4-1.1,2.9-1.1,4.7c0,1.9,0.4,3.4,1.1,4.8c0.8,1.4,1.9,2.4,3.2,3.1c1.2,0.6,2.6,0.9,4.1,0.9c1,0,1.9-0.2,2.7-0.5
			c0.1,0,0.1,0,0.2-0.1c0.3,0.1,0.7,0.2,1,0.2h3.8c1.4,0,2.5-1.1,2.5-2.5V14c0-1.4-1.1-2.5-2.5-2.5h-3.5c-0.3,0-0.5,0-0.8,0.1
			C71.2,11.1,70,10.9,68.6,10.9L68.6,10.9z M69.8,20.6c-0.1,0-0.2,0-0.3-0.1c-0.1-0.1-0.2-0.2-0.3-0.3c0-0.1-0.1-0.2-0.1-0.5
			c0-0.1,0-0.3,0.1-0.5c0.1-0.1,0.2-0.2,0.2-0.2c0.1,0,0.1-0.1,0.2-0.1c0.2,0,0.3,0,0.4,0.1c0,0,0,0,0.1,0v1.4c0,0,0,0,0,0
			C70.1,20.6,70,20.6,69.8,20.6L69.8,20.6z"/>
	</g>
	<g>
		<path class="st4" d="M79.6,32.8c-0.7,0-1.2-0.6-1.2-1.3V13.7c0-0.7,0.6-1.2,1.2-1.2h3.3c0.5,0,0.9,0.3,1.1,0.6
			c0.2-0.1,0.5-0.2,0.7-0.3c0.9-0.4,2-0.6,3.1-0.6c1.3,0,2.5,0.3,3.6,1c1.1,0.6,1.9,1.5,2.5,2.7c0.6,1.1,0.9,2.5,0.9,4.1
			c0,1.6-0.3,2.9-1,4.1c-0.7,1.1-1.6,2-2.8,2.6c-1.1,0.6-2.5,0.9-3.9,0.9c-0.8,0-1.6-0.1-2.4-0.4v4.6c0,0.7-0.6,1.3-1.2,1.3H79.6z
			 M84.6,21c0.1,0.2,0.2,0.3,0.3,0.4c0.2,0.2,0.3,0.3,0.5,0.4c0.3,0.1,0.5,0.2,0.8,0.2c0.4,0,0.8-0.1,1.1-0.3
			c0.3-0.2,0.6-0.4,0.8-0.7c0.2-0.3,0.3-0.6,0.3-1c0-0.4-0.1-0.8-0.3-1.2c-0.2-0.3-0.4-0.5-0.7-0.7c-0.3-0.2-0.6-0.3-1-0.3
			c-0.4,0-0.7,0-0.9,0.1c-0.2,0.1-0.5,0.2-0.6,0.4c-0.1,0.1-0.2,0.2-0.3,0.4V21z"/>
		<path class="st3" d="M87.8,13.4c1.1,0,2.1,0.3,3,0.8c0.9,0.5,1.6,1.3,2.1,2.2c0.5,1,0.7,2.1,0.7,3.5c0,1.3-0.3,2.5-0.8,3.4
			c-0.6,0.9-1.3,1.7-2.3,2.1c-1,0.5-2.1,0.7-3.4,0.7c-0.7,0-1.4-0.1-2.1-0.4c-0.6-0.2-1.2-0.6-1.6-1v6.8h-3.8V13.7h3.3l0.3,1.4
			c0.6-0.5,1.2-0.9,2-1.2C85.9,13.6,86.8,13.4,87.8,13.4 M86.2,23.2c0.6,0,1.2-0.1,1.7-0.4c0.5-0.3,0.9-0.7,1.3-1.2
			c0.3-0.5,0.5-1.1,0.5-1.7c0-0.7-0.1-1.3-0.4-1.8c-0.3-0.5-0.7-0.9-1.1-1.2c-0.5-0.3-1-0.4-1.6-0.4c-0.5,0-0.9,0.1-1.3,0.2
			c-0.4,0.1-0.7,0.3-1,0.6c-0.3,0.3-0.6,0.6-0.8,1v2.9c0.1,0.4,0.4,0.7,0.6,1c0.3,0.3,0.6,0.5,1,0.7C85.4,23.1,85.8,23.2,86.2,23.2
			 M87.8,10.9c-1.3,0-2.5,0.2-3.6,0.7c-0.4-0.2-0.8-0.4-1.3-0.4h-3.3c-1.4,0-2.5,1.1-2.5,2.5v17.8c0,1.4,1.1,2.5,2.5,2.5h3.8
			c1.4,0,2.5-1.1,2.5-2.5v-3c0.4,0.1,0.8,0.1,1.2,0.1c1.6,0,3.2-0.3,4.5-1c1.4-0.7,2.5-1.8,3.3-3.1c0.8-1.3,1.2-2.9,1.2-4.7
			c0-1.8-0.3-3.3-1-4.6c-0.7-1.4-1.7-2.5-3-3.2C90.8,11.3,89.3,10.9,87.8,10.9L87.8,10.9z M85.9,19.2c0,0,0.1-0.1,0.2-0.1
			c0,0,0.2,0,0.5,0c0.1,0,0.2,0,0.3,0.1c0,0,0.1,0.1,0.2,0.2c0.1,0.1,0.1,0.3,0.1,0.5c0,0.2,0,0.3-0.1,0.4c-0.1,0.1-0.2,0.2-0.3,0.3
			c-0.1,0.1-0.3,0.1-0.5,0.1c-0.1,0-0.2,0-0.3,0c0,0,0,0-0.1,0V19.2L85.9,19.2z"/>
	</g>
	<g>
		<path class="st4" d="M96.5,32.8c-0.7,0-1.2-0.6-1.2-1.3V13.7c0-0.7,0.6-1.2,1.2-1.2h3.3c0.5,0,0.9,0.3,1.1,0.6
			c0.2-0.1,0.5-0.2,0.7-0.3c0.9-0.4,2-0.6,3.1-0.6c1.3,0,2.5,0.3,3.6,1c1.1,0.6,1.9,1.5,2.5,2.7c0.6,1.1,0.9,2.5,0.9,4.1
			c0,1.6-0.3,2.9-1,4c-0.7,1.2-1.6,2-2.8,2.6c-1.2,0.6-2.5,0.9-3.9,0.9c-0.8,0-1.6-0.1-2.4-0.4v4.6c0,0.7-0.6,1.3-1.2,1.3H96.5z
			 M101.5,21c0.1,0.1,0.2,0.3,0.3,0.4c0.2,0.2,0.3,0.3,0.5,0.4c0.3,0.1,0.5,0.2,0.8,0.2c0.4,0,0.8-0.1,1.1-0.3
			c0.3-0.2,0.6-0.4,0.8-0.7c0.2-0.3,0.3-0.6,0.3-1c0-0.5-0.1-0.8-0.3-1.1c-0.2-0.3-0.4-0.5-0.7-0.7c-0.3-0.2-0.6-0.3-1-0.3
			c-0.4,0-0.7,0-0.9,0.1c-0.2,0.1-0.4,0.2-0.6,0.4c-0.1,0.1-0.2,0.3-0.3,0.4V21z"/>
		<path class="st3" d="M104.7,13.4c1.1,0,2.1,0.3,3,0.8c0.9,0.5,1.5,1.3,2,2.2c0.5,1,0.7,2.1,0.7,3.5c0,1.3-0.3,2.5-0.8,3.4
			c-0.6,0.9-1.3,1.7-2.3,2.1c-1,0.5-2.1,0.7-3.4,0.7c-0.7,0-1.4-0.1-2.1-0.4c-0.6-0.2-1.2-0.6-1.6-1v6.8h-3.8V13.7h3.3l0.3,1.4
			c0.6-0.5,1.2-0.9,2-1.2C102.8,13.6,103.7,13.4,104.7,13.4 M103.2,23.2c0.6,0,1.2-0.1,1.7-0.4c0.5-0.3,0.9-0.7,1.2-1.2
			c0.3-0.5,0.5-1.1,0.5-1.7c0-0.7-0.1-1.3-0.4-1.8c-0.3-0.5-0.7-0.9-1.1-1.2c-0.5-0.3-1-0.4-1.6-0.4c-0.5,0-0.9,0.1-1.3,0.2
			c-0.4,0.1-0.7,0.3-1,0.6c-0.3,0.3-0.6,0.6-0.8,1v2.9c0.1,0.4,0.4,0.7,0.6,1c0.3,0.3,0.6,0.5,1,0.7
			C102.3,23.1,102.7,23.2,103.2,23.2 M104.7,10.9c-1.3,0-2.5,0.2-3.6,0.7c-0.4-0.2-0.8-0.4-1.3-0.4h-3.3c-1.4,0-2.5,1.1-2.5,2.5
			v17.8c0,1.4,1.1,2.5,2.5,2.5h3.8c1.4,0,2.5-1.1,2.5-2.5v-3c0.4,0.1,0.8,0.1,1.2,0.1c1.6,0,3.1-0.3,4.5-1c1.4-0.7,2.5-1.8,3.3-3.1
			c0.8-1.3,1.2-2.9,1.2-4.7c0-1.8-0.3-3.3-1-4.6c-0.7-1.4-1.7-2.5-3-3.2C107.7,11.3,106.2,10.9,104.7,10.9L104.7,10.9z M102.9,19.2
			c0.1,0,0.3-0.1,0.5-0.1c0.1,0,0.2,0,0.3,0.1c0,0,0,0,0.1,0c0,0,0.1,0.1,0.2,0.2c0.1,0.1,0.1,0.3,0.1,0.5c0,0.2,0,0.3-0.1,0.4
			c-0.1,0.2-0.2,0.2-0.3,0.3c-0.2,0.1-0.3,0.1-0.5,0.1c-0.1,0-0.2,0-0.3-0.1c0,0,0,0,0,0v-1.4C102.8,19.2,102.9,19.2,102.9,19.2
			L102.9,19.2z"/>
	</g>
	<g>
		<path class="st4" d="M122.2,27.1c-0.7,0-1.2-0.6-1.2-1.2V14c0-0.7,0.6-1.2,1.2-1.2h0.9c-0.4-0.1-0.7-0.3-1.1-0.6
			c-0.7-0.6-1.1-1.4-1.1-2.3c0-0.9,0.4-1.8,1.1-2.4c0.7-0.5,1.4-0.8,2.2-0.8c0.8,0,1.5,0.3,2.2,0.8c0.7,0.6,1.1,1.4,1.1,2.3
			c0,0.9-0.4,1.7-1.1,2.3c-0.3,0.3-0.7,0.5-1.1,0.6h0.7c0.7,0,1.2,0.6,1.2,1.2v11.9c0,0.7-0.6,1.2-1.2,1.2H122.2z"/>
		<path class="st3" d="M124.3,7.9c0.5,0,1,0.2,1.4,0.5c0.4,0.4,0.6,0.8,0.6,1.4c0,0.6-0.2,1-0.6,1.4c-0.4,0.4-0.9,0.5-1.4,0.5
			c-0.5,0-1-0.2-1.4-0.5c-0.4-0.4-0.7-0.8-0.7-1.4c0-0.6,0.2-1,0.7-1.4C123.3,8,123.7,7.9,124.3,7.9 M126,14v11.9h-3.8V14H126
			 M124.3,5.4c-1.1,0-2.1,0.4-3,1.1c-1,0.8-1.6,2-1.6,3.3c0,0.9,0.3,1.8,0.8,2.5c-0.4,0.4-0.7,1.1-0.7,1.7v11.9
			c0,1.4,1.1,2.5,2.5,2.5h3.8c1.4,0,2.5-1.1,2.5-2.5V14c0-0.6-0.2-1.2-0.6-1.6c0.6-0.7,0.9-1.6,0.9-2.6c0-1.3-0.5-2.5-1.5-3.3
			C126.4,5.8,125.4,5.4,124.3,5.4L124.3,5.4z"/>
	</g>
	<g>
		<path class="st4" d="M138.4,27.1c-0.7,0-1.2-0.6-1.2-1.2v-7.5c0-0.1,0-0.3-0.1-0.5c0,0,0,0,0,0c0,0-0.1,0-0.4,0
			c-0.3,0-0.5,0.1-0.7,0.3c-0.3,0.2-0.5,0.6-0.7,1c-0.2,0.5-0.3,1.1-0.3,1.8v4.8c0,0.7-0.6,1.2-1.2,1.2H130c-0.7,0-1.2-0.6-1.2-1.2
			V14c0-0.7,0.6-1.2,1.2-1.2h3.4c0.4,0,0.8,0.2,1,0.5c0.1-0.1,0.2-0.1,0.3-0.2c0.9-0.6,2.1-0.9,3.4-0.9c1.4,0,2.6,0.4,3.6,1.3
			c1,0.9,1.6,2.1,1.6,3.5v8.9c0,0.7-0.6,1.2-1.2,1.2H138.4z"/>
		<path class="st3" d="M138.2,13.4c1.1,0,2.1,0.3,2.8,1c0.7,0.7,1.1,1.5,1.2,2.6v8.9h-3.8v-7.5c0-0.5-0.2-0.9-0.4-1.3
			c-0.3-0.3-0.7-0.5-1.3-0.5c-0.6,0-1.1,0.2-1.5,0.6c-0.4,0.4-0.8,0.9-1,1.5c-0.2,0.7-0.4,1.4-0.4,2.3v4.8H130V14h3.4l0.3,1.9
			c0.4-0.7,1-1.3,1.7-1.8C136.2,13.7,137.1,13.4,138.2,13.4 M138.2,10.9c-1.4,0-2.6,0.3-3.7,0.8c-0.3-0.2-0.7-0.3-1.1-0.3H130
			c-1.4,0-2.5,1.1-2.5,2.5v11.9c0,1.4,1.1,2.5,2.5,2.5h3.8c1,0,1.9-0.6,2.3-1.5c0.4,0.9,1.3,1.5,2.3,1.5h3.8c1.4,0,2.5-1.1,2.5-2.5
			V17c0,0,0,0,0-0.1c0-1.7-0.7-3.2-2-4.4C141.4,11.5,139.9,10.9,138.2,10.9L138.2,10.9z"/>
	</g>
	<g>
		<path class="st4" d="M147.2,27.1c-0.7,0-1.2-0.6-1.2-1.2v-7.3h-0.8c-0.7,0-1.2-0.6-1.2-1.2v-3.4c0-0.7,0.6-1.2,1.2-1.2h0.8V9.8
			c0-1.9,0.6-3.4,1.7-4.7c1.1-1.3,2.8-1.9,4.8-1.9c0.6,0,1.3,0.1,2,0.3c0.8,0.2,1.5,0.5,2.1,1c0.5,0.4,0.7,1.1,0.3,1.6l-1.6,2.7
			c-0.2,0.4-0.6,0.6-1,0.6c0,0-0.1,0-0.1,0c-0.4,0-0.8-0.2-1-0.5c-0.2-0.1-0.3-0.1-0.3-0.1c-0.3,0-0.4,0.1-0.4,0.2
			c0,0-0.2,0.2-0.2,0.9v2.8h2.3c0.7,0,1.2,0.6,1.2,1.2v3.4c0,0.7-0.6,1.2-1.2,1.2h-2.3v7.3c0,0.7-0.6,1.2-1.2,1.2H147.2z"/>
		<path class="st3" d="M152.4,4.5c0.5,0,1.1,0.1,1.7,0.2c0.6,0.2,1.2,0.4,1.6,0.7l-1.6,2.7c-0.2-0.2-0.4-0.4-0.6-0.5
			c-0.2-0.1-0.5-0.1-0.7-0.1c-0.5,0-1,0.2-1.3,0.5c-0.3,0.4-0.5,0.9-0.5,1.7v4h3.6v3.4H151v8.5h-3.8v-8.5h-2v-3.4h2V9.8
			c0-1.6,0.4-2.8,1.3-3.8C149.4,5,150.7,4.5,152.4,4.5 M152.4,2c-2.4,0-4.4,0.8-5.7,2.3c-1.3,1.5-2,3.3-2,5.5v1.7
			c-1.1,0.2-2,1.2-2,2.5v3.4c0,1.2,0.9,2.2,2,2.5v6.1c0,1.4,1.1,2.5,2.5,2.5h3.8c1.4,0,2.5-1.1,2.5-2.5v-6h1.1
			c1.4,0,2.5-1.1,2.5-2.5v-3.4c0-1.4-1.1-2.5-2.5-2.5h-1.1v-0.8c0.2,0.1,0.4,0.1,0.7,0.1c0.1,0,0.1,0,0.2,0c0.8-0.1,1.6-0.5,2-1.2
			l1.6-2.7c0.6-1.1,0.4-2.5-0.7-3.3c-0.7-0.5-1.6-0.9-2.5-1.2C153.9,2.1,153.2,2,152.4,2L152.4,2z"/>
	</g>
	<g>
		<path class="st4" d="M162.9,27.4c-1.5,0-2.8-0.3-4-0.9c-1.2-0.6-2.2-1.5-2.9-2.7c-0.7-1.2-1-2.5-1-4.1c0-1.4,0.3-2.7,1-3.9
			c0.7-1.2,1.7-2.1,2.9-2.7c1.2-0.6,2.6-1,4.1-1c1.6,0,3,0.3,4.1,1c1.2,0.7,2.1,1.6,2.8,2.8c0.6,1.1,1,2.4,1,3.9
			c0,1.4-0.3,2.7-1,3.9c-0.6,1.2-1.6,2.1-2.8,2.8C165.9,27.1,164.5,27.4,162.9,27.4z M162.8,17.8c-0.3,0-0.5,0.1-0.8,0.2
			c-0.3,0.2-0.5,0.4-0.6,0.7c-0.2,0.3-0.2,0.7-0.2,1.1c0,0.4,0.1,0.8,0.2,1.1c0.2,0.3,0.4,0.5,0.6,0.7c0.2,0.2,0.5,0.2,0.8,0.2
			c0.3,0,0.6-0.1,0.9-0.2c0.2-0.2,0.4-0.4,0.6-0.7c0.2-0.3,0.2-0.7,0.2-1.1c0-0.4-0.1-0.8-0.2-1.1c-0.1-0.3-0.3-0.5-0.6-0.7
			C163.5,17.8,163.2,17.8,162.8,17.8z"/>
		<path class="st3" d="M162.9,13.4c1.4,0,2.5,0.3,3.5,0.8c1,0.6,1.8,1.3,2.3,2.3c0.5,1,0.8,2,0.8,3.3c0,1.2-0.3,2.3-0.8,3.3
			c-0.5,1-1.3,1.7-2.3,2.3s-2.2,0.8-3.6,0.8c-1.3,0-2.5-0.3-3.5-0.8s-1.8-1.2-2.4-2.2c-0.6-1-0.9-2.1-0.9-3.4c0-1.2,0.3-2.3,0.9-3.3
			c0.6-1,1.4-1.7,2.4-2.3C160.4,13.7,161.6,13.4,162.9,13.4 M162.8,23.1c0.6,0,1.1-0.1,1.5-0.4c0.4-0.3,0.8-0.7,1-1.2
			c0.2-0.5,0.4-1.1,0.4-1.7c0-0.6-0.1-1.2-0.4-1.7c-0.2-0.5-0.6-0.9-1-1.2c-0.4-0.3-0.9-0.4-1.5-0.4c-0.5,0-1,0.1-1.5,0.4
			c-0.4,0.3-0.8,0.7-1,1.2c-0.3,0.5-0.4,1-0.4,1.7c0,0.6,0.1,1.2,0.4,1.7c0.3,0.5,0.6,0.9,1,1.2C161.8,22.9,162.3,23.1,162.8,23.1
			 M162.9,10.9c-1.7,0-3.3,0.4-4.7,1.1c-1.4,0.8-2.6,1.8-3.4,3.2c-0.8,1.3-1.2,2.9-1.2,4.5c0,1.8,0.4,3.4,1.2,4.7
			c0.8,1.4,2,2.4,3.4,3.1c1.4,0.7,2.9,1,4.6,1c1.8,0,3.4-0.4,4.8-1.2c1.4-0.8,2.5-1.9,3.3-3.3c0.7-1.3,1.1-2.8,1.1-4.5
			c0-1.6-0.4-3.1-1.1-4.5c-0.8-1.4-1.9-2.5-3.3-3.2C166.3,11.3,164.7,10.9,162.9,10.9L162.9,10.9z M162.8,20.6
			C162.8,20.6,162.8,20.6,162.8,20.6c-0.1,0-0.2-0.1-0.3-0.2c-0.1-0.1-0.1-0.3-0.1-0.5c0-0.2,0-0.4,0.1-0.5c0.1-0.1,0.1-0.2,0.2-0.2
			c0,0,0,0,0.1,0c0.1,0,0.2,0,0.2,0c0,0,0.1,0.1,0.1,0.2c0.1,0.1,0.1,0.3,0.1,0.6c0,0.2,0,0.4-0.1,0.6c-0.1,0.1-0.1,0.2-0.1,0.2
			C163,20.6,162.9,20.6,162.8,20.6L162.8,20.6z"/>
	</g>
	<g>
		<path class="st4" d="M172.6,27.1c-0.7,0-1.2-0.6-1.2-1.2V14c0-0.7,0.6-1.2,1.2-1.2h3.4c0.6,0,1.1,0.4,1.2,1
			c0.6-0.4,1.1-0.8,1.7-1.1c0.8-0.4,1.4-0.5,1.9-0.5c0.3,0,0.7,0.1,0.9,0.4c0.2,0.2,0.4,0.6,0.3,0.9l-0.2,3.8c0,0.3-0.2,0.7-0.4,0.9
			c-0.2,0.2-0.5,0.3-0.8,0.3c0,0-0.1,0-0.1,0c-0.1,0-0.3,0-0.4,0c-0.4,0-0.8,0.1-1.1,0.3c-0.5,0.3-0.8,0.6-1,1.1
			c-0.3,0.5-0.4,1-0.4,1.4v4.6c0,0.7-0.6,1.2-1.2,1.2H172.6z"/>
		<path class="st3" d="M180.8,13.4l-0.2,3.8c-0.2,0-0.4,0-0.5,0c-0.7,0-1.2,0.2-1.7,0.5c-0.6,0.4-1.1,0.9-1.5,1.6
			c-0.3,0.6-0.5,1.3-0.5,2v4.6h-3.8V14h3.4l0.3,2.7c0.4-0.7,0.8-1.3,1.4-1.8c0.6-0.5,1.2-0.9,1.8-1.2
			C180,13.5,180.5,13.4,180.8,13.4 M180.8,10.9c-0.7,0-1.5,0.2-2.4,0.6c-0.3,0.1-0.6,0.3-0.9,0.5c-0.4-0.3-0.9-0.5-1.5-0.5h-3.4
			c-1.4,0-2.5,1.1-2.5,2.5v11.9c0,1.4,1.1,2.5,2.5,2.5h3.8c1.4,0,2.5-1.1,2.5-2.5v-4.6c0-0.3,0.1-0.5,0.2-0.8
			c0.1-0.3,0.3-0.4,0.6-0.6c0,0,0.1-0.1,0.4-0.1c0.1,0,0.2,0,0.2,0c0.1,0,0.2,0,0.3,0c0.6,0,1.2-0.2,1.6-0.6
			c0.5-0.4,0.8-1.1,0.9-1.8l0.2-3.8c0-0.7-0.2-1.4-0.7-1.8C182.1,11.2,181.5,10.9,180.8,10.9L180.8,10.9z M180.8,15.9L180.8,15.9
			L180.8,15.9L180.8,15.9z"/>
	</g>
	<g>
		<path class="st4" d="M195.3,15.7c0,0-0.1,0.1-0.1,0.1l0.1,0C195.4,15.8,195.4,15.8,195.3,15.7z"/>
		<path class="st3" d="M195.3,15.7c0,0,0,0.1,0,0.1l-0.1,0C195.3,15.8,195.3,15.8,195.3,15.7 M195.3,13.2c-0.8,0-1.5,0.4-2,1
			l-0.1,0.1l0,0.1c-0.6,0.8-0.7,2-0.1,2.9c0.5,0.7,1.3,1.1,2.1,1.1c0.2,0,0.4,0,0.6-0.1l0.1,0c0.7-0.2,1.3-0.6,1.6-1.2
			c0.3-0.6,0.4-1.2,0.2-1.8c-0.1-0.3-0.2-0.6-0.4-0.8C197,13.7,196.2,13.3,195.3,13.2C195.4,13.2,195.4,13.2,195.3,13.2L195.3,13.2z
			"/>
	</g>
	<g>
		<path class="st4" d="M199.4,27.1c-0.7,0-1.2-0.6-1.2-1.2v-7.3c0-0.3,0-0.5-0.1-0.6c0,0,0,0,0,0c-0.2,0-0.4,0.1-0.6,0.3
			c-0.3,0.3-0.5,0.6-0.6,1.1c-0.2,0.5-0.2,1.1-0.2,1.7v4.9c0,0.7-0.6,1.2-1.2,1.2h-3.8c-0.7,0-1.2-0.6-1.2-1.2v-7.3
			c0-0.3-0.1-0.5-0.1-0.6c0,0,0,0-0.1,0c-0.2,0-0.4,0.1-0.5,0.3c-0.3,0.3-0.5,0.7-0.6,1.1c-0.2,0.5-0.2,1.1-0.2,1.6v4.9
			c0,0.7-0.6,1.2-1.2,1.2h-3.8c-0.7,0-1.2-0.6-1.2-1.2V14c0-0.7,0.6-1.2,1.2-1.2h3.4c0.4,0,0.8,0.2,1,0.5c0.1-0.1,0.2-0.2,0.3-0.2
			c0.9-0.6,2-0.9,3.2-0.9c0.8,0,1.5,0.1,2.1,0.3c0.7,0.2,1.2,0.6,1.7,1.1c0,0,0,0,0,0c0.3-0.2,0.5-0.4,0.8-0.6
			c0.9-0.6,1.9-0.9,2.9-0.9c1.5,0,2.7,0.4,3.7,1.3c0.9,0.9,1.4,2.1,1.5,3.5v8.9c0,0.7-0.6,1.2-1.2,1.2H199.4z"/>
		<path class="st3" d="M199.3,13.4c1.2,0,2.1,0.3,2.8,1c0.7,0.7,1.1,1.5,1.1,2.6v8.9h-3.8v-7.3c0-0.5-0.1-0.9-0.2-1.3
			c-0.1-0.3-0.5-0.5-1-0.6c-0.6,0-1.1,0.2-1.6,0.6c-0.4,0.4-0.7,1-0.9,1.6c-0.2,0.7-0.3,1.3-0.3,2v4.9h-3.8v-7.3
			c0-0.5-0.1-0.9-0.3-1.3c-0.2-0.3-0.5-0.5-1.1-0.6c-0.6,0-1.1,0.2-1.5,0.6c-0.4,0.4-0.7,1-0.9,1.6c-0.2,0.6-0.3,1.3-0.3,2v4.9h-3.8
			V14h3.4l0.3,1.9c0.5-0.8,1.1-1.4,1.7-1.8c0.7-0.4,1.6-0.7,2.6-0.7c0.6,0,1.2,0.1,1.7,0.3c0.5,0.2,0.9,0.5,1.3,0.8
			c0.3,0.3,0.5,0.8,0.7,1.3c0,0-0.1,0.1-0.1,0.1l0.1,0c0,0,0-0.1,0-0.1c0.5-0.7,1.1-1.2,1.7-1.7C197.8,13.6,198.5,13.4,199.3,13.4
			 M199.3,10.9c-1.3,0-2.5,0.4-3.6,1.1c0,0-0.1,0-0.1,0.1c-0.4-0.3-0.9-0.5-1.4-0.7c-0.8-0.3-1.6-0.4-2.6-0.4
			c-1.3,0-2.5,0.3-3.5,0.8c-0.3-0.1-0.7-0.2-1.1-0.2h-3.4c-1.4,0-2.5,1.1-2.5,2.5v11.9c0,1.4,1.1,2.5,2.5,2.5h3.8c0.8,0,1.6-0.4,2-1
			c0.5,0.6,1.2,1,2,1h3.8c0.8,0,1.6-0.4,2-1c0.5,0.6,1.2,1,2,1h3.8c1.4,0,2.5-1.1,2.5-2.5V17c0-1.7-0.7-3.3-1.8-4.4
			C202.7,11.5,201.1,10.9,199.3,10.9L199.3,10.9z"/>
	</g>
	<g>
		<path class="st4" d="M212.1,27.4c-1.3,0-2.5-0.3-3.6-0.8c-1.1-0.6-2-1.4-2.7-2.6c-0.6-1.1-1-2.5-1-4.1c0-1.5,0.3-2.9,1-4.1
			c0.7-1.2,1.5-2.1,2.6-2.7c1.1-0.7,2.2-1,3.5-1c1.4,0,2.5,0.3,3.3,0.8c0.1,0,0.1,0.1,0.2,0.1c0.2-0.2,0.5-0.3,0.8-0.3h3.5
			c0.7,0,1.2,0.6,1.2,1.2v11.9c0,0.7-0.6,1.2-1.2,1.2H216c-0.4,0-0.7-0.2-0.9-0.4c-0.2,0.1-0.5,0.2-0.7,0.3
			C213.7,27.3,212.9,27.4,212.1,27.4z M213,17.7c-0.3,0-0.6,0.1-0.9,0.2c-0.3,0.2-0.5,0.4-0.7,0.7c-0.2,0.3-0.2,0.7-0.2,1.1
			c0,0.4,0.1,0.8,0.3,1.1c0.2,0.3,0.4,0.6,0.7,0.8c0.3,0.2,0.6,0.2,0.9,0.2c0.3,0,0.6,0,0.8-0.1c0.2-0.1,0.4-0.2,0.5-0.3
			c0.1-0.1,0.2-0.3,0.3-0.4v-2.3c-0.1-0.1-0.2-0.3-0.3-0.4c-0.2-0.2-0.4-0.3-0.6-0.4C213.7,17.8,213.4,17.7,213,17.7z"/>
		<path class="st3" d="M212,13.4c1.2,0,2.1,0.2,2.7,0.6c0.6,0.4,1.1,0.8,1.4,1.2l0.2-1.2h3.5v11.9H216v-1.5c0,0,0,0,0,0
			c-0.2,0.2-0.5,0.5-0.8,0.7c-0.4,0.3-0.8,0.5-1.3,0.7c-0.5,0.2-1.1,0.3-1.8,0.3c-1.1,0-2.1-0.2-3-0.7c-0.9-0.4-1.6-1.1-2.1-2
			c-0.5-0.9-0.8-2.1-0.8-3.5c0-1.3,0.3-2.5,0.8-3.5c0.5-1,1.3-1.7,2.1-2.3C210,13.7,211,13.4,212,13.4 M213.2,23.1
			c0.5,0,0.8-0.1,1.2-0.2c0.4-0.1,0.7-0.3,0.9-0.6c0.3-0.3,0.5-0.6,0.7-1v-2.9c-0.1-0.4-0.4-0.7-0.7-1c-0.3-0.3-0.6-0.5-1-0.7
			c-0.4-0.1-0.8-0.2-1.3-0.2c-0.5,0-1.1,0.1-1.5,0.4c-0.5,0.3-0.8,0.7-1.1,1.2s-0.4,1.1-0.4,1.7c0,0.6,0.1,1.2,0.4,1.7
			c0.3,0.5,0.7,0.9,1.2,1.2C212.1,22.9,212.6,23.1,213.2,23.1 M212,10.9c-1.5,0-2.8,0.4-4.1,1.2c-1.3,0.8-2.3,1.8-3,3.2
			c-0.8,1.4-1.1,2.9-1.1,4.7c0,1.8,0.4,3.4,1.1,4.8c0.8,1.4,1.9,2.4,3.2,3.1c1.3,0.6,2.6,0.9,4.1,0.9c1,0,1.9-0.2,2.7-0.5
			c0.1,0,0.1,0,0.2-0.1c0.3,0.1,0.7,0.2,1,0.2h3.8c1.4,0,2.5-1.1,2.5-2.5V14c0-1.4-1.1-2.5-2.5-2.5h-3.5c-0.3,0-0.5,0-0.8,0.1
			C214.6,11.1,213.4,10.9,212,10.9L212,10.9z M213.2,20.6c-0.1,0-0.2,0-0.3-0.1c-0.1-0.1-0.2-0.1-0.2-0.3c-0.1-0.1-0.1-0.3-0.1-0.5
			c0-0.1,0-0.3,0.1-0.5c0.1-0.1,0.1-0.2,0.2-0.3c0,0,0.1,0,0.2,0c0.2,0,0.3,0,0.4,0.1c0,0,0.1,0,0.1,0v1.4c0,0,0,0,0,0
			C213.5,20.6,213.4,20.6,213.2,20.6L213.2,20.6z"/>
	</g>
	<g>
		<path class="st4" d="M224.9,27.1c-0.7,0-1.2-0.6-1.2-1.2v-7.7H223c-0.7,0-1.2-0.6-1.2-1.2v-3c0-0.7,0.6-1.2,1.2-1.2h0.6V8.8
			c0-0.7,0.6-1.3,1.2-1.3h3.8c0.7,0,1.2,0.6,1.2,1.3v3.9h1.6c0.7,0,1.2,0.6,1.2,1.2v3c0,0.7-0.6,1.2-1.2,1.2h-1.6v7.7
			c0,0.7-0.6,1.2-1.2,1.2H224.9z"/>
		<path class="st3" d="M228.7,8.8v5.2h2.9v3h-2.9v9h-3.8v-9H223v-3h1.8V8.8H228.7 M228.7,6.3h-3.8c-1.4,0-2.5,1.1-2.5,2.5v2.7
			c-1.1,0.3-1.8,1.3-1.8,2.4v3c0,1.2,0.8,2.1,1.8,2.4v6.5c0,1.4,1.1,2.5,2.5,2.5h3.8c1.4,0,2.5-1.1,2.5-2.5v-6.5h0.4
			c1.4,0,2.5-1.1,2.5-2.5v-3c0-1.4-1.1-2.5-2.5-2.5h-0.4V8.8C231.2,7.4,230,6.3,228.7,6.3L228.7,6.3z"/>
	</g>
	<g>
		<path class="st4" d="M234.4,27.1c-0.7,0-1.2-0.6-1.2-1.2V14c0-0.7,0.6-1.2,1.2-1.2h0.9c-0.4-0.1-0.7-0.3-1.1-0.6
			c-0.7-0.6-1.1-1.4-1.1-2.3c0-0.9,0.4-1.8,1.1-2.4c0.7-0.5,1.4-0.8,2.2-0.8c0.8,0,1.6,0.3,2.2,0.8c0.7,0.6,1.1,1.4,1.1,2.3
			c0,0.9-0.4,1.7-1.1,2.3c-0.3,0.3-0.7,0.5-1.1,0.6h0.7c0.7,0,1.2,0.6,1.2,1.2v11.9c0,0.7-0.6,1.2-1.2,1.2H234.4z"/>
		<path class="st3" d="M236.4,7.9c0.5,0,1,0.2,1.4,0.5c0.4,0.4,0.6,0.8,0.6,1.4c0,0.6-0.2,1-0.6,1.4c-0.4,0.4-0.9,0.5-1.4,0.5
			s-1-0.2-1.4-0.5c-0.4-0.4-0.7-0.8-0.7-1.4c0-0.6,0.2-1,0.7-1.4C235.5,8,235.9,7.9,236.4,7.9 M238.2,14v11.9h-3.8V14H238.2
			 M236.4,5.4c-1.1,0-2.1,0.4-3,1.1c-1,0.8-1.6,2-1.6,3.3c0,0.9,0.3,1.8,0.8,2.5c-0.4,0.4-0.7,1.1-0.7,1.7v11.9
			c0,1.4,1.1,2.5,2.5,2.5h3.8c1.4,0,2.5-1.1,2.5-2.5V14c0-0.6-0.2-1.2-0.6-1.6c0.6-0.7,0.8-1.6,0.8-2.6c0-1.3-0.5-2.5-1.5-3.3
			C238.6,5.8,237.5,5.4,236.4,5.4L236.4,5.4z"/>
	</g>
	<g>
		<path class="st4" d="M248,27.4c-1.5,0-2.8-0.3-4-0.9c-1.2-0.6-2.2-1.5-2.9-2.7c-0.7-1.2-1-2.5-1-4.1c0-1.4,0.3-2.7,1-3.9
			c0.7-1.2,1.7-2.1,2.9-2.7c1.2-0.6,2.6-1,4.1-1c1.6,0,3,0.3,4.1,1c1.2,0.7,2.1,1.6,2.8,2.8c0.6,1.1,1,2.4,1,3.9
			c0,1.4-0.3,2.7-1,3.9c-0.6,1.2-1.6,2.1-2.8,2.8C251,27.1,249.6,27.4,248,27.4z M247.9,17.8c-0.3,0-0.5,0.1-0.8,0.2
			c-0.3,0.2-0.5,0.4-0.6,0.7c-0.2,0.3-0.2,0.7-0.2,1.1c0,0.4,0.1,0.8,0.2,1.1c0.2,0.3,0.4,0.5,0.6,0.7c0.2,0.2,0.5,0.2,0.8,0.2
			c0.3,0,0.6-0.1,0.9-0.2c0.2-0.2,0.4-0.4,0.6-0.7c0.2-0.3,0.2-0.7,0.2-1.1c0-0.4-0.1-0.8-0.2-1.1c-0.1-0.3-0.3-0.5-0.6-0.7
			C248.6,17.8,248.3,17.8,247.9,17.8z"/>
		<path class="st3" d="M248,13.4c1.4,0,2.5,0.3,3.5,0.8c1,0.6,1.8,1.3,2.3,2.3c0.5,1,0.8,2,0.8,3.3c0,1.2-0.3,2.3-0.8,3.3
			c-0.5,1-1.3,1.7-2.3,2.3s-2.2,0.8-3.6,0.8c-1.3,0-2.5-0.3-3.5-0.8s-1.8-1.2-2.4-2.2c-0.6-1-0.9-2.1-0.9-3.4c0-1.2,0.3-2.3,0.9-3.3
			c0.6-1,1.4-1.7,2.4-2.3C245.5,13.7,246.7,13.4,248,13.4 M247.9,23.1c0.6,0,1.1-0.1,1.5-0.4c0.4-0.3,0.8-0.7,1-1.2
			c0.2-0.5,0.4-1.1,0.4-1.7c0-0.6-0.1-1.2-0.4-1.7c-0.2-0.5-0.6-0.9-1-1.2c-0.4-0.3-0.9-0.4-1.5-0.4c-0.5,0-1,0.1-1.5,0.4
			c-0.4,0.3-0.8,0.7-1,1.2c-0.3,0.5-0.4,1-0.4,1.7c0,0.6,0.1,1.2,0.4,1.7c0.3,0.5,0.6,0.9,1,1.2C246.9,22.9,247.4,23.1,247.9,23.1
			 M248,10.9c-1.7,0-3.3,0.4-4.7,1.1c-1.4,0.8-2.6,1.8-3.4,3.2c-0.8,1.3-1.2,2.9-1.2,4.5c0,1.8,0.4,3.4,1.2,4.7
			c0.8,1.4,2,2.4,3.4,3.1c1.4,0.7,2.9,1,4.6,1c1.8,0,3.4-0.4,4.8-1.2c1.4-0.8,2.5-1.9,3.3-3.3c0.7-1.3,1.1-2.8,1.1-4.5
			c0-1.6-0.4-3.1-1.1-4.5c-0.8-1.4-1.9-2.5-3.3-3.2C251.4,11.3,249.8,10.9,248,10.9L248,10.9z M247.9,20.6
			C247.9,20.6,247.9,20.6,247.9,20.6c-0.1,0-0.2-0.1-0.3-0.2c-0.1-0.1-0.1-0.3-0.1-0.5c0-0.2,0-0.4,0.1-0.5c0.1-0.1,0.1-0.2,0.2-0.2
			c0,0,0,0,0.1,0c0.1,0,0.2,0,0.2,0c0,0,0.1,0.1,0.1,0.2c0.1,0.1,0.1,0.3,0.1,0.6c0,0.2,0,0.4-0.1,0.6c-0.1,0.1-0.1,0.2-0.1,0.2
			C248.1,20.6,248,20.6,247.9,20.6L247.9,20.6z"/>
	</g>
	<g>
		<path class="st4" d="M266,27.1c-0.7,0-1.2-0.6-1.2-1.2v-7.5c0-0.2,0-0.4-0.1-0.5c0,0,0,0,0,0c0,0-0.1,0-0.3,0
			c-0.3,0-0.5,0.1-0.7,0.3c-0.3,0.2-0.5,0.6-0.7,1c-0.2,0.5-0.3,1.1-0.3,1.8v4.8c0,0.7-0.6,1.2-1.2,1.2h-3.8c-0.7,0-1.2-0.6-1.2-1.2
			V14c0-0.7,0.6-1.2,1.2-1.2h3.4c0.4,0,0.8,0.2,1,0.5c0.1-0.1,0.2-0.1,0.3-0.2c0.9-0.6,2.1-0.9,3.4-0.9c1.4,0,2.7,0.4,3.6,1.3
			c1,0.9,1.6,2.1,1.6,3.5v8.9c0,0.7-0.6,1.2-1.2,1.2H266z"/>
		<path class="st3" d="M265.9,13.4c1.1,0,2.1,0.3,2.8,1c0.8,0.7,1.1,1.5,1.2,2.6v8.9H266v-7.5c0-0.5-0.2-0.9-0.4-1.3
			c-0.3-0.3-0.7-0.5-1.3-0.5c-0.6,0-1.1,0.2-1.5,0.6c-0.4,0.4-0.8,0.9-1,1.5c-0.2,0.7-0.4,1.4-0.4,2.3v4.8h-3.8V14h3.4l0.3,1.9
			c0.4-0.7,1-1.3,1.8-1.8C263.9,13.7,264.8,13.4,265.9,13.4 M265.9,10.9c-1.4,0-2.6,0.3-3.7,0.8c-0.3-0.2-0.7-0.3-1.1-0.3h-3.4
			c-1.4,0-2.5,1.1-2.5,2.5v11.9c0,1.4,1.1,2.5,2.5,2.5h3.8c1,0,1.9-0.6,2.3-1.5c0.4,0.9,1.3,1.5,2.3,1.5h3.8c1.4,0,2.5-1.1,2.5-2.5
			V17c0-1.8-0.7-3.3-2-4.4C269.2,11.5,267.6,10.9,265.9,10.9L265.9,10.9z"/>
	</g>
</g>
<g class="st0">
	<g class="st1">
		<path class="st4" d="M35.5,27.8c-0.5,0-1-0.3-1.2-0.8l-1.2-3.1h-4.9l-1.3,3.1c-0.2,0.5-0.6,0.8-1.2,0.8h-3.9c-0.4,0-0.8-0.2-1-0.6
			s-0.3-0.8-0.1-1.2l9-20.8c0.2-0.5,0.6-0.8,1.1-0.8h0.2c0.5,0,0.9,0.3,1.1,0.8l9,20.8c0.2,0.4,0.1,0.8-0.1,1.2s-0.6,0.6-1,0.6H35.5
			z M30.8,18.1l-0.1-0.3l-0.1,0.3H30.8z"/>
		<path class="st3" d="M31.1,5.8l9,20.8h-4.6L34,22.7h-6.6l-1.6,3.9h-3.9l9-20.8H31.1 M28.7,19.4h3.9l-1.9-4.9L28.7,19.4 M31.1,3.3
			h-0.2c-1,0-1.9,0.6-2.3,1.5l-9,20.8c-0.3,0.8-0.3,1.7,0.2,2.4c0.5,0.7,1.2,1.1,2.1,1.1h3.9c1,0,1.9-0.6,2.3-1.5l1-2.4h3.3l0.9,2.3
			c0.4,1,1.3,1.6,2.3,1.6h4.6c0.8,0,1.6-0.4,2.1-1.1c0.5-0.7,0.5-1.6,0.2-2.4l-9-20.8C33,3.9,32.1,3.3,31.1,3.3L31.1,3.3z"/>
	</g>
	<g class="st1">
		<path class="st4" d="M42.4,27.8c-0.7,0-1.2-0.6-1.2-1.2V5.2c0-0.7,0.6-1.2,1.2-1.2h3.8c0.7,0,1.2,0.6,1.2,1.2v21.4
			c0,0.7-0.6,1.2-1.2,1.2H42.4z"/>
		<path class="st3" d="M46.2,5.2v21.4h-3.8V5.2H46.2 M46.2,2.7h-3.8c-1.4,0-2.5,1.1-2.5,2.5v21.4c0,1.4,1.1,2.5,2.5,2.5h3.8
			c1.4,0,2.5-1.1,2.5-2.5V5.2C48.7,3.8,47.5,2.7,46.2,2.7L46.2,2.7z"/>
	</g>
	<g class="st1">
		<path class="st4" d="M55.9,28.2c-1.5,0-2.9-0.3-4.1-0.9c-1.2-0.6-2.2-1.5-2.9-2.6c-0.7-1.1-1-2.5-1-4c0-1.6,0.4-2.9,1.1-4.1
			c0.7-1.1,1.7-2,2.8-2.6c1.1-0.6,2.4-0.9,3.6-0.9c1.2,0,2.3,0.2,3.2,0.5c0.9,0.3,1.7,0.8,2.4,1.4c0.5,0.4,0.6,1.2,0.2,1.7l-1.8,2.4
			c-0.2,0.3-0.5,0.4-0.8,0.5c-0.1,0-0.1,0-0.2,0c-0.3,0-0.5-0.1-0.8-0.3c-0.1-0.1-0.4-0.3-0.8-0.5c-0.3-0.1-0.6-0.2-1-0.2
			c-0.3,0-0.5,0.1-0.8,0.2c-0.2,0.2-0.4,0.4-0.6,0.6c-0.2,0.3-0.2,0.6-0.2,1c0,0.4,0.1,0.7,0.2,1c0.2,0.3,0.4,0.5,0.7,0.7
			c0.3,0.2,0.6,0.2,1.1,0.2c0.3,0,0.5,0,0.8-0.1c0.2-0.1,0.4-0.2,0.5-0.3c0.2-0.2,0.5-0.3,0.8-0.3c0,0,0.1,0,0.1,0
			c0.3,0,0.6,0.2,0.9,0.5l1.9,2.4c0.2,0.3,0.3,0.6,0.3,0.9c0,0.3-0.2,0.6-0.5,0.8c-0.6,0.5-1.4,0.9-2.4,1.2
			C57.6,28,56.7,28.2,55.9,28.2z"/>
		<path class="st3" d="M55.4,14.4c1.1,0,2,0.1,2.8,0.4c0.8,0.3,1.5,0.7,2,1.1l-1.8,2.4c-0.3-0.2-0.6-0.4-1-0.6
			c-0.4-0.2-1-0.3-1.6-0.3c-0.5,0-1,0.1-1.4,0.4c-0.4,0.3-0.8,0.6-1,1.1s-0.4,1-0.4,1.6c0,0.6,0.1,1.1,0.4,1.6
			c0.3,0.5,0.6,0.9,1.1,1.2s1,0.4,1.7,0.4c0.4,0,0.8-0.1,1.2-0.2c0.4-0.1,0.7-0.3,0.9-0.5l1.9,2.4c-0.5,0.4-1.2,0.8-2,1
			c-0.8,0.3-1.6,0.4-2.3,0.4c-1.4,0-2.5-0.2-3.5-0.7c-1-0.5-1.8-1.2-2.3-2.1c-0.6-0.9-0.8-2.1-0.8-3.4s0.3-2.4,0.9-3.4
			c0.6-0.9,1.4-1.6,2.3-2.1C53.4,14.6,54.4,14.4,55.4,14.4 M55.4,11.9c-1.5,0-2.9,0.3-4.2,1c-1.4,0.7-2.5,1.7-3.3,3
			c-0.9,1.3-1.3,2.9-1.3,4.7c0,1.8,0.4,3.3,1.2,4.7c0.8,1.3,1.9,2.4,3.4,3.1c1.3,0.7,2.9,1,4.7,1c1,0,2.1-0.2,3.1-0.5
			c1.1-0.3,2-0.8,2.8-1.4c0.5-0.4,0.9-1,0.9-1.7c0.1-0.7-0.1-1.3-0.5-1.8l-1.9-2.4c-0.3-0.4-0.6-0.6-1.1-0.8
			c0.5-0.2,0.9-0.5,1.3-0.9l1.8-2.4c0.8-1.1,0.6-2.6-0.4-3.4c-0.8-0.7-1.7-1.2-2.8-1.6C58,12.1,56.8,11.9,55.4,11.9L55.4,11.9z
			 M56.2,21.3c-0.2,0-0.3,0-0.4-0.1c-0.1-0.1-0.2-0.1-0.2-0.2c-0.1-0.1-0.1-0.2-0.1-0.4c0-0.1,0-0.3,0.1-0.4
			c0.1-0.1,0.1-0.2,0.2-0.2c0,0,0,0,0.1,0c0.3,0,0.5,0.1,0.5,0.1c0.4,0.2,0.5,0.3,0.6,0.3c0.2,0.2,0.4,0.3,0.6,0.4
			c-0.3,0.1-0.6,0.3-0.9,0.5c0,0,0,0,0,0c0,0,0,0-0.1,0C56.4,21.3,56.3,21.3,56.2,21.3L56.2,21.3z"/>
	</g>
	<g class="st1">
		<path class="st4" d="M68.9,28.2c-1.5,0-2.9-0.3-4-0.9c-1.2-0.6-2.2-1.5-2.9-2.7c-0.7-1.2-1-2.5-1-4.1c0-1.4,0.3-2.7,1-3.9
			c0.7-1.2,1.7-2.1,2.9-2.7c1.2-0.6,2.6-1,4.1-1c1.6,0,3,0.3,4.1,1c1.2,0.7,2.1,1.6,2.8,2.7c0.6,1.1,1,2.4,1,3.9
			c0,1.4-0.3,2.7-1,3.9c-0.6,1.2-1.6,2.1-2.8,2.8C71.9,27.8,70.5,28.2,68.9,28.2z M68.8,18.5c-0.3,0-0.5,0.1-0.8,0.2
			c-0.3,0.2-0.5,0.4-0.6,0.7c-0.2,0.3-0.2,0.7-0.2,1.1c0,0.4,0.1,0.8,0.2,1.1c0.2,0.3,0.4,0.5,0.6,0.7c0.2,0.2,0.5,0.2,0.8,0.2
			c0.3,0,0.6-0.1,0.9-0.2c0.2-0.2,0.4-0.4,0.6-0.7c0.2-0.3,0.2-0.7,0.2-1.1c0-0.4-0.1-0.8-0.2-1.1c-0.1-0.3-0.3-0.5-0.6-0.7
			C69.5,18.6,69.2,18.5,68.8,18.5z"/>
		<path class="st3" d="M69,14.2c1.4,0,2.5,0.3,3.5,0.8c1,0.6,1.8,1.3,2.3,2.3c0.5,1,0.8,2,0.8,3.3c0,1.2-0.3,2.3-0.8,3.3
			c-0.5,1-1.3,1.7-2.3,2.3c-1,0.6-2.2,0.8-3.6,0.8c-1.3,0-2.5-0.3-3.5-0.8c-1-0.5-1.8-1.2-2.4-2.2c-0.6-1-0.9-2.1-0.9-3.4
			c0-1.2,0.3-2.3,0.9-3.3c0.6-1,1.4-1.7,2.4-2.3C66.4,14.4,67.6,14.2,69,14.2 M68.8,23.8c0.6,0,1.1-0.1,1.5-0.4
			c0.4-0.3,0.8-0.7,1-1.2c0.2-0.5,0.4-1.1,0.4-1.7c0-0.6-0.1-1.2-0.4-1.7c-0.2-0.5-0.6-0.9-1-1.2c-0.4-0.3-0.9-0.4-1.5-0.4
			c-0.5,0-1,0.1-1.5,0.4c-0.4,0.3-0.8,0.7-1,1.2c-0.3,0.5-0.4,1-0.4,1.7c0,0.6,0.1,1.2,0.4,1.7c0.3,0.5,0.6,0.9,1,1.2
			C67.8,23.7,68.3,23.8,68.8,23.8 M69,11.7c-1.7,0-3.3,0.4-4.7,1.1c-1.4,0.8-2.6,1.8-3.4,3.2c-0.8,1.3-1.2,2.9-1.2,4.5
			c0,1.8,0.4,3.4,1.2,4.7c0.8,1.4,2,2.4,3.4,3.1c1.4,0.7,2.9,1,4.6,1c1.8,0,3.4-0.4,4.8-1.2c1.4-0.8,2.5-1.9,3.3-3.3
			c0.7-1.3,1.1-2.8,1.1-4.5c0-1.6-0.4-3.1-1.1-4.5c-0.8-1.4-1.9-2.5-3.3-3.2C72.3,12,70.7,11.7,69,11.7L69,11.7z M68.8,21.3
			C68.8,21.3,68.8,21.3,68.8,21.3c-0.1,0-0.2-0.1-0.3-0.2c-0.1-0.1-0.1-0.3-0.1-0.5c0-0.2,0-0.4,0.1-0.5c0.1-0.1,0.1-0.2,0.2-0.2
			c0,0,0,0,0.1,0c0.1,0,0.2,0,0.2,0c0,0,0.1,0.1,0.1,0.2c0.1,0.1,0.1,0.3,0.1,0.6c0,0.2,0,0.4-0.1,0.6c-0.1,0.1-0.1,0.1-0.1,0.2
			C69,21.3,68.9,21.3,68.8,21.3L68.8,21.3z"/>
	</g>
	<g class="st1">
		<path class="st4" d="M87,27.8c-0.7,0-1.2-0.6-1.2-1.2v-7.5c0-0.1,0-0.3-0.1-0.5l0,0c0,0-0.1,0-0.4,0c-0.3,0-0.5,0.1-0.7,0.3
			c-0.3,0.2-0.5,0.6-0.7,1c-0.2,0.5-0.3,1.1-0.3,1.8v4.8c0,0.7-0.6,1.2-1.2,1.2h-3.8c-0.7,0-1.2-0.6-1.2-1.2V5.2
			c0-0.7,0.6-1.2,1.2-1.2h3.7c0.7,0,1.2,0.6,1.2,1.2v8.5c0.9-0.5,2-0.8,3.3-0.8c1.4,0,2.6,0.4,3.6,1.3c1,0.9,1.6,2.1,1.6,3.5l0,8.9
			c0,0.7-0.6,1.2-1.2,1.2H87z"/>
		<path class="st3" d="M82.3,5.2v11.4c0.4-0.7,1-1.3,1.7-1.8c0.8-0.5,1.7-0.7,2.8-0.7c1.1,0,2.1,0.3,2.8,1c0.7,0.7,1.1,1.5,1.2,2.6
			v8.9H87v-7.5c0-0.5-0.2-0.9-0.4-1.3c-0.3-0.3-0.7-0.5-1.3-0.5c-0.6,0-1.1,0.2-1.5,0.6c-0.4,0.4-0.8,0.9-1,1.5
			c-0.2,0.7-0.4,1.4-0.4,2.3v4.8h-3.8V5.2H82.3 M82.3,2.7h-3.7c-1.4,0-2.5,1.1-2.5,2.5v21.4c0,1.4,1.1,2.5,2.5,2.5h3.8
			c1,0,1.9-0.6,2.3-1.5c0.4,0.9,1.3,1.5,2.3,1.5h3.8c1.4,0,2.5-1.1,2.5-2.5v-8.9c0,0,0,0,0-0.1c0-1.7-0.7-3.2-2-4.4
			c-1.3-1.1-2.7-1.6-4.5-1.6c-0.7,0-1.4,0.1-2,0.2V5.2C84.8,3.8,83.7,2.7,82.3,2.7L82.3,2.7z"/>
	</g>
	<g class="st1">
		<path class="st4" d="M100.5,28.2c-1.5,0-2.9-0.3-4-0.9c-1.2-0.6-2.2-1.5-2.9-2.7c-0.7-1.2-1-2.5-1-4.1c0-1.4,0.3-2.7,1-3.9
			c0.7-1.2,1.7-2.1,2.9-2.7c1.2-0.6,2.6-1,4.1-1c1.6,0,3,0.3,4.1,1c1.2,0.7,2.1,1.6,2.8,2.7c0.6,1.1,1,2.4,1,3.9
			c0,1.4-0.3,2.7-1,3.9c-0.6,1.2-1.6,2.1-2.8,2.8C103.5,27.8,102.1,28.2,100.5,28.2z M100.5,18.5c-0.3,0-0.5,0.1-0.8,0.2
			c-0.3,0.2-0.5,0.4-0.6,0.7c-0.2,0.3-0.2,0.7-0.2,1.1c0,0.4,0.1,0.8,0.2,1.1c0.2,0.3,0.4,0.5,0.6,0.7c0.2,0.2,0.5,0.2,0.8,0.2
			c0.3,0,0.6-0.1,0.9-0.2c0.2-0.2,0.4-0.4,0.6-0.7c0.2-0.3,0.2-0.7,0.2-1.1c0-0.4-0.1-0.8-0.2-1.1c-0.1-0.3-0.3-0.5-0.6-0.7
			C101.1,18.6,100.8,18.5,100.5,18.5z"/>
		<path class="st3" d="M100.6,14.2c1.4,0,2.5,0.3,3.5,0.8c1,0.6,1.8,1.3,2.3,2.3c0.5,1,0.8,2,0.8,3.3c0,1.2-0.3,2.3-0.8,3.3
			c-0.5,1-1.3,1.7-2.3,2.3c-1,0.6-2.2,0.8-3.6,0.8c-1.3,0-2.5-0.3-3.5-0.8c-1-0.5-1.8-1.2-2.4-2.2c-0.6-1-0.9-2.1-0.9-3.4
			c0-1.2,0.3-2.3,0.9-3.3c0.6-1,1.4-1.7,2.4-2.3C98,14.4,99.2,14.2,100.6,14.2 M100.5,23.8c0.6,0,1.1-0.1,1.5-0.4
			c0.4-0.3,0.8-0.7,1-1.2c0.2-0.5,0.4-1.1,0.4-1.7c0-0.6-0.1-1.2-0.4-1.7c-0.2-0.5-0.6-0.9-1-1.2c-0.4-0.3-0.9-0.4-1.5-0.4
			c-0.5,0-1,0.1-1.5,0.4c-0.4,0.3-0.8,0.7-1,1.2c-0.3,0.5-0.4,1-0.4,1.7c0,0.6,0.1,1.2,0.4,1.7c0.3,0.5,0.6,0.9,1,1.2
			C99.4,23.7,99.9,23.8,100.5,23.8 M100.6,11.7c-1.7,0-3.3,0.4-4.7,1.1c-1.4,0.8-2.6,1.8-3.4,3.2c-0.8,1.3-1.2,2.9-1.2,4.5
			c0,1.8,0.4,3.4,1.2,4.7c0.8,1.4,2,2.4,3.4,3.1c1.4,0.7,2.9,1,4.6,1c1.8,0,3.4-0.4,4.8-1.2c1.4-0.8,2.5-1.9,3.3-3.3
			c0.7-1.3,1.1-2.8,1.1-4.5c0-1.6-0.4-3.1-1.1-4.5c-0.8-1.4-1.9-2.5-3.3-3.2C103.9,12,102.3,11.7,100.6,11.7L100.6,11.7z
			 M100.5,21.3C100.4,21.3,100.4,21.3,100.5,21.3c-0.1,0-0.2-0.1-0.3-0.2c-0.1-0.1-0.1-0.3-0.1-0.5c0-0.2,0-0.4,0.1-0.5
			c0.1-0.1,0.1-0.2,0.2-0.2c0,0,0,0,0.1,0c0.1,0,0.2,0,0.2,0c0,0,0.1,0.1,0.1,0.2c0.1,0.1,0.1,0.3,0.1,0.6c0,0.2,0,0.4-0.1,0.6
			c-0.1,0.1-0.1,0.1-0.1,0.2C100.6,21.3,100.6,21.3,100.5,21.3L100.5,21.3z"/>
	</g>
	<g class="st1">
		<path class="st4" d="M110.2,27.8c-0.7,0-1.2-0.6-1.2-1.2V5.2c0-0.7,0.6-1.2,1.2-1.2h3.8c0.7,0,1.2,0.6,1.2,1.2v21.4
			c0,0.7-0.6,1.2-1.2,1.2H110.2z"/>
		<path class="st3" d="M114,5.2v21.4h-3.8V5.2H114 M114,2.7h-3.8c-1.4,0-2.5,1.1-2.5,2.5v21.4c0,1.4,1.1,2.5,2.5,2.5h3.8
			c1.4,0,2.5-1.1,2.5-2.5V5.2C116.5,3.8,115.4,2.7,114,2.7L114,2.7z"/>
	</g>
	<g class="st1">
		<path class="st4" d="M131.7,28.2c-1.3,0-2.5-0.3-3.5-0.8c-1.1-0.5-2-1.4-2.7-2.5c-0.6-1.1-0.9-2.5-0.9-4.1c0-1.5,0.3-2.9,1-4.1
			c0.7-1.2,1.5-2.1,2.6-2.7c1.1-0.7,2.2-1,3.5-1c1.4,0,2.5,0.3,3.3,0.8c0.1,0,0.1,0.1,0.2,0.1c0.2-0.2,0.5-0.3,0.8-0.3h3.5
			c0.7,0,1.2,0.6,1.2,1.2v11.9c0,0.7-0.6,1.2-1.2,1.2h-3.8c-0.4,0-0.7-0.2-0.9-0.4c-0.2,0.1-0.5,0.2-0.7,0.3
			C133.3,28,132.5,28.2,131.7,28.2z M132.6,18.5c-0.3,0-0.6,0.1-0.8,0.2c-0.3,0.2-0.5,0.4-0.7,0.7c-0.2,0.3-0.2,0.7-0.2,1.1
			c0,0.4,0.1,0.8,0.3,1.1c0.2,0.3,0.4,0.6,0.7,0.8c0.3,0.2,0.6,0.2,0.9,0.2c0.3,0,0.6,0,0.8-0.1c0.2-0.1,0.4-0.2,0.5-0.3
			c0.1-0.1,0.2-0.2,0.3-0.4v-2.3c-0.1-0.1-0.2-0.3-0.3-0.4c-0.2-0.2-0.4-0.3-0.6-0.4C133.3,18.5,133,18.5,132.6,18.5z"/>
		<path class="st3" d="M131.6,14.1c1.2,0,2.1,0.2,2.7,0.6c0.6,0.4,1.1,0.8,1.4,1.2l0.2-1.2h3.5v11.9h-3.8v-1.5c0,0,0,0,0,0
			c-0.2,0.2-0.5,0.5-0.8,0.7s-0.8,0.5-1.3,0.7c-0.5,0.2-1.1,0.3-1.8,0.3c-1.1,0-2.1-0.2-3-0.7c-0.9-0.4-1.6-1.1-2.1-2
			c-0.5-0.9-0.8-2.1-0.8-3.5c0-1.3,0.3-2.5,0.8-3.5c0.5-1,1.3-1.7,2.1-2.3C129.6,14.4,130.6,14.1,131.6,14.1 M132.8,23.8
			c0.5,0,0.9-0.1,1.2-0.2c0.4-0.1,0.7-0.3,0.9-0.6c0.3-0.3,0.5-0.6,0.7-1v-2.9c-0.1-0.4-0.4-0.7-0.7-1c-0.3-0.3-0.6-0.5-1-0.7
			c-0.4-0.1-0.8-0.2-1.3-0.2c-0.5,0-1.1,0.1-1.5,0.4c-0.5,0.3-0.8,0.7-1.1,1.2c-0.3,0.5-0.4,1.1-0.4,1.7c0,0.6,0.1,1.2,0.4,1.7
			c0.3,0.5,0.7,0.9,1.2,1.2C131.7,23.7,132.2,23.8,132.8,23.8 M131.6,11.6c-1.5,0-2.8,0.4-4.1,1.2c-1.3,0.8-2.3,1.8-3,3.2
			c-0.8,1.4-1.1,2.9-1.1,4.7c0,1.9,0.4,3.4,1.1,4.8c0.8,1.4,1.9,2.4,3.2,3.1c1.2,0.6,2.6,0.9,4.1,0.9c1,0,1.9-0.2,2.7-0.5
			c0.1,0,0.1,0,0.2-0.1c0.3,0.1,0.7,0.2,1,0.2h3.8c1.4,0,2.5-1.1,2.5-2.5V14.7c0-1.4-1.1-2.5-2.5-2.5h-3.5c-0.3,0-0.5,0-0.8,0.1
			C134.2,11.9,133,11.6,131.6,11.6L131.6,11.6z M132.8,21.3c-0.1,0-0.2,0-0.3-0.1c-0.1-0.1-0.2-0.1-0.2-0.3
			c-0.1-0.1-0.1-0.3-0.1-0.5c0-0.1,0-0.3,0.1-0.5c0.1-0.1,0.1-0.2,0.2-0.2c0,0,0.1-0.1,0.2-0.1c0.2,0,0.3,0,0.4,0.1c0,0,0.1,0,0.1,0
			v1.4c0,0,0,0,0,0C133.1,21.3,133,21.3,132.8,21.3L132.8,21.3z"/>
	</g>
	<g class="st1">
		<path class="st4" d="M151.8,27.8c-0.7,0-1.2-0.6-1.2-1.2v-7.5c0-0.1,0-0.3-0.1-0.5c0,0,0,0,0,0c0,0-0.1,0-0.4,0
			c-0.3,0-0.5,0.1-0.7,0.3c-0.3,0.2-0.5,0.6-0.7,1c-0.2,0.5-0.3,1.1-0.3,1.8v4.8c0,0.7-0.6,1.2-1.2,1.2h-3.8c-0.7,0-1.2-0.6-1.2-1.2
			V14.7c0-0.7,0.6-1.2,1.2-1.2h3.4c0.4,0,0.8,0.2,1,0.5c0.1-0.1,0.2-0.2,0.3-0.2c1-0.6,2.1-0.9,3.4-0.9c1.4,0,2.6,0.4,3.6,1.3
			c1,0.9,1.6,2.1,1.6,3.5v8.9c0,0.7-0.6,1.2-1.2,1.2H151.8z"/>
		<path class="st3" d="M151.6,14.2c1.1,0,2.1,0.3,2.8,1c0.8,0.7,1.1,1.5,1.2,2.6v8.9h-3.8v-7.5c0-0.5-0.2-0.9-0.4-1.3
			c-0.3-0.3-0.7-0.5-1.3-0.5c-0.6,0-1.1,0.2-1.5,0.6c-0.4,0.4-0.8,0.9-1,1.5c-0.2,0.7-0.4,1.4-0.4,2.3v4.8h-3.8V14.7h3.4l0.3,1.9
			c0,0,0,0,0,0l0.1,0.2l0-0.2c0.4-0.7,1-1.3,1.7-1.8C149.6,14.4,150.5,14.2,151.6,14.2 M151.6,11.7c-1.4,0-2.6,0.3-3.7,0.8
			c-0.3-0.2-0.7-0.3-1.1-0.3h-3.4c-1.4,0-2.5,1.1-2.5,2.5v11.9c0,1.4,1.1,2.5,2.5,2.5h3.8c1,0,1.9-0.6,2.3-1.5
			c0.4,0.9,1.3,1.5,2.3,1.5h3.8c1.4,0,2.5-1.1,2.5-2.5v-8.9c0-1.8-0.7-3.3-2-4.4C154.9,12.2,153.3,11.7,151.6,11.7L151.6,11.7z"/>
	</g>
	<g class="st1">
		<path class="st4" d="M164.3,28.2c-1.3,0-2.5-0.3-3.6-1c-1.1-0.6-1.9-1.5-2.5-2.7c-0.6-1.1-0.9-2.5-0.9-4c0-1.6,0.3-2.9,1-4
			c0.7-1.2,1.6-2,2.7-2.6c1.1-0.6,2.4-0.9,3.8-0.9c0.9,0,1.7,0.1,2.6,0.4c0,0,0.1,0,0.1,0V5.2c0-0.7,0.6-1.2,1.2-1.2h3.8
			c0.7,0,1.2,0.6,1.2,1.2v21.4c0,0.7-0.6,1.2-1.2,1.2h-3.8c-0.4,0-0.7-0.2-1-0.5c-0.1,0-0.2,0.1-0.3,0.1
			C166.5,27.9,165.5,28.2,164.3,28.2z M165.6,18.4c-0.3,0-0.6,0.1-0.9,0.3c-0.3,0.2-0.5,0.4-0.7,0.7c-0.2,0.3-0.3,0.6-0.3,1.1
			c0,0.4,0.1,0.8,0.3,1.1c0.2,0.3,0.4,0.6,0.7,0.8c0.3,0.2,0.6,0.2,0.9,0.2c0.4,0,0.7,0,0.9-0.1c0.2-0.1,0.4-0.2,0.6-0.3
			c0.1-0.1,0.2-0.3,0.3-0.4v-2.3c-0.1-0.1-0.2-0.3-0.3-0.4c-0.2-0.2-0.4-0.3-0.6-0.4C166.2,18.4,165.9,18.4,165.6,18.4z"/>
		<path class="st3" d="M172.5,5.2v21.4h-3.8v-1.3c-0.5,0.4-1.1,0.8-1.8,1.1c-0.8,0.4-1.6,0.5-2.6,0.5c-1.1,0-2.1-0.3-3-0.8
			c-0.9-0.5-1.5-1.3-2-2.2c-0.5-1-0.7-2.1-0.7-3.5c0-1.3,0.3-2.5,0.8-3.4c0.5-0.9,1.3-1.7,2.2-2.1c0.9-0.5,2-0.7,3.2-0.7
			c0.8,0,1.5,0.1,2.2,0.4c0.7,0.2,1.3,0.6,1.8,1.1V5.2H172.5 M165.6,23.7c0.5,0,0.9-0.1,1.3-0.2c0.4-0.1,0.7-0.3,1-0.6
			c0.3-0.3,0.6-0.6,0.8-1V19c-0.1-0.4-0.4-0.7-0.7-1c-0.3-0.3-0.7-0.5-1.1-0.6c-0.4-0.2-0.9-0.2-1.4-0.2c-0.6,0-1.1,0.1-1.6,0.4
			c-0.5,0.3-0.9,0.7-1.2,1.2c-0.3,0.5-0.4,1.1-0.4,1.7c0,0.6,0.1,1.2,0.4,1.7c0.3,0.5,0.7,0.9,1.2,1.2
			C164.5,23.6,165,23.7,165.6,23.7 M172.5,2.7h-3.8c-1.4,0-2.5,1.1-2.5,2.5v6.6c-0.5-0.1-1-0.1-1.4-0.1c-1.6,0-3,0.3-4.3,1
			c-1.4,0.7-2.5,1.8-3.2,3.1c-0.8,1.3-1.1,2.9-1.1,4.7c0,1.7,0.3,3.3,1,4.6c0.7,1.4,1.7,2.5,3,3.3c1.2,0.7,2.7,1.1,4.2,1.1
			c1.2,0,2.3-0.2,3.3-0.6c0.3,0.2,0.7,0.3,1.1,0.3h3.8c1.4,0,2.5-1.1,2.5-2.5V5.2C175,3.8,173.9,2.7,172.5,2.7L172.5,2.7z
			 M165.6,21.2c-0.2,0-0.2,0-0.2-0.1c-0.1-0.1-0.2-0.2-0.3-0.3c0,0,0,0,0-0.1c-0.1-0.1-0.1-0.2-0.1-0.4c0-0.3,0.1-0.4,0.1-0.4
			c0.1-0.1,0.1-0.2,0.3-0.3c0.1-0.1,0.2-0.1,0.3-0.1c0.2,0,0.4,0,0.5,0.1c0,0,0.1,0,0.1,0c0,0,0,0,0.1,0v1.3c0,0-0.1,0-0.1,0.1
			C166,21.2,165.8,21.2,165.6,21.2L165.6,21.2z"/>
	</g>
	<g class="st1">
		<path class="st4" d="M190.1,28.2c-1.3,0-2.5-0.3-3.6-1c-1.1-0.6-1.9-1.6-2.5-2.7c-0.6-1.1-0.9-2.5-0.9-4c0-1.6,0.3-2.9,1-4
			c0.7-1.1,1.6-2,2.7-2.6c1.1-0.6,2.4-0.9,3.8-0.9c0.9,0,1.7,0.1,2.6,0.4c0,0,0.1,0,0.1,0V5.2c0-0.7,0.6-1.2,1.2-1.2h3.8
			c0.7,0,1.2,0.6,1.2,1.2v21.4c0,0.7-0.6,1.2-1.2,1.2h-3.8c-0.4,0-0.7-0.2-1-0.5c-0.1,0-0.2,0.1-0.3,0.1
			C192.3,27.9,191.2,28.2,190.1,28.2z M191.3,18.4c-0.3,0-0.6,0.1-1,0.3c-0.3,0.2-0.5,0.4-0.7,0.7c-0.2,0.3-0.2,0.6-0.2,1
			c0,0.4,0.1,0.8,0.3,1.1c0.2,0.3,0.4,0.6,0.7,0.8c0.3,0.2,0.6,0.2,0.9,0.2c0.4,0,0.7,0,0.9-0.1c0.3-0.1,0.4-0.2,0.6-0.3
			c0.1-0.1,0.3-0.3,0.4-0.4v-2.3c-0.1-0.1-0.2-0.3-0.3-0.4c-0.2-0.2-0.4-0.3-0.6-0.4C192,18.4,191.7,18.4,191.3,18.4z"/>
		<path class="st3" d="M198.2,5.2v21.4h-3.8v-1.3c-0.5,0.4-1.1,0.8-1.8,1.1c-0.8,0.4-1.6,0.5-2.6,0.5c-1.1,0-2.1-0.3-3-0.8
			c-0.9-0.5-1.5-1.3-2-2.2c-0.5-1-0.7-2.1-0.7-3.5c0-1.3,0.3-2.5,0.8-3.4c0.5-0.9,1.3-1.7,2.2-2.1c0.9-0.5,2-0.7,3.2-0.7
			c0.8,0,1.5,0.1,2.2,0.4c0.7,0.2,1.3,0.6,1.8,1.1V5.2H198.2 M191.3,23.7c0.5,0,1-0.1,1.3-0.2c0.4-0.1,0.7-0.3,1-0.6
			c0.3-0.3,0.6-0.6,0.8-1V19c-0.1-0.4-0.4-0.7-0.7-1c-0.3-0.3-0.7-0.5-1.1-0.6c-0.4-0.2-0.9-0.2-1.4-0.2c-0.6,0-1.1,0.1-1.6,0.4
			c-0.5,0.3-0.9,0.7-1.2,1.2c-0.3,0.5-0.4,1.1-0.4,1.7c0,0.6,0.1,1.2,0.4,1.7c0.3,0.5,0.7,0.9,1.2,1.2
			C190.2,23.6,190.7,23.7,191.3,23.7 M198.2,2.7h-3.8c-1.4,0-2.5,1.1-2.5,2.5v6.6c-0.5-0.1-1-0.1-1.4-0.1c-1.6,0-3,0.3-4.3,1
			c-1.4,0.7-2.5,1.8-3.2,3.1c-0.8,1.3-1.1,2.9-1.1,4.7c0,1.7,0.3,3.3,1,4.6c0.7,1.4,1.7,2.5,3,3.3c1.3,0.7,2.7,1.1,4.2,1.1
			c1.2,0,2.3-0.2,3.3-0.6c0.3,0.2,0.7,0.3,1.1,0.3h3.8c1.4,0,2.5-1.1,2.5-2.5V5.2C200.7,3.8,199.6,2.7,198.2,2.7L198.2,2.7z
			 M191,19.7c0.1-0.1,0.2-0.1,0.3-0.1c0.2,0,0.4,0,0.5,0.1c0,0,0,0,0.1,0c0,0,0,0,0.1,0v1.3c0,0-0.1,0-0.1,0.1
			c-0.1,0-0.2,0.1-0.5,0.1c-0.1,0-0.2,0-0.3-0.1c-0.1-0.1-0.2-0.2-0.3-0.3c-0.1-0.1-0.1-0.3-0.1-0.5c0-0.2,0-0.3,0.1-0.4
			C190.8,19.8,190.9,19.8,191,19.7L191,19.7z"/>
	</g>
	<g class="st1">
		<path class="st4" d="M202.1,27.8c-0.7,0-1.2-0.6-1.2-1.2V14.7c0-0.7,0.6-1.2,1.2-1.2h3.4c0.6,0,1.1,0.4,1.2,1
			c0.6-0.4,1.1-0.8,1.7-1.1c0.8-0.4,1.4-0.5,1.9-0.5c0.3,0,0.7,0.1,0.9,0.4c0.2,0.2,0.4,0.6,0.3,0.9l-0.2,3.8c0,0.3-0.2,0.7-0.4,0.9
			c-0.2,0.2-0.5,0.3-0.8,0.3c0,0-0.1,0-0.1,0c-0.1,0-0.3,0-0.4,0c-0.4,0-0.8,0.1-1.1,0.3c-0.5,0.3-0.8,0.6-1,1.1
			c-0.3,0.5-0.4,0.9-0.4,1.4v4.6c0,0.7-0.6,1.2-1.2,1.2H202.1z"/>
		<path class="st3" d="M210.4,14.1l-0.2,3.8c-0.2,0-0.4,0-0.5,0c-0.7,0-1.2,0.2-1.7,0.5c-0.6,0.4-1.1,0.9-1.5,1.6
			c-0.4,0.6-0.5,1.3-0.5,2v4.6h-3.8V14.7h3.4l0.3,2.7c0.3-0.7,0.8-1.3,1.4-1.8c0.6-0.5,1.2-0.9,1.8-1.2
			C209.6,14.3,210.1,14.1,210.4,14.1 M210.4,11.6c-0.7,0-1.4,0.2-2.4,0.6c-0.3,0.1-0.6,0.3-0.9,0.5c-0.4-0.3-0.9-0.5-1.5-0.5h-3.4
			c-1.4,0-2.5,1.1-2.5,2.5v11.9c0,1.4,1.1,2.5,2.5,2.5h3.8c1.4,0,2.5-1.1,2.5-2.5v-4.6c0-0.3,0.1-0.5,0.2-0.8c0,0,0,0,0,0
			c0.1-0.3,0.3-0.4,0.6-0.6c0.1,0,0.1-0.1,0.4-0.1c0.1,0,0.2,0,0.3,0c0.1,0,0.2,0,0.3,0c0.6,0,1.2-0.2,1.6-0.6
			c0.5-0.4,0.8-1.1,0.9-1.8l0.2-3.8c0-0.7-0.2-1.4-0.7-1.8S211.1,11.6,210.4,11.6L210.4,11.6z M210.4,16.6L210.4,16.6L210.4,16.6
			L210.4,16.6z"/>
	</g>
	<g class="st1">
		<path class="st4" d="M217.1,28.4c-1.4,0-2.6-0.4-3.5-1.3c-1-0.9-1.5-2.1-1.6-3.4l0-8.9c0-0.7,0.6-1.2,1.2-1.2h3.8
			c0.7,0,1.2,0.6,1.2,1.2v7.4c0,0.3,0.1,0.4,0.1,0.5c0,0,0.1,0,0.2,0c0.2,0,0.4-0.1,0.6-0.2c0.3-0.2,0.5-0.6,0.6-1.1
			c0.2-0.5,0.3-1.1,0.3-1.8v-4.8c0-0.7,0.6-1.2,1.2-1.2h3.8c0.7,0,1.2,0.6,1.2,1.2v11.9c0,0.7-0.6,1.2-1.2,1.2h-3.4
			c-0.4,0-0.8-0.2-1-0.5c-0.4,0.3-0.8,0.5-1.3,0.7C218.7,28.3,218,28.4,217.1,28.4z"/>
		<path class="st3" d="M225.2,14.7v11.9h-3.4l-0.3-1.9c-0.3,0.5-0.6,0.9-1,1.3c-0.4,0.4-0.9,0.7-1.5,0.9c-0.6,0.2-1.2,0.3-1.9,0.3
			c-1.1,0-2-0.3-2.7-1c-0.7-0.7-1.1-1.5-1.1-2.6v-8.9h3.8v7.5c0,0.5,0.2,0.9,0.4,1.3c0.2,0.3,0.6,0.5,1.2,0.5s1-0.2,1.4-0.6
			c0.4-0.4,0.7-0.9,0.9-1.6c0.2-0.7,0.3-1.4,0.3-2.2v-4.8H225.2 M225.2,12.2h-3.8c-0.9,0-1.7,0.5-2.2,1.3c-0.4-0.8-1.2-1.3-2.2-1.3
			h-3.8c-1.4,0-2.5,1.1-2.5,2.5v8.9c0,0,0,0.1,0,0.1c0.1,1.7,0.7,3.2,1.9,4.3c1.2,1.1,2.7,1.6,4.4,1.6c1,0,1.9-0.2,2.8-0.5
			c0.3-0.1,0.6-0.2,0.8-0.4c0.3,0.2,0.7,0.3,1.1,0.3h3.4c1.4,0,2.5-1.1,2.5-2.5V14.7C227.7,13.3,226.6,12.2,225.2,12.2L225.2,12.2z"
			/>
	</g>
	<g class="st1">
		<path class="st4" d="M235.2,33.8c-1.2,0-2.3-0.2-3.1-0.5c-0.8-0.3-1.6-0.6-2.2-1.1c-0.5-0.4-1-0.8-1.4-1.1
			c-0.3-0.2-0.4-0.5-0.4-0.9c0-0.3,0.1-0.7,0.3-0.9l2-2.3c-1-0.6-1.9-1.5-2.5-2.6c-0.6-1.1-1-2.4-1-3.9c0-1.5,0.4-2.8,1-4
			c0.7-1.1,1.6-2.1,2.7-2.7c1.1-0.7,2.3-1,3.6-1c1.2,0,2.3,0.2,3.1,0.5c0.3,0.1,0.5,0.2,0.7,0.3c0.2-0.2,0.5-0.3,0.8-0.3h3.5
			c0.7,0,1.2,0.6,1.2,1.2v11.9c0,1.4-0.4,2.7-1.2,3.8c-0.8,1.1-1.8,1.9-3.1,2.5C238.1,33.5,236.7,33.8,235.2,33.8z M235.3,18.5
			c-0.4,0-0.7,0.1-1,0.3c-0.3,0.2-0.6,0.4-0.7,0.7c-0.2,0.3-0.2,0.6-0.2,1c0,0.4,0.1,0.8,0.3,1.1c0.2,0.3,0.4,0.5,0.7,0.7
			c0.3,0.2,0.6,0.3,1,0.3c0.4,0,0.7,0,1-0.1c0.3-0.1,0.5-0.2,0.7-0.4c0.1-0.1,0.2-0.2,0.3-0.4v-2.3c-0.1-0.1-0.2-0.3-0.3-0.4
			c-0.2-0.2-0.5-0.3-0.7-0.4C236,18.5,235.7,18.5,235.3,18.5z"/>
		<path class="st3" d="M234.3,14.1c1,0,1.9,0.1,2.7,0.5c0.7,0.3,1.3,0.7,1.7,1.1l0.3-0.9h3.5v11.9c0,1.2-0.3,2.2-1,3.1
			c-0.6,0.9-1.5,1.6-2.6,2.1c-1.1,0.5-2.3,0.8-3.6,0.8c-1.1,0-2-0.1-2.7-0.4c-0.7-0.2-1.4-0.6-1.9-0.9c-0.5-0.4-1-0.7-1.4-1l2.2-2.6
			c0.4,0.4,0.9,0.7,1.4,1.1c0.6,0.4,1.3,0.5,2.2,0.5c0.6,0,1.2-0.1,1.7-0.3c0.5-0.2,0.9-0.5,1.3-0.9c0.3-0.4,0.5-0.9,0.5-1.5v-1.7
			c-0.3,0.5-0.8,1-1.4,1.4c-0.8,0.5-1.8,0.7-3,0.7c-1.1,0-2.1-0.3-3-0.8c-0.9-0.5-1.7-1.3-2.2-2.2c-0.5-0.9-0.8-2-0.8-3.2
			c0-1.2,0.3-2.4,0.9-3.3c0.6-1,1.3-1.7,2.2-2.3C232.2,14.4,233.2,14.1,234.3,14.1 M235.3,23.8c0.5,0,1-0.1,1.4-0.2s0.8-0.3,1.1-0.6
			c0.3-0.3,0.6-0.6,0.8-1v-2.9c-0.2-0.4-0.4-0.7-0.7-1s-0.7-0.5-1.1-0.7c-0.4-0.1-0.9-0.2-1.4-0.2c-0.6,0-1.2,0.1-1.7,0.4
			c-0.5,0.3-0.9,0.7-1.2,1.2c-0.3,0.5-0.4,1.1-0.4,1.7c0,0.6,0.1,1.2,0.4,1.7c0.3,0.5,0.7,0.9,1.2,1.2
			C234.1,23.7,234.7,23.8,235.3,23.8 M234.3,11.6c-1.5,0-2.9,0.4-4.2,1.2c-1.3,0.8-2.3,1.8-3.1,3.1c-0.8,1.4-1.2,2.9-1.2,4.6
			c0,1.6,0.4,3.2,1.1,4.5c0.5,0.8,1.1,1.6,1.7,2.2l-1.1,1.3c-0.4,0.5-0.6,1.2-0.6,1.8c0.1,0.7,0.4,1.3,0.9,1.7
			c0.5,0.4,1,0.8,1.5,1.2c0.7,0.5,1.6,0.9,2.5,1.2c1,0.3,2.1,0.5,3.5,0.5c1.7,0,3.3-0.3,4.7-1c1.4-0.7,2.6-1.7,3.5-2.9
			c1-1.3,1.5-2.8,1.5-4.5V14.7c0-1.4-1.1-2.5-2.5-2.5h-3.5c-0.3,0-0.5,0-0.8,0.1c-0.1,0-0.2-0.1-0.2-0.1
			C236.8,11.8,235.6,11.6,234.3,11.6L234.3,11.6z M235.3,21.3c-0.2,0-0.3-0.1-0.4-0.1c-0.1-0.1-0.2-0.1-0.3-0.3
			c0-0.1-0.1-0.2-0.1-0.5c0-0.2,0-0.3,0.1-0.4c0.1-0.1,0.1-0.2,0.3-0.2c0.1,0,0.2-0.1,0.4-0.1c0.2,0,0.4,0,0.6,0.1
			c0.1,0,0.1,0.1,0.2,0.1v1.3c-0.1,0-0.1,0.1-0.2,0.1C235.8,21.3,235.6,21.3,235.3,21.3L235.3,21.3z"/>
	</g>
	<g class="st1">
		<path class="st4" d="M250.2,28.1c-1.1,0-2.2-0.2-3.2-0.6c-1-0.4-1.9-1-2.6-1.7c-0.4-0.4-0.5-1.1-0.1-1.6l1.6-2.1
			c0.1-0.1,0.2-0.2,0.3-0.3c-0.2-0.2-0.5-0.5-0.6-0.7c-0.6-0.9-1-1.8-1-2.9c0-0.8,0.2-1.6,0.6-2.4c0.4-0.8,1.1-1.5,2-2
			c0.9-0.5,2-0.8,3.3-0.8c1.1,0,2.1,0.1,2.9,0.3c0.8,0.2,1.6,0.6,2.3,1.2c0.5,0.4,0.7,1.1,0.3,1.7l-1.4,2.2
			c-0.1,0.1-0.2,0.3-0.3,0.4c0.1,0.1,0.3,0.2,0.4,0.3c0.6,0.4,1,0.9,1.3,1.5c0.3,0.6,0.5,1.3,0.5,2.1c0,0.9-0.2,1.8-0.7,2.7
			c-0.5,0.8-1.2,1.5-2.2,2C252.7,27.8,251.5,28.1,250.2,28.1z"/>
		<path class="st3" d="M250.6,14.2c1,0,1.8,0.1,2.5,0.3c0.7,0.2,1.3,0.5,2,1l-1.4,2.2c-0.3-0.3-0.7-0.5-1.2-0.7
			c-0.4-0.2-0.8-0.3-1.2-0.3c-0.1,0-0.1,0-0.2,0c-0.3,0-0.5,0-0.7,0.1c-0.2,0.1-0.4,0.2-0.5,0.4c-0.1,0.1-0.2,0.3-0.2,0.5
			c0,0.3,0.1,0.6,0.4,0.8c0.3,0.2,0.6,0.4,1.1,0.5c0.4,0.1,0.9,0.2,1.3,0.4c0.6,0.2,1.1,0.4,1.5,0.7c0.4,0.3,0.7,0.7,1,1.1
			c0.2,0.4,0.3,0.9,0.3,1.5c0,0.7-0.2,1.4-0.6,2c-0.4,0.6-0.9,1.2-1.7,1.6c-0.8,0.4-1.7,0.6-2.9,0.6c-1,0-1.9-0.2-2.7-0.5
			c-0.8-0.3-1.6-0.8-2.1-1.4l1.6-2.1c0.6,0.5,1.1,0.9,1.6,1.1c0.5,0.2,0.9,0.3,1.3,0.3c0.3,0,0.6,0,0.8-0.1c0.2-0.1,0.4-0.2,0.6-0.3
			c0.1-0.1,0.2-0.3,0.2-0.5c0-0.3-0.1-0.6-0.4-0.7c-0.2-0.2-0.6-0.3-0.9-0.4c-0.4-0.1-0.8-0.2-1.2-0.4c-1.1-0.3-1.9-0.8-2.3-1.5
			c-0.5-0.7-0.7-1.4-0.7-2.2c0-0.6,0.2-1.2,0.5-1.8s0.8-1.1,1.5-1.5C248.6,14.4,249.5,14.2,250.6,14.2 M250.6,11.7
			c-1.5,0-2.9,0.3-4,1c-1.1,0.6-1.9,1.5-2.5,2.5c-0.5,1-0.8,2-0.8,3c0,1.3,0.4,2.5,1.2,3.6l-1.2,1.7c-0.7,1-0.7,2.3,0.2,3.2
			c0.8,0.9,1.8,1.6,3,2c1.1,0.5,2.4,0.7,3.7,0.7c1.6,0,2.9-0.3,4-0.9c1.2-0.6,2.1-1.5,2.7-2.5c0.6-1,0.9-2.1,0.9-3.3
			c0-1-0.2-1.9-0.6-2.7c-0.3-0.5-0.6-1-1.1-1.4l1.1-1.7c0.7-1.1,0.4-2.6-0.6-3.4c-0.8-0.6-1.8-1.1-2.7-1.4
			C252.9,11.8,251.8,11.7,250.6,11.7L250.6,11.7z"/>
	</g>
</g>
<g class="st0">
	<g class="st1">
		<path class="st4" d="M71.5,29.8c-0.5,0-1-0.3-1.2-0.8l-1.2-3.1h-5L62.9,29c-0.2,0.5-0.6,0.8-1.2,0.8h-3.9c-0.4,0-0.8-0.2-1-0.6
			c-0.2-0.4-0.3-0.8-0.1-1.2l9-20.8c0.2-0.5,0.6-0.8,1.1-0.8h0.2c0.5,0,0.9,0.3,1.1,0.8l9,20.8c0.2,0.4,0.1,0.8-0.1,1.2
			c-0.2,0.4-0.6,0.6-1,0.6H71.5z M66.9,20.1l-0.1-0.3l-0.1,0.3H66.9z"/>
		<path class="st3" d="M67.1,7.8l9,20.8h-4.6L70,24.6h-6.6l-1.6,3.9h-3.9l9-20.8H67.1 M64.8,21.3h3.9l-1.9-4.9L64.8,21.3 M67.1,5.3
			h-0.2c-1,0-1.9,0.6-2.3,1.5l-9,20.8c-0.3,0.8-0.3,1.7,0.2,2.4c0.5,0.7,1.2,1.1,2.1,1.1h3.9c1,0,1.9-0.6,2.3-1.5l1-2.4h3.3l0.9,2.3
			c0.4,1,1.3,1.6,2.3,1.6h4.6c0.8,0,1.6-0.4,2.1-1.1c0.5-0.7,0.5-1.6,0.2-2.4l-9-20.8C69,5.9,68.1,5.3,67.1,5.3L67.1,5.3z"/>
	</g>
	<g class="st1">
		<path class="st4" d="M89.9,19.8c-0.4,0-0.8-0.2-1.1-0.6c-0.3-0.4-0.2-1,0.1-1.4l0.1-0.1c0.2-0.3,0.6-0.5,1-0.5c0.1,0,0.1,0,0.2,0
			c0.5,0.1,0.9,0.4,1,0.8c0,0,0.1,0.2,0.1,0.2c0.1,0.3,0,0.7-0.2,1c-0.2,0.3-0.5,0.5-0.8,0.5l-0.1,0C90.1,19.8,90,19.8,89.9,19.8z"
			/>
		<path class="st3" d="M90,18.4c0,0,0,0.1,0,0.1l-0.1,0C90,18.5,90,18.5,90,18.4 M90,15.9c-0.8,0-1.5,0.4-2,1l-0.1,0.1
			c-0.6,0.8-0.7,1.9-0.1,2.8c0.5,0.8,1.3,1.2,2.1,1.2c0.1,0,0.3,0,0.4,0l0.1,0c0.7-0.1,1.3-0.5,1.7-1.1c0.4-0.6,0.5-1.3,0.3-2
			c0-0.1-0.1-0.2-0.1-0.3c-0.3-0.9-1.1-1.5-2-1.7C90.3,15.9,90.2,15.9,90,15.9L90,15.9z"/>
	</g>
	<g class="st1">
		<path class="st4" d="M94.1,29.8c-0.7,0-1.2-0.6-1.2-1.2v-7.3c0-0.3,0-0.5-0.1-0.6c-0.2,0-0.4,0.1-0.6,0.3
			c-0.3,0.3-0.5,0.6-0.6,1.1c-0.2,0.6-0.3,1.1-0.3,1.7v4.9c0,0.7-0.6,1.2-1.2,1.2h-3.8c-0.7,0-1.2-0.6-1.2-1.2v-7.3
			c0-0.3-0.1-0.5-0.1-0.6c0,0,0,0,0,0c-0.2,0-0.4,0.1-0.5,0.3c-0.3,0.3-0.5,0.7-0.6,1.1c-0.2,0.5-0.3,1.1-0.3,1.6v4.9
			c0,0.7-0.6,1.2-1.2,1.2h-3.8c-0.7,0-1.2-0.6-1.2-1.2V16.7c0-0.7,0.6-1.2,1.2-1.2h3.4c0.4,0,0.8,0.2,1,0.5c0.1-0.1,0.2-0.2,0.4-0.2
			c0.9-0.6,2-0.9,3.2-0.9c0.8,0,1.5,0.1,2.2,0.3c0.7,0.2,1.2,0.6,1.7,1.1c0,0,0,0,0,0c0.3-0.2,0.5-0.4,0.8-0.6
			c0.9-0.6,1.9-0.9,2.9-0.9c1.5,0,2.7,0.5,3.7,1.3c0.9,0.9,1.4,2,1.5,3.4l0,8.9c0,0.7-0.6,1.2-1.2,1.2H94.1z"/>
		<path class="st3" d="M94,16.1c1.2,0,2.1,0.3,2.8,1c0.7,0.7,1.1,1.5,1.1,2.6v8.9h-3.8v-7.3c0-0.5-0.1-1-0.2-1.3
			c-0.1-0.3-0.5-0.5-1-0.6c-0.6,0-1.1,0.2-1.6,0.6c-0.4,0.4-0.7,1-0.9,1.6c-0.2,0.7-0.3,1.3-0.3,2v4.9h-3.8v-7.3
			c0-0.5-0.1-1-0.3-1.3c-0.2-0.3-0.5-0.5-1-0.6c-0.6,0-1.1,0.2-1.5,0.6c-0.4,0.4-0.7,1-0.9,1.6c-0.2,0.6-0.3,1.3-0.3,2v4.9h-3.8
			V16.7h3.4l0.3,1.9c0.5-0.8,1-1.4,1.7-1.8c0.7-0.4,1.5-0.7,2.5-0.7c0.7,0,1.2,0.1,1.7,0.3c0.5,0.2,0.9,0.5,1.3,0.8
			c0.3,0.3,0.6,0.7,0.7,1.3c0,0-0.1,0.1-0.1,0.1l0.1,0c0,0,0-0.1,0-0.1c0.5-0.7,1.1-1.2,1.7-1.7C92.5,16.3,93.2,16.1,94,16.1
			 M94,13.6c-1.3,0-2.5,0.4-3.6,1.1c0,0-0.1,0-0.1,0.1c-0.4-0.3-0.9-0.5-1.4-0.7c-0.8-0.3-1.6-0.4-2.6-0.4c-1.3,0-2.5,0.3-3.5,0.8
			c-0.3-0.2-0.7-0.2-1.1-0.2h-3.4c-1.4,0-2.5,1.1-2.5,2.5v11.9c0,1.4,1.1,2.5,2.5,2.5h3.8c0.8,0,1.6-0.4,2-1c0.5,0.6,1.2,1,2,1H90
			c0.8,0,1.6-0.4,2-1c0.5,0.6,1.2,1,2,1h3.8c1.4,0,2.5-1.1,2.5-2.5v-8.9c0,0,0,0,0-0.1c0-1.7-0.7-3.2-1.9-4.3
			C97.8,14.5,96.3,13.6,94,13.6L94,13.6z"/>
	</g>
	<g class="st1">
		<path class="st4" d="M105.6,30c-1.1,0-2.2-0.2-3.2-0.6c-1-0.4-1.9-1-2.6-1.7c-0.4-0.4-0.5-1.1-0.1-1.6l1.6-2.1
			c0.1-0.1,0.2-0.2,0.3-0.3c-0.2-0.2-0.5-0.5-0.6-0.7c-0.6-0.9-1-1.8-1-2.9c0-0.8,0.2-1.6,0.6-2.4c0.4-0.8,1.1-1.5,2-2
			c0.9-0.5,2-0.8,3.3-0.8c1.1,0,2.1,0.1,2.9,0.3c0.8,0.2,1.6,0.6,2.3,1.2c0.5,0.4,0.7,1.1,0.3,1.7l-1.4,2.2
			c-0.1,0.1-0.2,0.3-0.3,0.4c0.1,0.1,0.3,0.2,0.4,0.3c0.6,0.4,1,0.9,1.3,1.5c0.3,0.6,0.5,1.3,0.5,2.1c0,0.9-0.2,1.8-0.7,2.7
			c-0.5,0.8-1.2,1.5-2.2,2C108.2,29.8,107,30,105.6,30z"/>
		<path class="st3" d="M106.1,16.1c1,0,1.8,0.1,2.5,0.3c0.7,0.2,1.3,0.5,2,1l-1.4,2.2c-0.3-0.3-0.7-0.5-1.2-0.7
			c-0.4-0.2-0.8-0.3-1.2-0.3c-0.1,0-0.1,0-0.2,0c-0.3,0-0.5,0-0.7,0.1c-0.2,0.1-0.4,0.2-0.5,0.4c-0.1,0.1-0.2,0.3-0.2,0.5
			c0,0.3,0.1,0.6,0.4,0.8c0.3,0.2,0.6,0.4,1.1,0.5c0.4,0.1,0.9,0.2,1.3,0.4c0.6,0.2,1.1,0.4,1.5,0.7c0.4,0.3,0.7,0.7,1,1.1
			c0.2,0.4,0.3,0.9,0.3,1.5c0,0.7-0.2,1.4-0.6,2c-0.4,0.6-0.9,1.2-1.7,1.6c-0.8,0.4-1.7,0.6-2.9,0.6c-1,0-1.9-0.2-2.7-0.5
			c-0.8-0.3-1.6-0.8-2.1-1.4l1.6-2.1c0.6,0.5,1.1,0.9,1.6,1.1c0.5,0.2,0.9,0.3,1.3,0.3c0.3,0,0.6,0,0.8-0.1c0.2-0.1,0.4-0.2,0.6-0.3
			c0.1-0.1,0.2-0.3,0.2-0.5c0-0.3-0.1-0.6-0.4-0.7c-0.2-0.2-0.6-0.3-0.9-0.4c-0.4-0.1-0.8-0.2-1.2-0.4c-1.1-0.3-1.9-0.8-2.3-1.5
			c-0.5-0.7-0.7-1.4-0.7-2.2c0-0.6,0.2-1.2,0.5-1.8c0.3-0.6,0.8-1.1,1.5-1.5C104.1,16.3,105,16.1,106.1,16.1 M106.1,13.6
			c-1.5,0-2.9,0.3-4,1c-1.1,0.6-1.9,1.5-2.5,2.5c-0.5,1-0.8,2-0.8,3c0,1.3,0.4,2.5,1.2,3.6l-1.2,1.7c-0.7,1-0.7,2.3,0.2,3.2
			c0.8,0.9,1.8,1.6,3,2c1.1,0.5,2.4,0.7,3.7,0.7c1.6,0,2.9-0.3,4-0.9c1.2-0.6,2.1-1.5,2.7-2.5c0.6-1,0.9-2.1,0.9-3.3
			c0-1-0.2-1.9-0.6-2.7c-0.3-0.5-0.6-1-1.1-1.4l1.1-1.7c0.7-1.1,0.4-2.6-0.6-3.4c-0.8-0.6-1.8-1.1-2.7-1.4
			C108.4,13.8,107.3,13.6,106.1,13.6L106.1,13.6z"/>
	</g>
	<g class="st1">
		<path class="st4" d="M115,29.8c-0.7,0-1.2-0.6-1.2-1.2v-7.7h-0.6c-0.7,0-1.2-0.6-1.2-1.2v-3c0-0.7,0.6-1.2,1.2-1.2h0.6v-3.9
			c0-0.7,0.6-1.2,1.2-1.2h3.8c0.7,0,1.2,0.6,1.2,1.2v3.9h1.6c0.7,0,1.2,0.6,1.2,1.2v3c0,0.7-0.6,1.2-1.2,1.2h-1.6v7.7
			c0,0.7-0.6,1.2-1.2,1.2H115z"/>
		<path class="st3" d="M118.8,11.5v5.2h2.9v3h-2.9v9H115v-9h-1.8v-3h1.8v-5.2H118.8 M118.8,9H115c-1.4,0-2.5,1.1-2.5,2.5v2.7
			c-1.1,0.3-1.8,1.3-1.8,2.4v3c0,1.2,0.8,2.1,1.8,2.4v6.5c0,1.4,1.1,2.5,2.5,2.5h3.8c1.4,0,2.5-1.1,2.5-2.5v-6.5h0.4
			c1.4,0,2.5-1.1,2.5-2.5v-3c0-1.4-1.1-2.5-2.5-2.5h-0.4v-2.7C121.3,10.1,120.2,9,118.8,9L118.8,9z"/>
	</g>
	<g class="st1">
		<path class="st4" d="M130.4,30.1c-1.6,0-3.1-0.3-4.3-1c-1.2-0.7-2.2-1.6-2.8-2.8c-0.6-1.1-0.9-2.5-0.9-3.9c0-1.4,0.4-2.7,1.1-3.9
			c0.7-1.1,1.7-2.1,2.9-2.7c1.2-0.7,2.6-1,4.1-1c2,0,3.7,0.6,5,1.8c1.3,1.2,2.2,2.9,2.5,5c0.1,0.6-0.3,1.2-0.9,1.4l-3.3,1.1
			c0,0,0,0.1,0.1,0.1l1.7,2.8c0.2,0.3,0.2,0.6,0.1,1c-0.1,0.3-0.3,0.6-0.6,0.8c-0.7,0.4-1.4,0.7-2.3,1C132,30,131.2,30.1,130.4,30.1
			z M130,20.3c-0.2,0-0.4,0.1-0.6,0.2L130,20.3z"/>
		<path class="st3" d="M130.5,16.1c1.7,0,3.1,0.5,4.2,1.5c1.1,1,1.8,2.4,2.1,4.3l-8.7,2.8c0.2,0.3,0.5,0.5,0.8,0.6
			c0.5,0.3,1,0.4,1.6,0.4c0.4,0,0.8-0.1,1.2-0.2c0.4-0.1,0.8-0.3,1.2-0.6l1.7,2.8c-0.6,0.4-1.3,0.6-2,0.9c-0.7,0.2-1.4,0.3-2.1,0.3
			c-1.4,0-2.7-0.3-3.7-0.8c-1-0.5-1.8-1.3-2.3-2.2c-0.5-0.9-0.8-2.1-0.8-3.3c0-1.2,0.3-2.3,0.9-3.2c0.6-1,1.4-1.7,2.5-2.3
			C128.1,16.4,129.3,16.1,130.5,16.1 M127.5,22.5l5.2-1.8c-0.1-0.4-0.4-0.8-0.7-1.2c-0.4-0.4-0.9-0.5-1.7-0.5
			c-0.6,0-1.1,0.1-1.5,0.4c-0.4,0.3-0.7,0.6-1,1.1c-0.2,0.5-0.3,1.1-0.3,1.7C127.4,22.4,127.4,22.4,127.5,22.5 M130.5,13.6
			c-1.7,0-3.2,0.4-4.6,1.2c-1.4,0.8-2.5,1.8-3.4,3.2c-0.9,1.4-1.3,2.9-1.3,4.6c0,1.7,0.4,3.2,1.1,4.5c0.7,1.4,1.9,2.5,3.3,3.2
			c1.4,0.7,3,1.1,4.9,1.1c0.9,0,1.8-0.1,2.8-0.4c1-0.3,1.8-0.7,2.6-1.1c0.6-0.3,1-0.9,1.2-1.5c0.2-0.6,0.1-1.3-0.3-1.9l-0.9-1.6
			l1.8-0.6c1.2-0.4,1.9-1.6,1.7-2.8c-0.4-2.4-1.4-4.3-2.9-5.7C134.8,14.3,132.9,13.6,130.5,13.6L130.5,13.6z"/>
	</g>
	<g class="st1">
		<path class="st4" d="M139.6,29.8c-0.7,0-1.2-0.6-1.2-1.2V16.7c0-0.7,0.6-1.2,1.2-1.2h3.4c0.6,0,1.1,0.4,1.2,1
			c0.6-0.4,1.1-0.8,1.7-1.1c0.7-0.4,1.4-0.5,1.9-0.5c0.3,0,0.7,0.1,0.9,0.4c0.2,0.2,0.4,0.6,0.3,0.9l-0.2,3.8c0,0.3-0.2,0.7-0.4,0.9
			c-0.2,0.2-0.5,0.3-0.8,0.3c-0.1,0-0.1,0-0.2,0c-0.1,0-0.3,0-0.4,0c-0.4,0-0.8,0.1-1.1,0.3c-0.4,0.3-0.8,0.7-1,1.1
			c-0.2,0.5-0.4,0.9-0.4,1.4v4.6c0,0.7-0.6,1.2-1.2,1.2H139.6z"/>
		<path class="st3" d="M147.8,16.1l-0.2,3.8c-0.2,0-0.4,0-0.6,0c-0.7,0-1.2,0.2-1.7,0.5c-0.6,0.4-1.1,0.9-1.5,1.6
			c-0.3,0.6-0.5,1.3-0.5,2v4.6h-3.8V16.7h3.4l0.3,2.7c0.3-0.7,0.8-1.3,1.4-1.8c0.6-0.5,1.2-0.9,1.8-1.2
			C147.1,16.2,147.5,16.1,147.8,16.1 M147.8,13.6c-0.7,0-1.5,0.2-2.4,0.6c-0.3,0.1-0.6,0.3-0.9,0.5c-0.4-0.3-0.9-0.5-1.5-0.5h-3.4
			c-1.4,0-2.5,1.1-2.5,2.5v11.9c0,1.4,1.1,2.5,2.5,2.5h3.8c1.4,0,2.5-1.1,2.5-2.5v-4.6c0-0.3,0.1-0.6,0.2-0.8
			c0.1-0.3,0.3-0.5,0.6-0.6c0,0,0.1-0.1,0.4-0.1c0.1,0,0.2,0,0.3,0c0.1,0,0.2,0,0.3,0c0.6,0,1.2-0.2,1.6-0.6
			c0.5-0.4,0.9-1.1,0.9-1.8l0.2-3.8c0-0.7-0.2-1.3-0.7-1.8S148.5,13.6,147.8,13.6L147.8,13.6z M147.8,18.6L147.8,18.6L147.8,18.6
			L147.8,18.6z"/>
	</g>
	<g class="st1">
		<path class="st4" d="M155,30.1c-1.3,0-2.5-0.3-3.6-0.9c-1.1-0.6-1.9-1.5-2.5-2.7c-0.6-1.1-0.9-2.5-0.9-4c0-1.5,0.3-2.9,1-4
			c0.7-1.2,1.6-2,2.7-2.6c1.1-0.6,2.4-0.9,3.8-0.9c0.9,0,1.8,0.1,2.6,0.4c0,0,0.1,0,0.1,0V7.1c0-0.7,0.6-1.2,1.2-1.2h3.8
			c0.7,0,1.2,0.6,1.2,1.2v21.4c0,0.7-0.6,1.2-1.2,1.2h-3.8c-0.4,0-0.7-0.2-1-0.5c-0.1,0-0.2,0.1-0.3,0.1
			C157.3,29.9,156.2,30.1,155,30.1z M156.3,20.3c-0.3,0-0.6,0.1-0.9,0.2c-0.3,0.2-0.5,0.4-0.7,0.7c-0.2,0.3-0.3,0.6-0.3,1.1
			c0,0.4,0.1,0.8,0.3,1.1c0.2,0.3,0.4,0.6,0.7,0.8c0.3,0.2,0.6,0.2,0.9,0.2c0.4,0,0.7,0,0.9-0.1c0.2-0.1,0.4-0.2,0.6-0.3
			c0.1-0.1,0.2-0.2,0.3-0.4v-2.3c-0.1-0.1-0.2-0.3-0.3-0.4c-0.2-0.2-0.4-0.3-0.7-0.4C157,20.4,156.6,20.3,156.3,20.3z"/>
		<path class="st3" d="M163.2,7.1v21.4h-3.8v-1.3c-0.5,0.4-1.1,0.7-1.8,1.1c-0.8,0.4-1.6,0.5-2.6,0.5c-1.1,0-2.1-0.2-3-0.8
			c-0.9-0.5-1.5-1.3-2-2.2c-0.5-1-0.7-2.1-0.7-3.5c0-1.3,0.3-2.5,0.8-3.4c0.5-0.9,1.3-1.7,2.2-2.1c0.9-0.5,2-0.7,3.2-0.7
			c0.8,0,1.5,0.1,2.2,0.4c0.7,0.2,1.3,0.6,1.8,1.1V7.1H163.2 M156.3,25.7c0.5,0,0.9-0.1,1.3-0.2c0.4-0.1,0.7-0.3,1-0.6
			c0.3-0.3,0.6-0.6,0.8-1V21c-0.1-0.4-0.4-0.7-0.7-1c-0.3-0.3-0.7-0.5-1.1-0.7c-0.4-0.1-0.9-0.2-1.4-0.2c-0.6,0-1.1,0.1-1.6,0.4
			c-0.5,0.3-0.9,0.7-1.2,1.2c-0.3,0.5-0.4,1.1-0.4,1.7s0.1,1.2,0.4,1.7c0.3,0.5,0.7,0.9,1.2,1.2C155.2,25.5,155.7,25.7,156.3,25.7
			 M163.2,4.6h-3.8c-1.4,0-2.5,1.1-2.5,2.5v6.6c-0.5-0.1-0.9-0.1-1.4-0.1c-1.6,0-3,0.3-4.3,1c-1.4,0.7-2.5,1.8-3.2,3.1
			c-0.8,1.3-1.1,2.9-1.1,4.7c0,1.7,0.3,3.3,1,4.6c0.7,1.4,1.7,2.5,3,3.3c1.2,0.7,2.7,1.1,4.2,1.1c1.2,0,2.3-0.2,3.3-0.6
			c0.3,0.2,0.7,0.3,1.1,0.3h3.8c1.4,0,2.5-1.1,2.5-2.5V7.1C165.7,5.8,164.6,4.6,163.2,4.6L163.2,4.6z M156.3,23.2
			c-0.1,0-0.2,0-0.3-0.1c-0.1-0.1-0.2-0.1-0.2-0.3c-0.1-0.1-0.1-0.3-0.1-0.5c0-0.2,0-0.3,0.1-0.4c0.1-0.1,0.2-0.2,0.3-0.3
			c0.1,0,0.1-0.1,0.3-0.1c0.2,0,0.4,0,0.6,0.1c0,0,0.1,0,0.1,0V23c0,0-0.1,0-0.1,0.1C156.7,23.1,156.5,23.2,156.3,23.2L156.3,23.2z"
			/>
	</g>
	<g class="st1">
		<path class="st4" d="M172.1,30.1c-1.3,0-2.5-0.3-3.5-0.8c-1.1-0.6-2-1.4-2.7-2.6c-0.6-1.1-1-2.5-1-4.1c0-1.5,0.3-2.9,1-4.1
			c0.7-1.2,1.5-2.1,2.6-2.7c1.1-0.6,2.2-1,3.5-1c1.4,0,2.5,0.3,3.4,0.8c0.1,0,0.1,0.1,0.2,0.1c0.2-0.2,0.5-0.3,0.8-0.3h3.5
			c0.7,0,1.2,0.6,1.2,1.2v11.9c0,0.7-0.6,1.2-1.2,1.2h-3.8c-0.4,0-0.7-0.2-0.9-0.4c-0.2,0.1-0.5,0.2-0.7,0.3
			C173.8,30,173,30.1,172.1,30.1z M173.1,20.4c-0.3,0-0.6,0.1-0.9,0.2c-0.3,0.2-0.5,0.4-0.7,0.7c-0.2,0.3-0.2,0.7-0.2,1.1
			c0,0.4,0.1,0.8,0.3,1.1c0.2,0.3,0.4,0.5,0.7,0.7c0.3,0.2,0.6,0.3,0.9,0.3c0.3,0,0.6,0,0.8-0.1c0.2-0.1,0.4-0.2,0.5-0.3
			c0.1-0.1,0.2-0.3,0.3-0.4v-2.3c-0.1-0.1-0.2-0.3-0.3-0.3c-0.2-0.2-0.4-0.3-0.6-0.4C173.7,20.5,173.4,20.4,173.1,20.4z"/>
		<path class="st3" d="M172,16.1c1.2,0,2.1,0.2,2.7,0.6c0.6,0.4,1.1,0.8,1.4,1.2l0.2-1.2h3.5v11.9h-3.8v-1.5l0,0
			c-0.2,0.2-0.4,0.5-0.8,0.7c-0.4,0.3-0.8,0.5-1.3,0.7c-0.5,0.2-1.1,0.3-1.8,0.3c-1.1,0-2.1-0.2-3-0.7c-0.9-0.4-1.6-1.1-2.1-2.1
			c-0.5-0.9-0.8-2.1-0.8-3.5c0-1.3,0.3-2.5,0.8-3.5c0.5-1,1.3-1.7,2.1-2.3C170.1,16.4,171,16.1,172,16.1 M173.2,25.8
			c0.5,0,0.9-0.1,1.2-0.2c0.4-0.1,0.7-0.3,0.9-0.6c0.3-0.3,0.5-0.6,0.7-1v-2.9c-0.1-0.4-0.4-0.7-0.7-1c-0.3-0.3-0.6-0.5-1-0.7
			c-0.4-0.2-0.8-0.2-1.3-0.2c-0.5,0-1,0.1-1.5,0.4c-0.5,0.3-0.8,0.7-1.1,1.2c-0.3,0.5-0.4,1.1-0.4,1.7c0,0.6,0.1,1.2,0.4,1.7
			c0.3,0.5,0.7,0.9,1.2,1.2C172.1,25.6,172.7,25.8,173.2,25.8 M172,13.6c-1.4,0-2.8,0.4-4.1,1.2c-1.3,0.7-2.3,1.8-3,3.2
			c-0.8,1.4-1.1,2.9-1.1,4.7c0,1.9,0.4,3.5,1.1,4.8c0.8,1.3,1.8,2.4,3.2,3c1.2,0.6,2.6,0.9,4.1,0.9c1,0,2-0.2,2.8-0.5
			c0.1,0,0.1,0,0.2-0.1c0.3,0.1,0.7,0.2,1.1,0.2h3.8c1.4,0,2.5-1.1,2.5-2.5V16.7c0-1.4-1.1-2.5-2.5-2.5h-3.5c-0.3,0-0.5,0-0.8,0.1
			C174.6,13.8,173.4,13.6,172,13.6L172,13.6z M173.2,23.3c-0.1,0-0.2,0-0.3-0.1c-0.1-0.1-0.2-0.1-0.3-0.3c0-0.1-0.1-0.2-0.1-0.5
			c0-0.1,0-0.3,0.1-0.5c0.1-0.1,0.1-0.2,0.2-0.2c0.1,0,0.1-0.1,0.2-0.1c0.3,0,0.4,0,0.4,0c0,0,0.1,0,0.1,0.1v1.4c0,0,0,0,0,0
			C173.5,23.3,173.4,23.3,173.2,23.3L173.2,23.3z"/>
	</g>
	<g class="st1">
		<path class="st4" d="M195.5,18.4c0,0-0.1,0.1-0.1,0.1l0.1,0C195.5,18.5,195.5,18.5,195.5,18.4z"/>
		<path class="st3" d="M195.5,18.4c0,0,0,0.1,0,0.1l-0.1,0C195.4,18.5,195.4,18.5,195.5,18.4 M195.5,15.9c-0.8,0-1.5,0.4-2,1
			l-0.1,0.1c-0.6,0.8-0.7,1.9-0.1,2.8c0.5,0.8,1.3,1.2,2.1,1.2c0.1,0,0.3,0,0.4,0l0.1,0c0.7-0.1,1.3-0.5,1.7-1.1
			c0.4-0.6,0.5-1.3,0.3-2c0-0.1-0.1-0.2-0.1-0.3c-0.3-0.9-1.1-1.5-2-1.7C195.7,15.9,195.6,15.9,195.5,15.9L195.5,15.9z"/>
	</g>
	<g class="st1">
		<path class="st4" d="M199.5,29.8c-0.7,0-1.2-0.6-1.2-1.2v-7.3c0-0.3,0-0.5-0.1-0.6c-0.2,0-0.4,0.1-0.6,0.3
			c-0.3,0.3-0.5,0.6-0.6,1.1c-0.2,0.6-0.3,1.1-0.3,1.7v4.9c0,0.7-0.6,1.2-1.2,1.2h-3.8c-0.7,0-1.2-0.6-1.2-1.2v-7.3
			c0-0.3,0-0.5-0.1-0.6c0,0,0,0,0,0c-0.2,0-0.4,0.1-0.5,0.3c-0.3,0.3-0.5,0.7-0.6,1.1c-0.2,0.5-0.3,1.1-0.3,1.6v4.9
			c0,0.7-0.6,1.2-1.2,1.2h-3.8c-0.7,0-1.2-0.6-1.2-1.2V16.7c0-0.7,0.6-1.2,1.2-1.2h3.4c0.4,0,0.8,0.2,1,0.5c0.1-0.1,0.2-0.2,0.4-0.2
			c0.9-0.6,2-0.9,3.2-0.9c0.8,0,1.5,0.1,2.2,0.3c0.7,0.2,1.2,0.6,1.7,1.1c0,0,0,0,0,0c0.3-0.2,0.5-0.4,0.8-0.6
			c0.9-0.6,1.9-0.9,2.9-0.9c1.5,0,2.7,0.5,3.7,1.3c0.9,0.9,1.4,2,1.5,3.4v8.9c0,0.7-0.6,1.2-1.2,1.2H199.5z"/>
		<path class="st3" d="M199.4,16.1c1.2,0,2.1,0.3,2.8,1c0.7,0.7,1.1,1.5,1.1,2.6v8.9h-3.8v-7.3c0-0.5-0.1-1-0.2-1.3
			c-0.1-0.3-0.5-0.5-1-0.6c-0.6,0-1.1,0.2-1.6,0.6c-0.4,0.4-0.7,1-0.9,1.6c-0.2,0.7-0.3,1.3-0.3,2v4.9h-3.8v-7.3
			c0-0.5-0.1-1-0.3-1.3c-0.2-0.3-0.5-0.5-1-0.6c-0.6,0-1.1,0.2-1.5,0.6c-0.4,0.4-0.7,1-0.9,1.6c-0.2,0.6-0.3,1.3-0.3,2v4.9h-3.8
			V16.7h3.4l0.3,1.9c0.5-0.8,1-1.4,1.7-1.8c0.7-0.4,1.5-0.7,2.5-0.7c0.7,0,1.2,0.1,1.7,0.3c0.5,0.2,0.9,0.5,1.3,0.8
			c0.3,0.3,0.6,0.7,0.7,1.3c0,0-0.1,0.1-0.1,0.1l0.1,0c0,0,0-0.1,0-0.1c0.5-0.7,1.1-1.2,1.7-1.7C197.9,16.3,198.6,16.1,199.4,16.1
			 M199.4,13.6c-1.3,0-2.5,0.4-3.6,1.1c0,0-0.1,0-0.1,0.1c-0.4-0.3-0.9-0.5-1.4-0.7c-0.8-0.3-1.6-0.4-2.6-0.4
			c-1.3,0-2.5,0.3-3.5,0.8c-0.3-0.2-0.7-0.2-1.1-0.2h-3.4c-1.4,0-2.5,1.1-2.5,2.5v11.9c0,1.4,1.1,2.5,2.5,2.5h3.8c0.8,0,1.6-0.4,2-1
			c0.5,0.6,1.2,1,2,1h3.8c0.8,0,1.6-0.4,2-1c0.5,0.6,1.2,1,2,1h3.8c1.4,0,2.5-1.1,2.5-2.5v-8.9c0,0,0,0,0-0.1c0-1.7-0.7-3.2-1.9-4.3
			C203.2,14.5,201.7,13.6,199.4,13.6L199.4,13.6z"/>
	</g>
</g>
<g class="st0">
	<g class="st1">
		<path class="st4" d="M74.6,29.2c-0.7,0-1.2-0.6-1.2-1.2V8c0-0.7,0.6-1.2,1.2-1.2h3.9c0.7,0,1.2,0.6,1.2,1.2v14.9h8.1
			c0.7,0,1.2,0.6,1.2,1.2V28c0,0.7-0.6,1.2-1.2,1.2H74.6z"/>
		<path class="st3" d="M78.5,8v16.2h9.4V28H74.6V8H78.5 M78.5,5.5h-3.9c-1.4,0-2.5,1.1-2.5,2.5v20c0,1.4,1.1,2.5,2.5,2.5h13.3
			c1.4,0,2.5-1.1,2.5-2.5v-3.8c0-1.4-1.1-2.5-2.5-2.5H81V8C81,6.6,79.9,5.5,78.5,5.5L78.5,5.5z"/>
	</g>
	<g class="st1">
		<path class="st4" d="M100.8,29.5c-1.8,0-3.4-0.3-4.8-0.8c-1.4-0.5-2.7-1.3-3.8-2.3c-1.1-1-1.9-2.2-2.4-3.5
			c-0.5-1.3-0.8-2.8-0.8-4.3c0-2,0.3-3.7,0.9-5.2c0.6-1.5,1.5-2.8,2.6-3.8c1.1-1,2.3-1.8,3.7-2.3c1.4-0.5,2.8-0.7,4.3-0.7
			c1.4,0,2.7,0.2,3.8,0.5c1.2,0.3,2.2,0.7,3,1.2c0.5,0.3,0.8,0.9,0.6,1.5l-1.3,3.7c-0.1,0.3-0.4,0.6-0.7,0.8
			c-0.1,0.1-0.3,0.1-0.4,0.1c-0.2,0-0.4-0.1-0.6-0.2c-0.2-0.1-0.5-0.3-1.1-0.5c-0.5-0.2-1-0.3-1.5-0.4c-0.5-0.1-0.9-0.1-1.2-0.1
			c-1,0-1.8,0.1-2.5,0.3c-0.7,0.2-1.2,0.5-1.6,0.9c-0.4,0.4-0.8,0.9-1,1.5c-0.2,0.7-0.4,1.5-0.4,2.4c0,0.8,0.1,1.5,0.4,2
			c0.3,0.6,0.6,1.1,1.1,1.5c0.5,0.4,1,0.7,1.7,0.9c0.7,0.2,1.4,0.3,2.3,0.3c0.5,0,0.9,0,1.3-0.1c0.1,0,0.1,0,0.2,0v-0.3h-2.2
			c-0.7,0-1.2-0.6-1.2-1.2v-3.8c0-0.7,0.6-1.2,1.2-1.2h7.4c0.7,0,1.2,0.6,1.2,1.2V26c0,0.3-0.1,0.6-0.3,0.8c-0.3,0.4-0.8,0.7-1.5,1
			c-0.6,0.3-1.2,0.6-1.9,0.8c-0.7,0.2-1.4,0.4-2.2,0.6C102.2,29.4,101.5,29.5,100.8,29.5z"/>
		<path class="st3" d="M100.5,7.8c1.3,0,2.5,0.1,3.5,0.4c1.1,0.3,2,0.6,2.7,1l-1.3,3.7c-0.3-0.2-0.8-0.4-1.3-0.5
			c-0.5-0.2-1.1-0.3-1.7-0.4c-0.6-0.1-1.1-0.2-1.5-0.2c-1.1,0-2,0.1-2.9,0.4c-0.8,0.3-1.5,0.7-2.1,1.2c-0.6,0.5-1,1.2-1.3,2
			c-0.3,0.8-0.4,1.7-0.4,2.8c0,0.9,0.2,1.8,0.5,2.5c0.3,0.8,0.8,1.4,1.4,1.9c0.6,0.5,1.3,0.9,2.1,1.2c0.8,0.3,1.7,0.4,2.7,0.4
			c0.6,0,1.1,0,1.5-0.1c0.5-0.1,0.9-0.2,1.2-0.4v-2.4h-3.4v-3.8h7.4V26c-0.2,0.3-0.6,0.5-1.1,0.8c-0.5,0.3-1.1,0.5-1.7,0.7
			c-0.7,0.2-1.3,0.4-2,0.5c-0.7,0.1-1.3,0.2-2,0.2c-1.6,0-3.1-0.2-4.4-0.7c-1.3-0.5-2.4-1.1-3.3-2c-0.9-0.9-1.6-1.9-2.1-3.1
			c-0.5-1.2-0.7-2.5-0.7-3.9c0-1.8,0.3-3.4,0.8-4.8c0.6-1.3,1.3-2.5,2.3-3.4c1-0.9,2-1.6,3.3-2C97.8,8,99.1,7.8,100.5,7.8
			 M100.5,5.3c-1.6,0-3.2,0.3-4.7,0.8c-1.6,0.5-3,1.4-4.2,2.5c-1.2,1.1-2.2,2.6-2.9,4.2c-0.7,1.6-1,3.6-1,5.7c0,1.7,0.3,3.3,0.9,4.8
			c0.6,1.5,1.5,2.8,2.7,3.9c1.2,1.1,2.6,1.9,4.2,2.5c1.6,0.6,3.3,0.9,5.3,0.9c0.8,0,1.6-0.1,2.4-0.3c0.8-0.2,1.6-0.4,2.3-0.6
			c0.8-0.3,1.5-0.6,2.1-0.9c0.8-0.4,1.4-0.8,1.8-1.3c0.4-0.5,0.7-1.1,0.7-1.7v-8.4c0-1.4-1.1-2.5-2.5-2.5h-0.9
			c0.5-0.3,0.8-0.8,1-1.3l1.3-3.7c0.4-1.1-0.1-2.4-1.1-3c-0.9-0.5-2-0.9-3.3-1.3C103.4,5.5,102,5.3,100.5,5.3L100.5,5.3z M97.7,20.7
			c-0.3-0.3-0.5-0.6-0.6-0.9c-0.2-0.4-0.3-1-0.3-1.5c0-0.8,0.1-1.4,0.3-2c0.2-0.4,0.4-0.8,0.7-1.1c0.3-0.3,0.7-0.5,1.2-0.7
			c0.6-0.2,1.3-0.3,2.1-0.3c0.2,0,0.5,0,1,0.1c0.5,0.1,0.9,0.2,1.4,0.4c0.4,0.1,0.6,0.2,0.7,0.3h-3.9c-1.4,0-2.5,1.1-2.5,2.5V20.7
			L97.7,20.7z"/>
	</g>
	<g class="st1">
		<path class="st4" d="M112.1,29.2c-0.7,0-1.2-0.6-1.2-1.2V8c0-0.7,0.6-1.2,1.2-1.2h5.9c2.3,0,4.2,0.5,5.7,1.5
			c1.6,1.1,2.4,2.7,2.4,4.8c0,1.5-0.4,2.8-1.1,3.8c-0.1,0.2-0.2,0.3-0.4,0.4c0.4,0.3,0.7,0.6,1,1c0.9,1.1,1.4,2.4,1.4,3.8
			c0,1.3-0.2,2.4-0.7,3.3c-0.5,0.9-1.2,1.7-2,2.3c-0.8,0.5-1.6,0.9-2.6,1.2c-0.9,0.2-1.9,0.3-2.9,0.3H112.1z M118.6,23.1
			c0.4,0,0.8-0.1,1.2-0.2c0.2-0.1,0.4-0.2,0.5-0.3c0.1-0.1,0.1-0.2,0.1-0.5c0-0.3-0.1-0.4-0.1-0.4c-0.2-0.2-0.4-0.3-0.7-0.3
			c-0.4-0.1-0.9-0.2-1.4-0.2h-1v1.8H118.6z M118.4,14.9c0.6,0,0.7-0.2,0.7-0.2c0.2-0.2,0.3-0.5,0.3-0.8c0-0.4-0.1-0.5-0.2-0.6
			c-0.2-0.2-0.6-0.3-1.1-0.3h-0.9v1.9H118.4z"/>
		<path class="st3" d="M118,8c2.1,0,3.7,0.4,5,1.3c1.2,0.8,1.8,2.1,1.8,3.8c0,1.2-0.3,2.2-0.9,3.1c-0.4,0.5-0.9,1-1.5,1.3
			c0.9,0.4,1.7,0.9,2.2,1.6c0.7,0.8,1.1,1.8,1.1,3c0,1.1-0.2,2-0.6,2.8c-0.4,0.7-0.9,1.4-1.6,1.8c-0.7,0.5-1.4,0.8-2.2,1
			c-0.8,0.2-1.7,0.3-2.6,0.3h-6.6V8H118 M116,16.2h2.4c0.8,0,1.3-0.2,1.7-0.7c0.4-0.5,0.6-1,0.6-1.6c0-0.7-0.2-1.2-0.7-1.5
			c-0.5-0.3-1.1-0.5-1.9-0.5H116V16.2 M116,24.3h2.5c0.6,0,1.1-0.1,1.6-0.2c0.5-0.2,0.8-0.4,1.1-0.7c0.3-0.3,0.4-0.8,0.4-1.3
			c0-0.6-0.2-1-0.5-1.3c-0.3-0.3-0.7-0.5-1.3-0.6c-0.5-0.1-1.1-0.2-1.6-0.2H116V24.3 M118,5.5h-5.9c-1.4,0-2.5,1.1-2.5,2.5v20
			c0,1.4,1.1,2.5,2.5,2.5h6.6c1.1,0,2.2-0.1,3.2-0.4c1.2-0.3,2.2-0.8,3.1-1.4c1-0.7,1.8-1.6,2.3-2.7c0.6-1.1,0.9-2.4,0.9-3.9
			c0-1.8-0.6-3.4-1.7-4.7c-0.1-0.1-0.2-0.2-0.3-0.3c0.7-1.2,1.1-2.5,1.1-4.1c0-2.5-1-4.5-2.9-5.8C122.7,6.1,120.5,5.5,118,5.5
			L118,5.5z"/>
	</g>
	<g class="st1">
		<path class="st4" d="M133,29.2c-0.7,0-1.2-0.6-1.2-1.2V13.1h-3.4c-0.7,0-1.2-0.6-1.2-1.2V8c0-0.7,0.6-1.2,1.2-1.2h13.5
			c0.7,0,1.2,0.6,1.2,1.2v3.8c0,0.7-0.6,1.2-1.2,1.2h-3.6V28c0,0.7-0.6,1.2-1.2,1.2H133z"/>
		<path class="st3" d="M141.8,8v3.8h-4.9V28H133V11.8h-4.7V8H141.8 M141.8,5.5h-13.5c-1.4,0-2.5,1.1-2.5,2.5v3.8
			c0,1.4,1.1,2.5,2.5,2.5h2.2V28c0,1.4,1.1,2.5,2.5,2.5h3.9c1.4,0,2.5-1.1,2.5-2.5V14.3h2.4c1.4,0,2.5-1.1,2.5-2.5V8
			C144.3,6.6,143.1,5.5,141.8,5.5L141.8,5.5z"/>
	</g>
	<g class="st1">
		<path class="st4" d="M153.8,29.4c-1.6,0-3.1-0.3-4.4-0.9c-1.4-0.6-2.6-1.4-3.6-2.4c-1.1-1.1-1.9-2.3-2.5-3.6
			c-0.6-1.4-0.9-2.9-0.9-4.5c0-1.5,0.3-3,0.9-4.4c0.6-1.3,1.4-2.6,2.4-3.7c1.1-1.1,2.3-1.9,3.6-2.5c1.4-0.6,2.9-0.9,4.5-0.9
			c1.6,0,3.1,0.3,4.4,0.9c1.4,0.6,2.6,1.4,3.7,2.5c1.1,1.1,1.9,2.3,2.5,3.7c0.6,1.4,0.9,2.8,0.9,4.4c0,1.6-0.3,3.1-0.9,4.5
			c-0.1,0.1-0.1,0.3-0.2,0.4h1c0.7,0,1.2,0.6,1.2,1.2V28c0,0.7-0.6,1.2-1.2,1.2h-9.1C155.4,29.4,154.6,29.4,153.8,29.4z M153.9,13
			c-0.7,0-1.3,0.1-1.9,0.4c-0.6,0.3-1.1,0.6-1.6,1.1c-0.4,0.5-0.8,1-1,1.6c-0.2,0.6-0.4,1.3-0.4,2c0,0.7,0.1,1.4,0.4,2
			c0.2,0.6,0.6,1.2,1.1,1.6c0.4,0.5,1,0.8,1.6,1.1c0.6,0.3,1.2,0.4,2,0.4c0.7,0,1.3-0.1,1.9-0.4c0.6-0.3,1.1-0.6,1.5-1.1
			c0.4-0.4,0.8-1,1-1.6c0.3-0.6,0.4-1.3,0.4-2c0-0.7-0.1-1.4-0.4-2c-0.3-0.6-0.6-1.2-1.1-1.6c-0.4-0.5-0.9-0.8-1.5-1.1
			C155.2,13.1,154.5,13,153.9,13z"/>
		<path class="st3" d="M153.8,7.8c1.4,0,2.7,0.3,3.9,0.8c1.2,0.5,2.3,1.3,3.3,2.2c0.9,0.9,1.7,2,2.2,3.3c0.5,1.2,0.8,2.5,0.8,3.9
			c0,1.4-0.3,2.7-0.8,4c-0.3,0.8-0.7,1.5-1.3,2.1h3.2V28H156c-0.7,0.1-1.4,0.2-2.1,0.2c-1.4,0-2.7-0.3-4-0.8
			c-1.2-0.5-2.3-1.3-3.2-2.2c-0.9-0.9-1.7-2-2.2-3.2c-0.5-1.2-0.8-2.6-0.8-4c0-1.4,0.3-2.7,0.8-3.9c0.5-1.2,1.3-2.3,2.2-3.3
			c0.9-0.9,2-1.7,3.2-2.2C151.1,8.1,152.4,7.8,153.8,7.8 M154,24.4c0.9,0,1.7-0.2,2.4-0.5c0.7-0.3,1.4-0.8,1.9-1.4
			c0.5-0.6,1-1.3,1.3-2c0.3-0.8,0.5-1.6,0.5-2.5c0-0.9-0.2-1.7-0.5-2.5c-0.3-0.8-0.7-1.4-1.3-2c-0.6-0.6-1.2-1-1.9-1.4
			c-0.7-0.3-1.5-0.5-2.4-0.5c-0.9,0-1.7,0.2-2.4,0.5c-0.7,0.3-1.4,0.8-2,1.4c-0.6,0.6-1,1.3-1.3,2c-0.3,0.8-0.5,1.6-0.5,2.5
			c0,0.9,0.2,1.7,0.5,2.5c0.3,0.8,0.8,1.4,1.3,2s1.2,1,2,1.4C152.3,24.2,153.1,24.4,154,24.4 M153.8,5.3c-1.7,0-3.4,0.3-5,1
			c-1.5,0.7-2.9,1.6-4,2.8c-1.2,1.2-2.1,2.6-2.7,4.1c-0.7,1.6-1,3.2-1,4.9c0,1.7,0.3,3.4,1,4.9c0.6,1.5,1.5,2.8,2.7,4
			c1.2,1.2,2.5,2.1,4,2.7c1.6,0.7,3.2,1,4.9,1c0.8,0,1.6-0.1,2.4-0.2h9c1.4,0,2.5-1.1,2.5-2.5v-3.9c0-1.1-0.7-2-1.7-2.4
			c0.4-1.2,0.6-2.4,0.6-3.7c0-1.7-0.3-3.4-1-4.9c-0.6-1.5-1.6-2.9-2.7-4c-1.2-1.2-2.5-2.1-4-2.8C157.2,5.6,155.6,5.3,153.8,5.3
			L153.8,5.3z M154,21.9c-0.5,0-1-0.1-1.5-0.3c-0.5-0.2-0.8-0.5-1.2-0.8c-0.4-0.4-0.6-0.8-0.8-1.3c-0.2-0.5-0.3-1-0.3-1.5
			c0-0.5,0.1-1.1,0.3-1.5c0.2-0.4,0.4-0.9,0.8-1.2c0.3-0.3,0.7-0.6,1.2-0.8c0.4-0.2,0.9-0.3,1.4-0.3c0.5,0,1,0.1,1.4,0.3
			c0.4,0.2,0.8,0.4,1.1,0.8c0.3,0.3,0.6,0.8,0.8,1.2c0.2,0.5,0.3,1,0.3,1.5c0,0.6-0.1,1.1-0.3,1.5c-0.2,0.5-0.5,0.9-0.8,1.3
			c-0.3,0.3-0.7,0.6-1.1,0.8C154.9,21.8,154.5,21.9,154,21.9L154,21.9z"/>
	</g>
	<g class="st1">
		<path class="st4" d="M172.2,27.8c-0.7,0-1.2-0.6-1.2-1.2v-2.1h-2c-0.7,0-1.2-0.6-1.2-1.2V20c0-0.7,0.6-1.2,1.2-1.2h2v-2.1
			c0-0.7,0.6-1.2,1.2-1.2h3.4c0.7,0,1.2,0.6,1.2,1.2v2.1h2c0.7,0,1.2,0.6,1.2,1.2v3.3c0,0.7-0.6,1.2-1.2,1.2h-2v2.1
			c0,0.7-0.6,1.2-1.2,1.2H172.2z"/>
		<path class="st3" d="M175.6,16.6V20h3.3v3.3h-3.3v3.3h-3.4v-3.3h-3.3V20h3.3v-3.4H175.6 M175.6,14.1h-3.4c-1.4,0-2.5,1.1-2.5,2.5
			v0.9h-0.8c-1.4,0-2.5,1.1-2.5,2.5v3.3c0,1.4,1.1,2.5,2.5,2.5h0.8v0.8c0,1.4,1.1,2.5,2.5,2.5h3.4c1.4,0,2.5-1.1,2.5-2.5v-0.8h0.8
			c1.4,0,2.5-1.1,2.5-2.5V20c0-1.4-1.1-2.5-2.5-2.5h-0.8v-0.9C178.1,15.2,177,14.1,175.6,14.1L175.6,14.1z"/>
	</g>
</g>
</svg>
